<?xml version="1.0" encoding="utf-8"?>
<!-- Generator: Adobe Illustrator 19.0.0, SVG Export Plug-In . SVG Version: 6.00 Build 0)  -->
<svg version="1.1" xmlns="http://www.w3.org/2000/svg" xmlns:xlink="http://www.w3.org/1999/xlink" x="0px" y="0px"
	 viewBox="0.5 181 594.8 480.2" style="enable-background:new 0.5 181 594.8 480.2;" xml:space="preserve">
<style type="text/css">
	.st0{fill:#FFFFFF;}
	.st1{fill:#E6AD02;}
	.st2{fill:url(#SVGID_1_);}
</style>
<g id="Layer_1" xmlns:serif="http://www.serif.com/">
	<g id="nexushub-logo-typeface-v-color">
		<g transform="matrix(11.9313,0,0,11.9313,-19761.3,-9324.31)">
			<path class="st0" d="M1656.3,836.8h1.7v-2.8l-0.2-1.3l0,0l0.6,1.4l1.6,2.7h1.8v-6.9h-1.7v3.1c0,0,0.2,1.2,0.2,1.2l0,0l-0.6-1.4
				l-1.7-2.9h-1.7L1656.3,836.8L1656.3,836.8z"/>
			<path class="st0" d="M1664.6,831.5h3v-1.6h-4.8v6.9h4.8v-1.6h-3v-1h2.8v-1.5h-2.8V831.5z"/>
			<path class="st0" d="M1671.2,832.3l-1.2-2.4h-2l1.9,3.5l-1.9,3.4h2l1.2-2.3l1.2,2.3h2l-1.9-3.4l1.9-3.5h-2L1671.2,832.3z"/>
			<path class="st0" d="M1676.7,829.9h-1.8v4.6c0,3.2,5.5,3.2,5.5,0v-4.6h-1.8v4.6c0,1.1-2,1.1-2,0V829.9z"/>
			<path class="st0" d="M1681.1,835.7c0.6,0.8,1.5,1.2,2.3,1.2c1.3,0,2.7-0.7,2.7-2.1c0.1-1.7-1.1-2.1-2.4-2.3
				c-0.5-0.1-0.9-0.3-0.9-0.6c0-0.8,1.3-0.8,2-0.1l1.1-0.9c-0.7-0.9-1.5-1.1-2.4-1.1c-1.3,0-2.5,0.7-2.5,2.1c0,1.3,1,2,2.1,2.2
				c0.6,0.1,1.2,0.3,1.2,0.7c0,0.7-1.6,0.7-2.3-0.1L1681.1,835.7L1681.1,835.7z"/>
			<path class="st1" d="M1689.5,834.2h2v2.6h1.8v-6.9h-1.8v2.6h-2v-2.6h-1.8v6.9h1.8V834.2z"/>
			<path class="st1" d="M1696.1,829.9h-1.8v4.6c0,3.2,5.5,3.2,5.5,0v-4.6h-1.8v4.6c0,1.1-2,1.1-2,0V829.9z"/>
			<path class="st1" d="M1705.9,832c0-1.3-0.9-2.1-2.2-2.1h-2.8v6.9h2.8c1.5,0,2.3-0.7,2.5-1.8c0.1-0.5,0-1.4-1-1.9
				C1705.7,832.9,1705.9,832.3,1705.9,832L1705.9,832z M1702.6,832.6v-1.2h1c0.9,0,0.8,1.2,0,1.2H1702.6z M1702.6,835.3v-1.4h1
				c1,0,1.1,1.4,0,1.4H1702.6z"/>
		</g>
	</g>
</g>
<g id="Layer_2">
	
		<linearGradient id="SVGID_1_" gradientUnits="userSpaceOnUse" x1="-7.7795" y1="819.7358" x2="-5.2788" y2="819.7358" gradientTransform="matrix(87.2837 72.5289 83.8048 -80.6317 -67829.4453 66911.1172)">
		<stop  offset="0" style="stop-color:#E6AD02"/>
		<stop  offset="9.768728e-002" style="stop-color:#DCAE0D"/>
		<stop  offset="0.2711" style="stop-color:#C0B02B"/>
		<stop  offset="0.4982" style="stop-color:#94B45C"/>
		<stop  offset="0.665" style="stop-color:#70B784"/>
		<stop  offset="0.7196" style="stop-color:#64B891"/>
		<stop  offset="0.8213" style="stop-color:#44BBB4"/>
		<stop  offset="0.958" style="stop-color:#11BFEC"/>
		<stop  offset="1" style="stop-color:#00C0FF"/>
	</linearGradient>
	<path class="st2" d="M437.2,252.6c-6.5-45.8-49-77.3-94.8-70.8l-132.3,19.3c-45.8,6.8-77.5,49-70.8,94.8l19.3,132.3
		c6.5,45.8,49,77.3,94.8,70.8l132.3-19.3c45.8-6.5,77.3-49,70.8-94.8C456.2,385.2,437.2,252.6,437.2,252.6z"/>
	<path class="st0" d="M222.9,302.9L222.9,302.9c0,0,44.3,4.8,76.8,14.5c1.3,0.3-43.5,24.3-43.5,24.3l-17.5-14.5 M222.9,302.9
		c0,0-0.3,69-0.3,85c0,7.3,4.8,11,13.5,16.8c14.3,8.8,32.3,19.3,71.5,43c5.8,3,10,0.3,10,0.3L222.9,302.9z M355.9,358.1l-79-120.8
		c0,0,4.3-2.8,10,0.3c39.3,23.8,57.3,34.3,71.5,43c8.8,5.8,13.5,9.5,13.5,16.8c0,16.3-0.3,85-0.3,85l0,0l0,0c0,0-44.3-4.8-76.8-14.5
		c-1.3-0.3,43.5-24.3,43.5-24.3L355.9,358.1z"/>
</g>
</svg>
