<?xml version="1.0" encoding="UTF-8" standalone="no"?><!DOCTYPE svg PUBLIC "-//W3C//DTD SVG 1.1//EN" "http://www.w3.org/Graphics/SVG/1.1/DTD/svg11.dtd"><svg width="100%" height="100%" viewBox="0 0 330 330" version="1.1" xmlns="http://www.w3.org/2000/svg" xmlns:xlink="http://www.w3.org/1999/xlink" xml:space="preserve" xmlns:serif="http://www.serif.com/" style="fill-rule:evenodd;clip-rule:evenodd;stroke-linejoin:round;stroke-miterlimit:1.41421;"><g id="nexushub-logo-bw"><path d="M308.875,73.921c-6.833,-47.105 -50.625,-79.8 -97.73,-72.967l-136.63,19.821c-47.105,6.834 -79.801,50.625 -72.967,97.73l19.821,136.631c6.833,47.105 50.625,79.8 97.729,72.967l136.631,-19.821c47.105,-6.834 79.801,-50.625 72.967,-97.73l-19.821,-136.631Zm-221.111,51.891l0,0c0,0 -0.179,71.098 -0.239,87.84c-0.027,7.43 4.869,11.361 13.967,17.26c14.837,9.063 33.265,19.999 73.831,44.449c5.984,3.059 10.434,0.215 10.434,0.215l-81.593,-124.7l-16.4,-25.064Zm137.272,56.993l-81.593,-124.7c0,0 4.45,-2.845 10.434,0.215c40.566,24.45 58.994,35.386 73.832,44.448c9.097,5.9 13.993,9.831 13.967,17.26c-0.061,16.743 -0.24,87.84 -0.24,87.84l0,0l0,0c0,0 -45.612,-4.939 -79.284,-14.995c-1.214,-0.363 44.878,-24.946 44.878,-24.946l18.006,14.878Zm-137.272,-56.993l16.4,25.064l18.006,14.877c0,0 46.092,-24.583 44.878,-24.945c-33.672,-10.057 -79.284,-14.996 -79.284,-14.996l0,0Z" style="fill:#fff;"/></g></svg>