<svg id="Group_7_copy_6" data-name="Group 7 copy 6" xmlns="http://www.w3.org/2000/svg" width="426.614" height="103.607" viewBox="0 0 426.614 103.607">
  <metadata><?xpacket begin="﻿" id="W5M0MpCehiHzreSzNTczkc9d"?>
<x:xmpmeta xmlns:x="adobe:ns:meta/" x:xmptk="Adobe XMP Core 5.6-c138 79.159824, 2016/09/14-01:09:01        ">
   <rdf:RDF xmlns:rdf="http://www.w3.org/1999/02/22-rdf-syntax-ns#">
      <rdf:Description rdf:about=""/>
   </rdf:RDF>
</x:xmpmeta>
                                                                                                    
                                                                                                    
                                                                                                    
                                                                                                    
                                                                                                    
                                                                                                    
                                                                                                    
                                                                                                    
                                                                                                    
                                                                                                    
                                                                                                    
                                                                                                    
                                                                                                    
                                                                                                    
                                                                                                    
                                                                                                    
                                                                                                    
                                                                                                    
                                                                                                    
                                                                                                    
                           
<?xpacket end="w"?></metadata>
<defs>
    <style>
      .cls-1 {
        fill: none;
        stroke: #171a20;
        stroke-width: 4.167px;
      }

      .cls-1, .cls-2 {
        fill-rule: evenodd;
      }

      .cls-2 {
        fill: #171a20;
      }
    </style>
  </defs>
  <g id="Group_9_copy" data-name="Group 9 copy">
    <path id="Forma_1_copy" data-name="Forma 1 copy" class="cls-1" d="M254.643,1905.72l-35.289,20.06a9.171,9.171,0,0,0-4.646,7.92l-0.254,40.54a9.179,9.179,0,0,0,4.547,7.98l35.035,20.49a9.2,9.2,0,0,0,9.193.06l35.292-20.05a9.184,9.184,0,0,0,4.647-7.92l0.253-40.55a9.178,9.178,0,0,0-4.546-7.98l-35.038-20.49A9.206,9.206,0,0,0,254.643,1905.72Z" transform="translate(-212.386 -1902.447)"/>
    <g>
      <path class="cls-2" d="M279.413,1966.39s0.169-19.2.213-23.72c0.02-2.01-1.295-3.08-3.743-4.69-3.992-2.47-8.951-5.45-19.866-12.13a2.935,2.935,0,0,0-2.818-.07" transform="translate(-212.386 -1902.447)"/>
      <path id="Rectangle_1_copy_2" data-name="Rectangle 1 copy 2" class="cls-2" d="M246.87,1954.29s11.978-6.29,11.664-6.38c-8.7-2.66-20.462-3.78-20.462-3.78l3.716,5.91Z" transform="translate(-212.386 -1902.447)"/>
      <path id="Rectangle_1_copy_3" data-name="Rectangle 1 copy 3" class="cls-2" d="M270.628,1956.21s-11.978,6.3-11.665,6.39c8.706,2.66,20.463,3.78,20.463,3.78l-3.716-5.91Z" transform="translate(-212.386 -1902.447)"/>
      <path id="Shape_1_copy_8" data-name="Shape 1 copy 8" class="cls-2" d="M238.085,1944.12s-0.169,19.2-.214,23.72c-0.02,2.01,1.3,3.08,3.743,4.69,3.992,2.47,8.951,5.45,19.867,12.13a2.932,2.932,0,0,0,2.817.07" transform="translate(-212.386 -1902.447)"/>
    </g>
  </g>
  <path id="NEXUS-STATS" class="cls-2" d="M330.317,1974.52v-29.68h0.53l9.012,29.68h12.034v-36.04h-7.316v29.68h-0.53l-8.694-29.68H323v36.04h7.316Zm52.746,0v-6.36H367.054v-8.64h12.828v-6.25H367.054v-8.43h16.009v-6.36H359.738v36.04h23.325Zm2.6-36.04,10.39,18.76-10.39,17.28h7.58l6.839-12.45,6.679,12.45h8.111l-10.39-17.65,10.39-18.39h-7.581l-6.838,13.25-6.68-13.25h-8.11Zm40.606,0H418.95v23.85q0,6.63,3.419,9.73t10.311,3.1q6.89,0,10.31-3.1t3.42-9.73v-23.85h-7.316v24.01q0,6.315-6.414,6.31t-6.414-6.31v-24.01Zm49.3,6.57,0.583-5.78-1.909-.37a59.536,59.536,0,0,0-9.966-1.06q-5.726,0-9.012,2.65c-2.192,1.77-3.287,4.45-3.287,8.06a8.823,8.823,0,0,0,2.518,6.7q2.517,2.415,8.668,4.17a18.561,18.561,0,0,1,5.168,2.06,3.109,3.109,0,0,1,1.3,2.65q0,4.665-5.619,4.67a87.7,87.7,0,0,1-10.867-.96l-0.742,5.68,1.908,0.37a49.985,49.985,0,0,0,10.125,1.27,13.447,13.447,0,0,0,9.012-2.92q3.446-2.91,3.445-8.58,0-4.455-2.12-6.6c-1.414-1.43-3.879-2.72-7.395-3.85a37.367,37.367,0,0,1-6.706-2.59,2.906,2.906,0,0,1-1.431-2.6q0-3.825,5.778-3.82,3.073,0,10.55.85h0Zm21.946,18.61v-6.47H481.82v6.47h15.692Zm27.565-18.61,0.584-5.78-1.909-.37a59.536,59.536,0,0,0-9.966-1.06q-5.725,0-9.012,2.65c-2.192,1.77-3.287,4.45-3.287,8.06a8.823,8.823,0,0,0,2.518,6.7q2.517,2.415,8.668,4.17a18.561,18.561,0,0,1,5.168,2.06,3.109,3.109,0,0,1,1.3,2.65q0,4.665-5.619,4.67a87.733,87.733,0,0,1-10.868-.96l-0.742,5.68,1.909,0.37a49.985,49.985,0,0,0,10.125,1.27,13.447,13.447,0,0,0,9.012-2.92q3.446-2.91,3.445-8.58,0-4.455-2.12-6.6c-1.414-1.43-3.879-2.72-7.4-3.85a37.334,37.334,0,0,1-6.706-2.59,2.906,2.906,0,0,1-1.431-2.6q0-3.825,5.778-3.82,3.073,0,10.549.85h0Zm13.624-.11v29.58h7.315v-29.58h9.542v-6.46h-26.5v6.46H538.7Zm23.8,29.58,1.431-6.52H576.55l1.432,6.52H585.3l-8.11-36.04H563.3l-8.111,36.04H562.5Zm9.011-30,3.658,17.12h-9.86l3.658-17.12h2.544Zm23.06,0.42v29.58h7.316v-29.58h9.542v-6.46H584.926v6.46h9.648Zm43.1,0.11,0.583-5.78-1.909-.37a59.536,59.536,0,0,0-9.966-1.06q-5.726,0-9.012,2.65c-2.191,1.77-3.286,4.45-3.286,8.06a8.823,8.823,0,0,0,2.518,6.7q2.517,2.415,8.667,4.17a18.571,18.571,0,0,1,5.169,2.06,3.11,3.11,0,0,1,1.3,2.65q0,4.665-5.619,4.67a87.72,87.72,0,0,1-10.867-.96l-0.742,5.68,1.908,0.37a50,50,0,0,0,10.125,1.27,13.445,13.445,0,0,0,9.012-2.92q3.445-2.91,3.446-8.58,0-4.455-2.12-6.6c-1.415-1.43-3.879-2.72-7.4-3.85a37.346,37.346,0,0,1-6.705-2.59,2.9,2.9,0,0,1-1.432-2.6q0-3.825,5.778-3.82,3.075,0,10.55.85h0Z" transform="translate(-212.386 -1902.447)"/>
</svg>
