<?xml version="1.0" encoding="UTF-8" standalone="no"?><!DOCTYPE svg PUBLIC "-//W3C//DTD SVG 1.1//EN" "http://www.w3.org/Graphics/SVG/1.1/DTD/svg11.dtd"><svg width="100%" height="100%" viewBox="0 0 734 593" version="1.1" xmlns="http://www.w3.org/2000/svg" xmlns:xlink="http://www.w3.org/1999/xlink" xml:space="preserve" xmlns:serif="http://www.serif.com/" style="fill-rule:evenodd;clip-rule:evenodd;stroke-linejoin:round;stroke-miterlimit:1.41421;"><g id="nexushub-logo-typeface-v-b"><g id="nexushub-logo-typeface-bw"><path d="M539.073,88.566c-8.166,-56.289 -60.495,-95.359 -116.784,-87.193l-163.268,23.686c-56.289,8.165 -95.358,60.494 -87.192,116.783l23.685,163.268c8.166,56.289 60.495,95.358 116.783,87.193l163.269,-23.686c56.288,-8.166 95.358,-60.494 87.192,-116.783l-23.685,-163.268Zm-264.219,62.008l0,0c0,0 -0.214,84.958 -0.287,104.965c-0.032,8.878 5.819,13.575 16.691,20.625c17.729,10.83 39.75,23.898 88.225,53.114c7.15,3.656 12.468,0.257 12.468,0.257l-97.5,-149.012l-19.597,-29.949Zm164.035,68.103l-97.501,-149.011c0,0 5.318,-3.399 12.468,0.257c48.475,29.216 70.496,42.284 88.226,53.114c10.871,7.049 16.722,11.747 16.69,20.625c-0.072,20.007 -0.287,104.965 -0.287,104.965l0,0l0,0c0,0 -54.504,-5.901 -94.741,-17.918c-1.451,-0.434 53.628,-29.81 53.628,-29.81l21.517,17.778Zm-164.035,-68.103l19.597,29.949l21.517,17.778c0,0 55.078,-29.375 53.627,-29.809c-40.237,-12.017 -94.741,-17.918 -94.741,-17.918l0,0Z" style="fill:#171a20;"/></g><g transform="matrix(11.9313,0,0,11.9313,-19761.3,-9324.4)"><path d="M1656.31,831.04l2.147,0l0,-3.395l-0.276,-1.644l0.06,-0.012l0.744,1.704l1.921,3.347l2.171,0l0,-8.495l-2.135,0l0,3.852c0.012,0 0.228,1.464 0.24,1.464l-0.06,0.012l-0.72,-1.704l-2.053,-3.624l-2.039,0l0,8.495Z" style="fill:#171a20;fill-rule:nonzero;"/><path d="M1666.59,824.56l3.744,0l0,-2.015l-5.915,0l0,8.495l5.915,0l0,-2.027l-3.744,0l0,-1.273l3.444,0l0,-1.859l-3.444,0l0,-1.321Z" style="fill:#171a20;fill-rule:nonzero;"/><path d="M1674.73,825.449l-1.452,-2.904l-2.508,0l2.388,4.26l-2.388,4.235l2.508,0l1.452,-2.892l1.487,2.892l2.496,0l-2.376,-4.235l2.376,-4.26l-2.496,0l-1.487,2.904Z" style="fill:#171a20;fill-rule:nonzero;"/><path d="M1681.47,822.545l-2.171,0l0,5.652c-0.012,3.983 6.767,3.983 6.779,0l0,-5.652l-2.171,0l0,5.652c-0.012,1.368 -2.437,1.368 -2.437,0l0,-5.652Z" style="fill:#171a20;fill-rule:nonzero;"/><path d="M1686.94,829.625c0.792,1.019 1.871,1.535 2.892,1.535c1.56,0 3.287,-0.899 3.359,-2.543c0.096,-2.088 -1.415,-2.617 -2.927,-2.893c-0.661,-0.144 -1.105,-0.384 -1.129,-0.792c0.036,-0.984 1.561,-1.02 2.449,-0.072l1.403,-1.08c-0.875,-1.067 -1.871,-1.355 -2.903,-1.355c-1.561,0 -3.072,0.876 -3.072,2.543c0,1.621 1.248,2.485 2.615,2.701c0.697,0.096 1.477,0.372 1.453,0.852c-0.06,0.912 -1.933,0.864 -2.784,-0.168l-1.356,1.272Z" style="fill:#171a20;fill-rule:nonzero;"/><path d="M1697.3,827.836l2.449,0l0,3.204l2.159,0l0,-8.495l-2.159,0l0,3.216l-2.449,0l0,-3.216l-2.159,0l0,8.495l2.159,0l0,-3.204Z" style="fill:#171a20;fill-rule:nonzero;"/><path d="M1705.38,822.545l-2.171,0l0,5.652c-0.012,3.983 6.767,3.983 6.779,0l0,-5.652l-2.171,0l0,5.652c-0.012,1.368 -2.437,1.368 -2.437,0l0,-5.652Z" style="fill:#171a20;fill-rule:nonzero;"/><path d="M1717.43,825.137c0.048,-1.62 -1.14,-2.592 -2.76,-2.592l-3.408,0l0,8.496l3.468,0c1.883,-0.001 2.807,-0.828 3.023,-2.196c0.108,-0.648 -0.036,-1.741 -1.2,-2.328c0.612,-0.312 0.864,-0.996 0.876,-1.38l0.001,0Zm-4.009,0.732l0,-1.513l1.249,0c1.08,0 1.044,1.513 0,1.513l-1.249,0Zm0,3.288l0,-1.741l1.249,0c1.272,0 1.296,1.741 0,1.741l-1.249,0Z" style="fill:#171a20;fill-rule:nonzero;"/></g></g></svg>