<?xml version="1.0" encoding="UTF-8" standalone="no"?><!DOCTYPE svg PUBLIC "-//W3C//DTD SVG 1.1//EN" "http://www.w3.org/Graphics/SVG/1.1/DTD/svg11.dtd"><svg width="100%" height="100%" viewBox="0 0 1578 330" version="1.1" xmlns="http://www.w3.org/2000/svg" xmlns:xlink="http://www.w3.org/1999/xlink" xml:space="preserve" xmlns:serif="http://www.serif.com/" style="fill-rule:evenodd;clip-rule:evenodd;stroke-linejoin:round;stroke-miterlimit:1.41421;"><g id="nexushub-logo-typeface-bw"><g id="nexushub-logo-bw"><path d="M308.875,73.921c-6.833,-47.105 -50.625,-79.8 -97.73,-72.967l-136.63,19.821c-47.105,6.834 -79.801,50.625 -72.967,97.73l19.821,136.631c6.833,47.105 50.625,79.8 97.729,72.967l136.631,-19.821c47.105,-6.834 79.801,-50.625 72.967,-97.73l-19.821,-136.631Zm-221.111,51.891l0,0c0,0 -0.179,71.098 -0.239,87.84c-0.027,7.43 4.869,11.361 13.967,17.26c14.837,9.063 33.265,19.999 73.831,44.449c5.984,3.059 10.434,0.215 10.434,0.215l-81.593,-124.7l-16.4,-25.064Zm137.272,56.993l-81.593,-124.7c0,0 4.45,-2.845 10.434,0.215c40.566,24.45 58.994,35.386 73.832,44.448c9.097,5.9 13.993,9.831 13.967,17.26c-0.061,16.743 -0.24,87.84 -0.24,87.84l0,0l0,0c0,0 -45.612,-4.939 -79.284,-14.995c-1.214,-0.363 44.878,-24.946 44.878,-24.946l18.006,14.878Zm-137.272,-56.993l16.4,25.064l18.006,14.877c0,0 46.092,-24.583 44.878,-24.945c-33.672,-10.057 -79.284,-14.996 -79.284,-14.996l0,0Z" style="fill:#fff;"/></g><g transform="matrix(18.9698,0,0,18.9698,-31008.8,-15520.6)"><path d="M1656.31,831.04l2.147,0l0,-3.395l-0.276,-1.644l0.06,-0.012l0.744,1.704l1.921,3.347l2.171,0l0,-8.495l-2.135,0l0,3.852c0.012,0 0.228,1.464 0.24,1.464l-0.06,0.012l-0.72,-1.704l-2.053,-3.624l-2.039,0l0,8.495Z" style="fill:#fff;fill-rule:nonzero;"/><path d="M1666.59,824.56l3.744,0l0,-2.015l-5.915,0l0,8.495l5.915,0l0,-2.027l-3.744,0l0,-1.273l3.444,0l0,-1.859l-3.444,0l0,-1.321Z" style="fill:#fff;fill-rule:nonzero;"/><path d="M1674.73,825.449l-1.452,-2.904l-2.508,0l2.388,4.26l-2.388,4.235l2.508,0l1.452,-2.892l1.487,2.892l2.496,0l-2.376,-4.235l2.376,-4.26l-2.496,0l-1.487,2.904Z" style="fill:#fff;fill-rule:nonzero;"/><path d="M1681.47,822.545l-2.171,0l0,5.652c-0.012,3.983 6.767,3.983 6.779,0l0,-5.652l-2.171,0l0,5.652c-0.012,1.368 -2.437,1.368 -2.437,0l0,-5.652Z" style="fill:#fff;fill-rule:nonzero;"/><path d="M1686.94,829.625c0.792,1.019 1.871,1.535 2.892,1.535c1.56,0 3.287,-0.899 3.359,-2.543c0.096,-2.088 -1.415,-2.617 -2.927,-2.893c-0.661,-0.144 -1.105,-0.384 -1.129,-0.792c0.036,-0.984 1.561,-1.02 2.449,-0.072l1.403,-1.08c-0.875,-1.067 -1.871,-1.355 -2.903,-1.355c-1.561,0 -3.072,0.876 -3.072,2.543c0,1.621 1.248,2.485 2.615,2.701c0.697,0.096 1.477,0.372 1.453,0.852c-0.06,0.912 -1.933,0.864 -2.784,-0.168l-1.356,1.272Z" style="fill:#fff;fill-rule:nonzero;"/><path d="M1697.3,827.836l2.449,0l0,3.204l2.159,0l0,-8.495l-2.159,0l0,3.216l-2.449,0l0,-3.216l-2.159,0l0,8.495l2.159,0l0,-3.204Z" style="fill:#fff;fill-rule:nonzero;"/><path d="M1705.38,822.545l-2.171,0l0,5.652c-0.012,3.983 6.767,3.983 6.779,0l0,-5.652l-2.171,0l0,5.652c-0.012,1.368 -2.437,1.368 -2.437,0l0,-5.652Z" style="fill:#fff;fill-rule:nonzero;"/><path d="M1717.43,825.137c0.048,-1.62 -1.14,-2.592 -2.76,-2.592l-3.408,0l0,8.496l3.468,0c1.883,-0.001 2.807,-0.828 3.023,-2.196c0.108,-0.648 -0.036,-1.741 -1.2,-2.328c0.612,-0.312 0.864,-0.996 0.876,-1.38l0.001,0Zm-4.009,0.732l0,-1.513l1.249,0c1.08,0 1.044,1.513 0,1.513l-1.249,0Zm0,3.288l0,-1.741l1.249,0c1.272,0 1.296,1.741 0,1.741l-1.249,0Z" style="fill:#fff;fill-rule:nonzero;"/></g></g></svg>