<svg id="merged_copy_4" data-name="merged copy 4" xmlns="http://www.w3.org/2000/svg" width="275.002" height="307.386" viewBox="0 0 613.297 685.517">
  <metadata><?xpacket begin="﻿" id="W5M0MpCehiHzreSzNTczkc9d"?>
<x:xmpmeta xmlns:x="adobe:ns:meta/" x:xmptk="Adobe XMP Core 5.6-c138 79.159824, 2016/09/14-01:09:01        ">
   <rdf:RDF xmlns:rdf="http://www.w3.org/1999/02/22-rdf-syntax-ns#">
      <rdf:Description rdf:about=""/>
   </rdf:RDF>
</x:xmpmeta>
                                                                                                    
                                                                                                    
                                                                                                    
                                                                                                    
                                                                                                    
                                                                                                    
                                                                                                    
                                                                                                    
                                                                                                    
                                                                                                    
                                                                                                    
                                                                                                    
                                                                                                    
                                                                                                    
                                                                                                    
                                                                                                    
                                                                                                    
                                                                                                    
                                                                                                    
                                                                                                    
                           
<?xpacket end="w"?></metadata>
<defs>
    <style>
      .cls-1 {
        fill: none;
        stroke: #171a20;
        stroke-width: 16.667px;
      }

      .cls-1, .cls-2 {
        fill-rule: evenodd;
      }

      .cls-2 {
        fill: #171a20;
      }
    </style>
  </defs>
  <path id="Forma_1_copy" data-name="Forma 1 copy" class="cls-1" d="M4807.39,1852.34l-236.48,136.35a61.72,61.72,0,0,0-30.91,53.46v272.7a61.72,61.72,0,0,0,30.91,53.46l236.48,136.34a61.9,61.9,0,0,0,61.83,0l236.5-136.34a61.72,61.72,0,0,0,30.91-53.46V2042.16a61.7,61.7,0,0,0-30.91-53.46l-236.5-136.36A61.951,61.951,0,0,0,4807.39,1852.34Z" transform="translate(-4531.667 -1835.727)"/>
  <path id="Shape_1_copy_8" data-name="Shape 1 copy 8" class="cls-2" d="M4976.53,2259.33s0.32-129.15.43-159.56c0.05-13.49-8.84-20.63-25.37-31.35-26.95-16.46-60.43-36.33-134.11-80.74-10.87-5.56-18.96-.39-18.96-0.39m-38.38,196.5s83.73-44.65,81.52-45.31C4780.5,2120.21,4698,2112.9,4698,2112.9l26.32,41.29Zm154.7,4.43s-83.73,44.65-81.52,45.31c61.16,18.27,143.67,25.58,143.67,25.58l-26.32-41.29Zm-217.19-76.98s-0.33,129.15-.44,159.56c-0.05,13.5,8.85,20.64,25.37,31.35,26.95,16.47,60.43,36.33,134.12,80.74,10.87,5.56,18.95.39,18.95,0.39" transform="translate(-4531.667 -1835.727)"/>
</svg>
