<svg xmlns="http://www.w3.org/2000/svg" width="316" height="37.312" viewBox="0 0 316 37.312">
  <metadata><?xpacket begin="﻿" id="W5M0MpCehiHzreSzNTczkc9d"?>
<x:xmpmeta xmlns:x="adobe:ns:meta/" x:xmptk="Adobe XMP Core 5.6-c138 79.159824, 2016/09/14-01:09:01        ">
   <rdf:RDF xmlns:rdf="http://www.w3.org/1999/02/22-rdf-syntax-ns#">
      <rdf:Description rdf:about=""/>
   </rdf:RDF>
</x:xmpmeta>
                                                                                                    
                                                                                                    
                                                                                                    
                                                                                                    
                                                                                                    
                                                                                                    
                                                                                                    
                                                                                                    
                                                                                                    
                                                                                                    
                                                                                                    
                                                                                                    
                                                                                                    
                                                                                                    
                                                                                                    
                                                                                                    
                                                                                                    
                                                                                                    
                                                                                                    
                                                                                                    
                           
<?xpacket end="w"?></metadata>
<defs>
    <style>
      .cls-1 {
        fill: #fff;
        fill-rule: evenodd;
      }
    </style>
  </defs>
  <path id="NEXUS-STATS" class="cls-1" d="M330.317,578.523V548.837h0.53l9.012,29.686h12.034V542.476h-7.316v29.686h-0.53l-8.694-29.686H323v36.047h7.316Zm52.746,0v-6.361H367.054v-8.641h12.828v-6.255H367.054v-8.429h16.009v-6.361H359.738v36.047h23.325Zm2.6-36.047,10.39,18.765-10.39,17.282h7.58l6.839-12.457,6.679,12.457h8.111l-10.39-17.652,10.39-18.395h-7.581l-6.838,13.252-6.68-13.252h-8.11Zm40.606,0H418.95v23.855q0,6.627,3.419,9.727t10.311,3.1q6.89,0,10.31-3.1t3.42-9.727V542.476h-7.316V566.49q0,6.309-6.414,6.308t-6.414-6.308V542.476Zm49.3,6.573,0.583-5.778-1.909-.371a59.856,59.856,0,0,0-9.966-1.06q-5.726,0-9.012,2.65t-3.287,8.058a8.846,8.846,0,0,0,2.518,6.706q2.517,2.413,8.668,4.161a18.352,18.352,0,0,1,5.168,2.068,3.1,3.1,0,0,1,1.3,2.65q0,4.665-5.619,4.665a88.243,88.243,0,0,1-10.867-.954l-0.742,5.673,1.908,0.37a50.15,50.15,0,0,0,10.125,1.272,13.476,13.476,0,0,0,9.012-2.915q3.446-2.916,3.445-8.588,0-4.453-2.12-6.6t-7.395-3.843a37.169,37.169,0,0,1-6.706-2.6,2.889,2.889,0,0,1-1.431-2.6q0-3.818,5.778-3.817,3.073,0,10.55.848h0Zm21.946,18.607v-6.467H481.82v6.467h15.692Zm27.565-18.607,0.584-5.778-1.909-.371a59.856,59.856,0,0,0-9.966-1.06q-5.725,0-9.012,2.65t-3.287,8.058a8.846,8.846,0,0,0,2.518,6.706q2.517,2.413,8.668,4.161a18.352,18.352,0,0,1,5.168,2.068,3.1,3.1,0,0,1,1.3,2.65q0,4.665-5.619,4.665a88.272,88.272,0,0,1-10.868-.954l-0.742,5.673,1.909,0.37a50.15,50.15,0,0,0,10.125,1.272,13.476,13.476,0,0,0,9.012-2.915q3.446-2.916,3.445-8.588,0-4.453-2.12-6.6t-7.4-3.843a37.136,37.136,0,0,1-6.706-2.6,2.889,2.889,0,0,1-1.431-2.6q0-3.818,5.778-3.817,3.073,0,10.549.848h0Zm13.624-.106v29.58h7.315v-29.58h9.542v-6.467h-26.5v6.467H538.7Zm23.8,29.58,1.431-6.52H576.55l1.432,6.52H585.3l-8.11-36.047H563.3l-8.111,36.047H562.5Zm9.011-30,3.658,17.123h-9.86l3.658-17.123h2.544Zm23.06,0.424v29.58h7.316v-29.58h9.542v-6.467H584.926v6.467h9.648Zm43.1,0.106,0.583-5.778-1.909-.371a59.856,59.856,0,0,0-9.966-1.06q-5.726,0-9.012,2.65t-3.286,8.058a8.846,8.846,0,0,0,2.518,6.706q2.517,2.413,8.667,4.161a18.362,18.362,0,0,1,5.169,2.068,3.105,3.105,0,0,1,1.3,2.65q0,4.665-5.619,4.665a88.259,88.259,0,0,1-10.867-.954l-0.742,5.673,1.908,0.37a50.166,50.166,0,0,0,10.125,1.272,13.474,13.474,0,0,0,9.012-2.915Q639,573.328,639,567.656q0-4.453-2.12-6.6t-7.4-3.843a37.148,37.148,0,0,1-6.705-2.6,2.888,2.888,0,0,1-1.432-2.6q0-3.818,5.778-3.817,3.075,0,10.55.848h0Z" transform="translate(-323 -541.844)"/>
</svg>
