<?xml version="1.0" encoding="utf-8"?>
<!-- Generator: Adobe Illustrator 19.0.0, SVG Export Plug-In . SVG Version: 6.00 Build 0)  -->
<svg version="1.1" id="Layer_1" xmlns="http://www.w3.org/2000/svg" xmlns:xlink="http://www.w3.org/1999/xlink" x="0px" y="0px"
	 viewBox="0.1 332.3 611.9 127.5" style="enable-background:new 0.1 332.3 611.9 127.5;" xml:space="preserve">
<style type="text/css">
	.st0{fill:url(#SVGID_1_);}
	.st1{fill:#FFFFFF;}
	.st2{fill:#E6AD02;}
</style>
<linearGradient id="SVGID_1_" gradientUnits="userSpaceOnUse" x1="-4.627509e-009" y1="3.466919e-002" x2="1" y2="3.466919e-002" gradientTransform="matrix(87.2837 72.5289 -83.8048 80.6317 23.3951 357.1324)">
	<stop  offset="0" style="stop-color:#E6AD02"/>
	<stop  offset="9.768728e-002" style="stop-color:#DCAE0D"/>
	<stop  offset="0.2711" style="stop-color:#C0B02B"/>
	<stop  offset="0.4982" style="stop-color:#94B45C"/>
	<stop  offset="0.665" style="stop-color:#70B784"/>
	<stop  offset="0.7196" style="stop-color:#64B891"/>
	<stop  offset="0.8213" style="stop-color:#44BBB4"/>
	<stop  offset="0.958" style="stop-color:#11BFEC"/>
	<stop  offset="1" style="stop-color:#00C0FF"/>
</linearGradient>
<path class="st0" d="M119.6,360.9C117,342.6,100,330,81.7,332.6l-52.9,7.7c-18.3,2.7-31,19.6-28.3,37.9l7.7,52.9
	c2.6,18.3,19.6,30.9,37.9,28.3l52.9-7.7c18.3-2.6,30.9-19.6,28.3-37.9C127.2,413.9,119.6,360.9,119.6,360.9z"/>
<path class="st1" d="M33.9,381L33.9,381c0,0,17.7,1.9,30.7,5.8c0.5,0.1-17.4,9.7-17.4,9.7l-7-5.8 M33.9,381c0,0-0.1,27.6-0.1,34
	c0,2.9,1.9,4.4,5.4,6.7c5.7,3.5,12.9,7.7,28.6,17.2c2.3,1.2,4,0.1,4,0.1L33.9,381z M87.1,403.1l-31.6-48.3c0,0,1.7-1.1,4,0.1
	c15.7,9.5,22.9,13.7,28.6,17.2c3.5,2.3,5.4,3.8,5.4,6.7c0,6.5-0.1,34-0.1,34l0,0l0,0c0,0-17.7-1.9-30.7-5.8
	c-0.5-0.1,17.4-9.7,17.4-9.7L87.1,403.1z"/>
<path class="st1" d="M159.2,426.8H175v-25l-2-12.1l0.4-0.1l5.5,12.5l14.1,24.6h16v-62.5h-15.7v28.4c0.1,0,1.7,10.8,1.8,10.8
	l-0.4,0.1l-5.3-12.5l-15.1-26.7h-15L159.2,426.8L159.2,426.8z"/>
<path class="st1" d="M234.9,379.1h27.6v-14.8h-43.6v62.5h43.6v-14.9h-27.6v-9.4h25.4v-13.7h-25.4V379.1z"/>
<path class="st1" d="M294.9,385.6l-10.7-21.4h-18.5l17.6,31.4l-17.6,31.2h18.5l10.7-21.3l10.9,21.3h18.4l-17.5-31.2l17.5-31.4h-18.4
	L294.9,385.6z"/>
<path class="st1" d="M344.5,364.3h-16v41.6c-0.1,29.3,49.8,29.3,49.9,0v-41.6h-16v41.6c-0.1,10.1-17.9,10.1-17.9,0V364.3z"/>
<path class="st1" d="M384.8,416.4c5.8,7.5,13.8,11.3,21.3,11.3c11.5,0,24.2-6.6,24.7-18.7c0.7-15.4-10.4-19.3-21.6-21.3
	c-4.9-1.1-8.1-2.8-8.3-5.8c0.3-7.2,11.5-7.5,18-0.5l10.3-8c-6.4-7.9-13.8-10-21.4-10c-11.5,0-22.6,6.4-22.6,18.7
	c0,11.9,9.2,18.3,19.3,19.9c5.1,0.7,10.9,2.7,10.7,6.3c-0.4,6.7-14.2,6.4-20.5-1.2L384.8,416.4L384.8,416.4z"/>
<path class="st2" d="M461,403.2h18v23.6h16v-62.5h-15.9V388h-18v-23.7h-15.9v62.5H461V403.2z"/>
<path class="st2" d="M520.5,364.3h-16v41.6c-0.1,29.3,49.8,29.3,49.9,0v-41.6h-16v41.6c-0.1,10.1-17.9,10.1-17.9,0V364.3z"/>
<path class="st2" d="M609.3,383.3c0.4-11.9-8.4-19.1-20.3-19.1h-25.1v62.6h25.5c13.9,0,20.7-6.1,22.3-16.2
	c0.8-4.8-0.3-12.8-8.8-17.1C607.3,391.2,609.2,386.2,609.3,383.3L609.3,383.3z M579.7,388.7v-11.1h9.2c8,0,7.7,11.1,0,11.1H579.7z
	 M579.7,412.9v-12.8h9.2c9.4,0,9.5,12.8,0,12.8H579.7z"/>
</svg>
