<svg id="merged_copy_6" data-name="merged copy 6" xmlns="http://www.w3.org/2000/svg" width="1198.036" height="949.993" viewBox="0 0 1198.036 949.993">
  <metadata><?xpacket begin="﻿" id="W5M0MpCehiHzreSzNTczkc9d"?>
<x:xmpmeta xmlns:x="adobe:ns:meta/" x:xmptk="Adobe XMP Core 5.6-c138 79.159824, 2016/09/14-01:09:01        ">
   <rdf:RDF xmlns:rdf="http://www.w3.org/1999/02/22-rdf-syntax-ns#">
      <rdf:Description rdf:about=""/>
   </rdf:RDF>
</x:xmpmeta>
                                                                                                    
                                                                                                    
                                                                                                    
                                                                                                    
                                                                                                    
                                                                                                    
                                                                                                    
                                                                                                    
                                                                                                    
                                                                                                    
                                                                                                    
                                                                                                    
                                                                                                    
                                                                                                    
                                                                                                    
                                                                                                    
                                                                                                    
                                                                                                    
                                                                                                    
                                                                                                    
                           
<?xpacket end="w"?></metadata>
<defs>
    <style>
      .cls-1 {
        fill: none;
        stroke: #171a20;
        stroke-width: 16.667px;
      }

      .cls-1, .cls-2 {
        fill-rule: evenodd;
      }

      .cls-2 {
        fill: #171a20;
      }
    </style>
  </defs>
  <path id="Forma_1_copy" data-name="Forma 1 copy" class="cls-1" d="M682.389,2176.34L445.912,2312.69A61.725,61.725,0,0,0,415,2366.15v272.7a61.725,61.725,0,0,0,30.913,53.46l236.477,136.34a61.9,61.9,0,0,0,61.831,0l236.5-136.34a61.723,61.723,0,0,0,30.913-53.46V2366.16a61.7,61.7,0,0,0-30.913-53.46l-236.5-136.36A61.953,61.953,0,0,0,682.389,2176.34Z" transform="translate(-113.094 -2159.727)"/>
  <path id="Shape_1_copy_8" data-name="Shape 1 copy 8" class="cls-2" d="M851.526,2583.33s0.326-129.15.436-159.56c0.049-13.49-8.845-20.63-25.371-31.35-26.952-16.46-60.426-36.33-134.114-80.74-10.869-5.56-18.953-.39-18.953-0.39m-38.379,196.5s83.726-44.65,81.52-45.31C655.5,2444.21,573,2436.9,573,2436.9l26.32,41.29Zm154.7,4.43s-83.727,44.65-81.521,45.31c61.165,18.27,143.666,25.58,143.666,25.58l-26.321-41.29Zm-217.194-76.98s-0.326,129.15-.436,159.56c-0.048,13.5,8.845,20.64,25.371,31.35,26.952,16.47,60.426,36.33,134.114,80.74,10.869,5.56,18.953.39,18.953,0.39" transform="translate(-113.094 -2159.727)"/>
  <path id="NEXUS-STATS" class="cls-2" d="M140.829,3107.29v-112.7h2.01l34.167,112.7h45.623V2970.44H194.894v112.7h-2.01l-32.961-112.7H113.094v136.85h27.735Zm199.977,0v-24.15h-60.7v-32.81h48.638v-23.74H280.109v-32h60.7v-24.15H252.373v136.85h88.433Zm9.845-136.85,39.393,71.24-39.393,65.61h28.741L405.318,3060l25.324,47.29h30.751L422,3040.27l39.393-69.83H432.652l-25.927,50.31L381.4,2970.44H350.651Zm153.95,0H476.865V3061q0,25.155,12.964,36.93t39.091,11.78q26.124,0,39.091-11.78T580.974,3061v-90.56H553.239v91.17q0,23.94-24.319,23.94T504.6,3061.61v-91.17Zm186.912,24.95,2.211-21.94-7.235-1.4q-22.912-4.035-37.785-4.03-21.707,0-34.167,10.06t-12.461,30.59q0,16.3,9.547,25.46t32.86,15.8q14.668,4.23,19.6,7.85A11.8,11.8,0,0,1,669,3067.84q0,17.715-21.3,17.71-14.272,0-41.2-3.62l-2.814,21.54,7.235,1.41q22.71,4.83,38.388,4.83,21.1,0,34.167-11.07t13.064-32.61q0-16.905-8.039-25.05-8.042-8.16-28.038-14.59-20-6.45-25.424-9.87a10.966,10.966,0,0,1-5.426-9.86q0-14.49,21.907-14.49,11.654,0,40,3.22h0Zm83.2,70.64v-24.55H715.227v24.55h59.491Zm104.511-70.64,2.211-21.94-7.235-1.4q-22.913-4.035-37.785-4.03-21.707,0-34.167,10.06t-12.461,30.59q0,16.3,9.547,25.46t32.86,15.8q14.668,4.23,19.6,7.85a11.8,11.8,0,0,1,4.924,10.06q0,17.715-21.3,17.71-14.273,0-41.2-3.62l-2.814,21.54,7.235,1.41q22.71,4.83,38.388,4.83,21.1,0,34.167-11.07t13.064-32.61q0-16.905-8.039-25.05-8.041-8.16-28.038-14.59-20-6.45-25.424-9.87a10.966,10.966,0,0,1-5.426-9.86q0-14.49,21.907-14.49,11.654,0,40,3.22h0Zm51.651-.4v112.3h27.736v-112.3h36.177v-24.55H894.3v24.55H930.88Zm90.24,112.3,5.43-24.75h47.83l5.43,24.75h27.73l-30.75-136.85h-52.65l-30.755,136.85h27.735Zm34.17-113.91,13.87,65h-37.39l13.87-65h9.65Zm87.43,1.61v112.3h27.73v-112.3h36.18v-24.55H1106.14v24.55h36.58Zm163.39,0.4,2.21-21.94-7.23-1.4q-22.92-4.035-37.79-4.03-21.705,0-34.16,10.06t-12.47,30.59q0,16.3,9.55,25.46t32.86,15.8q14.67,4.23,19.6,7.85a11.8,11.8,0,0,1,4.92,10.06q0,17.715-21.3,17.71-14.28,0-41.2-3.62l-2.82,21.54,7.24,1.41q22.71,4.83,38.39,4.83,21.09,0,34.16-11.07t13.07-32.61q0-16.905-8.04-25.05-8.04-8.16-28.04-14.59-19.995-6.45-25.42-9.87a10.966,10.966,0,0,1-5.43-9.86q0-14.49,21.91-14.49,11.655,0,39.99,3.22h0Z" transform="translate(-113.094 -2159.727)"/>
</svg>
