<svg version="1.1" xmlns="http://www.w3.org/2000/svg" xmlns:xlink="http://www.w3.org/1999/xlink" xml:space="preserve" xmlns:serif="http://www.serif.com/" style="fill-rule:evenodd;clip-rule:evenodd;stroke-miterlimit:10;" id="SJ1pP6V0f" viewBox="0 0 600 204"><style>@-webkit-keyframes rk7Z1TPa40G_HJuXL0VRG_Animation{0%{-webkit-transform:  translate(0px, 3px);transform:  translate(0px, 3px);}50%{-webkit-transform:  translate(0px, 6px);transform:  translate(0px, 6px);}100%{-webkit-transform:  translate(0px, 3px);transform:  translate(0px, 3px);}}@keyframes rk7Z1TPa40G_HJuXL0VRG_Animation{0%{-webkit-transform:  translate(0px, 3px);transform:  translate(0px, 3px);}50%{-webkit-transform:  translate(0px, 6px);transform:  translate(0px, 6px);}100%{-webkit-transform:  translate(0px, 3px);transform:  translate(0px, 3px);}}@-webkit-keyframes ry0eyTvTV0M_BJ9krAN0M_Animation{0%{-webkit-transform:  translate(0px, 0px);transform:  translate(0px, 0px);}50%{-webkit-transform:  translate(0px, 3px);transform:  translate(0px, 3px);}100%{-webkit-transform:  translate(0px, 0px);transform:  translate(0px, 0px);}}@keyframes ry0eyTvTV0M_BJ9krAN0M_Animation{0%{-webkit-transform:  translate(0px, 0px);transform:  translate(0px, 0px);}50%{-webkit-transform:  translate(0px, 3px);transform:  translate(0px, 3px);}100%{-webkit-transform:  translate(0px, 0px);transform:  translate(0px, 0px);}}@-webkit-keyframes SyVgyTDaVAM_HJnwECERM_Animation{0%{-webkit-transform:  translate(0px, 0px);transform:  translate(0px, 0px);}50%{-webkit-transform:  translate(0px, 3px);transform:  translate(0px, 3px);}100%{-webkit-transform:  translate(0px, 0px);transform:  translate(0px, 0px);}}@keyframes SyVgyTDaVAM_HJnwECERM_Animation{0%{-webkit-transform:  translate(0px, 0px);transform:  translate(0px, 0px);}50%{-webkit-transform:  translate(0px, 3px);transform:  translate(0px, 3px);}100%{-webkit-transform:  translate(0px, 0px);transform:  translate(0px, 0px);}}#SJ1pP6V0f *{-webkit-animation-duration:  5s;animation-duration:  5s;-webkit-animation-iteration-count:  infinite;animation-iteration-count:  infinite;-webkit-animation-timing-function:  cubic-bezier(0, 0, 1, 1);animation-timing-function:  cubic-bezier(0, 0, 1, 1);}#BJxkaD64Rz{-webkit-transform:  matrix(0.075, 0, 0, 0.075, 0, 0);transform:  matrix(0.075, 0, 0, 0.075, 0, 0);}#S1f16P6VAM{fill: #fff;fill-rule: nonzero;}#BkXy6DTE0z{fill: #9dadb4;}#SJV1Tv640f{-webkit-transform:  matrix(0.967831, 0, 0, 0.943175, 93.349, 77.8706);transform:  matrix(0.967831, 0, 0, 0.943175, 93.349, 77.8706);}#B1Skpv640G{fill: none;stroke: #e5e9e9;stroke-width: 14.06px;}#Hy8kawTE0M{-webkit-transform:  matrix(1, 0, 0, 1, -4, 0);transform:  matrix(1, 0, 0, 1, -4, 0);}#BkwJpD6NAf{fill: none;stroke: #e5e9e9;stroke-width: 14.06px;}#rkOJaDTVRf{-webkit-transform:  matrix(0.981852, 0, 0, 0.970037, 52.7243, 40.8534);transform:  matrix(0.981852, 0, 0, 0.970037, 52.7243, 40.8534);}#BJFk6waERG{fill: none;stroke: #e5e9e9;stroke-width: 14.06px;}#HkcJaw640z{-webkit-transform:  matrix(0.075, 0, 0, 0.075, 0, 0);transform:  matrix(0.075, 0, 0, 0.075, 0, 0);}#S13kTP6EAG{fill: #fff;fill-rule: nonzero;}#S1pkpDpNAG{fill: #9dadb4;}#HJ0JpD640z{-webkit-transform:  matrix(0.932042, 0, 0, 0.925666, 242.351, 68.9593);transform:  matrix(0.932042, 0, 0, 0.925666, 242.351, 68.9593);}#Sk1xJaw6N0G{fill: none;stroke: #e5e9e9;stroke-width: 12.65px;}#rklxk6Da4AG{-webkit-transform:  matrix(0.919547, 0, 0, 0.890579, 286.798, 101.812);transform:  matrix(0.919547, 0, 0, 0.890579, 286.798, 101.812);}#Hybe1ava40f{fill: none;stroke: #e5e9e9;stroke-width: 12.65px;}#HJzg1pDpECz{-webkit-transform:  matrix(1, 0, 0, 0.939012, 0, 56.6211);transform:  matrix(1, 0, 0, 0.939012, 0, 56.6211);}#HkmgyaD6NAf{fill: none;stroke: #e5e9e9;stroke-width: 12.65px;}#SyVgyTDaVAM{-webkit-transform:  matrix(0.075, 0, 0, 0.075, 0, 0);transform:  matrix(0.075, 0, 0, 0.075, 0, 0);}#BJ8xJpwTE0z{fill: #fff;fill-rule: nonzero;}#ryPxyaDpERG{fill: #9dadb4;}#ryugkTD6VCz{-webkit-transform:  matrix(0.88555, 0, 0, 0.868665, 416.476, 229.338);transform:  matrix(0.88555, 0, 0, 0.868665, 416.476, 229.338);}#Bktey6waECG{fill: none;stroke: #e5e9e9;stroke-width: 12.65px;}#rJ9lk6vTECG{-webkit-transform:  matrix(0.86373, 0, 0, 0.878138, 495.76, 213.006);transform:  matrix(0.86373, 0, 0, 0.878138, 495.76, 213.006);}#r1ixkTwa4AM{fill: none;stroke: #e5e9e9;stroke-width: 12.65px;}#BynxJpPTERz{-webkit-transform:  matrix(1, 0, 0, 0.900434, 0, 173.906);transform:  matrix(1, 0, 0, 0.900434, 0, 173.906);}#B1al1TwTVRf{fill: none;stroke: #e5e9e9;stroke-width: 12.65px;}#ry0eyTvTV0M{-webkit-transform:  matrix(0.075, 0, 0, 0.075, 0, 0);transform:  matrix(0.075, 0, 0, 0.075, 0, 0);}#BJ1ZJ6PTERz{fill: none;stroke: #e5e9e9;stroke-width: 12.65px;}#BJlZyavaVCM{fill: none;stroke: #e5e9e9;stroke-width: 12.65px;}#rJW-y6waVAz{fill: none;stroke: #e5e9e9;stroke-width: 12.65px;}#BJzbkTDaNAf{fill: #9dadb4;}#rk7Z1TPa40G{-webkit-transform:  matrix(0.075, 0, 0, 0.075, 0, 0);transform:  matrix(0.075, 0, 0, 0.075, 0, 0);}#By4Z1Twa4Cz{-webkit-transform:  matrix(0.968165, 0, 0, 0.9833, 74.7691, 14.4391);transform:  matrix(0.968165, 0, 0, 0.9833, 74.7691, 14.4391);}#r1rWyTDpECz{fill: none;stroke: #e5e9e9;stroke-width: 12.65px;}#BJUbJaDpECM{-webkit-transform:  matrix(0.937019, 0, 0, 0.943315, 147.865, 49.1086);transform:  matrix(0.937019, 0, 0, 0.943315, 147.865, 49.1086);}#BJwbJ6Pp40G{fill: none;stroke: #e5e9e9;stroke-width: 12.65px;}#rkdb16vpV0z{fill: none;stroke: #e5e9e9;stroke-width: 12.65px;}#BJFZkpvTE0z{fill: #9dadb4;}#rycZ16DaNCG{-webkit-transform:  matrix(0.075, 0, 0, 0.075, 0, 0);transform:  matrix(0.075, 0, 0, 0.075, 0, 0);}#ByjWJ6vpE0G{-webkit-transform:  matrix(0.980232, 0, 0, 0.958519, 42.8428, 70.9855);transform:  matrix(0.980232, 0, 0, 0.958519, 42.8428, 70.9855);}#SJnZyavpNAG{fill: none;stroke: #e5e9e9;stroke-width: 12.65px;}#r16-JaPTE0M{-webkit-transform:  matrix(0.969256, -0.000740148, 0.000736777, 0.964842, 65.3626, 61.9364);transform:  matrix(0.969256, -0.000740148, 0.000736777, 0.964842, 65.3626, 61.9364);}#r1Rb16D6NCz{fill: none;stroke: #e5e9e9;stroke-width: 12.65px;}#S11My6wp4CG{fill: none;stroke: #e5e9e9;stroke-width: 12.65px;}#rJlGkaDTVAz{fill: #9dadb4;}#H1WzkaP6VAf{-webkit-transform:  matrix(0.075, 0, 0, 0.075, 0, 0);transform:  matrix(0.075, 0, 0, 0.075, 0, 0);}#BkzMJ6DpV0M{-webkit-transform:  matrix(0.84994, 0.0697283, 0.0686792, -0.837152, 1136.9, 1524.37);transform:  matrix(0.84994, 0.0697283, 0.0686792, -0.837152, 1136.9, 1524.37);}#SyXGkTvTVAG{fill: none;stroke: #e5e9e9;stroke-width: 16.16px;stroke-linecap: round;stroke-linejoin: round;stroke-miterlimit: 1.5;stroke-dasharray: 16.16,32.32,145.44,0;}#HkNGkpDaERM{-webkit-transform:  matrix(1.34647, 0.110464, 0.107967, -1.31605, -1086.51, 2619.72);transform:  matrix(1.34647, 0.110464, 0.107967, -1.31605, -1086.51, 2619.72);}#BkHzJpPaVAM{fill: none;stroke: #e5e9e9;stroke-width: 10.24px;stroke-linecap: round;stroke-linejoin: round;stroke-miterlimit: 1.5;stroke-dasharray: 10.24,20.48,92.15,0;}#rkUG1aPT40G{-webkit-transform:  matrix(0.075, 0, 0, 0.075, -0.648632, 0.263647);transform:  matrix(0.075, 0, 0, 0.075, -0.648632, 0.263647);}#B1DMJawaNAz{fill: url(#_Linear1);fill-rule: nonzero;}#BJuGy6vaERz{fill: #fff;}#rytMkTw6NRf{-webkit-transform:  matrix(0.158803, 0, 0, 0.159015, 431.171, 112.609);transform:  matrix(0.158803, 0, 0, 0.159015, 431.171, 112.609);}#By5fkpDaERz{fill: #2d3235;fill-rule: nonzero;}#BJoG1avpN0f{fill: #2d3235;fill-rule: nonzero;}#HJ3Mk6P6VCf{fill: #2d3235;fill-rule: nonzero;}#B1TGJpwpECM{fill: #2d3235;fill-rule: nonzero;}#B1Az1pDT4AG{fill: #2d3235;fill-rule: nonzero;}#SyJm1TPTNAM{fill: #2d3235;fill-rule: nonzero;}#r1lXkpPTECG{fill: #2d3235;fill-rule: nonzero;}#ry-XyTDaVRM{fill: #2d3235;fill-rule: nonzero;}#rkGX16Pp4Af{fill: #2d3235;fill-rule: nonzero;}#ByX7kpvaEAz{fill: #2d3235;fill-rule: nonzero;}#HJ4Qk6wTVCM{fill: #2d3235;fill-rule: nonzero;}#r1SX1aPaE0f{fill: #616a70;fill-rule: nonzero;}#rJUXJaPa4Rf{fill: #616a70;fill-rule: nonzero;}#HJvQkTvT4RG{fill: #616a70;fill-rule: nonzero;}#H1u7ypDpEAf{fill: #616a70;fill-rule: nonzero;}#rJYQkTwa4Rf{fill: #616a70;fill-rule: nonzero;}#ry571pvaVRz{fill: #616a70;fill-rule: nonzero;}#ByjQ1TDaVCz{fill: #616a70;fill-rule: nonzero;}#HJhQ1pPp40f{fill: #616a70;fill-rule: nonzero;}#SyT7Jaw640G{fill: #616a70;fill-rule: nonzero;}#HyC7Jav6ERz{fill: #616a70;fill-rule: nonzero;}#rykV16v6V0G{fill: #616a70;fill-rule: nonzero;}#SyVgyTDaVAM_HJnwECERM{-webkit-animation-name:  SyVgyTDaVAM_HJnwECERM_Animation;animation-name:  SyVgyTDaVAM_HJnwECERM_Animation;-webkit-transform-origin:  50% 50%;transform-origin:  50% 50%;transform-box:  fill-box;-webkit-transform:  translate(0px, 0px);transform:  translate(0px, 0px);-webkit-animation-timing-function:  cubic-bezier(0.42, 0, 0.58, 1);animation-timing-function:  cubic-bezier(0.42, 0, 0.58, 1);}#ry0eyTvTV0M_BJ9krAN0M{-webkit-animation-name:  ry0eyTvTV0M_BJ9krAN0M_Animation;animation-name:  ry0eyTvTV0M_BJ9krAN0M_Animation;-webkit-transform-origin:  50% 50%;transform-origin:  50% 50%;transform-box:  fill-box;-webkit-transform:  translate(0px, 0px);transform:  translate(0px, 0px);-webkit-animation-timing-function:  cubic-bezier(0.42, 0, 0.58, 1);animation-timing-function:  cubic-bezier(0.42, 0, 0.58, 1);}#rk7Z1TPa40G_HJuXL0VRG{-webkit-animation-name:  rk7Z1TPa40G_HJuXL0VRG_Animation;animation-name:  rk7Z1TPa40G_HJuXL0VRG_Animation;-webkit-transform-origin:  50% 50%;transform-origin:  50% 50%;transform-box:  fill-box;-webkit-transform:  translate(0px, 3px);transform:  translate(0px, 3px);-webkit-animation-timing-function:  cubic-bezier(0.42, 0, 0.58, 1);animation-timing-function:  cubic-bezier(0.42, 0, 0.58, 1);}</style>
    <g id="BJxkaD64Rz">
        <g id="rJbJpP6V0G" serif:id="Forma 1 copy">
            <path d="M2852.1,858.156L2475.02,1075.53C2444.5,1093.14 2425.73,1125.61 2425.73,1160.76L2425.73,1595.5C2425.73,1630.65 2444.5,1663.11 2475.02,1680.73L2852.1,1898.09C2882.62,1915.67 2920.18,1915.67 2950.7,1898.09L3327.81,1680.73C3358.33,1663.11 3377.11,1630.65 3377.11,1595.5L3377.11,1160.77C3377.11,1125.61 3358.33,1093.14 3327.81,1075.54L2950.7,858.156C2920.18,840.584 2882.62,840.584 2852.1,858.156Z" id="S1f16P6VAM"/>
            <path d="M2903,844.99L2904.59,845.029L2906.18,845.093L2907.78,845.183L2909.37,845.299L2910.96,845.44L2912.55,845.608L2914.14,845.801L2915.72,846.02L2917.3,846.264L2918.88,846.534L2920.45,846.83L2922.02,847.152L2923.59,847.5L2925.15,847.873L2926.71,848.272L2928.26,848.697L2929.81,849.147L2931.35,849.623L2932.88,850.125L2934.41,850.653L2935.93,851.206L2937.45,851.785L2938.95,852.39L2940.45,853.021L2941.94,853.677L2943.42,854.359L2944.9,855.067L2946.36,855.801L2947.82,856.56L2949.26,857.345L2950.7,858.156L3327.81,1075.54L3329.24,1076.37L3330.64,1077.23L3332.03,1078.11L3333.4,1079.01L3334.75,1079.93L3336.08,1080.87L3337.4,1081.83L3338.7,1082.81L3339.97,1083.81L3341.23,1084.83L3342.47,1085.87L3343.7,1086.92L3344.9,1088L3346.08,1089.09L3347.25,1090.21L3348.39,1091.34L3349.52,1092.48L3350.62,1093.64L3351.71,1094.83L3352.77,1096.02L3353.82,1097.24L3354.84,1098.46L3355.84,1099.71L3356.82,1100.97L3357.78,1102.24L3358.72,1103.53L3359.64,1104.84L3360.54,1106.16L3361.41,1107.49L3362.27,1108.84L3363.1,1110.19L3363.91,1111.57L3364.69,1112.95L3365.46,1114.35L3366.2,1115.76L3366.92,1117.18L3367.61,1118.62L3368.28,1120.07L3368.93,1121.52L3369.56,1122.99L3370.16,1124.47L3370.74,1125.96L3371.29,1127.46L3371.82,1128.96L3372.33,1130.48L3372.81,1132.01L3373.27,1133.55L3373.7,1135.09L3374.11,1136.64L3374.49,1138.21L3374.84,1139.78L3375.18,1141.35L3375.48,1142.94L3375.76,1144.53L3376.01,1146.13L3376.24,1147.73L3376.45,1149.34L3376.62,1150.96L3376.77,1152.58L3376.89,1154.21L3376.99,1155.84L3377.06,1157.48L3377.1,1159.12L3377.11,1160.77L3377.11,1595.5L3377.1,1597.14L3377.06,1598.79L3376.99,1600.42L3376.89,1602.05L3376.77,1603.68L3376.62,1605.3L3376.45,1606.92L3376.24,1608.53L3376.01,1610.13L3375.76,1611.73L3375.48,1613.32L3375.18,1614.91L3374.84,1616.48L3374.49,1618.05L3374.11,1619.61L3373.7,1621.17L3373.27,1622.71L3372.81,1624.25L3372.33,1625.78L3371.82,1627.29L3371.29,1628.8L3370.74,1630.3L3370.16,1631.79L3369.56,1633.27L3368.93,1634.74L3368.28,1636.19L3367.61,1637.64L3366.92,1639.07L3366.2,1640.5L3365.46,1641.9L3364.69,1643.3L3363.91,1644.69L3363.1,1646.06L3362.27,1647.42L3361.41,1648.77L3360.54,1650.1L3359.64,1651.42L3358.72,1652.72L3357.78,1654.01L3356.82,1655.29L3355.84,1656.55L3354.84,1657.79L3353.82,1659.02L3352.77,1660.24L3351.71,1661.43L3350.62,1662.61L3349.52,1663.78L3348.39,1664.92L3347.25,1666.05L3346.08,1667.16L3344.9,1668.26L3343.7,1669.33L3342.47,1670.39L3341.23,1671.43L3339.97,1672.45L3338.7,1673.45L3337.4,1674.43L3336.08,1675.39L3334.75,1676.33L3333.4,1677.26L3332.03,1678.15L3330.64,1679.03L3329.24,1679.89L3327.81,1680.73L2950.7,1898.09L2949.26,1898.9L2947.82,1899.69L2946.36,1900.45L2944.9,1901.18L2943.42,1901.89L2941.94,1902.57L2940.45,1903.23L2938.95,1903.86L2937.45,1904.46L2935.93,1905.04L2934.41,1905.6L2932.88,1906.13L2931.35,1906.63L2929.81,1907.1L2928.26,1907.55L2926.71,1907.98L2925.15,1908.38L2923.59,1908.75L2922.02,1909.1L2920.45,1909.42L2918.88,1909.72L2917.3,1909.99L2915.72,1910.23L2914.14,1910.45L2912.55,1910.64L2910.96,1910.81L2909.37,1910.95L2907.78,1911.07L2906.18,1911.16L2904.59,1911.22L2903,1911.26L2901.4,1911.27L2899.8,1911.26L2898.21,1911.22L2896.62,1911.16L2895.02,1911.07L2893.43,1910.95L2891.84,1910.81L2890.25,1910.64L2888.66,1910.45L2887.08,1910.23L2885.5,1909.99L2883.92,1909.72L2882.35,1909.42L2880.78,1909.1L2879.21,1908.75L2877.65,1908.38L2876.09,1907.98L2874.54,1907.55L2872.99,1907.1L2871.45,1906.63L2869.92,1906.13L2868.39,1905.6L2866.87,1905.04L2865.36,1904.46L2863.85,1903.86L2862.35,1903.23L2860.86,1902.57L2859.38,1901.89L2857.91,1901.18L2856.44,1900.45L2854.99,1899.69L2853.54,1898.9L2852.1,1898.09L2475.02,1680.73L2473.6,1679.89L2472.2,1679.03L2470.81,1678.15L2469.44,1677.26L2468.09,1676.33L2466.75,1675.39L2465.44,1674.43L2464.14,1673.45L2462.86,1672.45L2461.6,1671.43L2460.36,1670.39L2459.14,1669.33L2457.94,1668.26L2456.75,1667.16L2455.59,1666.05L2454.45,1664.92L2453.32,1663.78L2452.22,1662.61L2451.13,1661.43L2450.07,1660.24L2449.02,1659.02L2448,1657.79L2446.99,1656.55L2446.01,1655.29L2445.05,1654.01L2444.11,1652.72L2443.2,1651.42L2442.3,1650.1L2441.42,1648.77L2440.57,1647.42L2439.74,1646.06L2438.93,1644.69L2438.14,1643.3L2437.38,1641.9L2436.64,1640.5L2435.92,1639.07L2435.22,1637.64L2434.55,1636.19L2433.9,1634.74L2433.28,1633.27L2432.68,1631.79L2432.1,1630.3L2431.55,1628.8L2431.01,1627.29L2430.51,1625.78L2430.03,1624.25L2429.57,1622.71L2429.14,1621.17L2428.73,1619.61L2428.35,1618.05L2427.99,1616.48L2427.66,1614.91L2427.36,1613.32L2427.08,1611.73L2426.82,1610.13L2426.6,1608.53L2426.39,1606.92L2426.22,1605.3L2426.07,1603.68L2425.95,1602.05L2425.85,1600.42L2425.78,1598.79L2425.74,1597.14L2425.73,1595.5L2425.73,1160.76L2425.74,1159.12L2425.78,1157.48L2425.85,1155.84L2425.95,1154.21L2426.07,1152.58L2426.22,1150.96L2426.39,1149.34L2426.6,1147.73L2426.82,1146.13L2427.08,1144.53L2427.36,1142.94L2427.66,1141.35L2427.99,1139.78L2428.35,1138.21L2428.73,1136.64L2429.14,1135.09L2429.57,1133.55L2430.03,1132.01L2430.51,1130.48L2431.01,1128.96L2431.55,1127.45L2432.1,1125.96L2432.68,1124.47L2433.28,1122.99L2433.9,1121.52L2434.55,1120.06L2435.22,1118.62L2435.92,1117.18L2436.64,1115.76L2437.38,1114.35L2438.14,1112.95L2438.93,1111.57L2439.74,1110.19L2440.57,1108.84L2441.42,1107.49L2442.3,1106.16L2443.2,1104.84L2444.11,1103.53L2445.05,1102.24L2446.01,1100.97L2446.99,1099.71L2448,1098.46L2449.02,1097.23L2450.07,1096.02L2451.13,1094.83L2452.22,1093.64L2453.32,1092.48L2454.45,1091.33L2455.59,1090.2L2456.75,1089.09L2457.94,1088L2459.14,1086.92L2460.36,1085.87L2461.6,1084.83L2462.86,1083.81L2464.14,1082.81L2465.44,1081.83L2466.75,1080.87L2468.09,1079.93L2469.44,1079.01L2470.81,1078.11L2472.2,1077.23L2473.6,1076.37L2475.02,1075.53L2852.1,858.156L2853.54,857.345L2854.99,856.56L2856.44,855.801L2857.91,855.067L2859.38,854.359L2860.86,853.677L2862.35,853.021L2863.85,852.39L2865.36,851.785L2866.87,851.206L2868.39,850.653L2869.92,850.125L2871.45,849.623L2872.99,849.147L2874.54,848.697L2876.09,848.272L2877.65,847.873L2879.21,847.5L2880.78,847.152L2882.35,846.83L2883.92,846.534L2885.5,846.264L2887.08,846.02L2888.66,845.801L2890.25,845.608L2891.84,845.44L2893.43,845.299L2895.02,845.183L2896.62,845.093L2898.21,845.029L2899.8,844.99L2901.4,844.977L2903,844.99ZM2900.03,859.046L2898.66,859.079L2897.3,859.134L2895.93,859.211L2894.56,859.311L2893.2,859.432L2891.84,859.576L2890.47,859.741L2889.12,859.929L2887.76,860.139L2886.41,860.37L2885.06,860.624L2883.71,860.9L2882.37,861.198L2881.03,861.518L2879.69,861.86L2878.36,862.225L2877.04,862.611L2875.72,863.019L2874.4,863.45L2873.09,863.902L2871.79,864.377L2870.49,864.873L2869.2,865.392L2867.91,865.933L2866.63,866.496L2865.36,867.081L2864.1,867.688L2862.84,868.317L2861.59,868.969L2860.35,869.643L2859.07,870.365L2482.1,1087.68L2480.83,1088.43L2479.62,1089.16L2478.43,1089.92L2477.26,1090.69L2476.1,1091.48L2474.95,1092.29L2473.82,1093.11L2472.71,1093.95L2471.62,1094.81L2470.53,1095.68L2469.47,1096.57L2468.42,1097.48L2467.39,1098.4L2466.38,1099.34L2465.38,1100.29L2464.4,1101.26L2463.43,1102.24L2462.49,1103.24L2461.56,1104.25L2460.64,1105.28L2459.75,1106.32L2458.87,1107.37L2458.01,1108.44L2457.17,1109.52L2456.35,1110.61L2455.54,1111.72L2454.76,1112.84L2453.99,1113.97L2453.24,1115.11L2452.51,1116.26L2451.79,1117.43L2451.1,1118.61L2450.43,1119.79L2449.77,1120.99L2449.14,1122.2L2448.52,1123.42L2447.92,1124.65L2447.35,1125.89L2446.79,1127.14L2446.26,1128.39L2445.74,1129.66L2445.24,1130.94L2444.77,1132.22L2444.32,1133.52L2443.88,1134.82L2443.47,1136.12L2443.08,1137.44L2442.71,1138.76L2442.36,1140.1L2442.03,1141.43L2441.73,1142.78L2441.44,1144.13L2441.18,1145.49L2440.94,1146.85L2440.72,1148.22L2440.53,1149.59L2440.36,1150.97L2440.21,1152.36L2440.08,1153.75L2439.97,1155.14L2439.89,1156.54L2439.83,1157.94L2439.8,1159.35L2439.79,1160.82L2439.79,1595.44L2439.8,1596.91L2439.83,1598.32L2439.89,1599.72L2439.97,1601.12L2440.08,1602.51L2440.21,1603.9L2440.36,1605.29L2440.53,1606.67L2440.72,1608.04L2440.94,1609.41L2441.18,1610.77L2441.44,1612.13L2441.73,1613.48L2442.03,1614.83L2442.36,1616.16L2442.71,1617.49L2443.08,1618.82L2443.47,1620.13L2443.88,1621.44L2444.32,1622.74L2444.77,1624.04L2445.24,1625.32L2445.74,1626.59L2446.26,1627.86L2446.79,1629.12L2447.35,1630.37L2447.92,1631.61L2448.52,1632.84L2449.14,1634.06L2449.77,1635.27L2450.43,1636.46L2451.1,1637.65L2451.79,1638.83L2452.51,1639.99L2453.24,1641.15L2453.99,1642.29L2454.76,1643.42L2455.54,1644.54L2456.35,1645.64L2457.17,1646.74L2458.01,1647.82L2458.87,1648.88L2459.75,1649.94L2460.64,1650.98L2461.56,1652L2462.49,1653.02L2463.43,1654.01L2464.4,1655L2465.38,1655.97L2466.38,1656.92L2467.39,1657.86L2468.43,1658.78L2469.47,1659.69L2470.54,1660.58L2471.62,1661.45L2472.71,1662.31L2473.83,1663.15L2474.95,1663.98L2476.1,1664.78L2477.26,1665.57L2478.43,1666.35L2479.62,1667.1L2480.83,1667.84L2482.1,1668.58L2859.07,1885.88L2860.35,1886.61L2861.59,1887.28L2862.84,1887.93L2864.1,1888.56L2865.36,1889.17L2866.63,1889.75L2867.91,1890.32L2869.2,1890.86L2870.49,1891.38L2871.79,1891.87L2873.09,1892.35L2874.4,1892.8L2875.72,1893.23L2877.04,1893.64L2878.36,1894.03L2879.69,1894.39L2881.03,1894.73L2882.37,1895.05L2883.71,1895.35L2885.06,1895.63L2886.41,1895.88L2887.76,1896.11L2889.12,1896.32L2890.47,1896.51L2891.84,1896.67L2893.2,1896.82L2894.56,1896.94L2895.93,1897.04L2897.3,1897.12L2898.66,1897.17L2900.03,1897.2L2901.4,1897.22L2902.77,1897.2L2904.14,1897.17L2905.51,1897.12L2906.87,1897.04L2908.24,1896.94L2909.6,1896.82L2910.97,1896.67L2912.33,1896.51L2913.68,1896.32L2915.04,1896.11L2916.39,1895.88L2917.74,1895.63L2919.09,1895.35L2920.43,1895.05L2921.77,1894.73L2923.11,1894.39L2924.44,1894.03L2925.76,1893.64L2927.09,1893.23L2928.4,1892.8L2929.71,1892.35L2931.02,1891.87L2932.31,1891.38L2933.61,1890.86L2934.89,1890.32L2936.17,1889.75L2937.44,1889.17L2938.71,1888.56L2939.96,1887.93L2941.21,1887.28L2942.45,1886.61L2943.73,1885.88L3320.74,1668.58L3322.01,1667.84L3323.21,1667.1L3324.4,1666.34L3325.58,1665.57L3326.74,1664.78L3327.88,1663.98L3329.01,1663.15L3330.12,1662.31L3331.22,1661.45L3332.3,1660.58L3333.36,1659.69L3334.41,1658.78L3335.44,1657.86L3336.46,1656.92L3337.46,1655.97L3338.44,1655L3339.4,1654.01L3340.35,1653.02L3341.28,1652L3342.19,1650.98L3343.09,1649.94L3343.96,1648.88L3344.82,1647.82L3345.66,1646.74L3346.49,1645.64L3347.3,1644.54L3348.08,1643.42L3348.85,1642.29L3349.6,1641.15L3350.33,1639.99L3351.05,1638.83L3351.74,1637.65L3352.41,1636.46L3353.07,1635.27L3353.7,1634.06L3354.32,1632.84L3354.91,1631.61L3355.49,1630.37L3356.05,1629.12L3356.58,1627.86L3357.1,1626.59L3357.59,1625.32L3358.07,1624.04L3358.52,1622.74L3358.96,1621.44L3359.37,1620.13L3359.76,1618.82L3360.13,1617.49L3360.48,1616.16L3360.81,1614.83L3361.11,1613.48L3361.39,1612.13L3361.66,1610.77L3361.9,1609.41L3362.11,1608.04L3362.31,1606.67L3362.48,1605.29L3362.63,1603.9L3362.76,1602.51L3362.87,1601.12L3362.95,1599.72L3363.01,1598.32L3363.04,1596.91L3363.05,1595.44L3363.05,1160.82L3363.04,1159.35L3363.01,1157.95L3362.95,1156.54L3362.87,1155.14L3362.76,1153.75L3362.63,1152.36L3362.48,1150.97L3362.31,1149.59L3362.11,1148.22L3361.9,1146.85L3361.66,1145.49L3361.39,1144.13L3361.11,1142.78L3360.81,1141.43L3360.48,1140.1L3360.13,1138.77L3359.76,1137.44L3359.37,1136.13L3358.96,1134.82L3358.52,1133.52L3358.07,1132.22L3357.59,1130.94L3357.1,1129.66L3356.58,1128.4L3356.05,1127.14L3355.49,1125.89L3354.91,1124.65L3354.32,1123.42L3353.7,1122.2L3353.07,1120.99L3352.41,1119.79L3351.74,1118.61L3351.05,1117.43L3350.33,1116.26L3349.6,1115.11L3348.85,1113.97L3348.08,1112.84L3347.3,1111.72L3346.49,1110.61L3345.67,1109.52L3344.82,1108.44L3343.96,1107.37L3343.09,1106.32L3342.19,1105.28L3341.28,1104.25L3340.35,1103.24L3339.4,1102.24L3338.44,1101.26L3337.46,1100.29L3336.46,1099.34L3335.44,1098.4L3334.41,1097.48L3333.37,1096.58L3332.3,1095.68L3331.22,1094.81L3330.13,1093.95L3329.01,1093.11L3327.89,1092.29L3326.74,1091.48L3325.58,1090.69L3324.41,1089.92L3323.22,1089.17L3322.01,1088.43L3320.74,1087.68L2943.73,870.366L2942.45,869.643L2941.21,868.969L2939.96,868.318L2938.71,867.688L2937.44,867.081L2936.17,866.496L2934.89,865.933L2933.61,865.392L2932.31,864.873L2931.02,864.377L2929.71,863.902L2928.4,863.45L2927.09,863.019L2925.76,862.611L2924.44,862.225L2923.11,861.86L2921.77,861.518L2920.43,861.198L2919.09,860.9L2917.74,860.624L2916.39,860.37L2915.04,860.139L2913.68,859.929L2912.33,859.741L2910.97,859.576L2909.6,859.432L2908.24,859.311L2906.87,859.211L2905.51,859.134L2904.14,859.079L2902.77,859.046L2901.4,859.035L2900.03,859.046Z" id="BkXy6DTE0z"/>
        </g>
        <g id="SJV1Tv640f" serif:id="Shape 1 copy">
            <path d="M3364.17,1113.28C3364.17,1113.28 3366.76,1132.26 3338.3,1149.52C3309.83,1166.77 2901.85,1370.37 2901.85,1370.37" id="B1Skpv640G"/>
        </g>
        <g id="Hy8kawTE0M" serif:id="Shape 2">
            <path d="M2905.3,1365.19L2905.3,1896.21" id="BkwJpD6NAf"/>
        </g>
        <g id="rkOJaDTVRf" serif:id="Shape 1">
            <path d="M2448.16,1114.14C2448.16,1114.14 2443.84,1132.26 2472.31,1149.52C2500.77,1166.77 2905.3,1363.46 2905.3,1363.46" id="BJFk6waERG"/>
        </g>
    </g>
    <g id="HkcJaw640z" serif:id="container copy 2">
        <g id="H1skTPaVRz" serif:id="Forma 1 copy">
            <path d="M3544.8,724.919L3393.36,812.152C3381.1,819.216 3373.56,832.247 3373.56,846.354L3373.56,1020.81C3373.56,1034.92 3381.1,1047.94 3393.36,1055.01L3544.8,1142.24C3557.06,1149.29 3572.14,1149.29 3584.4,1142.24L3735.86,1055.01C3748.12,1047.94 3755.66,1034.92 3755.66,1020.81L3755.66,846.355C3755.66,832.247 3748.12,819.216 3735.86,812.153L3584.4,724.919C3572.14,717.868 3557.06,717.868 3544.8,724.919Z" id="S13kTP6EAG"/>
            <path d="M3565.24,719.636L3565.88,719.651L3566.52,719.677L3567.16,719.713L3567.8,719.76L3568.44,719.817L3569.08,719.884L3569.72,719.961L3570.35,720.049L3570.99,720.147L3571.62,720.256L3572.25,720.374L3572.89,720.504L3573.51,720.643L3574.14,720.793L3574.77,720.953L3575.39,721.123L3576.01,721.304L3576.63,721.495L3577.25,721.697L3577.86,721.908L3578.47,722.13L3579.08,722.363L3579.68,722.606L3580.29,722.859L3580.89,723.122L3581.48,723.396L3582.07,723.68L3582.66,723.974L3583.24,724.279L3583.83,724.594L3584.4,724.919L3735.86,812.153L3736.43,812.488L3737,812.832L3737.56,813.185L3738.11,813.546L3738.65,813.915L3739.18,814.293L3739.71,814.678L3740.23,815.072L3740.75,815.473L3741.25,815.882L3741.75,816.299L3742.24,816.723L3742.72,817.155L3743.2,817.594L3743.67,818.04L3744.13,818.493L3744.58,818.953L3745.02,819.42L3745.46,819.894L3745.89,820.374L3746.31,820.861L3746.72,821.354L3747.12,821.853L3747.51,822.359L3747.9,822.87L3748.28,823.388L3748.65,823.911L3749.01,824.441L3749.36,824.975L3749.7,825.516L3750.03,826.061L3750.36,826.612L3750.68,827.168L3750.98,827.729L3751.28,828.295L3751.57,828.866L3751.85,829.442L3752.12,830.022L3752.38,830.607L3752.63,831.196L3752.87,831.789L3753.1,832.387L3753.33,832.988L3753.54,833.593L3753.74,834.203L3753.93,834.816L3754.12,835.432L3754.29,836.052L3754.46,836.676L3754.61,837.302L3754.75,837.932L3754.89,838.565L3755.01,839.201L3755.12,839.839L3755.22,840.48L3755.31,841.124L3755.39,841.771L3755.47,842.419L3755.53,843.07L3755.57,843.723L3755.61,844.378L3755.64,845.035L3755.66,845.694L3755.66,846.355L3755.66,1020.81L3755.66,1021.47L3755.64,1022.13L3755.61,1022.79L3755.57,1023.44L3755.53,1024.1L3755.47,1024.75L3755.39,1025.39L3755.31,1026.04L3755.22,1026.68L3755.12,1027.33L3755.01,1027.96L3754.89,1028.6L3754.75,1029.23L3754.61,1029.86L3754.46,1030.49L3754.29,1031.11L3754.12,1031.73L3753.93,1032.35L3753.74,1032.96L3753.54,1033.57L3753.33,1034.17L3753.1,1034.78L3752.87,1035.37L3752.63,1035.97L3752.38,1036.56L3752.12,1037.14L3751.85,1037.72L3751.57,1038.3L3751.28,1038.87L3750.98,1039.43L3750.68,1040L3750.36,1040.55L3750.03,1041.1L3749.7,1041.65L3749.36,1042.19L3749.01,1042.72L3748.65,1043.25L3748.28,1043.78L3747.9,1044.29L3747.51,1044.8L3747.12,1045.31L3746.72,1045.81L3746.31,1046.3L3745.89,1046.79L3745.46,1047.27L3745.02,1047.74L3744.58,1048.21L3744.13,1048.67L3743.67,1049.12L3743.2,1049.57L3742.72,1050.01L3742.24,1050.44L3741.75,1050.87L3741.25,1051.28L3740.75,1051.69L3740.23,1052.09L3739.71,1052.49L3739.18,1052.87L3738.65,1053.25L3738.11,1053.62L3737.56,1053.98L3737,1054.33L3736.43,1054.68L3735.86,1055.01L3584.4,1142.24L3583.83,1142.57L3583.24,1142.88L3582.66,1143.19L3582.07,1143.48L3581.48,1143.76L3580.89,1144.04L3580.29,1144.3L3579.68,1144.55L3579.08,1144.8L3578.47,1145.03L3577.86,1145.25L3577.25,1145.46L3576.63,1145.66L3576.01,1145.86L3575.39,1146.04L3574.77,1146.21L3574.14,1146.37L3573.51,1146.52L3572.89,1146.66L3572.25,1146.79L3571.62,1146.9L3570.99,1147.01L3570.35,1147.11L3569.72,1147.2L3569.08,1147.28L3568.44,1147.34L3567.8,1147.4L3567.16,1147.45L3566.52,1147.48L3565.88,1147.51L3565.24,1147.52L3564.6,1147.53L3563.96,1147.52L3563.32,1147.51L3562.68,1147.48L3562.04,1147.45L3561.4,1147.4L3560.76,1147.34L3560.12,1147.28L3559.49,1147.2L3558.85,1147.11L3558.22,1147.01L3557.58,1146.9L3556.95,1146.79L3556.32,1146.66L3555.69,1146.52L3555.06,1146.37L3554.44,1146.21L3553.81,1146.04L3553.19,1145.86L3552.58,1145.66L3551.96,1145.46L3551.35,1145.25L3550.73,1145.03L3550.13,1144.8L3549.52,1144.55L3548.92,1144.3L3548.32,1144.04L3547.72,1143.76L3547.13,1143.48L3546.55,1143.19L3545.96,1142.88L3545.38,1142.57L3544.8,1142.24L3393.36,1055.01L3392.78,1054.68L3392.22,1054.33L3391.66,1053.98L3391.11,1053.62L3390.57,1053.25L3390.03,1052.87L3389.51,1052.49L3388.99,1052.09L3388.47,1051.69L3387.97,1051.28L3387.47,1050.87L3386.98,1050.44L3386.49,1050.01L3386.02,1049.57L3385.55,1049.12L3385.09,1048.67L3384.64,1048.21L3384.2,1047.74L3383.76,1047.27L3383.33,1046.79L3382.91,1046.3L3382.5,1045.81L3382.1,1045.31L3381.7,1044.8L3381.32,1044.29L3380.94,1043.78L3380.57,1043.25L3380.21,1042.72L3379.86,1042.19L3379.52,1041.65L3379.18,1041.1L3378.86,1040.55L3378.54,1040L3378.24,1039.43L3377.94,1038.87L3377.65,1038.3L3377.37,1037.72L3377.1,1037.14L3376.84,1036.56L3376.59,1035.97L3376.35,1035.37L3376.12,1034.78L3375.89,1034.17L3375.68,1033.57L3375.48,1032.96L3375.28,1032.35L3375.1,1031.73L3374.93,1031.11L3374.76,1030.49L3374.61,1029.86L3374.47,1029.23L3374.33,1028.6L3374.21,1027.96L3374.1,1027.33L3374,1026.68L3373.91,1026.04L3373.82,1025.39L3373.75,1024.75L3373.69,1024.1L3373.64,1023.44L3373.61,1022.79L3373.58,1022.13L3373.56,1021.47L3373.56,1020.81L3373.56,846.354L3373.56,845.693L3373.58,845.034L3373.61,844.377L3373.64,843.722L3373.69,843.069L3373.75,842.419L3373.82,841.77L3373.91,841.124L3374,840.48L3374.1,839.839L3374.21,839.2L3374.33,838.564L3374.47,837.931L3374.61,837.302L3374.76,836.675L3374.93,836.052L3375.1,835.432L3375.28,834.815L3375.48,834.202L3375.68,833.593L3375.89,832.988L3376.12,832.386L3376.35,831.789L3376.59,831.195L3376.84,830.606L3377.1,830.022L3377.37,829.441L3377.65,828.866L3377.94,828.295L3378.24,827.729L3378.54,827.168L3378.86,826.612L3379.18,826.061L3379.52,825.515L3379.86,824.975L3380.21,824.44L3380.57,823.911L3380.94,823.388L3381.32,822.87L3381.7,822.358L3382.1,821.853L3382.5,821.353L3382.91,820.86L3383.33,820.373L3383.76,819.893L3384.2,819.419L3384.64,818.953L3385.09,818.492L3385.55,818.039L3386.02,817.593L3386.49,817.154L3386.98,816.723L3387.47,816.298L3387.97,815.882L3388.47,815.473L3388.99,815.071L3389.51,814.678L3390.03,814.292L3390.57,813.915L3391.11,813.545L3391.66,813.184L3392.22,812.832L3392.78,812.487L3393.36,812.152L3544.8,724.919L3545.38,724.594L3545.96,724.279L3546.55,723.974L3547.13,723.68L3547.72,723.396L3548.32,723.122L3548.92,722.859L3549.52,722.606L3550.13,722.363L3550.73,722.13L3551.35,721.908L3551.96,721.697L3552.58,721.495L3553.19,721.304L3553.81,721.123L3554.44,720.953L3555.06,720.793L3555.69,720.643L3556.32,720.504L3556.95,720.374L3557.58,720.256L3558.22,720.147L3558.85,720.049L3559.49,719.961L3560.12,719.884L3560.76,719.817L3561.4,719.76L3562.04,719.713L3562.68,719.677L3563.32,719.651L3563.96,719.636L3564.6,719.631L3565.24,719.636ZM3564.16,732.286L3563.73,732.297L3563.29,732.314L3562.86,732.339L3562.42,732.37L3561.98,732.409L3561.55,732.455L3561.12,732.508L3560.68,732.568L3560.25,732.634L3559.82,732.708L3559.39,732.789L3558.96,732.877L3558.53,732.972L3558.1,733.074L3557.68,733.183L3557.25,733.299L3556.83,733.422L3556.41,733.553L3555.99,733.689L3555.57,733.834L3555.15,733.985L3554.74,734.143L3554.33,734.308L3553.92,734.481L3553.51,734.66L3553.11,734.847L3552.7,735.04L3552.3,735.241L3551.9,735.449L3551.51,735.664L3551.07,735.91L3399.72,823.088L3399.28,823.343L3398.9,823.577L3398.52,823.818L3398.14,824.064L3397.77,824.316L3397.41,824.573L3397.05,824.835L3396.7,825.102L3396.34,825.376L3396,825.655L3395.66,825.938L3395.33,826.227L3395,826.521L3394.68,826.817L3394.36,827.122L3394.04,827.431L3393.74,827.741L3393.44,828.06L3393.14,828.384L3392.85,828.708L3392.57,829.039L3392.29,829.374L3392.01,829.714L3391.74,830.058L3391.48,830.406L3391.22,830.758L3390.97,831.113L3390.73,831.472L3390.49,831.837L3390.26,832.206L3390.03,832.575L3389.81,832.948L3389.59,833.328L3389.39,833.71L3389.18,834.094L3388.99,834.48L3388.8,834.872L3388.61,835.268L3388.44,835.664L3388.27,836.062L3388.1,836.468L3387.94,836.875L3387.79,837.28L3387.65,837.691L3387.51,838.106L3387.38,838.522L3387.26,838.938L3387.14,839.358L3387.03,839.784L3386.92,840.208L3386.83,840.635L3386.74,841.068L3386.65,841.498L3386.58,841.928L3386.51,842.364L3386.45,842.8L3386.39,843.239L3386.34,843.682L3386.3,844.12L3386.27,844.565L3386.24,845.012L3386.22,845.455L3386.21,845.905L3386.21,846.408L3386.21,1020.76L3386.21,1021.26L3386.22,1021.71L3386.24,1022.15L3386.27,1022.6L3386.3,1023.04L3386.34,1023.48L3386.39,1023.92L3386.45,1024.36L3386.51,1024.8L3386.58,1025.24L3386.65,1025.67L3386.74,1026.1L3386.83,1026.53L3386.92,1026.95L3387.03,1027.38L3387.14,1027.81L3387.26,1028.22L3387.38,1028.64L3387.51,1029.06L3387.65,1029.47L3387.79,1029.88L3387.94,1030.29L3388.1,1030.69L3388.27,1031.1L3388.44,1031.5L3388.61,1031.89L3388.8,1032.29L3388.99,1032.68L3389.18,1033.07L3389.39,1033.45L3389.59,1033.83L3389.81,1034.21L3390.03,1034.59L3390.26,1034.96L3390.49,1035.33L3390.73,1035.69L3390.97,1036.05L3391.22,1036.4L3391.48,1036.76L3391.74,1037.1L3392.01,1037.45L3392.29,1037.79L3392.57,1038.12L3392.85,1038.45L3393.14,1038.78L3393.44,1039.1L3393.74,1039.42L3394.05,1039.73L3394.36,1040.04L3394.68,1040.35L3395,1040.64L3395.33,1040.94L3395.66,1041.23L3396,1041.51L3396.35,1041.79L3396.7,1042.06L3397.05,1042.33L3397.41,1042.59L3397.78,1042.85L3398.14,1043.1L3398.52,1043.35L3398.9,1043.59L3399.29,1043.82L3399.72,1044.08L3551.07,1131.25L3551.51,1131.5L3551.9,1131.71L3552.3,1131.92L3552.7,1132.12L3553.11,1132.31L3553.51,1132.5L3553.92,1132.68L3554.33,1132.85L3554.74,1133.02L3555.15,1133.17L3555.57,1133.33L3555.99,1133.47L3556.41,1133.61L3556.83,1133.74L3557.25,1133.86L3557.68,1133.98L3558.1,1134.09L3558.53,1134.19L3558.96,1134.28L3559.39,1134.37L3559.82,1134.45L3560.25,1134.53L3560.68,1134.59L3561.12,1134.65L3561.55,1134.7L3561.98,1134.75L3562.42,1134.79L3562.86,1134.82L3563.29,1134.85L3563.73,1134.86L3564.16,1134.87L3564.6,1134.88L3565.04,1134.87L3565.48,1134.86L3565.91,1134.85L3566.35,1134.82L3566.78,1134.79L3567.22,1134.75L3567.66,1134.7L3568.09,1134.65L3568.52,1134.59L3568.95,1134.53L3569.39,1134.45L3569.82,1134.37L3570.25,1134.28L3570.68,1134.19L3571.1,1134.09L3571.53,1133.98L3571.95,1133.86L3572.38,1133.74L3572.8,1133.61L3573.22,1133.47L3573.63,1133.33L3574.05,1133.17L3574.47,1133.02L3574.88,1132.85L3575.29,1132.68L3575.7,1132.5L3576.1,1132.31L3576.5,1132.12L3576.91,1131.92L3577.3,1131.71L3577.7,1131.5L3578.14,1131.25L3729.5,1044.08L3729.93,1043.82L3730.32,1043.59L3730.7,1043.35L3731.07,1043.1L3731.44,1042.85L3731.81,1042.59L3732.17,1042.33L3732.52,1042.06L3732.87,1041.79L3733.22,1041.51L3733.56,1041.23L3733.89,1040.94L3734.22,1040.64L3734.54,1040.35L3734.86,1040.04L3735.17,1039.73L3735.48,1039.42L3735.78,1039.1L3736.08,1038.78L3736.37,1038.45L3736.65,1038.12L3736.93,1037.79L3737.21,1037.45L3737.48,1037.1L3737.74,1036.76L3737.99,1036.4L3738.24,1036.05L3738.49,1035.69L3738.73,1035.32L3738.96,1034.96L3739.19,1034.59L3739.41,1034.21L3739.63,1033.83L3739.83,1033.45L3740.03,1033.07L3740.23,1032.68L3740.42,1032.29L3740.6,1031.9L3740.78,1031.5L3740.95,1031.1L3741.12,1030.69L3741.27,1030.29L3741.43,1029.88L3741.57,1029.47L3741.71,1029.06L3741.84,1028.64L3741.96,1028.22L3742.08,1027.8L3742.19,1027.38L3742.3,1026.95L3742.39,1026.53L3742.48,1026.1L3742.57,1025.67L3742.64,1025.24L3742.71,1024.8L3742.77,1024.36L3742.83,1023.92L3742.88,1023.48L3742.92,1023.04L3742.95,1022.6L3742.98,1022.15L3742.99,1021.71L3743.01,1021.26L3743.01,1020.76L3743.01,846.409L3743.01,845.906L3742.99,845.456L3742.98,845.009L3742.95,844.565L3742.92,844.124L3742.88,843.682L3742.83,843.24L3742.77,842.801L3742.71,842.365L3742.64,841.929L3742.57,841.499L3742.48,841.065L3742.39,840.635L3742.3,840.211L3742.19,839.785L3742.08,839.362L3741.96,838.939L3741.84,838.519L3741.71,838.107L3741.57,837.694L3741.43,837.28L3741.27,836.872L3741.12,836.469L3740.95,836.065L3740.78,835.663L3740.6,835.266L3740.42,834.875L3740.23,834.483L3740.03,834.092L3739.83,833.708L3739.63,833.329L3739.41,832.951L3739.19,832.575L3738.96,832.204L3738.73,831.84L3738.49,831.475L3738.24,831.114L3737.99,830.758L3737.74,830.406L3737.48,830.059L3737.21,829.716L3736.93,829.375L3736.65,829.04L3736.37,828.71L3736.08,828.382L3735.78,828.061L3735.48,827.744L3735.17,827.43L3734.86,827.123L3734.54,826.819L3734.22,826.52L3733.89,826.228L3733.56,825.94L3733.22,825.656L3732.87,825.377L3732.52,825.104L3732.17,824.836L3731.81,824.574L3731.45,824.318L3731.08,824.065L3730.7,823.819L3730.32,823.579L3729.94,823.344L3729.5,823.089L3578.14,735.911L3577.7,735.664L3577.3,735.449L3576.91,735.242L3576.5,735.04L3576.1,734.847L3575.7,734.661L3575.29,734.481L3574.88,734.309L3574.47,734.144L3574.05,733.985L3573.64,733.834L3573.22,733.69L3572.8,733.553L3572.38,733.423L3571.95,733.299L3571.53,733.183L3571.1,733.074L3570.68,732.972L3570.25,732.877L3569.82,732.789L3569.39,732.708L3568.95,732.634L3568.52,732.568L3568.09,732.508L3567.66,732.455L3567.22,732.409L3566.78,732.37L3566.35,732.339L3565.91,732.314L3565.48,732.297L3565.04,732.286L3564.6,732.282L3564.16,732.286Z" id="S1pkpDpNAG"/>
        </g>
        <g id="HJ0JpD640z" serif:id="Shape 1">
            <path d="M3382.57,827.646C3382.57,827.646 3380.83,834.917 3392.26,841.84C3403.7,848.764 3566.17,927.697 3566.17,927.697" id="Sk1xJaw6N0G"/>
        </g>
        <g id="rklxk6Da4AG" serif:id="Shape 1 copy">
            <path d="M3750.47,827.3C3750.47,827.3 3751.51,834.917 3740.07,841.84C3728.64,848.764 3564.78,930.467 3564.78,930.467" id="Hybe1ava40f"/>
        </g>
        <g id="HJzg1pDpECz" serif:id="Shape 2">
            <path d="M3566.17,928.39L3566.17,1146.15" id="HkmgyaD6NAf"/>
        </g>
    </g>
    <g id="SyVgyTDaVAM_HJnwECERM" data-animator-group="true" data-animator-type="0"><g id="SyVgyTDaVAM" serif:id="container copy 4">
        <g id="HJSg16w64Az" serif:id="Forma 1 copy">
            <path d="M3625.66,1620.29L3531.61,1674.46C3524,1678.85 3519.32,1686.94 3519.32,1695.7L3519.32,1804.03C3519.32,1812.79 3524,1820.88 3531.61,1825.27L3625.66,1879.43C3633.27,1883.81 3642.63,1883.81 3650.25,1879.43L3744.3,1825.27C3751.91,1820.88 3756.59,1812.79 3756.59,1804.03L3756.59,1695.7C3756.59,1686.94 3751.91,1678.85 3744.3,1674.46L3650.25,1620.29C3642.63,1615.91 3633.27,1615.91 3625.66,1620.29Z" id="BJ8xJpwTE0z"/>
            <path d="M3638.75,1617.02L3639.54,1617.06L3640.34,1617.12L3641.13,1617.21L3641.92,1617.33L3642.7,1617.47L3643.49,1617.63L3644.26,1617.83L3645.04,1618.05L3645.8,1618.29L3646.56,1618.56L3647.32,1618.85L3648.06,1619.17L3648.8,1619.52L3649.53,1619.89L3650.25,1620.29L3744.3,1674.46L3745,1674.88L3745.69,1675.32L3746.36,1675.79L3747.01,1676.27L3747.64,1676.78L3748.26,1677.3L3748.86,1677.84L3749.43,1678.4L3749.99,1678.97L3750.52,1679.56L3751.04,1680.17L3751.53,1680.8L3752.01,1681.44L3752.46,1682.09L3752.89,1682.76L3753.3,1683.44L3753.69,1684.13L3754.05,1684.84L3754.39,1685.56L3754.71,1686.28L3755,1687.02L3755.27,1687.77L3755.52,1688.53L3755.74,1689.3L3755.94,1690.08L3756.11,1690.86L3756.26,1691.65L3756.38,1692.45L3756.47,1693.25L3756.54,1694.06L3756.58,1694.88L3756.59,1695.7L3756.59,1804.03L3756.58,1804.85L3756.54,1805.66L3756.47,1806.47L3756.38,1807.28L3756.26,1808.07L3756.11,1808.87L3755.94,1809.65L3755.74,1810.42L3755.52,1811.19L3755.27,1811.95L3755,1812.7L3754.71,1813.44L3754.39,1814.17L3754.05,1814.89L3753.69,1815.59L3753.3,1816.29L3752.89,1816.97L3752.46,1817.63L3752.01,1818.29L3751.53,1818.93L3751.04,1819.55L3750.52,1820.16L3749.99,1820.75L3749.43,1821.33L3748.86,1821.89L3748.26,1822.43L3747.64,1822.95L3747.01,1823.45L3746.36,1823.94L3745.69,1824.4L3745,1824.85L3744.3,1825.27L3650.25,1879.43L3649.53,1879.83L3648.8,1880.2L3648.06,1880.55L3647.32,1880.87L3646.56,1881.16L3645.8,1881.43L3645.04,1881.68L3644.26,1881.9L3643.49,1882.09L3642.7,1882.26L3641.92,1882.4L3641.13,1882.51L3640.34,1882.6L3639.54,1882.67L3638.75,1882.7L3637.95,1882.72L3637.16,1882.7L3636.36,1882.67L3635.57,1882.6L3634.77,1882.51L3633.99,1882.4L3633.2,1882.26L3632.42,1882.09L3631.64,1881.9L3630.87,1881.68L3630.1,1881.43L3629.34,1881.16L3628.59,1880.87L3627.84,1880.55L3627.1,1880.2L3626.38,1879.83L3625.66,1879.43L3531.61,1825.27L3530.91,1824.85L3530.22,1824.4L3529.55,1823.94L3528.9,1823.45L3528.26,1822.95L3527.65,1822.43L3527.06,1821.89L3526.48,1821.33L3525.92,1820.75L3525.39,1820.16L3524.87,1819.55L3524.38,1818.93L3523.9,1818.29L3523.45,1817.63L3523.02,1816.97L3522.61,1816.29L3522.22,1815.59L3521.86,1814.89L3521.52,1814.17L3521.2,1813.44L3520.91,1812.7L3520.64,1811.95L3520.39,1811.19L3520.17,1810.42L3519.97,1809.65L3519.8,1808.87L3519.65,1808.07L3519.53,1807.28L3519.44,1806.47L3519.37,1805.66L3519.33,1804.85L3519.32,1804.03L3519.32,1695.7L3519.33,1694.88L3519.37,1694.06L3519.44,1693.25L3519.53,1692.45L3519.65,1691.65L3519.8,1690.86L3519.97,1690.08L3520.17,1689.3L3520.39,1688.53L3520.64,1687.77L3520.91,1687.02L3521.2,1686.28L3521.52,1685.56L3521.86,1684.84L3522.22,1684.13L3522.61,1683.44L3523.02,1682.76L3523.45,1682.09L3523.9,1681.44L3524.38,1680.8L3524.87,1680.17L3525.39,1679.56L3525.92,1678.97L3526.48,1678.4L3527.06,1677.84L3527.65,1677.3L3528.26,1676.78L3528.9,1676.27L3529.55,1675.79L3530.22,1675.32L3530.91,1674.88L3531.61,1674.46L3625.66,1620.29L3626.38,1619.89L3627.1,1619.52L3627.84,1619.17L3628.59,1618.85L3629.34,1618.56L3630.1,1618.29L3630.87,1618.05L3631.64,1617.83L3632.42,1617.63L3633.2,1617.47L3633.99,1617.33L3634.77,1617.21L3635.57,1617.12L3636.36,1617.06L3637.16,1617.02L3637.95,1617.01L3638.75,1617.02ZM3637.56,1629.66L3637.18,1629.68L3636.79,1629.72L3636.4,1629.76L3636.02,1629.82L3635.64,1629.88L3635.26,1629.97L3634.88,1630.06L3634.5,1630.16L3634.13,1630.28L3633.76,1630.41L3633.39,1630.56L3633.03,1630.71L3632.67,1630.88L3632.32,1631.06L3631.88,1631.31L3538.02,1685.37L3537.59,1685.63L3537.25,1685.84L3536.93,1686.07L3536.61,1686.3L3536.3,1686.55L3536,1686.8L3535.72,1687.06L3535.43,1687.34L3535.16,1687.61L3534.91,1687.9L3534.66,1688.19L3534.42,1688.5L3534.19,1688.81L3533.97,1689.13L3533.76,1689.45L3533.56,1689.78L3533.38,1690.11L3533.2,1690.45L3533.03,1690.8L3532.88,1691.15L3532.74,1691.51L3532.61,1691.87L3532.49,1692.24L3532.38,1692.61L3532.29,1692.98L3532.2,1693.36L3532.13,1693.74L3532.08,1694.13L3532.03,1694.51L3532,1694.9L3531.98,1695.3L3531.97,1695.8L3531.97,1803.92L3531.98,1804.43L3532,1804.82L3532.03,1805.21L3532.08,1805.6L3532.13,1805.98L3532.2,1806.36L3532.29,1806.74L3532.38,1807.12L3532.49,1807.49L3532.61,1807.85L3532.74,1808.21L3532.88,1808.57L3533.03,1808.92L3533.2,1809.27L3533.37,1809.61L3533.56,1809.95L3533.76,1810.28L3533.97,1810.6L3534.19,1810.92L3534.42,1811.23L3534.66,1811.53L3534.91,1811.83L3535.16,1812.11L3535.43,1812.39L3535.72,1812.66L3536.01,1812.92L3536.3,1813.18L3536.61,1813.42L3536.93,1813.66L3537.25,1813.88L3537.59,1814.1L3538.02,1814.36L3631.88,1868.42L3632.32,1868.66L3632.67,1868.84L3633.03,1869.01L3633.39,1869.17L3633.76,1869.31L3634.13,1869.44L3634.5,1869.56L3634.88,1869.66L3635.26,1869.76L3635.64,1869.84L3636.02,1869.91L3636.4,1869.96L3636.79,1870.01L3637.18,1870.04L3637.56,1870.06L3637.95,1870.06L3638.34,1870.06L3638.72,1870.04L3639.11,1870.01L3639.5,1869.96L3639.88,1869.91L3640.26,1869.84L3640.64,1869.76L3641.02,1869.66L3641.4,1869.56L3641.77,1869.44L3642.14,1869.31L3642.51,1869.17L3642.87,1869.01L3643.23,1868.84L3643.58,1868.66L3644.03,1868.42L3737.89,1814.36L3738.32,1814.1L3738.66,1813.88L3738.98,1813.66L3739.3,1813.42L3739.61,1813.18L3739.91,1812.92L3740.2,1812.66L3740.47,1812.39L3740.74,1812.11L3741,1811.83L3741.25,1811.53L3741.49,1811.23L3741.72,1810.92L3741.94,1810.6L3742.15,1810.28L3742.35,1809.95L3742.54,1809.61L3742.71,1809.27L3742.88,1808.92L3743.03,1808.57L3743.17,1808.21L3743.3,1807.85L3743.42,1807.49L3743.53,1807.12L3743.62,1806.74L3743.71,1806.36L3743.78,1805.98L3743.84,1805.6L3743.88,1805.21L3743.91,1804.82L3743.93,1804.42L3743.94,1803.92L3743.94,1695.8L3743.93,1695.3L3743.91,1694.91L3743.88,1694.51L3743.84,1694.13L3743.78,1693.74L3743.71,1693.36L3743.62,1692.98L3743.53,1692.61L3743.42,1692.24L3743.3,1691.87L3743.17,1691.51L3743.03,1691.15L3742.88,1690.8L3742.71,1690.45L3742.54,1690.11L3742.35,1689.78L3742.15,1689.45L3741.94,1689.12L3741.72,1688.81L3741.49,1688.5L3741.26,1688.2L3741,1687.9L3740.74,1687.61L3740.47,1687.33L3740.2,1687.07L3739.91,1686.8L3739.61,1686.55L3739.3,1686.31L3738.99,1686.07L3738.66,1685.85L3738.33,1685.63L3737.89,1685.37L3644.03,1631.31L3643.59,1631.06L3643.23,1630.88L3642.87,1630.71L3642.51,1630.56L3642.14,1630.41L3641.77,1630.28L3641.4,1630.16L3641.03,1630.06L3640.65,1629.97L3640.26,1629.88L3639.88,1629.82L3639.5,1629.76L3639.11,1629.72L3638.73,1629.68L3638.34,1629.66L3637.95,1629.66L3637.56,1629.66Z" id="ryPxyaDpERG"/>
        </g>
        <g id="ryugkTD6VCz" serif:id="Shape 1">
            <path d="M3524.91,1684.08C3524.91,1684.08 3523.84,1688.6 3530.93,1692.89C3538.03,1697.19 3638.92,1746.21 3638.92,1746.21" id="Bktey6waECG"/>
        </g>
        <g id="rJ9lk6vTECG" serif:id="Shape 1 copy">
            <path d="M3753.37,1683.87C3753.37,1683.87 3754.01,1688.6 3746.91,1692.89C3739.81,1697.19 3638.06,1747.93 3638.06,1747.93" id="r1ixkTwa4AM"/>
        </g>
        <g id="BynxJpPTERz" serif:id="Shape 2">
            <path d="M3638.92,1746.64L3638.92,1881.86" id="B1al1TwTVRf"/>
        </g>
    </g></g>
    <g id="ry0eyTvTV0M_BJ9krAN0M" data-animator-group="true" data-animator-type="0"><g id="ry0eyTvTV0M" serif:id="container copy 5">
        <path id="BJ1ZJ6PTERz" serif:id="Shape 1" d="M2673.66,2001.64C2673.66,2001.64 2672.58,2006.16 2679.68,2010.46C2686.78,2014.76 2787.67,2063.77 2787.67,2063.77"/>
        <path id="BJlZyavaVCM" serif:id="Shape 1 copy" d="M2902.11,2001.43C2902.11,2001.43 2902.76,2006.16 2895.66,2010.46C2888.56,2014.76 2786.81,2065.49 2786.81,2065.49"/>
        <path id="rJW-y6waVAz" serif:id="Shape 2" d="M2787.67,2064.2L2787.67,2199.42"/>
        <path id="BJzbkTDaNAf" serif:id="Forma 1 copy" d="M2787.49,1934.58L2788.29,1934.62L2789.08,1934.69L2789.87,1934.78L2790.66,1934.89L2791.45,1935.03L2792.23,1935.2L2793.01,1935.39L2793.78,1935.61L2794.55,1935.85L2795.31,1936.12L2796.06,1936.42L2796.81,1936.74L2797.55,1937.09L2798.27,1937.46L2798.99,1937.85L2893.05,1992.02L2893.75,1992.45L2894.44,1992.89L2895.11,1993.35L2895.76,1993.84L2896.39,1994.34L2897.01,1994.86L2897.6,1995.4L2898.18,1995.96L2898.73,1996.54L2899.27,1997.13L2899.78,1997.74L2900.28,1998.36L2900.75,1999L2901.21,1999.65L2901.64,2000.32L2902.05,2001L2902.43,2001.7L2902.8,2002.4L2903.14,2003.12L2903.46,2003.85L2903.75,2004.59L2904.02,2005.34L2904.27,2006.1L2904.49,2006.86L2904.69,2007.64L2904.86,2008.42L2905,2009.22L2905.12,2010.01L2905.22,2010.82L2905.28,2011.63L2905.33,2012.44L2905.34,2013.26L2905.34,2121.59L2905.33,2122.41L2905.28,2123.23L2905.22,2124.04L2905.12,2124.84L2905,2125.64L2904.86,2126.43L2904.69,2127.21L2904.49,2127.99L2904.27,2128.76L2904.02,2129.52L2903.75,2130.27L2903.46,2131.01L2903.14,2131.73L2902.8,2132.45L2902.43,2133.16L2902.05,2133.85L2901.64,2134.53L2901.21,2135.2L2900.75,2135.85L2900.28,2136.49L2899.78,2137.12L2899.27,2137.72L2898.73,2138.32L2898.18,2138.89L2897.6,2139.45L2897.01,2139.99L2896.39,2140.51L2895.76,2141.02L2895.11,2141.5L2894.44,2141.97L2893.75,2142.41L2893.05,2142.83L2798.99,2197L2798.27,2197.39L2797.55,2197.77L2796.81,2198.11L2796.06,2198.43L2795.31,2198.73L2794.55,2199L2793.78,2199.24L2793.01,2199.46L2792.23,2199.65L2791.45,2199.82L2790.66,2199.96L2789.87,2200.08L2789.08,2200.17L2788.29,2200.23L2787.49,2200.27L2786.7,2200.28L2785.9,2200.27L2785.11,2200.23L2784.31,2200.17L2783.52,2200.08L2782.73,2199.96L2781.95,2199.82L2781.16,2199.65L2780.39,2199.46L2779.61,2199.24L2778.85,2199L2778.09,2198.73L2777.33,2198.43L2776.59,2198.11L2775.85,2197.77L2775.12,2197.39L2774.4,2197L2680.36,2142.83L2679.65,2142.41L2678.97,2141.97L2678.3,2141.5L2677.64,2141.02L2677.01,2140.51L2676.4,2139.99L2675.8,2139.45L2675.23,2138.89L2674.67,2138.32L2674.14,2137.72L2673.62,2137.12L2673.12,2136.49L2672.65,2135.85L2672.2,2135.2L2671.77,2134.53L2671.36,2133.85L2670.97,2133.16L2670.61,2132.45L2670.27,2131.73L2669.95,2131.01L2669.65,2130.27L2669.38,2129.52L2669.14,2128.76L2668.92,2127.99L2668.72,2127.21L2668.55,2126.43L2668.4,2125.64L2668.28,2124.84L2668.19,2124.04L2668.12,2123.23L2668.08,2122.41L2668.07,2121.59L2668.07,2013.26L2668.08,2012.44L2668.12,2011.63L2668.19,2010.82L2668.28,2010.01L2668.4,2009.22L2668.55,2008.42L2668.72,2007.64L2668.92,2006.86L2669.14,2006.1L2669.38,2005.34L2669.65,2004.59L2669.95,2003.85L2670.27,2003.12L2670.61,2002.4L2670.97,2001.7L2671.36,2001L2671.77,2000.32L2672.2,1999.65L2672.65,1999L2673.12,1998.36L2673.62,1997.74L2674.14,1997.13L2674.67,1996.54L2675.23,1995.96L2675.8,1995.4L2676.4,1994.86L2677.01,1994.34L2677.64,1993.84L2678.3,1993.35L2678.97,1992.89L2679.65,1992.44L2680.36,1992.02L2774.4,1937.85L2775.12,1937.46L2775.85,1937.09L2776.59,1936.74L2777.33,1936.42L2778.09,1936.12L2778.85,1935.85L2779.61,1935.61L2780.39,1935.39L2781.16,1935.2L2781.95,1935.03L2782.73,1934.89L2783.52,1934.78L2784.31,1934.69L2785.11,1934.62L2785.9,1934.58L2786.7,1934.57L2787.49,1934.58ZM2786.31,1947.23L2785.92,1947.25L2785.53,1947.28L2785.15,1947.32L2784.76,1947.38L2784.38,1947.45L2784,1947.53L2783.62,1947.62L2783.25,1947.73L2782.88,1947.85L2782.51,1947.98L2782.14,1948.12L2781.78,1948.28L2781.42,1948.45L2781.06,1948.63L2780.62,1948.87L2686.77,2002.93L2686.33,2003.19L2686,2003.41L2685.67,2003.63L2685.35,2003.87L2685.05,2004.11L2684.75,2004.37L2684.46,2004.63L2684.18,2004.9L2683.91,2005.18L2683.65,2005.46L2683.4,2005.76L2683.16,2006.06L2682.93,2006.37L2682.72,2006.69L2682.51,2007.01L2682.31,2007.34L2682.12,2007.68L2681.95,2008.02L2681.78,2008.36L2681.63,2008.72L2681.48,2009.08L2681.35,2009.44L2681.24,2009.8L2681.13,2010.17L2681.03,2010.55L2680.95,2010.92L2680.88,2011.31L2680.82,2011.69L2680.78,2012.08L2680.74,2012.47L2680.72,2012.86L2680.72,2013.37L2680.72,2121.49L2680.72,2121.99L2680.74,2122.38L2680.78,2122.78L2680.82,2123.16L2680.88,2123.55L2680.95,2123.93L2681.03,2124.31L2681.13,2124.68L2681.24,2125.05L2681.35,2125.42L2681.48,2125.78L2681.63,2126.14L2681.78,2126.49L2681.95,2126.84L2682.12,2127.18L2682.31,2127.51L2682.51,2127.84L2682.72,2128.17L2682.93,2128.48L2683.16,2128.79L2683.4,2129.09L2683.65,2129.39L2683.91,2129.68L2684.18,2129.96L2684.46,2130.23L2684.75,2130.49L2685.05,2130.74L2685.36,2130.99L2685.67,2131.22L2686,2131.45L2686.34,2131.66L2686.77,2131.92L2780.62,2185.98L2781.06,2186.22L2781.42,2186.41L2781.78,2186.57L2782.14,2186.73L2782.51,2186.87L2782.88,2187.01L2783.25,2187.12L2783.63,2187.23L2784,2187.32L2784.38,2187.4L2784.77,2187.47L2785.15,2187.53L2785.53,2187.57L2785.92,2187.6L2786.31,2187.62L2786.7,2187.63L2787.08,2187.62L2787.47,2187.6L2787.86,2187.57L2788.24,2187.53L2788.63,2187.47L2789.01,2187.4L2789.39,2187.32L2789.77,2187.23L2790.15,2187.12L2790.52,2187.01L2790.89,2186.87L2791.26,2186.73L2791.62,2186.57L2791.98,2186.41L2792.33,2186.22L2792.77,2185.98L2886.64,2131.92L2887.07,2131.66L2887.4,2131.45L2887.73,2131.22L2888.05,2130.99L2888.36,2130.74L2888.65,2130.49L2888.94,2130.23L2889.22,2129.95L2889.49,2129.68L2889.75,2129.39L2890,2129.09L2890.24,2128.79L2890.47,2128.48L2890.69,2128.16L2890.9,2127.84L2891.1,2127.51L2891.28,2127.18L2891.46,2126.84L2891.63,2126.49L2891.78,2126.14L2891.92,2125.78L2892.05,2125.42L2892.17,2125.05L2892.28,2124.68L2892.37,2124.31L2892.45,2123.93L2892.52,2123.55L2892.58,2123.16L2892.63,2122.78L2892.66,2122.38L2892.68,2121.99L2892.69,2121.49L2892.69,2013.37L2892.68,2012.87L2892.66,2012.47L2892.63,2012.08L2892.58,2011.69L2892.52,2011.31L2892.45,2010.93L2892.37,2010.55L2892.28,2010.17L2892.17,2009.8L2892.05,2009.44L2891.92,2009.08L2891.78,2008.72L2891.63,2008.37L2891.46,2008.02L2891.28,2007.68L2891.1,2007.34L2890.9,2007.01L2890.69,2006.69L2890.47,2006.37L2890.24,2006.06L2890,2005.76L2889.75,2005.47L2889.49,2005.18L2889.22,2004.9L2888.94,2004.63L2888.66,2004.37L2888.36,2004.12L2888.05,2003.87L2887.73,2003.63L2887.41,2003.41L2887.07,2003.19L2886.64,2002.93L2792.77,1948.87L2792.33,1948.63L2791.98,1948.45L2791.62,1948.28L2791.26,1948.12L2790.89,1947.98L2790.52,1947.85L2790.15,1947.73L2789.77,1947.62L2789.39,1947.53L2789.01,1947.45L2788.63,1947.38L2788.25,1947.32L2787.86,1947.28L2787.47,1947.25L2787.09,1947.23L2786.7,1947.22L2786.31,1947.23Z"/>
    </g></g>
    <g id="rk7Z1TPa40G_HJuXL0VRG" data-animator-group="true" data-animator-type="0"><g id="rk7Z1TPa40G" serif:id="container copy 7">
        <g id="By4Z1Twa4Cz" serif:id="Shape 1">
            <path d="M2234.63,802.493C2234.63,802.493 2233.55,807.008 2240.65,811.307C2247.75,815.607 2348.64,864.621 2348.64,864.621" id="r1rWyTDpECz"/>
        </g>
        <g id="BJUbJaDpECM" serif:id="Shape 1 copy">
            <path d="M2463.08,802.278C2463.08,802.278 2463.73,807.008 2456.63,811.307C2449.53,815.607 2347.78,866.341 2347.78,866.341" id="BJwbJ6Pp40G"/>
        </g>
        <path id="rkdb16vpV0z" serif:id="Shape 2" d="M2348.64,865.051L2348.64,1000.27"/>
        <path id="BJFZkpvTE0z" serif:id="Forma 1 copy" d="M2348.46,735.432L2349.26,735.47L2350.05,735.534L2350.84,735.624L2351.63,735.74L2352.42,735.881L2353.2,736.047L2353.98,736.24L2354.75,736.458L2355.52,736.702L2356.28,736.971L2357.03,737.266L2357.78,737.587L2358.51,737.933L2359.24,738.305L2359.96,738.703L2454.01,792.872L2454.72,793.294L2455.41,793.737L2456.08,794.201L2456.73,794.685L2457.36,795.188L2457.97,795.71L2458.57,796.251L2459.14,796.809L2459.7,797.385L2460.24,797.977L2460.75,798.586L2461.25,799.21L2461.72,799.849L2462.17,800.502L2462.61,801.17L2463.01,801.851L2463.4,802.545L2463.76,803.251L2464.11,803.968L2464.42,804.697L2464.72,805.437L2464.99,806.186L2465.24,806.945L2465.46,807.713L2465.65,808.489L2465.82,809.273L2465.97,810.065L2466.09,810.863L2466.18,811.667L2466.25,812.476L2466.29,813.291L2466.31,814.11L2466.31,922.442L2466.29,923.261L2466.25,924.076L2466.18,924.885L2466.09,925.689L2465.97,926.487L2465.82,927.278L2465.65,928.062L2465.46,928.839L2465.24,929.606L2464.99,930.365L2464.72,931.115L2464.42,931.854L2464.11,932.583L2463.76,933.3L2463.4,934.006L2463.01,934.7L2462.61,935.381L2462.17,936.048L2461.72,936.702L2461.25,937.341L2460.75,937.965L2460.24,938.574L2459.7,939.166L2459.14,939.742L2458.57,940.3L2457.97,940.841L2457.36,941.364L2456.73,941.867L2456.08,942.351L2455.41,942.815L2454.72,943.258L2454.01,943.681L2359.96,997.846L2359.24,998.243L2358.51,998.615L2357.78,998.962L2357.03,999.283L2356.28,999.578L2355.52,999.847L2354.75,1000.09L2353.98,1000.31L2353.2,1000.5L2352.42,1000.67L2351.63,1000.81L2350.84,1000.93L2350.05,1001.01L2349.26,1001.08L2348.46,1001.12L2347.66,1001.13L2346.87,1001.12L2346.07,1001.08L2345.28,1001.01L2344.49,1000.93L2343.7,1000.81L2342.91,1000.67L2342.13,1000.5L2341.35,1000.31L2340.58,1000.09L2339.81,999.847L2339.05,999.578L2338.3,999.283L2337.55,998.962L2336.82,998.615L2336.09,998.243L2335.37,997.846L2241.33,943.681L2240.62,943.258L2239.93,942.815L2239.26,942.351L2238.61,941.867L2237.98,941.364L2237.37,940.841L2236.77,940.3L2236.19,939.742L2235.64,939.166L2235.1,938.574L2234.59,937.965L2234.09,937.341L2233.62,936.702L2233.16,936.048L2232.73,935.381L2232.33,934.7L2231.94,934.006L2231.57,933.3L2231.23,932.583L2230.91,931.854L2230.62,931.115L2230.35,930.365L2230.11,929.606L2229.88,928.839L2229.69,928.062L2229.51,927.278L2229.37,926.487L2229.25,925.689L2229.16,924.885L2229.09,924.076L2229.05,923.261L2229.03,922.442L2229.03,814.11L2229.05,813.291L2229.09,812.476L2229.16,811.666L2229.25,810.862L2229.37,810.064L2229.51,809.273L2229.69,808.489L2229.88,807.712L2230.11,806.945L2230.35,806.186L2230.62,805.436L2230.91,804.697L2231.23,803.968L2231.57,803.25L2231.94,802.544L2232.33,801.851L2232.73,801.17L2233.16,800.502L2233.62,799.849L2234.09,799.209L2234.59,798.585L2235.1,797.977L2235.64,797.384L2236.19,796.809L2236.77,796.25L2237.37,795.71L2237.98,795.188L2238.61,794.684L2239.26,794.2L2239.93,793.737L2240.62,793.294L2241.33,792.872L2335.37,738.703L2336.09,738.305L2336.82,737.933L2337.55,737.587L2338.3,737.266L2339.05,736.971L2339.81,736.702L2340.58,736.458L2341.35,736.24L2342.13,736.047L2342.91,735.881L2343.7,735.74L2344.49,735.624L2345.28,735.534L2346.07,735.47L2346.87,735.432L2347.66,735.419L2348.46,735.432ZM2347.28,748.078L2346.89,748.097L2346.5,748.128L2346.12,748.172L2345.73,748.228L2345.35,748.297L2344.97,748.378L2344.59,748.471L2344.22,748.577L2343.84,748.696L2343.47,748.827L2343.11,748.97L2342.75,749.126L2342.39,749.295L2342.03,749.476L2341.59,749.72L2247.73,803.781L2247.3,804.04L2246.97,804.256L2246.64,804.483L2246.32,804.718L2246.01,804.961L2245.72,805.214L2245.43,805.476L2245.15,805.747L2244.88,806.026L2244.62,806.313L2244.37,806.608L2244.13,806.91L2243.9,807.219L2243.68,807.536L2243.47,807.859L2243.28,808.189L2243.09,808.526L2242.91,808.866L2242.75,809.213L2242.6,809.565L2242.45,809.923L2242.32,810.286L2242.2,810.651L2242.1,811.021L2242,811.395L2241.92,811.772L2241.85,812.154L2241.79,812.539L2241.74,812.928L2241.71,813.318L2241.69,813.712L2241.68,814.216L2241.68,922.336L2241.69,922.84L2241.71,923.233L2241.74,923.623L2241.79,924.012L2241.85,924.397L2241.92,924.779L2242,925.155L2242.1,925.53L2242.2,925.9L2242.32,926.264L2242.45,926.627L2242.59,926.986L2242.75,927.338L2242.91,927.684L2243.09,928.024L2243.28,928.361L2243.47,928.691L2243.68,929.015L2243.9,929.331L2244.13,929.64L2244.37,929.942L2244.62,930.238L2244.88,930.525L2245.15,930.804L2245.43,931.076L2245.72,931.338L2246.02,931.591L2246.32,931.835L2246.64,932.07L2246.97,932.297L2247.3,932.513L2247.74,932.772L2341.59,986.829L2342.03,987.073L2342.39,987.254L2342.75,987.423L2343.11,987.579L2343.47,987.722L2343.84,987.853L2344.22,987.972L2344.59,988.078L2344.97,988.171L2345.35,988.252L2345.73,988.321L2346.12,988.377L2346.5,988.421L2346.89,988.452L2347.28,988.471L2347.66,988.477L2348.05,988.471L2348.44,988.452L2348.83,988.421L2349.21,988.377L2349.6,988.321L2349.98,988.252L2350.36,988.171L2350.74,988.078L2351.11,987.972L2351.49,987.853L2351.86,987.722L2352.22,987.579L2352.59,987.423L2352.94,987.254L2353.3,987.072L2353.74,986.828L2447.61,932.772L2448.04,932.513L2448.37,932.297L2448.7,932.071L2449.01,931.835L2449.32,931.591L2449.62,931.337L2449.91,931.076L2450.19,930.805L2450.46,930.525L2450.72,930.237L2450.97,929.942L2451.21,929.641L2451.44,929.331L2451.66,929.015L2451.87,928.691L2452.06,928.361L2452.25,928.024L2452.43,927.684L2452.59,927.338L2452.74,926.984L2452.89,926.627L2453.02,926.266L2453.14,925.9L2453.24,925.53L2453.34,925.155L2453.42,924.779L2453.49,924.397L2453.55,924.012L2453.6,923.623L2453.63,923.233L2453.65,922.84L2453.66,922.336L2453.66,814.216L2453.65,813.713L2453.63,813.319L2453.6,812.929L2453.55,812.54L2453.49,812.154L2453.42,811.773L2453.34,811.396L2453.24,811.021L2453.14,810.651L2453.02,810.285L2452.89,809.923L2452.74,809.567L2452.59,809.213L2452.43,808.867L2452.25,808.526L2452.06,808.19L2451.87,807.86L2451.66,807.536L2451.44,807.219L2451.21,806.91L2450.97,806.609L2450.72,806.314L2450.46,806.026L2450.19,805.747L2449.91,805.477L2449.62,805.215L2449.32,804.962L2449.02,804.718L2448.7,804.483L2448.38,804.257L2448.04,804.042L2447.61,803.782L2353.74,749.721L2353.3,749.477L2352.95,749.295L2352.59,749.126L2352.22,748.971L2351.86,748.827L2351.49,748.696L2351.11,748.578L2350.74,748.471L2350.36,748.378L2349.98,748.297L2349.6,748.228L2349.21,748.172L2348.83,748.128L2348.44,748.097L2348.05,748.078L2347.66,748.072L2347.28,748.078Z"/>
    </g></g>
    <g id="rycZ16DaNCG" serif:id="container copy 3">
        <g id="ByjWJ6vpE0G" serif:id="Shape 1">
            <path d="M1983.63,1611.24C1983.63,1611.24 1981.9,1618.51 1993.33,1625.43C2004.76,1632.35 2167.23,1711.29 2167.23,1711.29" id="SJnZyavpNAG"/>
        </g>
        <g id="r16-JaPTE0M" serif:id="Shape 1 copy">
            <path d="M2351.53,1610.89C2351.53,1610.89 2352.57,1618.51 2341.14,1625.43C2329.71,1632.35 2165.85,1714.06 2165.85,1714.06" id="r1Rb16D6NCz"/>
        </g>
        <path id="S11My6wp4CG" serif:id="Shape 2" d="M2167.23,1711.98L2167.23,1929.74"/>
        <path id="rJlGkaDTVAz" serif:id="Forma 1 copy" d="M2166.31,1503.23L2166.95,1503.24L2167.59,1503.27L2168.23,1503.3L2168.87,1503.35L2169.51,1503.41L2170.14,1503.47L2170.78,1503.55L2171.42,1503.64L2172.05,1503.74L2172.69,1503.85L2173.32,1503.96L2173.95,1504.09L2174.58,1504.23L2175.2,1504.38L2175.83,1504.54L2176.45,1504.71L2177.07,1504.89L2177.69,1505.09L2178.31,1505.29L2178.92,1505.5L2179.53,1505.72L2180.14,1505.95L2180.75,1506.19L2181.35,1506.45L2181.95,1506.71L2182.54,1506.99L2183.14,1507.27L2183.72,1507.56L2184.31,1507.87L2184.89,1508.18L2185.47,1508.51L2336.93,1595.74L2337.5,1596.08L2338.06,1596.42L2338.62,1596.77L2339.17,1597.13L2339.71,1597.51L2340.25,1597.88L2340.78,1598.27L2341.3,1598.66L2341.81,1599.06L2342.32,1599.47L2342.82,1599.89L2343.31,1600.31L2343.79,1600.74L2344.26,1601.18L2344.73,1601.63L2345.19,1602.08L2345.64,1602.54L2346.09,1603.01L2346.52,1603.48L2346.95,1603.96L2347.37,1604.45L2347.78,1604.94L2348.18,1605.44L2348.58,1605.95L2348.96,1606.46L2349.34,1606.98L2349.71,1607.5L2350.07,1608.03L2350.42,1608.57L2350.76,1609.11L2351.1,1609.65L2351.42,1610.2L2351.74,1610.76L2352.05,1611.32L2352.34,1611.88L2352.63,1612.46L2352.91,1613.03L2353.18,1613.61L2353.44,1614.2L2353.69,1614.79L2353.93,1615.38L2354.17,1615.98L2354.39,1616.58L2354.6,1617.18L2354.81,1617.79L2355,1618.4L2355.18,1619.02L2355.36,1619.64L2355.52,1620.27L2355.67,1620.89L2355.82,1621.52L2355.95,1622.15L2356.07,1622.79L2356.18,1623.43L2356.29,1624.07L2356.38,1624.71L2356.46,1625.36L2356.53,1626.01L2356.59,1626.66L2356.64,1627.31L2356.68,1627.97L2356.7,1628.63L2356.72,1629.28L2356.73,1629.94L2356.73,1804.4L2356.72,1805.06L2356.7,1805.72L2356.68,1806.38L2356.64,1807.03L2356.59,1807.68L2356.53,1808.34L2356.46,1808.98L2356.38,1809.63L2356.29,1810.27L2356.18,1810.91L2356.07,1811.55L2355.95,1812.19L2355.82,1812.82L2355.67,1813.45L2355.52,1814.08L2355.36,1814.7L2355.18,1815.32L2355,1815.94L2354.81,1816.55L2354.6,1817.16L2354.39,1817.77L2354.17,1818.37L2353.93,1818.96L2353.69,1819.56L2353.44,1820.15L2353.18,1820.73L2352.91,1821.31L2352.63,1821.89L2352.34,1822.46L2352.05,1823.02L2351.74,1823.58L2351.42,1824.14L2351.1,1824.69L2350.76,1825.24L2350.42,1825.78L2350.07,1826.31L2349.71,1826.84L2349.34,1827.36L2348.96,1827.88L2348.58,1828.39L2348.18,1828.9L2347.78,1829.4L2347.37,1829.89L2346.95,1830.38L2346.52,1830.86L2346.09,1831.33L2345.64,1831.8L2345.19,1832.26L2344.73,1832.71L2344.26,1833.16L2343.79,1833.6L2343.31,1834.03L2342.82,1834.45L2342.32,1834.87L2341.81,1835.28L2341.3,1835.68L2340.78,1836.08L2340.25,1836.46L2339.71,1836.84L2339.17,1837.21L2338.62,1837.57L2338.06,1837.92L2337.5,1838.27L2336.93,1838.6L2185.47,1925.83L2184.89,1926.15L2184.31,1926.47L2183.72,1926.78L2183.14,1927.07L2182.54,1927.35L2181.95,1927.63L2181.35,1927.89L2180.75,1928.14L2180.14,1928.39L2179.53,1928.62L2178.92,1928.84L2178.31,1929.05L2177.69,1929.25L2177.07,1929.44L2176.45,1929.63L2175.83,1929.8L2175.2,1929.96L2174.58,1930.11L2173.95,1930.25L2173.32,1930.38L2172.69,1930.49L2172.05,1930.6L2171.42,1930.7L2170.78,1930.79L2170.14,1930.87L2169.51,1930.93L2168.87,1930.99L2168.23,1931.04L2167.59,1931.07L2166.95,1931.1L2166.31,1931.11L2165.67,1931.12L2165.03,1931.11L2164.38,1931.1L2163.74,1931.07L2163.1,1931.04L2162.47,1930.99L2161.83,1930.93L2161.19,1930.87L2160.55,1930.79L2159.91,1930.7L2159.28,1930.6L2158.65,1930.49L2158.01,1930.38L2157.38,1930.25L2156.75,1930.11L2156.13,1929.96L2155.5,1929.8L2154.88,1929.63L2154.26,1929.44L2153.64,1929.25L2153.02,1929.05L2152.41,1928.84L2151.8,1928.62L2151.19,1928.39L2150.59,1928.14L2149.98,1927.89L2149.38,1927.63L2148.79,1927.35L2148.2,1927.07L2147.61,1926.78L2147.03,1926.47L2146.44,1926.15L2145.87,1925.83L1994.42,1838.6L1993.85,1838.27L1993.28,1837.92L1992.73,1837.57L1992.18,1837.21L1991.63,1836.84L1991.1,1836.46L1990.57,1836.08L1990.05,1835.68L1989.54,1835.28L1989.03,1834.87L1988.53,1834.45L1988.04,1834.03L1987.56,1833.6L1987.08,1833.16L1986.61,1832.71L1986.15,1832.26L1985.7,1831.8L1985.26,1831.33L1984.82,1830.86L1984.4,1830.38L1983.98,1829.89L1983.57,1829.4L1983.16,1828.9L1982.77,1828.39L1982.38,1827.88L1982.01,1827.36L1981.64,1826.84L1981.28,1826.31L1980.92,1825.78L1980.58,1825.24L1980.25,1824.69L1979.92,1824.14L1979.61,1823.58L1979.3,1823.02L1979,1822.46L1978.72,1821.89L1978.43,1821.31L1978.16,1820.73L1977.9,1820.15L1977.65,1819.56L1977.41,1818.96L1977.18,1818.37L1976.96,1817.77L1976.74,1817.16L1976.54,1816.55L1976.35,1815.94L1976.16,1815.32L1975.99,1814.7L1975.83,1814.08L1975.67,1813.45L1975.53,1812.82L1975.4,1812.19L1975.28,1811.55L1975.16,1810.91L1975.06,1810.27L1974.97,1809.63L1974.89,1808.98L1974.82,1808.34L1974.76,1807.68L1974.71,1807.03L1974.67,1806.38L1974.64,1805.72L1974.63,1805.06L1974.62,1804.4L1974.62,1629.94L1974.63,1629.28L1974.64,1628.62L1974.67,1627.97L1974.71,1627.31L1974.76,1626.66L1974.82,1626.01L1974.89,1625.36L1974.97,1624.71L1975.06,1624.07L1975.16,1623.43L1975.28,1622.79L1975.4,1622.15L1975.53,1621.52L1975.67,1620.89L1975.83,1620.26L1975.99,1619.64L1976.16,1619.02L1976.35,1618.4L1976.54,1617.79L1976.74,1617.18L1976.96,1616.58L1977.18,1615.98L1977.41,1615.38L1977.65,1614.79L1977.9,1614.2L1978.16,1613.61L1978.43,1613.03L1978.72,1612.45L1979,1611.88L1979.3,1611.32L1979.61,1610.76L1979.92,1610.2L1980.25,1609.65L1980.58,1609.11L1980.92,1608.56L1981.28,1608.03L1981.64,1607.5L1982.01,1606.98L1982.38,1606.46L1982.77,1605.95L1983.16,1605.44L1983.57,1604.94L1983.98,1604.45L1984.4,1603.96L1984.82,1603.48L1985.26,1603.01L1985.7,1602.54L1986.15,1602.08L1986.61,1601.63L1987.08,1601.18L1987.56,1600.74L1988.04,1600.31L1988.53,1599.89L1989.03,1599.47L1989.54,1599.06L1990.05,1598.66L1990.57,1598.27L1991.1,1597.88L1991.63,1597.5L1992.18,1597.13L1992.73,1596.77L1993.28,1596.42L1993.85,1596.08L1994.42,1595.74L2145.87,1508.51L2146.44,1508.18L2147.03,1507.87L2147.61,1507.56L2148.2,1507.27L2148.79,1506.99L2149.38,1506.71L2149.98,1506.45L2150.59,1506.19L2151.19,1505.95L2151.8,1505.72L2152.41,1505.5L2153.02,1505.29L2153.64,1505.09L2154.26,1504.89L2154.88,1504.71L2155.5,1504.54L2156.13,1504.38L2156.75,1504.23L2157.38,1504.09L2158.01,1503.96L2158.65,1503.85L2159.28,1503.74L2159.91,1503.64L2160.55,1503.55L2161.19,1503.47L2161.83,1503.41L2162.47,1503.35L2163.1,1503.3L2163.74,1503.27L2164.38,1503.24L2165.03,1503.23L2165.67,1503.22L2166.31,1503.23ZM2165.23,1515.88L2164.79,1515.89L2164.36,1515.9L2163.92,1515.93L2163.48,1515.96L2163.05,1516L2162.61,1516.04L2162.18,1516.1L2161.75,1516.16L2161.31,1516.22L2160.88,1516.3L2160.45,1516.38L2160.02,1516.47L2159.59,1516.56L2159.16,1516.66L2158.74,1516.77L2158.32,1516.89L2157.89,1517.01L2157.47,1517.14L2157.05,1517.28L2156.64,1517.42L2156.22,1517.57L2155.8,1517.73L2155.39,1517.9L2154.98,1518.07L2154.57,1518.25L2154.17,1518.44L2153.77,1518.63L2153.36,1518.83L2152.97,1519.04L2152.57,1519.25L2152.13,1519.5L2000.78,1606.68L2000.35,1606.93L1999.96,1607.17L1999.58,1607.41L1999.21,1607.65L1998.84,1607.9L1998.47,1608.16L1998.11,1608.42L1997.76,1608.69L1997.41,1608.97L1997.07,1609.24L1996.73,1609.53L1996.39,1609.82L1996.06,1610.11L1995.74,1610.41L1995.42,1610.71L1995.11,1611.02L1994.8,1611.33L1994.5,1611.65L1994.21,1611.97L1993.91,1612.3L1993.63,1612.63L1993.35,1612.97L1993.08,1613.3L1992.81,1613.65L1992.55,1614L1992.29,1614.35L1992.04,1614.7L1991.79,1615.06L1991.55,1615.43L1991.32,1615.79L1991.09,1616.16L1990.87,1616.54L1990.66,1616.92L1990.45,1617.3L1990.25,1617.68L1990.05,1618.07L1989.86,1618.46L1989.68,1618.86L1989.5,1619.25L1989.33,1619.65L1989.17,1620.06L1989.01,1620.46L1988.86,1620.87L1988.71,1621.28L1988.58,1621.69L1988.44,1622.11L1988.32,1622.53L1988.2,1622.95L1988.09,1623.37L1987.99,1623.8L1987.89,1624.23L1987.8,1624.65L1987.72,1625.09L1987.64,1625.52L1987.57,1625.95L1987.51,1626.39L1987.45,1626.83L1987.41,1627.27L1987.37,1627.71L1987.33,1628.15L1987.31,1628.6L1987.29,1629.05L1987.28,1629.49L1987.27,1630L1987.27,1804.35L1987.28,1804.85L1987.29,1805.3L1987.31,1805.74L1987.33,1806.19L1987.37,1806.63L1987.41,1807.07L1987.45,1807.51L1987.51,1807.95L1987.57,1808.39L1987.64,1808.82L1987.72,1809.26L1987.8,1809.69L1987.89,1810.12L1987.99,1810.55L1988.09,1810.97L1988.2,1811.39L1988.32,1811.81L1988.44,1812.23L1988.58,1812.65L1988.71,1813.06L1988.86,1813.47L1989.01,1813.88L1989.17,1814.29L1989.33,1814.69L1989.5,1815.09L1989.68,1815.49L1989.86,1815.88L1990.05,1816.27L1990.25,1816.66L1990.45,1817.04L1990.66,1817.42L1990.87,1817.8L1991.09,1818.18L1991.32,1818.55L1991.55,1818.91L1991.79,1819.28L1992.04,1819.64L1992.29,1820L1992.55,1820.35L1992.81,1820.69L1993.08,1821.04L1993.35,1821.38L1993.63,1821.71L1993.91,1822.04L1994.21,1822.37L1994.5,1822.69L1994.8,1823.01L1995.11,1823.32L1995.42,1823.63L1995.74,1823.93L1996.07,1824.23L1996.39,1824.53L1996.73,1824.82L1997.07,1825.1L1997.41,1825.38L1997.76,1825.65L1998.12,1825.92L1998.47,1826.18L1998.84,1826.44L1999.21,1826.69L1999.58,1826.94L1999.97,1827.18L2000.35,1827.41L2000.78,1827.67L2152.13,1914.84L2152.57,1915.09L2152.97,1915.3L2153.36,1915.51L2153.77,1915.71L2154.17,1915.9L2154.57,1916.09L2154.98,1916.27L2155.39,1916.44L2155.8,1916.61L2156.22,1916.76L2156.64,1916.92L2157.05,1917.06L2157.47,1917.2L2157.89,1917.33L2158.32,1917.45L2158.74,1917.57L2159.17,1917.68L2159.59,1917.78L2160.02,1917.87L2160.45,1917.96L2160.88,1918.04L2161.31,1918.12L2161.75,1918.18L2162.18,1918.24L2162.61,1918.29L2163.05,1918.34L2163.48,1918.38L2163.92,1918.41L2164.36,1918.43L2164.79,1918.45L2165.23,1918.46L2165.67,1918.47L2166.1,1918.46L2166.54,1918.45L2166.98,1918.43L2167.41,1918.41L2167.85,1918.38L2168.28,1918.34L2168.72,1918.29L2169.15,1918.24L2169.59,1918.18L2170.02,1918.12L2170.45,1918.04L2170.88,1917.96L2171.31,1917.87L2171.74,1917.78L2172.16,1917.68L2172.59,1917.57L2173.02,1917.45L2173.44,1917.33L2173.86,1917.2L2174.28,1917.06L2174.7,1916.92L2175.12,1916.76L2175.53,1916.61L2175.94,1916.44L2176.35,1916.27L2176.76,1916.09L2177.16,1915.9L2177.57,1915.71L2177.97,1915.51L2178.37,1915.3L2178.76,1915.09L2179.2,1914.84L2330.56,1827.67L2331,1827.41L2331.38,1827.18L2331.76,1826.94L2332.14,1826.69L2332.51,1826.44L2332.87,1826.18L2333.23,1825.92L2333.59,1825.65L2333.94,1825.38L2334.28,1825.1L2334.62,1824.82L2334.95,1824.53L2335.28,1824.23L2335.61,1823.93L2335.92,1823.63L2336.24,1823.32L2336.54,1823.01L2336.85,1822.69L2337.14,1822.37L2337.43,1822.04L2337.72,1821.71L2338,1821.38L2338.27,1821.04L2338.54,1820.69L2338.8,1820.35L2339.06,1819.99L2339.31,1819.64L2339.55,1819.28L2339.79,1818.91L2340.03,1818.55L2340.25,1818.17L2340.47,1817.8L2340.69,1817.42L2340.9,1817.04L2341.1,1816.66L2341.3,1816.27L2341.49,1815.88L2341.67,1815.49L2341.85,1815.09L2342.02,1814.69L2342.18,1814.29L2342.34,1813.88L2342.49,1813.47L2342.63,1813.06L2342.77,1812.65L2342.9,1812.23L2343.03,1811.81L2343.14,1811.39L2343.26,1810.97L2343.36,1810.54L2343.46,1810.12L2343.55,1809.69L2343.63,1809.26L2343.71,1808.82L2343.78,1808.39L2343.84,1807.95L2343.89,1807.51L2343.94,1807.07L2343.98,1806.63L2344.01,1806.19L2344.04,1805.74L2344.06,1805.3L2344.07,1804.85L2344.07,1804.35L2344.07,1630L2344.07,1629.49L2344.06,1629.05L2344.04,1628.6L2344.01,1628.16L2343.98,1627.71L2343.94,1627.27L2343.89,1626.83L2343.84,1626.39L2343.78,1625.96L2343.71,1625.52L2343.63,1625.09L2343.55,1624.65L2343.46,1624.23L2343.36,1623.8L2343.26,1623.37L2343.14,1622.95L2343.03,1622.53L2342.9,1622.11L2342.77,1621.69L2342.63,1621.28L2342.49,1620.87L2342.34,1620.46L2342.18,1620.06L2342.02,1619.65L2341.85,1619.25L2341.67,1618.86L2341.48,1618.46L2341.3,1618.07L2341.1,1617.68L2340.9,1617.3L2340.69,1616.92L2340.47,1616.54L2340.25,1616.17L2340.03,1615.79L2339.79,1615.43L2339.55,1615.06L2339.31,1614.7L2339.06,1614.35L2338.8,1614L2338.54,1613.65L2338.27,1613.3L2338,1612.96L2337.72,1612.63L2337.43,1612.3L2337.14,1611.97L2336.85,1611.65L2336.54,1611.33L2336.24,1611.02L2335.93,1610.71L2335.61,1610.41L2335.28,1610.11L2334.95,1609.82L2334.62,1609.53L2334.28,1609.25L2333.94,1608.97L2333.59,1608.69L2333.23,1608.42L2332.88,1608.16L2332.51,1607.91L2332.14,1607.65L2331.76,1607.41L2331.39,1607.17L2331,1606.93L2330.57,1606.68L2179.2,1519.5L2178.76,1519.25L2178.37,1519.04L2177.97,1518.83L2177.57,1518.63L2177.16,1518.44L2176.76,1518.25L2176.35,1518.07L2175.94,1517.9L2175.53,1517.73L2175.12,1517.58L2174.7,1517.42L2174.28,1517.28L2173.86,1517.14L2173.44,1517.01L2173.02,1516.89L2172.59,1516.77L2172.17,1516.66L2171.74,1516.56L2171.31,1516.47L2170.88,1516.38L2170.45,1516.3L2170.02,1516.22L2169.59,1516.16L2169.15,1516.1L2168.72,1516.04L2168.28,1516L2167.85,1515.96L2167.41,1515.93L2166.98,1515.9L2166.54,1515.89L2166.1,1515.88L2165.67,1515.87L2165.23,1515.88Z"/>
    </g>
    <g id="H1WzkaP6VAf">
        <g id="BkzMJ6DpV0M">
            <path d="M2523.3,755.309C2523.3,755.309 2675.28,867.778 2676.29,866.765" id="SyXGkTvTVAG"/>
        </g>
        <g id="HkNGkpDaERM">
            <path d="M2469.28,782.015L2523.3,755.309C2523.3,755.309 2675.28,867.778 2676.29,866.765" id="BkHzJpPaVAM"/>
        </g>
    </g>
    <g id="rkUG1aPT40G" serif:id="merged copy">
        <path id="B1DMJawaNAz" serif:id="Forma 1 copy" d="M2878.66,1048.38L2638.88,1186.62C2619.47,1197.81 2607.53,1218.46 2607.53,1240.82L2607.53,1517.28C2607.53,1539.63 2619.47,1560.27 2638.88,1571.48L2878.66,1709.7C2898.06,1720.88 2921.94,1720.88 2941.35,1709.7L3181.15,1571.48C3200.56,1560.27 3212.5,1539.63 3212.5,1517.28L3212.5,1240.82C3212.5,1218.46 3200.56,1197.81 3181.15,1186.62L2941.35,1048.38C2921.94,1037.21 2898.06,1037.21 2878.66,1048.38Z"/>
        <path id="BJuGy6vaERz" serif:id="Shape 1 copy 8" d="M2767.42,1310.92C2771.43,1311.28 2853.39,1318.78 2913.88,1336.84C2916.11,1337.51 2831.22,1382.78 2831.22,1382.78L2794.98,1353.03L2947.87,1586.66C2947.87,1586.66 2939.67,1591.9 2928.65,1586.26C2853.93,1541.24 2819.99,1521.1 2792.66,1504.41C2775.91,1493.54 2766.89,1486.31 2766.94,1472.62L2767.38,1311.07L2767.27,1310.9L2767.38,1310.91L2767.38,1310.86L2767.42,1310.92ZM3022.43,1418.63L2869.67,1185.19C2869.67,1185.19 2877.86,1179.96 2888.89,1185.59C2963.6,1230.62 2997.54,1250.76 3024.87,1267.44C3041.63,1278.31 3050.65,1285.55 3050.6,1299.23C3050.49,1330.06 3050.16,1461 3050.16,1461L3050,1460.76C3045.95,1460.39 2964.25,1452.89 2903.78,1434.84C2901.54,1434.17 2986.44,1388.9 2986.44,1388.9L3022.43,1418.63Z"/>
    </g>
    <g id="rytMkTw6NRf" serif:id="NEXUS-STATS @nexus-devs">
        <path d="M-979.424,-0.01L-951.584,-0.01L-951.584,-44.047L-955.161,-65.366L-954.384,-65.522L-944.732,-43.425L-919.814,-0.01L-891.663,-0.01L-891.663,-110.182L-919.347,-110.182L-919.347,-60.231C-919.192,-60.231 -916.392,-41.246 -916.237,-41.246L-917.015,-41.091L-926.355,-63.187L-952.984,-110.182L-979.424,-110.182L-979.424,-0.01Z" id="By5fkpDaERz"/>
        <path d="M-846.061,-84.055L-797.502,-84.055L-797.502,-110.182L-874.212,-110.182L-874.212,-0.01L-797.502,-0.01L-797.502,-26.293L-846.061,-26.293L-846.061,-42.81L-801.393,-42.81L-801.393,-66.915L-846.061,-66.915L-846.061,-84.055Z" id="BJoG1avpN0f"/>
        <path d="M-740.528,-72.524L-759.357,-110.182L-791.879,-110.182L-760.913,-54.94L-791.879,-0.01L-759.357,-0.01L-740.528,-37.512L-721.232,-0.01L-688.866,-0.01L-719.676,-54.94L-688.866,-110.182L-721.232,-110.182L-740.528,-72.524Z" id="HJ3Mk6P6VCf"/>
        <path d="M-653.069,-110.182L-681.22,-110.182L-681.22,-36.877C-681.376,14.776 -593.459,14.776 -593.304,-36.877L-593.304,-110.182L-621.455,-110.182L-621.455,-36.877C-621.611,-19.137 -653.069,-19.137 -653.069,-36.877L-653.069,-110.182Z" id="B1TGJpwpECM"/>
        <path d="M-582.079,-18.36C-571.813,-5.141 -557.815,1.547 -544.582,1.547C-524.34,1.547 -501.944,-10.118 -501.01,-31.431C-499.765,-58.521 -519.363,-65.371 -538.975,-68.952C-547.542,-70.82 -553.305,-73.934 -553.616,-79.227C-553.149,-91.99 -533.367,-92.456 -521.851,-80.161L-503.655,-94.167C-515.008,-108.007 -527.917,-111.739 -541.311,-111.739C-561.548,-111.739 -581.145,-100.387 -581.145,-78.76C-581.145,-57.742 -564.97,-46.533 -547.23,-43.731C-538.196,-42.485 -528.072,-38.904 -528.383,-32.677C-529.162,-20.849 -553.46,-21.471 -564.503,-34.857L-582.079,-18.36Z" id="B1Az1pDT4AG"/>
        <rect x="-490.563" y="-58.355" width="48.54" height="26.439" id="SyJm1TPTNAM"/>
        <path d="M-431.42,-18.36C-421.155,-5.141 -407.157,1.547 -393.924,1.547C-373.681,1.547 -351.286,-10.118 -350.352,-31.431C-349.107,-58.521 -368.705,-65.371 -388.317,-68.952C-396.883,-70.82 -402.647,-73.934 -402.958,-79.227C-402.491,-91.99 -382.709,-92.456 -371.193,-80.161L-352.996,-94.167C-364.35,-108.007 -377.259,-111.739 -390.653,-111.739C-410.89,-111.739 -430.487,-100.387 -430.487,-78.76C-430.487,-57.742 -414.312,-46.533 -396.572,-43.731C-387.538,-42.485 -377.414,-38.904 -377.725,-32.677C-378.504,-20.849 -402.802,-21.471 -413.845,-34.857L-431.42,-18.36Z" id="r1lXkpPTECG"/>
        <path d="M-258.214,-83.899L-258.214,-110.338L-344.885,-110.338L-344.885,-83.899L-315.625,-83.899L-315.625,-0.01L-287.474,-0.01L-287.474,-83.899L-258.214,-83.899Z" id="ry-XyTDaVRM"/>
        <path d="M-204.978,-110.182L-230.342,-110.182L-268.778,-0.01L-238.901,-0.01L-232.054,-22.11L-202.644,-22.11L-195.486,-0.01L-165.609,-0.01L-204.978,-110.182ZM-225.83,-46.837L-217.738,-79.055L-216.96,-79.055L-209.335,-46.837L-225.83,-46.837Z" id="rkGX16Pp4Af"/>
        <path d="M-89.969,-83.899L-89.969,-110.338L-176.64,-110.338L-176.64,-83.899L-147.38,-83.899L-147.38,-0.01L-119.229,-0.01L-119.229,-83.899L-89.969,-83.899Z" id="ByX7kpvaEAz"/>
        <path d="M-84.346,-18.36C-74.081,-5.141 -60.083,1.547 -46.85,1.547C-26.607,1.547 -4.211,-10.118 -3.278,-31.431C-2.033,-58.521 -21.631,-65.371 -41.243,-68.952C-49.809,-70.82 -55.572,-73.934 -55.884,-79.227C-55.417,-91.99 -35.635,-92.456 -24.119,-80.161L-5.922,-94.167C-17.276,-108.007 -30.184,-111.739 -43.579,-111.739C-63.816,-111.739 -83.413,-100.387 -83.413,-78.76C-83.413,-57.742 -67.238,-46.533 -49.498,-43.731C-40.464,-42.485 -30.34,-38.904 -30.651,-32.677C-31.43,-20.849 -55.728,-21.471 -66.771,-34.857L-84.346,-18.36Z" id="HJ4Qk6wTVCM"/>
        <path d="M-333.772,63.335C-333.88,66.526 -334.467,69.485 -335.531,72.21C-336.594,74.935 -338.066,77.03 -339.944,78.496C-341.822,79.961 -343.999,80.694 -346.474,80.694C-348.58,80.694 -350.295,80.14 -351.62,79.033C-352.944,77.926 -353.824,76.373 -354.258,74.376C-356.603,78.588 -359.838,80.694 -363.964,80.694C-367.004,80.694 -369.273,79.38 -370.771,76.753C-372.269,74.126 -372.823,70.587 -372.432,66.136C-372.106,62.596 -371.297,59.443 -370.005,56.674C-368.713,53.906 -367.031,51.745 -364.957,50.193C-362.883,48.64 -360.663,47.864 -358.297,47.864C-356.625,47.864 -355.159,48.098 -353.9,48.565C-352.64,49.032 -351.175,49.972 -349.503,51.385L-351.164,69.97C-351.381,72.492 -351.061,74.448 -350.203,75.839C-349.345,77.23 -347.972,77.926 -346.083,77.926C-343.412,77.926 -341.246,76.616 -339.585,73.998C-337.924,71.38 -336.996,67.832 -336.801,63.355C-336.388,54.555 -338.06,47.933 -341.816,43.489C-345.573,39.045 -351.262,36.823 -358.883,36.823C-363.464,36.823 -367.595,37.968 -371.276,40.259C-374.956,42.55 -377.86,45.79 -379.988,49.981C-382.116,54.172 -383.31,59.003 -383.571,64.474C-383.831,69.946 -383.109,74.761 -381.405,78.919C-379.7,83.077 -377.127,86.274 -373.686,88.511C-370.244,90.747 -366.146,91.865 -361.391,91.865C-359.393,91.865 -357.428,91.627 -355.496,91.149C-353.563,90.671 -351.946,90.052 -350.643,89.292L-349.633,91.898C-350.871,92.723 -352.597,93.412 -354.812,93.966C-357.026,94.52 -359.263,94.797 -361.521,94.797C-366.949,94.797 -371.618,93.575 -375.526,91.133C-379.434,88.69 -382.36,85.172 -384.303,80.58C-386.247,75.988 -387.088,70.619 -386.827,64.474C-386.567,58.438 -385.237,53.091 -382.838,48.434C-380.438,43.777 -377.154,40.172 -372.985,37.621C-368.817,35.07 -364.072,33.794 -358.753,33.794C-353.216,33.794 -348.526,34.95 -344.683,37.263C-340.839,39.575 -337.995,42.957 -336.149,47.408C-334.304,51.859 -333.511,57.168 -333.772,63.335ZM-368.979,70.744C-368.741,72.92 -368.133,74.602 -367.156,75.788C-366.178,76.974 -364.886,77.567 -363.28,77.567C-359.263,77.567 -356.299,74.792 -354.388,69.242L-352.923,52.395C-354.377,51.329 -356.093,50.795 -358.069,50.795C-360.479,50.795 -362.569,51.759 -364.338,53.685C-366.108,55.611 -367.405,58.267 -368.23,61.651C-369.055,65.036 -369.305,68.066 -368.979,70.744Z" id="r1SX1aPaE0f"/>
        <path d="M-321.2,44.803L-321.07,50.828C-319.745,48.657 -318.095,47.001 -316.119,45.861C-314.143,44.721 -311.961,44.151 -309.573,44.151C-305.795,44.151 -302.983,45.215 -301.137,47.343C-299.292,49.471 -298.358,52.663 -298.336,56.918L-298.336,80.043L-302.212,80.043L-302.212,56.886C-302.234,53.737 -302.901,51.392 -304.215,49.851C-305.529,48.309 -307.629,47.538 -310.517,47.538C-312.927,47.538 -315.061,48.293 -316.917,49.802C-318.774,51.311 -320.147,53.347 -321.037,55.909L-321.037,80.043L-324.913,80.043L-324.913,44.803L-321.2,44.803Z" id="rJUXJaPa4Rf"/>
        <path d="M-274.626,80.694C-277.622,80.694 -280.331,79.956 -282.752,78.479C-285.173,77.003 -287.056,74.946 -288.403,72.307C-289.749,69.669 -290.422,66.711 -290.422,63.432L-290.422,62.032C-290.422,58.645 -289.765,55.594 -288.451,52.88C-287.138,50.166 -285.308,48.032 -282.963,46.48C-280.618,44.927 -278.078,44.151 -275.342,44.151C-271.065,44.151 -267.672,45.611 -265.164,48.532C-262.656,51.452 -261.402,55.442 -261.402,60.501L-261.402,62.683L-286.546,62.683L-286.546,63.432C-286.546,67.427 -285.401,70.755 -283.11,73.415C-280.819,76.075 -277.937,77.405 -274.463,77.405C-272.378,77.405 -270.538,77.025 -268.942,76.265C-267.346,75.505 -265.897,74.289 -264.594,72.617L-262.152,74.473C-265.018,78.621 -269.176,80.694 -274.626,80.694ZM-275.342,47.473C-278.273,47.473 -280.743,48.548 -282.752,50.698C-284.76,52.847 -285.982,55.735 -286.416,59.361L-265.278,59.361L-265.278,58.938C-265.387,55.55 -266.353,52.793 -268.177,50.665C-270.001,48.537 -272.389,47.473 -275.342,47.473Z" id="HJvQkTvT4RG"/>
        <path d="M-242.74,59.101L-233.23,44.803L-228.605,44.803L-240.558,62.097L-228.084,80.043L-232.676,80.043L-242.708,65.126L-252.739,80.043L-257.331,80.043L-244.89,62.097L-256.843,44.803L-252.25,44.803L-242.74,59.101Z" id="H1u7ypDpEAf"/>
        <path d="M-198.706,75.581C-201.051,78.99 -204.797,80.694 -209.943,80.694C-213.699,80.694 -216.554,79.603 -218.508,77.421C-220.463,75.239 -221.461,72.009 -221.505,67.731L-221.505,44.803L-217.629,44.803L-217.629,67.243C-217.629,73.952 -214.915,77.307 -209.487,77.307C-203.841,77.307 -200.27,74.973 -198.771,70.304L-198.771,44.803L-194.863,44.803L-194.863,80.043L-198.641,80.043L-198.706,75.581Z" id="rJYQkTwa4Rf"/>
        <path d="M-163.629,71.086C-163.629,69.154 -164.405,67.601 -165.958,66.429C-167.51,65.256 -169.85,64.339 -172.976,63.677C-176.103,63.014 -178.529,62.254 -180.256,61.397C-181.982,60.539 -183.263,59.491 -184.099,58.254C-184.935,57.016 -185.353,55.518 -185.353,53.759C-185.353,50.98 -184.191,48.684 -181.868,46.871C-179.545,45.058 -176.57,44.151 -172.944,44.151C-169.014,44.151 -165.86,45.123 -163.482,47.066C-161.105,49.009 -159.916,51.544 -159.916,54.671L-163.824,54.671C-163.824,52.608 -164.687,50.893 -166.414,49.525C-168.14,48.157 -170.317,47.473 -172.944,47.473C-175.506,47.473 -177.563,48.043 -179.116,49.183C-180.668,50.323 -181.444,51.805 -181.444,53.629C-181.444,55.388 -180.798,56.75 -179.507,57.716C-178.215,58.683 -175.859,59.567 -172.439,60.371C-169.019,61.174 -166.457,62.032 -164.753,62.944C-163.048,63.856 -161.783,64.952 -160.958,66.233C-160.133,67.514 -159.721,69.067 -159.721,70.891C-159.721,73.865 -160.92,76.243 -163.32,78.023C-165.719,79.804 -168.851,80.694 -172.716,80.694C-176.82,80.694 -180.147,79.701 -182.698,77.714C-185.25,75.727 -186.525,73.214 -186.525,70.174L-182.617,70.174C-182.465,72.454 -181.504,74.229 -179.735,75.499C-177.965,76.769 -175.625,77.405 -172.716,77.405C-170.002,77.405 -167.809,76.807 -166.137,75.613C-164.465,74.419 -163.629,72.91 -163.629,71.086Z" id="ry571pvaVRz"/>
        <rect x="-154.444" y="57.472" width="15.601" height="3.29" id="ByjQ1TDaVCz"/>
        <path d="M-133.437,62.097C-133.437,56.625 -132.216,52.266 -129.773,49.02C-127.33,45.774 -124.014,44.151 -119.823,44.151C-115.068,44.151 -111.442,46.029 -108.945,49.786L-108.945,30.016L-105.069,30.016L-105.069,80.043L-108.717,80.043L-108.88,75.353C-111.377,78.914 -115.046,80.694 -119.888,80.694C-123.949,80.694 -127.222,79.06 -129.708,75.792C-132.194,72.525 -133.437,68.111 -133.437,62.553L-133.437,62.097ZM-129.496,62.781C-129.496,67.275 -128.595,70.82 -126.793,73.415C-124.991,76.01 -122.45,77.307 -119.172,77.307C-114.373,77.307 -110.964,75.19 -108.945,70.956L-108.945,54.411C-110.964,49.829 -114.351,47.538 -119.107,47.538C-122.385,47.538 -124.936,48.825 -126.76,51.398C-128.584,53.971 -129.496,57.765 -129.496,62.781Z" id="HJhQ1pPp40f"/>
        <path d="M-81.163,80.694C-84.159,80.694 -86.868,79.956 -89.289,78.479C-91.71,77.003 -93.594,74.946 -94.94,72.307C-96.286,69.669 -96.959,66.711 -96.959,63.432L-96.959,62.032C-96.959,58.645 -96.302,55.594 -94.989,52.88C-93.675,50.166 -91.846,48.032 -89.501,46.48C-87.156,44.927 -84.615,44.151 -81.88,44.151C-77.602,44.151 -74.21,45.611 -71.702,48.532C-69.194,51.452 -67.94,55.442 -67.94,60.501L-67.94,62.683L-93.084,62.683L-93.084,63.432C-93.084,67.427 -91.938,70.755 -89.647,73.415C-87.357,76.075 -84.474,77.405 -81,77.405C-78.916,77.405 -77.076,77.025 -75.48,76.265C-73.884,75.505 -72.434,74.289 -71.132,72.617L-68.689,74.473C-71.555,78.621 -75.713,80.694 -81.163,80.694ZM-81.88,47.473C-84.811,47.473 -87.281,48.548 -89.289,50.698C-91.298,52.847 -92.519,55.735 -92.953,59.361L-71.816,59.361L-71.816,58.938C-71.924,55.55 -72.89,52.793 -74.714,50.665C-76.538,48.537 -78.927,47.473 -81.88,47.473Z" id="SyT7Jaw640G"/>
        <path d="M-49.799,74.669L-39.083,44.803L-35.077,44.803L-48.235,80.043L-51.395,80.043L-64.618,44.803L-60.612,44.803L-49.799,74.669Z" id="HyC7Jav6ERz"/>
        <path d="M-7.589,71.086C-7.589,69.154 -8.365,67.601 -9.917,66.429C-11.47,65.256 -13.809,64.339 -16.936,63.677C-20.063,63.014 -22.489,62.254 -24.215,61.397C-25.942,60.539 -27.223,59.491 -28.059,58.254C-28.895,57.016 -29.313,55.518 -29.313,53.759C-29.313,50.98 -28.151,48.684 -25.828,46.871C-23.504,45.058 -20.53,44.151 -16.904,44.151C-12.974,44.151 -9.82,45.123 -7.442,47.066C-5.065,49.009 -3.876,51.544 -3.876,54.671L-7.784,54.671C-7.784,52.608 -8.647,50.893 -10.373,49.525C-12.1,48.157 -14.276,47.473 -16.904,47.473C-19.466,47.473 -21.523,48.043 -23.075,49.183C-24.628,50.323 -25.404,51.805 -25.404,53.629C-25.404,55.388 -24.758,56.75 -23.466,57.716C-22.174,58.683 -19.819,59.567 -16.399,60.371C-12.979,61.174 -10.417,62.032 -8.712,62.944C-7.008,63.856 -5.743,64.952 -4.918,66.233C-4.093,67.514 -3.68,69.067 -3.68,70.891C-3.68,73.865 -4.88,76.243 -7.279,78.023C-9.679,79.804 -12.811,80.694 -16.676,80.694C-20.779,80.694 -24.107,79.701 -26.658,77.714C-29.209,75.727 -30.485,73.214 -30.485,70.174L-26.577,70.174C-26.425,72.454 -25.464,74.229 -23.694,75.499C-21.925,76.769 -19.585,77.405 -16.676,77.405C-13.961,77.405 -11.768,76.807 -10.097,75.613C-8.425,74.419 -7.589,72.91 -7.589,71.086Z" id="rykV16v6V0G"/>
    </g>
    <defs>
        <linearGradient id="_Linear1" x1="0" y1="0" x2="1" y2="0" gradientUnits="userSpaceOnUse" gradientTransform="matrix(506.808,315.052,-315.052,506.808,2653.44,1234.98)"><stop offset="0" style="stop-color:#4fe980;stop-opacity:1"/><stop offset="1" style="stop-color:#4ac0ae;stop-opacity:1"/></linearGradient>
    </defs>
<script>(function(){var a=document.querySelector('#SJ1pP6V0f'),b=a.querySelectorAll('style'),c=function(d){b.forEach(function(f){var g=f.textContent;g&amp;&amp;(f.textContent=g.replace(/transform-box:[^;\r\n]*/gi,'transform-box: '+d))})};c('initial'),window.requestAnimationFrame(function(){return c('fill-box')})})();</script></svg>