<?xml version="1.0" encoding="utf-8" standalone="no"?>
<!DOCTYPE svg PUBLIC "-//W3C//DTD SVG 1.1//EN" "http://www.w3.org/Graphics/SVG/1.1/DTD/svg11.dtd">
<svg version="1.1" xmlns="http://www.w3.org/2000/svg" xmlns:xlink="http://www.w3.org/1999/xlink" width="100%" height="100%"
	 viewBox="0 0 612 792" style="fill-rule:evenodd;clip-rule:evenodd;stroke-linejoin:round;stroke-miterlimit:1.41421;" xml:space="preserve">
<g>
	<g>
		<path d="M439.1,141.9c-7.5,2.3-14.6,4.8-21.8,6.6c-11.8,3-21.8,0-28.7-10.5c-6.8-10.5-7-21,0.5-31.4c0.9-1.2,1.6-2.5,2.3-3.7
			c0.1-0.2,0-0.5-0.1-1.6c-26.2,2.4-50.7,10.2-74.4,22.8c-0.7-9.7-1.1-18.9-2.1-27.9c-0.6-5.1-0.4-11.9-6.9-12.7
			c-1.6-0.2-5.5,7.3-6.2,11.6c-1.7,9.8-2.1,19.8-3.2,30.9c-23.7-12.8-48.2-23-76.4-24.5c2.2,4.7,3.9,8.4,5.5,12.2
			c7.8,18.3,0.2,31.9-19.6,35c-9.4,1.5-17.9-0.8-26.1-5.1c-2.1-1.1-4.2-2.2-7-3.6c-0.1,3.1-0.3,5.4-0.3,7.8
			c-0.6,17.1-9.1,25.3-26.3,27.3c-20.2,2.3-39.2-2.1-58.2-8.3c-8.1-2.6-16.3-5.5-24.6-6.7c-11.5-1.7-22.1,1.8-33,8.2
			c1-2.6,1.6-5.5,3.2-7.8C42,151.1,51.7,148,62,148.5c18.2,0.9,36.4,2.9,54.7,4.4c8.5,0.7,17,1.8,25.5,2.2
			c6.6,0.3,11.7-4.6,11.4-10.5c-0.4-7-5.8-7.3-10.7-6.7c-7.6,0.9-15.2,2.7-22.8,4.1c1.1-8.8,16.1-20.5,27.7-20.5
			c12,0.1,24,1.4,37,2.3c-11.3-8.5-24.4-9.1-36.8-11.9c-0.1-0.9-0.1-1.7-0.2-2.6c6.8-1.4,13.6-2.9,20.5-4c6-1,12.2-1.1,18.2-2.2
			c2.2-0.4,4.2-2.5,6.2-3.8c-1.6-2.3-2.8-6-4.9-6.6c-9.7-2.9-19.7-5.1-29.6-7.3c-3.7-0.8-7.5-1.2-11.3-1.7c-0.1-0.8-0.2-1.5-0.3-2.3
			c3-0.8,5.9-2.1,8.9-2.3c28.9-1.5,57.6-0.2,86.1,4.7c4.8,0.8,9.7,1.4,14.5,1.8c7.1,0.6,9.6-3,6.2-9.3
			c-6.6-12.2-17.6-18.6-30.8-21.6c-4.7-1.1-9.4-1.9-14-3.9c6.5-4.2,13.8-5,20.7-3.5c11.3,2.6,22.5,6,33.5,9.9
			c11.2,4,13.3,3.7,19.5-6.7c3.7-6.3,7.1-12.8,10.8-19.1c1.4-2.4,3.3-4.6,5.8-8.2c2,3.4,3.5,5.6,4.8,8c4.6,8.9,9,17.8,13.7,26.6
			c2.2,4.2,5.4,5.3,10.3,3.4c13-5,26.1-9.6,39.4-13.7c6.9-2.1,14.3-2.9,22.9,2.1c-3.7,1.5-5.9,2.4-8.1,3.4
			c-9.7,4.4-19.7,8.4-29,13.6c-6.1,3.4-10.2,9.1-7.3,18.3c37.5-4.8,75.2-10.6,113.2-5.6c0.1,0.9,0.3,1.8,0.4,2.7
			c-5,1.1-10,1.9-14.9,3.3c-8.2,2.3-16.4,4.7-24.3,7.6c-2.7,1-4.9,3.5-7.3,5.3c0.1,0.8,0.2,1.7,0.3,2.5c16.6,2.3,33.3,4.7,49.9,7
			c0,0.9,0,1.8-0.1,2.6c-15.2,3.8-30.4,7.6-45.6,11.4c0.2,0.7,0.3,1.5,0.5,2.2c22.2-0.7,44.9-4.7,65.4,7.8c2.2,1.4,3.7,4,5.5,6.1
			c-0.3,0.6-0.6,1.2-0.9,1.8c-5.9-0.8-11.7-1.7-17.6-2.3c-4.8-0.5-9.8-1-14.6-0.6c-2.4,0.2-6.1,2.4-6.4,4.2c-0.4,2.1,1.7,6.3,3.6,7
			c6.8,2.5,13.9,5.3,21,5.3c11.4,0,22.8-1.6,34.1-3.4c14.5-2.4,28.9-5.3,43.5-1.9c11.3,2.6,19.8,8.8,24,20.9c-2.7-1-5.7-1.6-8-3.2
			c-11.6-7.7-23.8-7.2-36.5-3.7c-17.4,4.7-34.7,10.4-52.4,13.2c-10.9,1.7-23,0.3-33.9-2.4C437.8,168.7,434.3,159.7,439.1,141.9z" style="fill:#23acd9;"/>
		<path d="M329.1,270.5c8,2.5,14.2,4.5,20.3,6.3c6.3,1.9,12.6,3.9,18.9,5.5c7.8,2,14-0.9,18.4-7.3c7.4-10.9,11.3-23.1,12.2-36.3
			c0.4-5.8-2.3-7.9-7.5-5.1c-15.2,8.2-30.3,16.7-45.4,25.1c-4.1,2.3-7.9,6.9-12.9,1.8c-3.8-3.8-3.4-11.2,1.9-15.8
			c16.9-14.4,34-28.5,51.4-42.3c6.1-4.8,12.6-4.1,17.7,1.8c12.5,14.5,22.9,30.6,28.1,49.2c4.1,14.5-3.1,27.7-19.1,37.6
			c-6.2,3.8-13,6.7-19.8,9.2c-18.3,6.9-23,30.2-8.8,43.9c7.6,7.3,15.6,14.1,22.4,22.1c9.9,11.7,12.1,25.7,8.6,40.6
			c-6.1,26-21.1,46.6-40.7,63.7c-19,16.6-47.1,6.6-57.1-18.8c-7.1-18-3-33.2,7.7-48c7.6-10.5,14.4-21.5,21.9-32.1
			c4.3-6.1,5.4-12.3,3.4-19.4c-6.7-23.7-13.3-47.4-19.8-71.1C330.1,278.4,329.9,275.3,329.1,270.5z" style="fill:#23acd9;"/>
		<path d="M285.9,269.5c-1.3,6.3-1.9,10.3-3,14.1c-6.5,24.2-13,48.5-19.6,72.7c-1.5,5.6-0.4,10,3.1,14.9c9.9,13.6,19,27.8,28.7,41.6
			c12.5,17.8,2,50.1-15.2,61.1c-10.1,6.4-29.6,6.2-38.8-2c-21.5-19.2-38.6-41.5-42.6-71.3c-1.7-12.6,1-24.6,9.2-34.3
			c6.4-7.6,14.6-13.5,21.3-20.8c3.4-3.7,6.1-8.5,7.8-13.3c1.3-3.7,0.6-8.2,0.7-12.4c0.2-9.3-4.6-14.8-13.1-18.1
			c-7.9-3.1-16.2-6.1-23.1-10.9c-6.4-4.5-12-10.7-16.6-17.1c-4.9-6.9-5.7-15.6-1.8-23.1c7.8-14.9,16.1-29.5,25.2-43.6
			c5.3-8.2,12.7-9.8,20.3-3.9c17.6,13.5,34.3,28.1,51.4,42.3c0.9,0.7,1.9,1.9,2,3c0.4,4.3,2.2,9.9,0.2,12.8c-3.3,4.7-8.3,1-12.3-1.3
			c-14.8-8.5-29.3-17.4-44.4-25.4c-8.2-4.4-10.8-2.5-9.3,6.9c1.4,9,3.8,18.2,7.7,26.5c7.3,15.5,15.5,18.2,31.5,12.5
			C264.7,276.7,274.3,273.5,285.9,269.5z" style="fill:#23acd9;"/>
		<path d="M467.3,418.1c24.9-26.7,51.7-16.9,80-1.9c0.4-6,1.6-11,1-15.8c-3.1-25.9-6.5-51.7-10-77.5c-1.2-9.1-6.1-16.7-13.1-22.3
			c-12.5-10.1-25.6-19.5-38.4-29.1c-2.3-1.7-4.8-3-7.9-4.9c11.1-7.6,22.3-6.8,33.7-5.1c1.2,0.2,2.4,0.4,3.6,0.8
			c10,3.8,19.1,5.5,25.9-6.2c1.8-3,7.6-3.6,13.2-6.1c-0.4-1.3-0.6-5.1-2.3-7.8c-3.9-6.2-8.2-12.1-13-17.6
			c-5.5-6.2-12.2-11.4-17.4-17.8c-5.6-6.8-11.8-10-20.7-9.3c-2.7,0.2-5.6-2.5-8.4-3.8c2-2.5,3.8-5.3,6.1-7.4c1.3-1.2,3.5-1.6,5.4-2
			c6.8-1.5,12.6-3.9,17.4-9.7c5-6.1,12.6-7.2,20.2-5.9c7.4,1.2,10.3,5.1,10.5,12.7c0,1.2,0.3,2.6-0.1,3.6
			c-5.9,12.7,1.9,19.5,10.1,27.9c22.8,23.4,31.7,52.6,31.1,84.9c-0.2,9.5-7,12.5-14.3,15c0.7,3.9,1.9,7.4,1.9,10.9
			c0,5.1-1.1,9.9-8,10c-4.3,0-4,2.9-3.6,6.2c2.7,24.5,5,49.1,2,73.8c-1.7,13.8-2.8,27.7-4.3,41.5c-0.4,3.9,0.5,6.8,4.7,7.7
			c15.1,3,17.8,13.6,14,22.9c-5,12.1-17.1,17.1-29.6,11.9c-14.7-6-23.8-17.5-29.5-31.9c-2.8-7-4.8-14.3-7-21.6
			c-6.4-21.7-17.5-28.7-39.9-25.4c-4.3,0.6-8.6,1.1-12.9,1.7C467.5,419.6,467.4,418.8,467.3,418.1z" style="fill:#23acd9;"/>
		<path d="M148.8,420.2c-8.7-0.7-16.2-1.9-23.6-1.9c-15.5-0.1-24.7,7.4-29.7,22.2c-4.1,12.2-8,24.6-14,35.9
			c-6.1,11.6-15.8,20.5-29.8,22.7c-11,1.8-19.9-3.7-23.3-14.2c-3.5-10.6,0.2-18.7,11-21.5c6.4-1.6,7.6-4.7,7.3-10.7
			c-1.8-29.5-3.5-58.9-4.4-88.4c-0.3-9.8,1.7-19.8,2.6-29.5c-12.6-4.2-15-9.5-9.8-20.9c-0.4-0.5-0.8-1.3-1.4-1.4
			c-11.7-3.3-14.6-11.7-13.5-22.6c2.8-29.3,11.1-56.4,32-78.4c0.8-0.9,1.5-2.1,2.5-2.6c9.8-4.9,9.7-12.6,7.8-22.1
			c-3-14.7,8.5-24.2,21.9-17.3c11.2,5.8,21,14.2,33.3,18.2c1.8,0.6,2.6,4.2,3.9,6.4c-2.2,1.2-4.6,3.6-6.6,3.3
			c-12.8-2-20.2,5.9-27.8,14c-6.8,7.3-14.2,14.2-20.4,22c-3.9,5.1-6,11.6-8.3,18.8c10.9-3.7,15.8,2.4,20.1,9.4
			c2.6,4.2,6.1,4.2,10.2,3.2c7.1-1.7,14.2-3.5,21.4-4.9c8.5-1.6,16.3,0.7,25.1,6c-3.4,2.6-6,4.5-8.5,6.4c-13,9.8-26.5,19-38.7,29.7
			c-5.2,4.5-9.3,11.7-10.9,18.4c-6.4,26.8-11.5,53.9-11.1,81.7c0,2,0,3.9,0.3,5.8c0.3,2.4,1,4.7,1.4,6.4c11.3-4.1,22.3-9.2,33.7-12
			c15.9-3.9,30.6-0.4,42.4,11.7C145.5,416,146.9,417.9,148.8,420.2z" style="fill:#23acd9;"/>
		<path d="M209.6,659.1c-4.4-3.5-10.2-6.2-12.7-10.8c-3.9-7-6.1-15.2-7.9-23.1c-1.5-6.7,2.1-12.2,8.1-15c4.9-2.3,6.7-5.1,6.3-10.6
			c-0.2-2.8,1.9-6.5,4.1-8.7c3.8-3.8,8.1-3.1,10.9,1.7c1.3,2.3,2.4,4.9,2.9,7.4c5.3,28.7,21.6,51,41.8,70.8
			c12,11.8,25.5,22,38.4,32.8c3.3,2.8,6.8,4.5,11.2,1.3c30.2-22.1,58.3-46.2,74.6-81c3.9-8.3,5.6-17.6,8.4-26.4
			c1.4-4.4,2.9-9.8,9-8.7c5.9,1,9.2,5.6,8.7,11.7c-0.4,4.4,0.4,7,4.9,9c6.8,2.9,9.4,8.5,9,16c-0.7,11.8-4.3,22-14.1,29.2
			c-2.2,1.6-5,2.5-8.9,4.3c2.6-7.7,4.6-13.7,6.5-19.8c0.4-1.4,1.1-3.1,0.6-4.3c-1-2.8-2.6-5.4-4-8.1c-2.4,1.7-5.9,2.8-7.1,5.1
			c-4.3,8.5-7.3,17.6-11.6,26c-4.6,8.8-10.3,17-15.2,25.7c-1.7,3-3.2,6.6-3.6,10c-0.9,8-0.8,16.1-1.8,24.1
			c-0.8,6.6-3.3,12.4-11.7,15.7c1-3,1.9-4.7,2.1-6.4c0.5-4.9,2.6-11.3,0.4-14.3c-2.2-2.9-9.2-3.6-13.8-3c-5.3,0.6-10.6,3.1-15.4,5.8
			c-4.8,2.6-4.8,6.7-1.3,11c3.5,4.3,7.6,8.6,9.7,13.6c2.7,6.2,3.6,13.2,5.3,19.8c-0.8,0.4-1.7,0.8-2.5,1.3c-1.6-1.2-3.3-2.3-4.8-3.6
			c-6.2-5.9-12.3-11.9-18.5-17.8c-8.3-7.9-10.7-7.9-18.8-0.2c-5.5,5.2-10.9,10.5-16.4,15.7c-2,1.9-4.4,3.3-7.4,5.6
			c-2.9-10.1,1.4-17.2,5.4-24.2c2.2-3.8,5.1-7.2,7.7-10.7c3.6-4.7,3.1-9.2-2.3-11.4c-6.4-2.6-13.2-5.2-20-5.6
			c-9.3-0.6-12.9,5.7-9.6,14.7c1,2.8,2.3,5.6,3.9,9.5c-7.7-2.1-10.4-7-11.3-12.5c-1.4-9.1-1.7-18.4-2.7-27.7
			c-0.3-2.8-0.7-6.2-2.4-8.1c-10.4-11.5-15.7-25.7-21.4-39.7c-2-5-4.2-9.9-7-14.5c-1.2-1.9-4.2-2.7-6.3-4c-1.2,2.2-3.7,4.5-3.5,6.6
			c0.5,5.4,1.9,10.8,3.3,16.2c0.7,2.4,2.2,4.6,3.4,6.9C211.3,657.5,210.4,658.3,209.6,659.1z" style="fill:#23acd9;"/>
		<path d="M540.5,570.2c2-2.7,4-4.8,5.4-7.2c2.3-4.2,5.2-8.5,6.1-13c2.3-11-7.6-19.4-18.1-15.3c-2.3,0.9-3.9,5-4.8,7.9
			c-2,6.9-7.5,10.4-13.1,7.5c-4-2.1-6.3-5-2-9.1c0.5-0.5,1-1,1.6-1.6c10.3-10.6,10-14.7-1.9-25c-16.7,22.1-8.5,48.5-13.2,74.6
			c-5.1-6.4-9.4-11.7-14.5-18.1c-21.4,23.5-41,47.1-44.3,80.2c-0.8-0.2-1.6-0.4-2.5-0.7c-1.4-10.5-2.8-21.1-4.1-31.6
			c-0.7-5.8-1.1-11.7-1.7-17.5c-1-8.9-14.9-25.1-23.6-25.8c-3.6-0.3-7.7,3-11.3,5.2c-4.2,2.6-7.9,6.1-13.3,3.1
			c-5.4-3-8-7.7-7.9-13.8c0.1-6.5,4.3-10.8,11.8-11.6c10.2-1.1,20.1,0.2,28.4,6.9c9.2,7.3,18.1,14.9,27.2,22.2
			c2.2,1.8,4.7,3.2,8,5.5c23.6-43.2,45-86.1,47.4-136.1c-5.9-0.6-10.8-0.6-15.4-1.7c-6.1-1.5-13.1-3.2-13.3-11.2
			c-0.1-5.7,11.1-12.1,18.6-11.2c14.1,1.7,24.7,9,28.9,22.5c3.8,12.4,5.4,25.5,8.1,39.1c4.1,1.5,9.6,3.6,15.1,5.7
			c-0.2,1-0.4,1.9-0.6,2.9c-4.5,1.1-8.9,2.1-15,3.6c4.1,3,7,5.1,9.8,7.3c8.1,6.3,16.7,12,24.1,19c7.5,7.1,8.8,17.1,5,24.9
			C562.2,564.8,550.1,571,540.5,570.2z" style="fill:#23acd9;"/>
		<path d="M113.6,457c2.9,50.6,23.6,94.4,48.5,137.6c9.2-8,17.8-15.5,26.3-23.1c10.1-9,21.4-14.2,35.3-13.1c6.2,0.5,11,3.7,11.9,9
			c0.8,4.3-0.7,10.2-3.3,13.8c-4,5.7-9.6,5.2-16,0.3c-10.7-8.2-12.7-7.9-23.2,0.7c-9.5,7.8-14,17.1-14.4,29.5
			c-0.4,13.3-2.7,26.5-5.4,40.2c-4-33.2-23.9-56.9-45.3-80.9c-5.1,6.5-9.4,11.9-14.6,18.5c-4.5-25.8,3.7-52.8-13.6-75.8
			c-2.6,3.5-5.2,6.4-7.2,9.6c-2.9,4.7-2.9,9.2,2.1,12.8c1.2,0.8,2.5,1.7,3.3,2.9c1.6,2.2,4.3,5.2,3.8,7c-0.6,2.1-4.2,4.5-6.6,4.6
			c-2.6,0.1-5.6-1.8-8-3.5c-1.2-0.8-1.6-2.9-2.1-4.5c-2.9-8.1-6.1-10-14.1-8.2c-6,1.3-10.5,7.3-8.7,14c2.1,7.5,6,14.5,9.4,22.4
			c-8.4-0.3-16.1-3.9-21.6-10.8c-5.6-7.1-4.7-16.2,0.6-22.5c6.8-8.1,15.5-14.5,23.7-21.4c3.5-3,7.5-5.3,11-9.8
			c-4.5-0.7-9.1-1.5-13.6-2.2c-0.3-0.5-0.6-1-1-1.5c3.2-2,6.2-4.7,9.6-5.8c4.9-1.6,6.6-4.3,7.4-9.3c1.8-11.3,3.4-22.8,7.2-33.5
			c5-14.3,21.1-23,34.3-20.4c6.4,1.2,12.2,4.1,12.4,11.3c0.2,6.9-5.9,9-11.6,10.1C125.3,456,119.9,456.2,113.6,457z" style="fill:#23acd9;"/>
		<path d="M334.5,572.8c-2.6-5.3-5.1-10.6-7.9-15.7c-1.3-2.4-3.3-4.5-4.9-6.7c-2,2.2-4.9,4.1-6,6.8c-3.2,7.6-5.6,15.5-8.9,24.9
			c-2.2-6.2-3.9-11.2-5.8-16.2c-1.5-3.9-2.9-7.8-4.8-11.4c-0.9-1.7-3.1-3.9-4.5-3.7c-1.6,0.2-3.3,2.5-4.2,4.3
			c-2.8,5.5-5.2,11.2-7.8,16.9c-0.6-0.1-1.3-0.3-1.9-0.4c-0.4-1.5-1.1-2.9-1.1-4.4c-0.6-16-9.2-28.4-18.5-40.5
			c-5.5-7.2-9.2-14.8-7.8-24.3c0.9-6.7,3.9-10.9,10.9-11.5c4.4-0.4,8.9-1.6,13.1-0.9c10.8,1.7,17.4-2.5,21.5-12.3
			c1.7-4,4.5-7.5,7-11.1c2.6-3.8,5.5-3.8,8,0.2c3.8,6.2,7.3,12.7,11.5,18.7c1.5,2.1,4.7,3.9,7.3,4.2c6.5,0.8,13.2,0.4,19.7,1
			c11.2,1.1,17.5,10.1,13.6,20.7c-2.7,7.4-7,14.5-11.7,20.9c-8.6,11.9-15.9,24.1-13.8,39.8C336.5,572.3,335.5,572.5,334.5,572.8z" style="fill:#23acd9;"/>
		<path d="M309.5,215.6c1.5-3.9,3.9-7.6,4.4-11.6c0.9-8,0.8-16.1,1.1-24.1c0.2-4.6,1.7-8.3,7-8.5c5.3-0.2,7.2,3.3,7.6,8
			c0.2,2.9-0.3,6,0.6,8.7c1.3,4.4,2.6,9.4,5.5,12.7c7.6,8.8,9,19.8,0.6,27.4c-19.6,17.9-34.7,19.1-55,2.2c-9.8-8.2-9.5-19.4-2-29.8
			c3.3-4.6,4-11.1,5.8-16.8c0.9-2.8,0.7-6.2,2.3-8.3c1.7-2,5.3-4,7.6-3.5c2.2,0.5,5.2,3.8,5.5,6.2c1.1,8.4,0.8,17.1,1.7,25.5
			c0.4,4,2.5,7.9,3.8,11.8C307.2,215.6,308.3,215.6,309.5,215.6z" style="fill:#23acd9;"/>
		<path d="M307,418.8c-12.4-19.1-24-36.5-35-54.3c-3.4-5.6,2.8-15.6,9.3-15.6c18,0.2,36.1,0.5,54,1.4c8.7,0.4,11.6,5.6,7.9,13.6
			c-2.9,6.4-7.1,12.2-11.1,18C324.4,393.6,316.3,405.1,307,418.8z" style="fill:#23acd9;"/>
		<path d="M293.1,323.4c4.7,0.2,6.9,0.4,9,0.4c6.3,0,12.6,0,20.7,0c-2.4-16.2-4.7-31.5-7.4-48.9c2,2.5,3,3.2,3.4,4.2
			c7.1,16,14.4,31.9,20.9,48.2c3.6,9-1.9,17.2-11.5,17.5c-13.4,0.5-26.8,0.6-40.2,0.1c-11.5-0.4-15.6-6.8-13-18.2
			c2.4-10.6,17.7-39.6,25.2-47.7C297.9,293.7,295.6,308,293.1,323.4z" style="fill:#23acd9;"/>
		<path d="M588.6,389.1c0.8-5.2,2-10.4,2-15.6c0-2.3-2-4.8-3.5-6.8c-1.8-2.5-5.3-4.4-5.9-7.1c-0.8-3.5-0.7-8.9,1.4-10.8
			c3.9-3.4,9.7-1.8,11.9,2.7c2.4,5,4.2,11.2,3.6,16.5c-0.8,7.4-4.2,14.6-6.5,21.9C590.6,389.6,589.6,389.4,588.6,389.1z" style="fill:#23acd9;"/>
		<path d="M25.7,389.4c-7.6-7-12.1-28.4-7-36.6c1.7-2.8,5.9-5,9.2-5.6c2.2-0.4,6.6,2.4,7.1,4.4c0.7,3.3,0.1,9-2,10.3
			c-10.9,6.6-11.2,15.1-6.8,25.4C26.4,387.9,25.9,388.7,25.7,389.4z" style="fill:#23acd9;"/>
	</g>
</g>
</svg>
