<?xml version="1.0" encoding="utf-8" standalone="no"?>
<!DOCTYPE svg PUBLIC "-//W3C//DTD SVG 1.1//EN" "http://www.w3.org/Graphics/SVG/1.1/DTD/svg11.dtd">
<svg version="1.1" id="Layer_1" xmlns="http://www.w3.org/2000/svg" xmlns:xlink="http://www.w3.org/1999/xlink" width="100%" height="100%"
	 viewBox="0 0 612 792" style="fill-rule:evenodd;clip-rule:evenodd;stroke-linejoin:round;stroke-miterlimit:1.41421;" xml:space="preserve">
<g>
	<path d="M350.7,785c-0.8-11.7-1.7-23.5-2.5-35.2c-2.7-44.6-4.5-89.3-3.2-134c0.6-22.7,1.9-45.3,6.6-67.6
		c3.5-16.7,10.8-31.8,19.6-46.3c12.8-21,26.3-41.7,39.1-62.7c18.6-30.6,33.1-62.9,39.1-98.2c4-23.5,5.8-47.1-0.5-70.5
		c-7.5-27.8-23.8-50.2-45.5-69.2c-27.2-23.7-58.8-40-93.1-51.5c-1.5-0.5-3.5-0.7-4.9-0.2c-40.1,13.5-76.6,32.9-105.9,63.4
		c-27.3,28.4-39.7,62-37.1,101c2.7,40.8,15.4,78.5,36,113.9c12.6,21.7,25.9,43.1,39.8,64.1c19.8,29.8,28.9,62.3,30.8,97.5
		c2.5,48.4,1.3,96.7-1.3,145.1c-0.8,14.7-1.9,29.4-2.9,44.1c-0.1,2.2-0.4,4.4-1.5,6.8c-31.1-57.3-62.2-114.6-93.8-172.9
		c2,0.8,3,1.1,3.9,1.6c8,3.7,15.8,7.6,23.9,11c11.3,4.7,19.4,1.7,24.7-9.1c4.7-9.4,6-19.6,6.8-29.8c2-23.7,0.7-47.1-8.1-69.6
		c-10.4-26.6-26.9-48.4-52.8-62.4c-25.8-13.9-50.2-8.5-67.8,14.7c-2.9,3.9-5.4,8.1-8.3,12.5c-28.2-43.8-56.4-87.4-84.5-131
		c0.2-0.2,0.4-0.4,0.6-0.6c4.9,2.5,9.7,5,14.6,7.3c19,9.1,37.9,18.4,57.1,27.1c12.6,5.7,21.7,2.3,28.3-9.6
		c6.7-11.9,5.8-24.2,2.1-36.6c-4.7-15.8-14.6-28.5-26.4-39.9c-15.8-15.2-34-27-53.7-36.9c-1-0.5-2.1-1.1-3.6-1.9
		c2.9-3.2,5.6-6.3,8.4-9.3c27-29.2,54.1-58.5,81-87.8c1.5-1.7,2.6-4.2,2.8-6.4c3.4-29.5,6.5-59,9.8-88.6c0.1-1.1,0.4-2.2,0.7-3.8
		c5.7,2.6,11.2,5,16.7,7.5c16.8,7.6,33.7,15.1,50.5,22.8c3.3,1.5,5.4,1.4,8.3-1c33.2-27.4,66.6-54.7,99.9-82.1c1-0.8,2-1.6,3.2-2.6
		c6.8,5.6,13.5,11.1,20.3,16.6c28,23,56,45.9,83.9,68.9c1.9,1.5,3.2,1.8,5.5,0.8c21.3-9.7,42.8-19.3,64.1-28.9
		c1.4-0.6,2.9-1.2,4.8-2c0.8,7.2,1.6,14.1,2.4,20.9c2.7,24.3,5.3,48.6,8,72.9c0.2,1.7,1.4,3.6,2.6,4.9
		c28.7,31.2,57.5,62.3,86.3,93.5c1,1,1.9,2.1,3.2,3.6c-1.4,0.7-2.5,1.3-3.5,1.8c-23.5,12-45.2,26.3-62.5,46.2
		c-10.7,12.4-18.5,26.1-20.2,42.6c-1,9.6,0.5,18.6,5.9,26.9c6.4,9.7,15.1,12.8,25.8,7.9c21.5-9.9,42.8-20.3,64.2-30.6
		c2.9-1.4,5.8-2.9,9.3-3.8c-28.1,43.6-56.2,87.2-84.5,131c-3-4.5-5.5-8.8-8.6-12.8c-9.7-12.4-21.9-21.1-38.6-21.9
		c-10.2-0.5-19.6,2.5-28.3,7.2c-26,14-42.9,35.5-53.2,62.1c-11.5,29.9-11.7,60.6-4.7,91.5c0.8,3.7,2.5,7.3,4.4,10.6
		c4.9,8.6,12.3,11.4,21.7,7.7c8.3-3.3,16.2-7.3,24.3-11c1.4-0.6,2.8-1.3,5-1.5c-31.2,57.4-62.3,114.8-93.5,172.2
		C351.4,785.3,351,785.2,350.7,785z" style="fill:#e0b534;"/>
	<path d="M308.2,377.8c-25.3-29.9-50.1-59.3-75.3-89.2c25-29.6,50-59.3,75.3-89.2c25.3,29.9,50.2,59.4,75.4,89.2
		C358.5,318.2,333.6,347.8,308.2,377.8z" style="fill:#e0b534;"/>
</g>
</svg>
