<?xml version="1.0" encoding="UTF-8" standalone="no"?>
<!DOCTYPE svg PUBLIC "-//W3C//DTD SVG 1.1//EN" "http://www.w3.org/Graphics/SVG/1.1/DTD/svg11.dtd">
<svg width="100%" height="100%" viewBox="0 0 247 247" version="1.1" xmlns="http://www.w3.org/2000/svg" xmlns:xlink="http://www.w3.org/1999/xlink" xml:space="preserve" style="fill-rule:evenodd;clip-rule:evenodd;stroke-linejoin:round;stroke-miterlimit:1.41421;">
    <path d="M0.684,0.634l246.315,0l0,246.315l-246.315,0l0,-246.315Z" style="fill:none;"/>
    <path d="M216.209,62.212l-20.526,0l0,92.368l-133.42,0l0,20.527c0,5.644 4.618,10.263 10.263,10.263l112.894,0l41.053,41.052l0,-153.947c0,-5.644 -4.619,-10.263 -10.264,-10.263Z" style="fill:#b8942c;"/>
    <path d="M175.157,123.791l0,-92.368c0,-5.645 -4.618,-10.263 -10.263,-10.263l-133.421,0c-5.644,0 -10.263,4.618 -10.263,10.263l0,143.684l41.053,-41.053l102.631,0c5.645,0 10.263,-4.618 10.263,-10.263Z" style="fill:#e0b534;"/>
</svg>
