<?xml version="1.0" encoding="UTF-8" standalone="no"?>
<!DOCTYPE svg PUBLIC "-//W3C//DTD SVG 1.1//EN" "http://www.w3.org/Graphics/SVG/1.1/DTD/svg11.dtd">
<svg width="100%" height="100%" viewBox="0 0 304 304" version="1.1" xmlns="http://www.w3.org/2000/svg" xmlns:xlink="http://www.w3.org/1999/xlink" xml:space="preserve" style="fill-rule:evenodd;clip-rule:evenodd;stroke-linejoin:round;stroke-miterlimit:1.41421;">
    <path d="M44.1,224C44.573,221.681 46.632,220 48.999,220C51.742,220 53.999,222.257 53.999,225C53.999,227.743 51.742,230 48.999,230C46.632,230 44.573,228.319 44.1,226L0,226L0,224L44.1,224ZM204.1,272C204.573,269.681 206.632,268 208.999,268C211.742,268 213.999,270.257 213.999,273C213.999,275.743 211.742,278 208.999,278C206.632,278 204.573,276.319 204.1,274L82,274L82,272L204.1,272ZM261.9,226C261.427,228.319 259.368,230 257.001,230C254.258,230 252.001,227.743 252.001,225C252.001,222.257 254.258,220 257.001,220C259.368,220 261.427,221.681 261.9,224L304,224L304,226L261.9,226ZM261.9,242C261.427,244.319 259.368,246 257.001,246C254.258,246 252.001,243.743 252.001,241C252.001,238.257 254.258,236 257.001,236C259.368,236 261.427,237.681 261.9,240L304,240L304,242L261.9,242ZM268.1,128C268.573,125.681 270.632,124 272.999,124C275.742,124 277.999,126.257 277.999,129C277.999,131.743 275.742,134 272.999,134C270.632,134 268.573,132.319 268.1,130L181.9,130C181.427,132.319 179.368,134 177.001,134C174.258,134 172.001,131.743 172.001,129C172.001,126.257 174.258,124 177.001,124C179.368,124 181.427,125.681 181.9,128L268.1,128ZM12.1,80C12.573,77.681 14.632,76 16.999,76C19.742,76 21.999,78.257 21.999,81C21.999,83.743 19.742,86 16.999,86C14.632,86 12.573,84.319 12.1,82L0,82L0,80L12.1,80ZM197.9,114C197.427,116.319 195.368,118 193.001,118C190.258,118 188.001,115.743 188.001,113C188.001,110.257 190.258,108 193.001,108C195.368,108 197.427,109.681 197.9,112L284.1,112C284.573,109.681 286.632,108 288.999,108C291.742,108 293.999,110.257 293.999,113C293.999,115.743 291.742,118 288.999,118C286.632,118 284.573,116.319 284.1,114L197.9,114ZM258,12.1C260.319,12.573 262,14.632 262,16.999C262,19.742 259.743,21.999 257,21.999C254.257,21.999 252,19.742 252,16.999C252,14.632 253.681,12.573 256,12.1L256,0L258,0L258,12.1ZM194,220.1C196.319,220.573 198,222.632 198,224.999C198,227.742 195.743,229.999 193,229.999C190.257,229.999 188,227.742 188,224.999C188,222.632 189.681,220.573 192,220.1L192,165.9C189.681,165.427 188,163.368 188,161.001C188,158.258 190.257,156.001 193,156.001C195.743,156.001 198,158.258 198,161.001C198,163.368 196.319,165.427 194,165.9L194,220.1ZM242,21.9L242,80L304,80L304,82L240,82L240,21.9C237.681,21.427 236,19.368 236,17.001C236,14.258 238.257,12.001 241,12.001C243.743,12.001 246,14.258 246,17.001C246,19.368 244.319,21.427 242,21.9L242,21.9ZM258,37.9L258,64L304,64L304,66L256,66L256,37.9C253.681,37.427 252,35.368 252,33.001C252,30.258 254.257,28.001 257,28.001C259.743,28.001 262,30.258 262,33.001C262,35.368 260.319,37.427 258,37.9L258,37.9ZM130,133.9L130,208L146,208L146,220.1C148.319,220.573 150,222.632 150,224.999C150,227.742 147.743,229.999 145,229.999C142.257,229.999 140,227.742 140,224.999C140,222.632 141.681,220.573 144,220.1L144,210L128,210L128,133.9C125.681,133.427 124,131.368 124,129.001C124,126.258 126.257,124.001 129,124.001C131.743,124.001 134,126.258 134,129.001C134,131.368 132.319,133.427 130,133.9ZM124.1,112C124.573,109.681 126.632,108 128.999,108C131.742,108 133.999,110.257 133.999,113C133.999,115.743 131.742,118 128.999,118C126.632,118 124.573,116.319 124.1,114L114,114L114,162L85.9,162C85.427,164.319 83.368,166 81.001,166C78.258,166 76.001,163.743 76.001,161C76.001,158.257 78.258,156 81.001,156C83.368,156 85.427,157.681 85.9,160L112,160L112,112L124.1,112ZM117.9,242C117.427,244.319 115.368,246 113.001,246C110.258,246 108.001,243.743 108.001,241C108.001,238.257 110.258,236 113.001,236C115.368,236 117.427,237.681 117.9,240L176,240L176,165.9C173.681,165.427 172,163.368 172,161.001C172,158.258 174.257,156.001 177,156.001C179.743,156.001 182,158.258 182,161.001C182,163.368 180.319,165.427 178,165.9L178,242L117.9,242L117.9,242ZM101.9,178C101.427,180.319 99.368,182 97.001,182C94.258,182 92.001,179.743 92.001,177C92.001,174.257 94.258,172 97.001,172C99.368,172 101.427,173.681 101.9,176L114,176L114,224L124.1,224C124.573,221.681 126.632,220 128.999,220C131.742,220 133.999,222.257 133.999,225C133.999,227.743 131.742,230 128.999,230C126.632,230 124.573,228.319 124.1,226L112,226L112,178L101.9,178L101.9,178ZM66,284.1C68.319,284.573 70,286.632 70,288.999C70,291.742 67.743,293.999 65,293.999C62.257,293.999 60,291.742 60,288.999C60,286.632 61.681,284.573 64,284.1L64,274L50,274L50,304L48,304L48,272L66,272L66,284.1ZM236.1,176C236.573,173.681 238.632,172 240.999,172C243.742,172 245.999,174.257 245.999,177C245.999,179.743 243.742,182 240.999,182C238.632,182 236.573,180.319 236.1,178L226,178L226,272L274,272L274,304L272,304L272,274L224,274L224,176L236.1,176ZM261.9,146C261.427,148.319 259.368,150 257.001,150C254.258,150 252.001,147.743 252.001,145C252.001,142.257 254.258,140 257.001,140C259.368,140 261.427,141.681 261.9,144L274,144L274,188.1C276.319,188.573 278,190.632 278,192.999C278,195.742 275.743,197.999 273,197.999C270.257,197.999 268,195.742 268,192.999C268,190.632 269.681,188.573 272,188.1L272,146L261.9,146ZM197.9,242C197.427,244.319 195.368,246 193.001,246C190.258,246 188.001,243.743 188.001,241C188.001,238.257 190.258,236 193.001,236C195.368,236 197.427,237.681 197.9,240L208,240L208,160L224,160L224,146L181.9,146C181.427,148.319 179.368,150 177.001,150C174.258,150 172.001,147.743 172.001,145C172.001,142.257 174.258,140 177.001,140C179.368,140 181.427,141.681 181.9,144L226,144L226,162L210,162L210,242L197.9,242L197.9,242ZM284.1,32C284.573,29.681 286.632,28 288.999,28C291.742,28 293.999,30.257 293.999,33C293.999,35.743 291.742,38 288.999,38C286.632,38 284.573,36.319 284.1,34L272,34L272,0L274,0L274,32L284.1,32ZM98,101.9L98,146L53.9,146C53.427,148.319 51.368,150 49.001,150C46.258,150 44.001,147.743 44.001,145C44.001,142.257 46.258,140 49.001,140C51.368,140 53.427,141.681 53.9,144L96,144L96,101.9C93.681,101.427 92,99.368 92,97.001C92,94.258 94.257,92.001 97,92.001C99.743,92.001 102,94.258 102,97.001C102,99.368 100.319,101.427 98,101.9ZM53.9,34C53.427,36.319 51.368,38 49.001,38C46.258,38 44.001,35.743 44.001,33C44.001,30.257 46.258,28 49.001,28C51.368,28 53.427,29.681 53.9,32L80,32L80,0L82,0L82,34L53.9,34ZM114,37.9L114,66L82,66L82,130L69.9,130C69.427,132.319 67.368,134 65.001,134C62.258,134 60.001,131.743 60.001,129C60.001,126.257 62.258,124 65.001,124C67.368,124 69.427,125.681 69.9,128L80,128L80,64L112,64L112,37.9C109.681,37.427 108,35.368 108,33.001C108,30.258 110.257,28.001 113,28.001C115.743,28.001 118,30.258 118,33.001C118,35.368 116.319,37.427 114,37.9ZM101.9,82C101.427,84.319 99.368,86 97.001,86C94.258,86 92.001,83.743 92.001,81C92.001,78.257 94.258,76 97.001,76C99.368,76 101.427,77.681 101.9,80L128,80L128,37.9C125.681,37.427 124,35.368 124,33.001C124,30.258 126.257,28.001 129,28.001C131.743,28.001 134,30.258 134,33.001C134,35.368 132.319,37.427 130,37.9L130,82L101.9,82ZM117.9,18C117.427,20.319 115.368,22 113.001,22C110.258,22 108.001,19.743 108.001,17C108.001,14.257 110.258,12 113.001,12C115.368,12 117.427,13.681 117.9,16L146,16L146,60.1C148.319,60.573 150,62.632 150,64.999C150,67.742 147.743,69.999 145,69.999C142.257,69.999 140,67.742 140,64.999C140,62.632 141.681,60.573 144,60.1L144,18L117.9,18ZM220.1,288C220.573,285.681 222.632,284 224.999,284C227.742,284 229.999,286.257 229.999,289C229.999,291.743 227.742,294 224.999,294C222.632,294 220.573,292.319 220.1,290L98,290L98,304L96,304L96,288L220.1,288ZM242,149.9L242,160L258,160L258,194L242,194L242,256L290,256L290,304L288,304L288,258L240,258L240,192L256,192L256,162L240,162L240,149.9C237.681,149.427 236,147.368 236,145.001C236,142.258 238.257,140.001 241,140.001C243.743,140.001 246,142.258 246,145.001C246,147.368 244.319,149.427 242,149.9ZM53.9,18C53.427,20.319 51.368,22 49.001,22C46.258,22 44.001,19.743 44.001,17C44.001,14.257 46.258,12 49.001,12C51.368,12 53.427,13.681 53.9,16L64,16L64,2L48,2L48,0L66,0L66,18L53.9,18ZM165.9,50C165.427,52.319 163.368,54 161.001,54C158.258,54 156.001,51.743 156.001,49C156.001,46.257 158.258,44 161.001,44C163.368,44 165.427,45.681 165.9,48L192,48L192,0L242,0L242,2L194,2L194,50L165.9,50ZM117.9,2C117.427,4.32 115.368,6.001 113,6.001C110.257,6.001 107.999,3.743 107.999,1C107.999,0.664 108.033,0.329 108.1,0L110.17,0C110.057,0.32 110,0.656 110,0.996C110,2.641 111.354,3.996 113,3.996C114.646,3.996 116,2.641 116,0.996C116,0.656 115.943,0.32 115.83,0L178,0L178,34L160,34L160,21.9C157.681,21.427 156,19.368 156,17.001C156,14.258 158.257,12.001 161,12.001C163.743,12.001 166,14.258 166,17.001C166,19.368 164.319,21.427 162,21.9L162,32L176,32L176,2L117.9,2ZM117.9,98C117.427,100.319 115.368,102 113.001,102C110.258,102 108.001,99.743 108.001,97C108.001,94.257 110.258,92 113.001,92C115.368,92 117.427,93.681 117.9,96L137,96L169,64L208,64L208,21.9C205.681,21.427 204,19.368 204,17.001C204,14.258 206.257,12.001 209,12.001C211.743,12.001 214,14.258 214,17.001C214,19.368 212.319,21.427 210,21.9L210,66L169.83,66L137.83,98L117.9,98ZM146,188.1C148.319,188.573 150,190.632 150,192.999C150,195.742 147.743,197.999 145,197.999C142.257,197.999 140,195.742 140,192.999C140,190.632 141.681,188.573 144,188.1L144,111.59L175.59,80L224,80L224,21.9C221.681,21.427 220,19.368 220,17.001C220,14.258 222.257,12.001 225,12.001C227.743,12.001 230,14.258 230,17.001C230,19.368 228.319,21.427 226,21.9L226,82L176.41,82L146,112.41L146,188.1ZM162,220.1C164.319,220.573 166,222.632 166,224.999C166,227.742 163.743,229.999 161,229.999C158.257,229.999 156,227.742 156,224.999C156,222.632 157.681,220.573 160,220.1L160,120.59L184.59,96L300.1,96C300.5,94.04 302.04,92.5 304,92.1L304,94.17C302.802,94.591 301.996,95.73 301.996,97C301.996,98.27 302.802,99.409 304,99.83L304,101.9C302.04,101.5 300.5,99.96 300.1,98L185.41,98L162,121.41L162,220.1ZM18,156.1C20.319,156.573 22,158.632 22,160.999C22,163.742 19.743,165.999 17,165.999C14.257,165.999 12,163.742 12,160.999C12,158.632 13.681,156.573 16,156.1L16,152.59L64,104.59L64,48L96,48L96,0L98,0L98,50L66,50L66,105.41L18,153.41L18,156.1ZM50,53.9L50,97.41L2,145.41L2,208L28.1,208C28.573,205.681 30.632,204 32.999,204C35.742,204 37.999,206.257 37.999,209C37.999,211.743 35.742,214 32.999,214C30.632,214 28.573,212.319 28.1,210L0,210L0,144.59L48,96.59L48,53.9C45.681,53.427 44,51.368 44,49.001C44,46.258 46.257,44.001 49,44.001C51.743,44.001 54,46.258 54,49.001C54,51.368 52.319,53.427 50,53.9ZM34,69.9L34,89.41L0,123.41L0,120.59L32,88.59L32,69.9C29.681,69.427 28,67.368 28,65.001C28,62.258 30.257,60.001 33,60.001C35.743,60.001 38,62.258 38,65.001C38,67.368 36.319,69.427 34,69.9ZM12.1,32C12.573,29.681 14.632,28 16.999,28C19.742,28 21.999,30.257 21.999,33C21.999,35.743 19.742,38 16.999,38C14.632,38 12.573,36.319 12.1,34L9.41,34L0,43.41L0,40.6L8.59,32L12.1,32ZM277.9,50C277.427,52.319 275.368,54 273.001,54C270.258,54 268.001,51.743 268.001,49C268.001,46.257 270.258,44 273.001,44C275.368,44 277.427,45.681 277.9,48L296.59,48L304,40.59L304,43.41L297.41,50L277.9,50L277.9,50ZM261.9,210C261.427,212.319 259.368,214 257.001,214C254.258,214 252.001,211.743 252.001,209C252.001,206.257 254.258,204 257.001,204C259.368,204 261.427,205.681 261.9,208L288,208L288,136.59L304,120.59L304,123.41L290,137.41L290,210L261.9,210L261.9,210ZM53.9,242C53.427,244.319 51.368,246 49.001,246C46.258,246 44.001,243.743 44.001,241C44.001,238.257 46.258,236 49.001,236C51.368,236 53.427,237.681 53.9,240L64,240L64,217.41L40.59,194L21.9,194C21.427,196.319 19.368,198 17.001,198C14.258,198 12.001,195.743 12.001,193C12.001,190.257 14.258,188 17.001,188C19.368,188 21.427,189.681 21.9,192L41.41,192L66,216.59L66,242L53.9,242L53.9,242ZM204.1,256C204.573,253.681 206.632,252 208.999,252C211.742,252 213.999,254.257 213.999,257C213.999,259.743 211.742,262 208.999,262C206.632,262 204.573,260.319 204.1,258L96,258L96,201.4L56.6,162L37.9,162C37.427,164.319 35.368,166 33.001,166C30.258,166 28.001,163.743 28.001,161C28.001,158.257 30.258,156 33.001,156C35.368,156 37.427,157.681 37.9,160L57.4,160L98,200.6L98,256L204.1,256ZM53.9,258C53.427,260.319 51.368,262 49.001,262C46.258,262 44.001,259.743 44.001,257C44.001,254.257 46.258,252 49.001,252C51.368,252 53.427,253.681 53.9,256L80,256L80,209.41L48.59,178L21.9,178C21.427,180.319 19.368,182 17.001,182C14.258,182 12.001,179.743 12.001,177C12.001,174.257 14.258,172 17.001,172C19.368,172 21.427,173.681 21.9,176L49.41,176L82,208.59L82,258L53.9,258L53.9,258ZM34,39.8L34,41.41L9.41,66L0,66L0,64L8.59,64L32,40.59L32,0L34,0L34,39.8ZM2,300.1C3.96,300.5 5.5,302.04 5.9,304L3.83,304C3.408,302.803 2.27,301.998 1.001,301.998C0.66,301.998 0.321,302.056 0,302.17L0,256L18,256L18,304L16,304L16,258L2,258L2,300.1ZM34,241L34,304L32,304L32,242L0,242L0,240L34,240L34,241ZM17,18L0,18L0,16L16,16L16,0L18,0L18,18L17,18ZM290,16L304,16L304,18L288,18L288,0L290,0L290,16ZM258,289L258,304L256,304L256,290L242,290L242,304L240,304L240,288L258,288L258,289ZM0,92.1C0.323,92.036 0.651,92.003 0.98,92.003C3.725,92.003 5.987,94.255 6,97C6,97 6,97.001 6,97.001C6,99.744 3.743,102.001 1,102.001C0.664,102.001 0.329,101.967 0,101.9L0,99.83C0.32,99.943 0.656,100 0.996,100C2.641,100 3.996,98.646 3.996,97C3.996,95.354 2.641,94 0.996,94C0.656,94 0.32,94.057 0,94.17L0,92.1ZM80,272L82,272L82,304L80,304L80,272ZM117.9,304L115.83,304C115.409,302.802 114.27,301.996 113,301.996C111.73,301.996 110.591,302.802 110.17,304L108.1,304C108.571,301.678 110.631,299.995 113,299.995C115.369,299.995 117.429,301.678 117.9,304L117.9,304ZM5.9,0C5.964,0.321 5.996,0.648 5.996,0.976C5.996,3.73 3.73,5.996 0.976,5.996C0.648,5.996 0.321,5.964 0,5.9L0,3.83C0.322,3.944 0.661,4.002 1.002,4.002C2.648,4.002 4.002,2.648 4.002,1.002C4.002,0.661 3.944,0.322 3.83,0L5.9,0ZM300.1,0L302.17,0C302.056,0.321 301.998,0.66 301.998,1.001C301.998,2.27 302.803,3.408 304,3.83L304,5.9C301.68,5.427 299.999,3.368 299.999,1.001C299.999,0.665 300.033,0.329 300.1,0L300.1,0ZM304,300.1L304,302.17C303.145,302.472 302.472,303.145 302.17,304L300.1,304C300.5,302.04 302.04,300.5 304,300.1ZM97,100C98.646,100 100,98.646 100,97C100,95.354 98.646,94 97,94C95.354,94 94,95.354 94,97C94,98.646 95.354,100 97,100ZM97,84C98.646,84 100,82.646 100,81C100,79.354 98.646,78 97,78C95.354,78 94,79.354 94,81C94,82.646 95.354,84 97,84ZM113,100C114.646,100 116,98.646 116,97C116,95.354 114.646,94 113,94C111.354,94 110,95.354 110,97C110,98.646 111.354,100 113,100ZM129,116C130.646,116 132,114.646 132,113C132,111.354 130.646,110 129,110C127.354,110 126,111.354 126,113C126,114.646 127.354,116 129,116ZM129,132C130.646,132 132,130.646 132,129C132,127.354 130.646,126 129,126C127.354,126 126,127.354 126,129C126,130.646 127.354,132 129,132ZM81,164C82.646,164 84,162.646 84,161C84,159.354 82.646,158 81,158C79.354,158 78,159.354 78,161C78,162.646 79.354,164 81,164ZM97,180C98.646,180 100,178.646 100,177C100,175.354 98.646,174 97,174C95.354,174 94,175.354 94,177C94,178.646 95.354,180 97,180ZM129,228C130.646,228 132,226.646 132,225C132,223.354 130.646,222 129,222C127.354,222 126,223.354 126,225C126,226.646 127.354,228 129,228ZM113,244C114.646,244 116,242.646 116,241C116,239.354 114.646,238 113,238C111.354,238 110,239.354 110,241C110,242.646 111.354,244 113,244ZM145,228C146.646,228 148,226.646 148,225C148,223.354 146.646,222 145,222C143.354,222 142,223.354 142,225C142,226.646 143.354,228 145,228ZM145,196C146.646,196 148,194.646 148,193C148,191.354 146.646,190 145,190C143.354,190 142,191.354 142,193C142,194.646 143.354,196 145,196ZM161,228C162.646,228 164,226.646 164,225C164,223.354 162.646,222 161,222C159.354,222 158,223.354 158,225C158,226.646 159.354,228 161,228ZM193,244C194.646,244 196,242.646 196,241C196,239.354 194.646,238 193,238C191.354,238 190,239.354 190,241C190,242.646 191.354,244 193,244ZM193,228C194.646,228 196,226.646 196,225C196,223.354 194.646,222 193,222C191.354,222 190,223.354 190,225C190,226.646 191.354,228 193,228ZM177,164C178.646,164 180,162.646 180,161C180,159.354 178.646,158 177,158C175.354,158 174,159.354 174,161C174,162.646 175.354,164 177,164ZM193,164C194.646,164 196,162.646 196,161C196,159.354 194.646,158 193,158C191.354,158 190,159.354 190,161C190,162.646 191.354,164 193,164ZM209,260C210.646,260 212,258.646 212,257C212,255.354 210.646,254 209,254C207.354,254 206,255.354 206,257C206,258.646 207.354,260 209,260ZM209,276C210.646,276 212,274.646 212,273C212,271.354 210.646,270 209,270C207.354,270 206,271.354 206,273C206,274.646 207.354,276 209,276ZM225,292C226.646,292 228,290.646 228,289C228,287.354 226.646,286 225,286C223.354,286 222,287.354 222,289C222,290.646 223.354,292 225,292ZM241,148C242.646,148 244,146.646 244,145C244,143.354 242.646,142 241,142C239.354,142 238,143.354 238,145C238,146.646 239.354,148 241,148ZM241,180C242.646,180 244,178.646 244,177C244,175.354 242.646,174 241,174C239.354,174 238,175.354 238,177C238,178.646 239.354,180 241,180ZM257,148C258.646,148 260,146.646 260,145C260,143.354 258.646,142 257,142C255.354,142 254,143.354 254,145C254,146.646 255.354,148 257,148ZM273,132C274.646,132 276,130.646 276,129C276,127.354 274.646,126 273,126C271.354,126 270,127.354 270,129C270,130.646 271.354,132 273,132ZM177,132C178.646,132 180,130.646 180,129C180,127.354 178.646,126 177,126C175.354,126 174,127.354 174,129C174,130.646 175.354,132 177,132ZM177,148C178.646,148 180,146.646 180,145C180,143.354 178.646,142 177,142C175.354,142 174,143.354 174,145C174,146.646 175.354,148 177,148ZM193,116C194.646,116 196,114.646 196,113C196,111.354 194.646,110 193,110C191.354,110 190,111.354 190,113C190,114.646 191.354,116 193,116ZM289,116C290.646,116 292,114.646 292,113C292,111.354 290.646,110 289,110C287.354,110 286,111.354 286,113C286,114.646 287.354,116 289,116ZM273,52C274.646,52 276,50.646 276,49C276,47.354 274.646,46 273,46C271.354,46 270,47.354 270,49C270,50.646 271.354,52 273,52ZM289,36C290.646,36 292,34.646 292,33C292,31.354 290.646,30 289,30C287.354,30 286,31.354 286,33C286,34.646 287.354,36 289,36ZM257,36C258.646,36 260,34.646 260,33C260,31.354 258.646,30 257,30C255.354,30 254,31.354 254,33C254,34.646 255.354,36 257,36ZM257,20C258.646,20 260,18.646 260,17C260,15.354 258.646,14 257,14C255.354,14 254,15.354 254,17C254,18.646 255.354,20 257,20ZM241,20C242.646,20 244,18.646 244,17C244,15.354 242.646,14 241,14C239.354,14 238,15.354 238,17C238,18.646 239.354,20 241,20ZM225,20C226.646,20 228,18.646 228,17C228,15.354 226.646,14 225,14C223.354,14 222,15.354 222,17C222,18.646 223.354,20 225,20ZM209,20C210.646,20 212,18.646 212,17C212,15.354 210.646,14 209,14C207.354,14 206,15.354 206,17C206,18.646 207.354,20 209,20ZM49,36C50.646,36 52,34.646 52,33C52,31.354 50.646,30 49,30C47.354,30 46,31.354 46,33C46,34.646 47.354,36 49,36ZM17,36C18.646,36 20,34.646 20,33C20,31.354 18.646,30 17,30C15.354,30 14,31.354 14,33C14,34.646 15.354,36 17,36ZM49,52C50.646,52 52,50.646 52,49C52,47.354 50.646,46 49,46C47.354,46 46,47.354 46,49C46,50.646 47.354,52 49,52ZM33,68C34.646,68 36,66.646 36,65C36,63.354 34.646,62 33,62C31.354,62 30,63.354 30,65C30,66.646 31.354,68 33,68ZM49,20C50.646,20 52,18.646 52,17C52,15.354 50.646,14 49,14C47.354,14 46,15.354 46,17C46,18.646 47.354,20 49,20ZM49,260C50.646,260 52,258.646 52,257C52,255.354 50.646,254 49,254C47.354,254 46,255.354 46,257C46,258.646 47.354,260 49,260ZM65,292C66.646,292 68,290.646 68,289C68,287.354 66.646,286 65,286C63.354,286 62,287.354 62,289C62,290.646 63.354,292 65,292ZM49,228C50.646,228 52,226.646 52,225C52,223.354 50.646,222 49,222C47.354,222 46,223.354 46,225C46,226.646 47.354,228 49,228ZM49,244C50.646,244 52,242.646 52,241C52,239.354 50.646,238 49,238C47.354,238 46,239.354 46,241C46,242.646 47.354,244 49,244ZM33,212C34.646,212 36,210.646 36,209C36,207.354 34.646,206 33,206C31.354,206 30,207.354 30,209C30,210.646 31.354,212 33,212ZM113,36C114.646,36 116,34.646 116,33C116,31.354 114.646,30 113,30C111.354,30 110,31.354 110,33C110,34.646 111.354,36 113,36ZM129,36C130.646,36 132,34.646 132,33C132,31.354 130.646,30 129,30C127.354,30 126,31.354 126,33C126,34.646 127.354,36 129,36ZM113,20C114.646,20 116,18.646 116,17C116,15.354 114.646,14 113,14C111.354,14 110,15.354 110,17C110,18.646 111.354,20 113,20ZM145,68C146.646,68 148,66.646 148,65C148,63.354 146.646,62 145,62C143.354,62 142,63.354 142,65C142,66.646 143.354,68 145,68ZM161,52C162.646,52 164,50.646 164,49C164,47.354 162.646,46 161,46C159.354,46 158,47.354 158,49C158,50.646 159.354,52 161,52ZM161,20C162.646,20 164,18.646 164,17C164,15.354 162.646,14 161,14C159.354,14 158,15.354 158,17C158,18.646 159.354,20 161,20ZM273,196C274.646,196 276,194.646 276,193C276,191.354 274.646,190 273,190C271.354,190 270,191.354 270,193C270,194.646 271.354,196 273,196ZM257,212C258.646,212 260,210.646 260,209C260,207.354 258.646,206 257,206C255.354,206 254,207.354 254,209C254,210.646 255.354,212 257,212ZM257,228C258.646,228 260,226.646 260,225C260,223.354 258.646,222 257,222C255.354,222 254,223.354 254,225C254,226.646 255.354,228 257,228ZM257,244C258.646,244 260,242.646 260,241C260,239.354 258.646,238 257,238C255.354,238 254,239.354 254,241C254,242.646 255.354,244 257,244ZM17,180C18.646,180 20,178.646 20,177C20,175.354 18.646,174 17,174C15.354,174 14,175.354 14,177C14,178.646 15.354,180 17,180ZM17,196C18.646,196 20,194.646 20,193C20,191.354 18.646,190 17,190C15.354,190 14,191.354 14,193C14,194.646 15.354,196 17,196ZM17,164C18.646,164 20,162.646 20,161C20,159.354 18.646,158 17,158C15.354,158 14,159.354 14,161C14,162.646 15.354,164 17,164ZM33,164C34.646,164 36,162.646 36,161C36,159.354 34.646,158 33,158C31.354,158 30,159.354 30,161C30,162.646 31.354,164 33,164ZM17,84C18.646,84 20,82.646 20,81C20,79.354 18.646,78 17,78C15.354,78 14,79.354 14,81C14,82.646 15.354,84 17,84ZM49,148C50.646,148 52,146.646 52,145C52,143.354 50.646,142 49,142C47.354,142 46,143.354 46,145C46,146.646 47.354,148 49,148ZM65,132C66.646,132 68,130.646 68,129C68,127.354 66.646,126 65,126C63.354,126 62,127.354 62,129C62,130.646 63.354,132 65,132Z" style="fill:rgb(150,160,169);fill-opacity:0.0241546;fill-rule:nonzero;"/>
</svg>
