<svg width="50" height="16" viewBox="0 0 50 16" fill="none" xmlns="http://www.w3.org/2000/svg">
    <path d="M17.8279 5.37919H14.9171V2.65749H24.0898V5.37919H21.179V13.0684H17.8279V5.37919ZM27.2813 13.0163C26.5003 12.823 25.859 12.5627 25.3573 12.2355L26.4364 9.67739C26.9097 9.96493 27.4398 10.1955 28.0268 10.369C28.6137 10.5425 29.1769 10.6292 29.7165 10.6292C30.1803 10.6292 30.5116 10.5821 30.7104 10.488C30.9092 10.3938 31.0086 10.2525 31.0086 10.0641C31.0086 9.84595 30.8785 9.68235 30.6181 9.57328C30.3578 9.46421 29.9295 9.34523 29.3331 9.21634C28.5663 9.04778 27.9274 8.86683 27.4162 8.67348C26.905 8.48014 26.4601 8.16286 26.0814 7.72163C25.7028 7.28041 25.5135 6.68303 25.5135 5.92948C25.5135 5.27508 25.6886 4.68017 26.0388 4.14476C26.3891 3.60934 26.9121 3.18795 27.6079 2.88058C28.3036 2.57321 29.1485 2.41953 30.1425 2.41953C30.824 2.41953 31.4938 2.49637 32.1517 2.65005C32.8096 2.80374 33.3894 3.0293 33.8911 3.32676L32.8829 5.86999C31.9079 5.3544 30.985 5.09661 30.1141 5.09661C29.2526 5.09661 28.8219 5.31474 28.8219 5.751C28.8219 5.95922 28.9497 6.11538 29.2053 6.21949C29.4609 6.3236 29.8821 6.43515 30.469 6.55413C31.2263 6.70286 31.8653 6.87389 32.3859 7.06724C32.9066 7.26058 33.3586 7.57538 33.742 8.01165C34.1254 8.44792 34.3171 9.04282 34.3171 9.79637C34.3171 10.4508 34.1419 11.0432 33.7917 11.5737C33.4414 12.1041 32.9184 12.5255 32.2227 12.8378C31.5269 13.1502 30.682 13.3063 29.6881 13.3063C28.8645 13.3063 28.0623 13.2096 27.2813 13.0163ZM44.5276 13.0684L44.4992 8.32398L42.3409 12.1314H40.8642L38.7059 8.48758V13.0684H35.653V2.65749H38.4077L41.6452 8.20499L44.7974 2.65749H47.5521L47.5805 13.0684H44.5276Z" fill="#FFFFFF"/>
    <path fill-rule="evenodd" clip-rule="evenodd" d="M11.8494 5.4439L12.267 6.4089C12.3226 6.53735 12.2623 6.68774 12.1329 6.74293L11.6703 6.99323C11.7655 7.42964 11.7858 7.86501 11.7395 8.28634L12.2809 8.45305C12.4153 8.49493 12.4907 8.63825 12.4488 8.7717L12.1329 9.77422C12.0909 9.90767 11.9465 9.98271 11.8122 9.94082L11.2714 9.77422C11.0791 10.1263 10.8355 10.4499 10.5468 10.7325L10.8802 11.2349C10.9578 11.3517 10.9251 11.5102 10.8075 11.5872L9.92503 12.1655C9.80757 12.2424 9.64796 12.2098 9.57045 12.0931L9.23679 11.5902C9.03586 11.6717 8.82615 11.7389 8.60786 11.7889C8.38957 11.8389 8.17149 11.8696 7.95498 11.8837L7.87643 12.4811C7.85812 12.6197 7.72905 12.7184 7.58952 12.7003L6.54127 12.5641C6.40174 12.546 6.30248 12.4177 6.32068 12.2791L6.39923 11.6822C6.01526 11.5537 5.65367 11.3688 5.32577 11.1357L4.88521 11.5488C4.78281 11.6448 4.62006 11.6401 4.52342 11.5384L3.79795 10.7745C3.7013 10.6727 3.70611 10.511 3.8084 10.415L4.24938 10.0015C4.0223 9.64275 3.84867 9.24251 3.74209 8.8088L3.13701 8.83707C2.99643 8.84362 2.87604 8.7347 2.86945 8.59502L2.81977 7.54573C2.81318 7.40605 2.9228 7.28642 3.06337 7.27987L3.6694 7.2515C3.73059 6.84492 3.85338 6.45352 4.03077 6.08945L3.5466 5.72839C3.43395 5.64442 3.41105 5.48426 3.49546 5.37243L4.12993 4.53225C4.21444 4.42032 4.37562 4.39745 4.48827 4.48143L4.97244 4.84248C5.28288 4.56447 5.63903 4.33187 6.03283 4.15727L5.89707 3.57162C5.86548 3.43536 5.95177 3.29817 6.08889 3.26668L7.11905 3.03086C7.25618 2.99947 7.39424 3.08522 7.42593 3.22147L7.5617 3.80723C7.99274 3.79278 8.41541 3.84714 8.81695 3.96208L9.06705 3.44565C9.13138 3.32114 9.28639 3.27157 9.41159 3.33538L10.3521 3.81492C10.4774 3.87873 10.5272 4.03286 10.463 4.15727L10.2129 4.6737C10.5327 4.92397 10.8156 5.22246 11.0497 5.56148L11.5133 5.31076C11.6426 5.25547 11.7938 5.31544 11.8494 5.4439ZM7.65851 10.2829C8.99477 10.2829 10.078 9.19967 10.078 7.86341C10.078 6.52715 8.99477 5.4439 7.65851 5.4439C6.32225 5.4439 5.239 6.52715 5.239 7.86341C5.239 9.19967 6.32225 10.2829 7.65851 10.2829Z" fill="#FFFFFF"/>
</svg>
