<?xml version="1.0" encoding="utf-8"?>
<!-- Generator: Adobe Illustrator 19.0.0, SVG Export Plug-In . SVG Version: 6.00 Build 0)  -->
<svg version="1.1" id="Layer_1" xmlns="http://www.w3.org/2000/svg" xmlns:xlink="http://www.w3.org/1999/xlink" x="0px" y="0px"
	 viewBox="-277.2 391.4 44.8 10.9" style="enable-background:new -277.2 391.4 44.8 10.9;" xml:space="preserve">
<style type="text/css">
	.st0{fill:#FFFFFF;}
</style>
<path class="st0" d="M-262.2,394.4h-2.9v-2.7h9.2v2.7h-2.9v7.7h-3.4V394.4z M-252.7,402c-0.8-0.2-1.4-0.5-1.9-0.8l1.1-2.6
	c0.5,0.3,1,0.5,1.6,0.7c0.6,0.2,1.2,0.3,1.7,0.3c0.5,0,0.8,0,1-0.1c0.2-0.1,0.3-0.2,0.3-0.4c0-0.2-0.1-0.4-0.4-0.5
	c-0.3-0.1-0.7-0.2-1.3-0.4c-0.8-0.2-1.4-0.3-1.9-0.5c-0.5-0.2-1-0.5-1.3-1c-0.4-0.4-0.6-1-0.6-1.8c0-0.7,0.2-1.2,0.5-1.8
	c0.4-0.5,0.9-1,1.6-1.3c0.7-0.3,1.5-0.5,2.5-0.5c0.7,0,1.4,0.1,2,0.2s1.2,0.4,1.7,0.7l-1,2.5c-1-0.5-1.9-0.8-2.8-0.8
	c-0.9,0-1.3,0.2-1.3,0.7c0,0.2,0.1,0.4,0.4,0.5c0.3,0.1,0.7,0.2,1.3,0.3c0.8,0.1,1.4,0.3,1.9,0.5c0.5,0.2,1,0.5,1.4,0.9
	c0.4,0.4,0.6,1,0.6,1.8c0,0.7-0.2,1.2-0.5,1.8c-0.4,0.5-0.9,1-1.6,1.3c-0.7,0.3-1.5,0.5-2.5,0.5C-251.1,402.3-251.9,402.2-252.7,402
	z M-235.5,402.1l0-4.7l-2.2,3.8h-1.5l-2.2-3.6v4.6h-3.1v-10.4h2.8l3.2,5.5l3.2-5.5h2.8l0,10.4H-235.5z"/>
<path class="st0" d="M-268.2,394.4l0.4,1c0.1,0.1,0,0.3-0.1,0.3l-0.5,0.3c0.1,0.4,0.1,0.9,0.1,1.3l0.5,0.2c0.1,0,0.2,0.2,0.2,0.3
	l-0.3,1c0,0.1-0.2,0.2-0.3,0.2l-0.5-0.2c-0.2,0.4-0.4,0.7-0.7,1l0.3,0.5c0.1,0.1,0,0.3-0.1,0.4l-0.9,0.6c-0.1,0.1-0.3,0-0.4-0.1
	l-0.3-0.5c-0.2,0.1-0.4,0.1-0.6,0.2c-0.2,0-0.4,0.1-0.7,0.1l-0.1,0.6c0,0.1-0.1,0.2-0.3,0.2l-1-0.1c-0.1,0-0.2-0.1-0.2-0.3l0.1-0.6
	c-0.4-0.1-0.7-0.3-1.1-0.5l-0.4,0.4c-0.1,0.1-0.3,0.1-0.4,0l-0.7-0.8c-0.1-0.1-0.1-0.3,0-0.4l0.4-0.4c-0.2-0.4-0.4-0.8-0.5-1.2
	l-0.6,0c-0.1,0-0.3-0.1-0.3-0.2l0-1c0-0.1,0.1-0.3,0.2-0.3l0.6,0c0.1-0.4,0.2-0.8,0.4-1.2l-0.5-0.4c-0.1-0.1-0.1-0.2-0.1-0.4
	l0.6-0.8c0.1-0.1,0.2-0.1,0.4-0.1l0.5,0.4c0.3-0.3,0.7-0.5,1.1-0.7l-0.1-0.6c0-0.1,0.1-0.3,0.2-0.3l1-0.2c0.1,0,0.3,0.1,0.3,0.2
	l0.1,0.6c0.4,0,0.9,0,1.3,0.2l0.3-0.5c0.1-0.1,0.2-0.2,0.3-0.1l0.9,0.5c0.1,0.1,0.2,0.2,0.1,0.3l-0.3,0.5c0.3,0.3,0.6,0.5,0.8,0.9
	l0.5-0.3C-268.4,394.3-268.2,394.3-268.2,394.4z M-272.3,399.3c1.3,0,2.4-1.1,2.4-2.4c0-1.3-1.1-2.4-2.4-2.4c-1.3,0-2.4,1.1-2.4,2.4
	C-274.8,398.2-273.7,399.3-272.3,399.3z"/>
</svg>
