<svg xmlns="http://www.w3.org/2000/svg" xmlns:xlink="http://www.w3.org/1999/xlink" preserveAspectRatio="xMidYMid" width="30" height="39.688" viewBox="0 0 30 39.688">
  <defs>
    <style>
      .cls-1 {
        fill: #2e3540;
        fill-rule: evenodd;
      }
    </style>
  </defs>
  <path d="M18.392,15.841 C18.392,15.045 19.032,14.401 19.822,14.401 C20.610,14.401 21.250,15.045 21.250,15.841 C21.250,16.637 20.610,17.283 19.822,17.283 C19.032,17.282 18.392,16.637 18.392,15.841 ZM13.946,3.566 L13.934,3.566 L13.934,5.542 L15.747,5.542 L15.747,3.624 C16.371,3.308 16.803,2.664 16.803,1.912 C16.803,0.851 15.951,-0.009 14.899,-0.009 C13.846,-0.009 12.993,0.851 12.993,1.912 C12.993,2.622 13.378,3.234 13.946,3.566 ZM9.979,17.282 C10.767,17.282 11.407,16.637 11.407,15.841 C11.407,15.045 10.767,14.400 9.979,14.400 C9.189,14.400 8.550,15.045 8.550,15.841 C8.550,16.637 9.189,17.282 9.979,17.282 ZM14.899,39.697 C17.049,39.697 18.877,38.317 19.571,36.388 L10.226,36.388 C10.920,38.317 12.747,39.697 14.899,39.697 ZM0.000,33.842 C0.000,33.080 0.444,32.427 1.082,32.117 L1.082,23.947 C1.082,22.336 2.326,21.020 3.899,20.915 L3.899,16.962 C3.899,16.962 4.282,9.757 10.226,7.516 C11.991,6.851 13.603,6.581 15.000,6.531 C16.398,6.581 18.010,6.851 19.774,7.516 C25.719,9.757 26.102,16.962 26.102,16.962 L26.102,20.915 C27.674,21.019 28.918,22.335 28.918,23.947 L28.918,32.117 C29.556,32.427 30.000,33.080 30.000,33.842 C30.000,34.903 29.147,35.763 28.095,35.763 C27.043,35.763 26.190,34.903 26.190,33.842 C26.190,33.080 26.634,32.427 27.271,32.117 L27.271,26.655 C26.916,26.838 26.520,26.948 26.102,26.977 L26.102,28.874 C26.113,29.028 26.126,29.180 26.126,29.337 C26.126,29.503 26.115,29.668 26.102,29.833 L26.102,29.877 L26.100,29.877 C25.846,33.039 23.393,35.573 20.283,35.919 L20.286,35.961 L15.000,35.961 L9.714,35.961 L9.717,35.919 C6.608,35.573 4.155,33.039 3.901,29.877 L3.899,29.877 L3.899,29.833 C3.887,29.668 3.876,29.503 3.876,29.337 C3.876,29.181 3.888,29.028 3.899,28.874 L3.899,26.977 C3.480,26.949 3.083,26.838 2.729,26.656 L2.729,32.117 C3.367,32.427 3.811,33.081 3.811,33.843 C3.811,34.904 2.958,35.764 1.905,35.764 C0.854,35.764 0.000,34.904 0.000,33.842 ZM18.180,23.794 C18.180,23.284 17.769,22.869 17.263,22.869 C16.755,22.869 16.345,23.284 16.345,23.794 C16.345,24.305 16.755,24.720 17.263,24.720 C17.769,24.720 18.180,24.305 18.180,23.794 ZM20.437,23.794 C20.437,23.284 20.027,22.869 19.520,22.869 C19.014,22.869 18.603,23.284 18.603,23.794 C18.603,24.305 19.014,24.720 19.520,24.720 C20.027,24.720 20.437,24.305 20.437,23.794 ZM22.696,23.794 C22.696,23.284 22.285,22.869 21.779,22.869 C21.271,22.869 20.861,23.284 20.861,23.794 C20.861,24.305 21.271,24.720 21.779,24.720 C22.285,24.720 22.696,24.305 22.696,23.794 ZM7.279,16.108 C7.279,18.563 9.185,18.724 9.185,18.724 C9.848,18.935 11.249,18.830 11.883,18.724 C12.467,18.624 14.608,18.438 14.949,18.407 C14.962,18.409 14.982,18.411 15.000,18.412 C15.018,18.411 15.038,18.409 15.050,18.407 C15.391,18.437 17.532,18.624 18.116,18.724 C18.751,18.830 20.151,18.935 20.815,18.724 C20.815,18.724 22.719,18.563 22.719,16.108 C22.719,16.108 22.719,13.386 20.815,11.732 C18.967,10.127 16.190,9.779 15.101,9.758 L15.101,9.757 C15.086,9.757 15.066,9.758 15.050,9.758 C15.034,9.758 15.014,9.757 15.000,9.757 C14.984,9.757 14.965,9.758 14.949,9.758 C14.933,9.758 14.913,9.757 14.898,9.757 L14.898,9.758 C13.810,9.779 11.032,10.127 9.185,11.732 C7.279,13.386 7.279,16.108 7.279,16.108 Z" class="cls-1"/>
</svg>
