<svg xmlns="http://www.w3.org/2000/svg" xmlns:xlink="http://www.w3.org/1999/xlink" preserveAspectRatio="xMidYMid" width="33" height="33" viewBox="0 0 33 33">
  <defs>
    <style>
      .cls-1 {
        fill: #8ea1ac;
        fill-rule: evenodd;
      }
    </style>
  </defs>
  <path d="M16.499,0.004 C7.404,0.004 0.004,7.404 0.004,16.499 C0.004,25.595 7.404,32.995 16.499,32.995 C25.595,32.995 32.995,25.595 32.995,16.499 C32.995,7.404 25.595,0.004 16.499,0.004 ZM20.601,17.080 L17.918,17.080 C17.918,21.368 17.918,26.647 17.918,26.647 L13.941,26.647 C13.941,26.647 13.941,21.419 13.941,17.080 L12.051,17.080 L12.051,13.699 L13.941,13.699 L13.941,11.513 C13.941,9.946 14.685,7.499 17.954,7.499 L20.900,7.511 L20.900,10.792 C20.900,10.792 19.109,10.792 18.761,10.792 C18.413,10.792 17.919,10.966 17.919,11.713 L17.919,13.700 L20.948,13.700 L20.601,17.080 Z" class="cls-1"/>
</svg>
