<svg xmlns="http://www.w3.org/2000/svg" xmlns:xlink="http://www.w3.org/1999/xlink" preserveAspectRatio="xMidYMid" width="33" height="33" viewBox="0 0 33 33">
  <defs>
    <style>
      .cls-1 {
        fill: #8ea1ac;
        fill-rule: evenodd;
      }
    </style>
  </defs>
  <path d="M16.500,-0.000 C7.387,-0.000 -0.000,7.387 -0.000,16.500 C-0.000,25.613 7.387,33.000 16.500,33.000 C25.613,33.000 33.000,25.613 33.000,16.500 C33.000,7.387 25.612,-0.000 16.500,-0.000 ZM20.644,16.500 C20.644,20.640 17.275,24.009 13.135,24.009 C8.994,24.009 5.625,20.640 5.625,16.500 C5.625,12.359 8.994,8.991 13.135,8.991 C14.805,8.991 16.388,9.529 17.711,10.546 L15.968,12.814 C15.149,12.184 14.169,11.851 13.135,11.851 C10.571,11.851 8.486,13.937 8.486,16.500 C8.486,19.063 10.571,21.148 13.135,21.148 C15.199,21.148 16.953,19.796 17.558,17.930 L13.135,17.930 L13.135,15.070 L20.644,15.070 L20.644,16.500 ZM28.549,17.435 L26.398,17.435 L26.398,19.586 L24.528,19.586 L24.528,17.435 L22.378,17.435 L22.378,15.565 L24.528,15.565 L24.528,13.413 L26.398,13.413 L26.398,15.565 L28.549,15.565 L28.549,17.435 Z" class="cls-1"/>
</svg>
