<svg xmlns="http://www.w3.org/2000/svg" xmlns:xlink="http://www.w3.org/1999/xlink" preserveAspectRatio="xMidYMid" width="30" height="40" viewBox="0 0 30 40">
  <defs>
    <style>
      .cls-1 {
        fill: #2e3540;
        fill-rule: evenodd;
      }
    </style>
  </defs>
  <path d="M17.813,-0.000 C17.813,-0.000 19.203,4.968 19.203,9.000 C19.203,12.862 16.672,15.993 12.807,15.993 C8.924,15.993 6.003,12.862 6.003,9.000 L6.058,8.325 C2.270,12.825 -0.000,18.660 -0.000,24.998 C-0.000,33.287 6.713,40.000 15.000,40.000 C23.287,40.000 30.000,33.287 30.000,24.998 C30.000,14.888 25.146,5.868 17.813,-0.000 ZM14.457,34.375 C11.119,34.375 8.417,31.748 8.417,28.485 C8.417,25.447 10.389,23.312 13.685,22.633 C17.005,21.960 20.438,20.363 22.349,17.798 C23.082,20.218 23.457,22.767 23.457,25.375 C23.457,30.342 19.423,34.375 14.457,34.375 Z" class="cls-1"/>
</svg>
