<svg xmlns="http://www.w3.org/2000/svg" xmlns:xlink="http://www.w3.org/1999/xlink" preserveAspectRatio="xMidYMid" width="21" height="21" viewBox="0 0 21 21">
  <defs>
    <style>
      .cls-1 {
        fill: #fff;
        fill-rule: evenodd;
      }
    </style>
  </defs>
  <path d="M20.423,20.423 C19.655,21.192 18.408,21.192 17.639,20.423 L12.821,15.605 C13.938,14.887 14.887,13.938 15.605,12.821 L20.423,17.639 C21.192,18.408 21.192,19.655 20.423,20.423 ZM7.875,15.750 C3.526,15.750 0.000,12.224 0.000,7.875 C0.000,3.526 3.526,0.000 7.875,0.000 C12.224,0.000 15.750,3.526 15.750,7.875 C15.750,12.224 12.224,15.750 7.875,15.750 ZM7.875,1.969 C4.618,1.969 1.969,4.618 1.969,7.875 C1.969,11.132 4.618,13.781 7.875,13.781 C11.132,13.781 13.781,11.132 13.781,7.875 C13.781,4.618 11.132,1.969 7.875,1.969 ZM4.594,7.875 L3.281,7.875 C3.281,5.342 5.342,3.281 7.875,3.281 L7.875,4.594 C6.066,4.594 4.594,6.066 4.594,7.875 Z" class="cls-1"/>
</svg>
