<svg xmlns="http://www.w3.org/2000/svg" xmlns:xlink="http://www.w3.org/1999/xlink" preserveAspectRatio="xMidYMid" width="32.75" height="32.75" viewBox="0 0 32.75 32.75">
  <defs>
    <style>
      .cls-1 {
        fill: #8ea1ac;
        fill-rule: evenodd;
      }
    </style>
  </defs>
  <path d="M16.375,-0.000 C7.332,-0.000 -0.000,7.332 -0.000,16.375 C-0.000,25.418 7.332,32.750 16.375,32.750 C25.418,32.750 32.750,25.418 32.750,16.375 C32.750,7.330 25.418,-0.000 16.375,-0.000 ZM24.523,12.699 L24.534,13.221 C24.534,18.550 20.479,24.690 13.063,24.690 C10.787,24.690 8.668,24.023 6.883,22.879 C7.199,22.915 7.520,22.937 7.846,22.937 C9.735,22.937 11.473,22.292 12.852,21.212 C11.088,21.180 9.600,20.013 9.086,18.412 C9.334,18.458 9.584,18.482 9.846,18.482 C10.214,18.482 10.570,18.434 10.908,18.342 C9.064,17.970 7.674,16.342 7.674,14.389 L7.674,14.338 C8.218,14.641 8.838,14.822 9.500,14.844 C8.418,14.121 7.707,12.887 7.707,11.489 C7.707,10.750 7.905,10.058 8.252,9.463 C10.238,11.902 13.211,13.507 16.561,13.676 C16.492,13.381 16.457,13.071 16.457,12.756 C16.457,10.531 18.262,8.726 20.489,8.726 C21.648,8.726 22.695,9.215 23.433,9.998 C24.351,9.817 25.214,9.481 25.994,9.021 C25.692,9.963 25.054,10.752 24.221,11.252 C25.034,11.156 25.814,10.936 26.535,10.617 C25.996,11.424 25.310,12.134 24.523,12.699 Z" class="cls-1"/>
</svg>
