<svg xmlns="http://www.w3.org/2000/svg" xmlns:xlink="http://www.w3.org/1999/xlink" preserveAspectRatio="xMidYMid" width="19" height="11.875" viewBox="0 0 19 11.875">
  <defs>
    <style>
      .cls-1 {
        fill: #8ea1ac;
        fill-rule: evenodd;
      }
    </style>
  </defs>
  <path d="M9.500,-0.000 C5.356,-0.000 1.765,2.412 -0.000,5.937 C1.765,9.462 5.356,11.875 9.500,11.875 C13.644,11.875 17.235,9.462 19.000,5.937 C17.235,2.412 13.644,-0.000 9.500,-0.000 ZM14.184,3.148 C15.300,3.860 16.246,4.814 16.957,5.937 C16.246,7.060 15.300,8.014 14.184,8.726 C12.781,9.620 11.162,10.093 9.500,10.093 C7.838,10.093 6.218,9.620 4.816,8.726 C3.700,8.014 2.754,7.060 2.043,5.937 C2.754,4.814 3.700,3.860 4.816,3.148 C4.889,3.102 4.962,3.057 5.036,3.013 C4.851,3.520 4.750,4.067 4.750,4.638 C4.750,7.261 6.877,9.388 9.500,9.388 C12.123,9.388 14.250,7.261 14.250,4.638 C14.250,4.067 14.149,3.520 13.964,3.013 C14.038,3.057 14.111,3.102 14.184,3.148 ZM9.500,4.044 C9.500,5.028 8.703,5.826 7.719,5.826 C6.735,5.826 5.937,5.028 5.937,4.044 C5.937,3.061 6.735,2.263 7.719,2.263 C8.703,2.263 9.500,3.061 9.500,4.044 Z" class="cls-1"/>
</svg>
