<svg xmlns="http://www.w3.org/2000/svg" xmlns:xlink="http://www.w3.org/1999/xlink" preserveAspectRatio="xMidYMid" width="21.407" height="17.937" viewBox="0 0 21.407 17.937">
  <defs>
    <style>
      .cls-1 {
        fill: #8ea1ac;
        fill-rule: evenodd;
      }
    </style>
  </defs>
  <path d="M12.926,3.081 C13.916,3.699 14.611,4.745 14.738,5.959 C15.141,6.147 15.590,6.255 16.065,6.255 C17.800,6.255 19.206,4.855 19.206,3.129 C19.206,1.402 17.800,0.002 16.065,0.002 C14.346,0.002 12.952,1.377 12.926,3.081 ZM10.868,9.483 C12.603,9.483 14.009,8.083 14.009,6.356 C14.009,4.629 12.603,3.230 10.868,3.230 C9.134,3.230 7.726,4.630 7.726,6.356 C7.726,8.083 9.134,9.483 10.868,9.483 ZM12.200,9.696 L9.535,9.696 C7.318,9.696 5.513,11.492 5.513,13.699 L5.513,16.944 L5.522,16.995 L5.746,17.065 C7.863,17.723 9.701,17.942 11.215,17.942 C14.171,17.942 15.884,17.103 15.990,17.050 L16.200,16.944 L16.222,16.944 L16.222,13.699 C16.222,11.492 14.418,9.696 12.200,9.696 ZM17.398,6.468 L14.753,6.468 C14.724,7.521 14.272,8.470 13.558,9.152 C15.530,9.736 16.971,11.555 16.971,13.704 L16.971,14.704 C19.583,14.609 21.088,13.872 21.187,13.822 L21.397,13.716 L21.419,13.716 L21.419,10.471 C21.419,8.264 19.615,6.468 17.398,6.468 ZM5.356,6.255 C5.971,6.255 6.543,6.077 7.027,5.772 C7.181,4.773 7.719,3.899 8.488,3.305 C8.492,3.246 8.497,3.188 8.497,3.129 C8.497,1.402 7.091,0.002 5.356,0.002 C3.621,0.002 2.215,1.402 2.215,3.129 C2.215,4.855 3.621,6.255 5.356,6.255 ZM8.177,9.152 C7.466,8.473 7.016,7.530 6.983,6.483 C6.885,6.476 6.788,6.468 6.688,6.468 L4.023,6.468 C1.805,6.468 0.001,8.264 0.001,10.471 L0.001,13.716 L0.009,13.766 L0.234,13.837 C1.932,14.364 3.447,14.608 4.763,14.684 L4.763,13.704 C4.764,11.555 6.206,9.736 8.177,9.152 Z" class="cls-1"/>
</svg>
