<?xml version="1.0" encoding="UTF-8" standalone="no"?><!DOCTYPE svg PUBLIC "-//W3C//DTD SVG 1.1//EN" "http://www.w3.org/Graphics/SVG/1.1/DTD/svg11.dtd"><svg width="100%" height="100%" viewBox="0 0 1360 1360" version="1.1" xmlns="http://www.w3.org/2000/svg" xmlns:xlink="http://www.w3.org/1999/xlink" xml:space="preserve" xmlns:serif="http://www.serif.com/" style="fill-rule:evenodd;clip-rule:evenodd;stroke-linejoin:round;stroke-miterlimit:1.41421;"><g><path d="M675.909,290.996c54.071,-128.157 177.593,-217.703 321.263,-217.703c193.535,0 332.919,165.562 350.442,362.874c0,0 9.459,48.98 -11.361,137.16c-28.348,120.092 -94.985,226.787 -184.826,308.214l-475.518,424.26l-467.506,-424.287c-89.841,-81.4 -156.478,-188.122 -184.826,-308.214c-20.819,-88.18 -11.361,-137.159 -11.361,-137.159c17.523,-197.313 156.907,-362.875 350.442,-362.875c143.697,0 259.181,89.573 313.251,217.73Z" style="fill:#20232b;fill-rule:nonzero;stroke:#23262e;stroke-width:15.94px;"/><g><path d="M603.873,484.572c0,-3.479 -1.281,-6.561 -3.837,-9.236l-19.178,-20.08c-2.556,-2.677 -5.498,-4.019 -8.821,-4.019c-3.324,0 -6.267,1.344 -8.822,4.019l-178.716,187.131c-2.56,2.677 -3.836,5.757 -3.836,9.237c0,3.48 1.28,6.56 3.836,9.236l178.715,187.131c2.555,2.681 5.493,4.014 8.821,4.014c3.329,0 6.267,-1.337 8.822,-4.014l19.178,-20.068c2.556,-2.676 3.836,-5.757 3.836,-9.241c0,-3.476 -1.28,-6.556 -3.836,-9.232l-150.721,-157.826l150.722,-157.815c2.56,-2.675 3.837,-5.757 3.837,-9.237Z" style="fill:#23262e;fill-rule:nonzero;"/><path d="M975.334,642.383l-178.72,-187.131c-2.555,-2.676 -5.499,-4.019 -8.816,-4.019c-3.329,0 -6.262,1.343 -8.826,4.019l-19.17,20.078c-2.555,2.677 -3.83,5.753 -3.83,9.237c0,3.484 1.274,6.561 3.83,9.237l150.725,157.819l-150.725,157.827c-2.555,2.676 -3.83,5.757 -3.83,9.232c0,3.485 1.274,6.565 3.83,9.241l19.17,20.068c2.564,2.681 5.498,4.014 8.826,4.014c3.319,0 6.261,-1.337 8.816,-4.014l178.72,-187.13c2.556,-2.675 3.834,-5.761 3.834,-9.241c0,-3.481 -1.278,-6.562 -3.834,-9.237Z" style="fill:#23262e;fill-rule:nonzero;"/></g></g></svg>