<?xml version="1.0" encoding="UTF-8" standalone="no"?><!DOCTYPE svg PUBLIC "-//W3C//DTD SVG 1.1//EN" "http://www.w3.org/Graphics/SVG/1.1/DTD/svg11.dtd"><svg width="100%" height="100%" viewBox="0 0 50 36" version="1.1" xmlns="http://www.w3.org/2000/svg" xmlns:xlink="http://www.w3.org/1999/xlink" xml:space="preserve" xmlns:serif="http://www.serif.com/" style="fill-rule:evenodd;clip-rule:evenodd;stroke-linejoin:round;stroke-miterlimit:1.41421;"><clipPath id="_clip1"><rect id="Arrow-back--when-in-detailed-view-" serif:id="Arrow back (when in detailed view)" x="0.038" y="0.853" width="49.086" height="34.576"/></clipPath><g clip-path="url(#_clip1)"><path id="Arrow_back_when_in_detailed_view_" d="M16.037,1.369c0.327,-0.328 0.771,-0.513 1.234,-0.513c0.954,0 1.739,0.785 1.739,1.739c0,0.459 -0.182,0.9 -0.505,1.226l-12.551,12.55l41.407,0c0.006,-0.001 0.011,-0.001 0.016,-0.001c0.952,0 1.739,0.78 1.747,1.732c-0.006,0.964 -0.799,1.755 -1.763,1.758l-41.407,0l12.551,12.525c0.67,0.683 0.67,1.792 0,2.475c-0.325,0.332 -0.77,0.52 -1.234,0.52c-0.464,0 -0.909,-0.188 -1.234,-0.52l-15.524,-15.52c-0.672,-0.672 -0.672,-1.779 0,-2.452l15.524,-15.519Z" style="fill:#fff;"/></g></svg>