<?xml version="1.0" encoding="UTF-8" standalone="no"?><!DOCTYPE svg PUBLIC "-//W3C//DTD SVG 1.1//EN" "http://www.w3.org/Graphics/SVG/1.1/DTD/svg11.dtd"><svg width="100%" height="100%" viewBox="0 0 24 24" version="1.1" xmlns="http://www.w3.org/2000/svg" xmlns:xlink="http://www.w3.org/1999/xlink" xml:space="preserve" style="fill-rule:evenodd;clip-rule:evenodd;stroke-linejoin:round;stroke-miterlimit:1.41421;"><path d="M15.5,14l-0.79,0l-0.28,-0.27c0.98,-1.14 1.57,-2.62 1.57,-4.23c0,-3.59 -2.91,-6.5 -6.5,-6.5c-3.59,0 -6.5,2.91 -6.5,6.5c0,3.59 2.91,6.5 6.5,6.5c1.61,0 3.09,-0.59 4.23,-1.57l0.27,0.28l0,0.79l5,4.99l1.49,-1.49l-4.99,-5l0,0Zm-6,0c-2.49,0 -4.5,-2.01 -4.5,-4.5c0,-2.49 2.01,-4.5 4.5,-4.5c2.49,0 4.5,2.01 4.5,4.5c0,2.49 -2.01,4.5 -4.5,4.5Z" style="fill:#fff;fill-rule:nonzero;"/><path d="M0,0l24,0l0,24l-24,0l0,-24Z" style="fill:none;"/></svg>