<svg id="merged_copy_2" data-name="merged copy 2" xmlns="http://www.w3.org/2000/svg" width="273.806" height="306.189" viewBox="0 0 610.63 682.847">
  <metadata><?xpacket begin="﻿" id="W5M0MpCehiHzreSzNTczkc9d"?>
<x:xmpmeta xmlns:x="adobe:ns:meta/" x:xmptk="Adobe XMP Core 5.6-c138 79.159824, 2016/09/14-01:09:01        ">
   <rdf:RDF xmlns:rdf="http://www.w3.org/1999/02/22-rdf-syntax-ns#">
      <rdf:Description rdf:about=""/>
   </rdf:RDF>
</x:xmpmeta>
                                                                                                    
                                                                                                    
                                                                                                    
                                                                                                    
                                                                                                    
                                                                                                    
                                                                                                    
                                                                                                    
                                                                                                    
                                                                                                    
                                                                                                    
                                                                                                    
                                                                                                    
                                                                                                    
                                                                                                    
                                                                                                    
                                                                                                    
                                                                                                    
                                                                                                    
                                                                                                    
                           
<?xpacket end="w"?></metadata>
<defs>
    <style>
      .cls-1 {
        fill: none;
        stroke: #fff;
        stroke-width: 14px;
      }

      .cls-1, .cls-2 {
        fill-rule: evenodd;
      }

      .cls-2 {
        fill: #fff;
      }
    </style>
  </defs>
  <path id="Forma_1_copy" data-name="Forma 1 copy" class="cls-1" d="M4277.39,346.342L4040.91,482.7a61.709,61.709,0,0,0-30.91,53.46V808.847a61.723,61.723,0,0,0,30.91,53.461l236.48,136.344a61.912,61.912,0,0,0,61.83,0l236.5-136.344a61.723,61.723,0,0,0,30.91-53.461V536.156a61.708,61.708,0,0,0-30.91-53.46l-236.5-136.354A61.941,61.941,0,0,0,4277.39,346.342Z" transform="translate(-4003 -331.063)"/>
  <path id="Shape_1_copy_8" data-name="Shape 1 copy 8" class="cls-2" d="M4446.53,753.332s0.32-129.148.43-159.56c0.05-13.5-8.84-20.637-25.37-31.353-26.95-16.462-60.42-36.327-134.11-80.74-10.87-5.558-18.96-.391-18.96-0.391m-38.38,196.505s83.73-44.654,81.52-45.313C4250.5,614.212,4168,606.9,4168,606.9l26.32,41.294Zm154.7,4.424s-83.73,44.655-81.52,45.314c61.16,18.267,143.67,25.58,143.67,25.58l-26.32-41.294Zm-217.19-76.976s-0.33,129.148-.44,159.56c-0.05,13.5,8.85,20.637,25.37,31.353,26.95,16.462,60.43,36.327,134.12,80.74,10.87,5.558,18.95.391,18.95,0.391" transform="translate(-4003 -331.063)"/>
</svg>
