<svg id="merged_copy_5" data-name="merged copy 5" xmlns="http://www.w3.org/2000/svg" width="1198.04" height="949.99" viewBox="0 0 1198.04 949.99">
  <metadata><?xpacket begin="﻿" id="W5M0MpCehiHzreSzNTczkc9d"?>
<x:xmpmeta xmlns:x="adobe:ns:meta/" x:xmptk="Adobe XMP Core 5.6-c138 79.159824, 2016/09/14-01:09:01        ">
   <rdf:RDF xmlns:rdf="http://www.w3.org/1999/02/22-rdf-syntax-ns#">
      <rdf:Description rdf:about=""/>
   </rdf:RDF>
</x:xmpmeta>
                                                                                                    
                                                                                                    
                                                                                                    
                                                                                                    
                                                                                                    
                                                                                                    
                                                                                                    
                                                                                                    
                                                                                                    
                                                                                                    
                                                                                                    
                                                                                                    
                                                                                                    
                                                                                                    
                                                                                                    
                                                                                                    
                                                                                                    
                                                                                                    
                                                                                                    
                                                                                                    
                           
<?xpacket end="w"?></metadata>
<defs>
    <style>
      .cls-1 {
        fill: none;
        stroke: #fff;
        stroke-width: 16.667px;
      }

      .cls-1, .cls-2 {
        fill-rule: evenodd;
      }

      .cls-2 {
        fill: #fff;
      }
    </style>
  </defs>
  <path id="Forma_1_copy" data-name="Forma 1 copy" class="cls-1" d="M4406.39,346.342L4169.91,482.7a61.709,61.709,0,0,0-30.91,53.46V808.847a61.723,61.723,0,0,0,30.91,53.461l236.48,136.344a61.912,61.912,0,0,0,61.83,0l236.5-136.344a61.723,61.723,0,0,0,30.91-53.461V536.156a61.708,61.708,0,0,0-30.91-53.46l-236.5-136.354A61.941,61.941,0,0,0,4406.39,346.342Z" transform="translate(-3837.09 -329.73)"/>
  <path id="Shape_1_copy_8" data-name="Shape 1 copy 8" class="cls-2" d="M4575.53,753.332s0.32-129.148.43-159.56c0.05-13.5-8.84-20.637-25.37-31.353-26.95-16.462-60.42-36.327-134.11-80.74-10.87-5.558-18.96-.391-18.96-0.391m-38.38,196.505s83.73-44.654,81.52-45.313C4379.5,614.212,4297,606.9,4297,606.9l26.32,41.294Zm154.7,4.424s-83.73,44.655-81.52,45.314c61.16,18.267,143.67,25.58,143.67,25.58l-26.32-41.294Zm-217.19-76.976s-0.33,129.148-.44,159.56c-0.05,13.5,8.85,20.637,25.37,31.353,26.95,16.462,60.43,36.327,134.12,80.74,10.87,5.558,18.95.391,18.95,0.391" transform="translate(-3837.09 -329.73)"/>
  <path id="NEXUS-STATS" class="cls-2" d="M3864.83,1277.29v-112.7h2.01l34.17,112.7h45.62V1140.44h-27.74v112.7h-2.01l-32.96-112.7h-46.83v136.85h27.74Zm199.98,0v-24.15h-60.7v-32.81h48.64v-23.74h-48.64v-32h60.7v-24.15h-88.44v136.85h88.44Zm9.84-136.85,39.39,71.24-39.39,65.61h28.74l25.93-47.29,25.32,47.29h30.75L4146,1210.27l39.39-69.83h-28.74l-25.92,50.31-25.33-50.31h-30.75Zm153.95,0h-27.73V1231q0,25.155,12.96,36.93t39.09,11.78q26.13,0,39.09-11.78t12.96-36.93v-90.56h-27.73v91.17q0,23.94-24.32,23.94t-24.32-23.94v-91.17Zm186.91,24.95,2.21-21.94-7.23-1.4q-22.92-4.035-37.79-4.03-21.705,0-34.16,10.06t-12.46,30.59q0,16.3,9.54,25.46t32.86,15.8q14.67,4.23,19.6,7.85a11.8,11.8,0,0,1,4.92,10.06q0,17.715-21.3,17.71-14.28,0-41.2-3.62l-2.82,21.54,7.24,1.41q22.71,4.83,38.39,4.83,21.1,0,34.16-11.07t13.07-32.61q0-16.9-8.04-25.05-8.04-8.16-28.04-14.59-19.995-6.45-25.42-9.87a10.966,10.966,0,0,1-5.43-9.86q0-14.49,21.91-14.49,11.655,0,39.99,3.22h0Zm83.21,70.64v-24.55h-59.49v24.55h59.49Zm104.51-70.64,2.21-21.94-7.24-1.4q-22.9-4.035-37.78-4.03-21.7,0-34.17,10.06t-12.46,30.59q0,16.3,9.55,25.46t32.86,15.8q14.67,4.23,19.6,7.85a11.8,11.8,0,0,1,4.92,10.06q0,17.715-21.3,17.71-14.28,0-41.21-3.62l-2.81,21.54,7.24,1.41q22.7,4.83,38.38,4.83,21.1,0,34.17-11.07t13.06-32.61q0-16.9-8.04-25.05-8.04-8.16-28.03-14.59-20.01-6.45-25.43-9.87a10.977,10.977,0,0,1-5.42-9.86q0-14.49,21.9-14.49,11.655,0,40,3.22h0Zm51.65-.4v112.3h27.74v-112.3h36.17v-24.55H4618.3v24.55h36.58Zm90.24,112.3,5.43-24.75h47.83l5.43,24.75h27.73l-30.75-136.85h-52.65l-30.75,136.85h27.73Zm34.17-113.91,13.87,65h-37.39l13.87-65h9.65Zm87.43,1.61v112.3h27.73v-112.3h36.18v-24.55H4830.14v24.55h36.58Zm163.39,0.4,2.21-21.94-7.23-1.4q-22.92-4.035-37.79-4.03-21.705,0-34.16,10.06t-12.47,30.59q0,16.3,9.55,25.46t32.86,15.8q14.67,4.23,19.6,7.85a11.8,11.8,0,0,1,4.92,10.06q0,17.715-21.3,17.71-14.28,0-41.2-3.62l-2.82,21.54,7.24,1.41q22.71,4.83,38.39,4.83,21.09,0,34.16-11.07t13.07-32.61q0-16.9-8.04-25.05-8.04-8.16-28.04-14.59-20-6.45-25.42-9.87a10.966,10.966,0,0,1-5.43-9.86q0-14.49,21.91-14.49,11.655,0,39.99,3.22h0Z" transform="translate(-3837.09 -329.73)"/>
</svg>
