<?xml version="1.0" encoding="UTF-8" standalone="no"?><!DOCTYPE svg PUBLIC "-//W3C//DTD SVG 1.1//EN" "http://www.w3.org/Graphics/SVG/1.1/DTD/svg11.dtd"><svg width="100%" height="100%" viewBox="0 0 2793 583" version="1.1" xmlns="http://www.w3.org/2000/svg" xmlns:xlink="http://www.w3.org/1999/xlink" xml:space="preserve" style="fill-rule:evenodd;clip-rule:evenodd;stroke-linejoin:round;stroke-miterlimit:1.41421;"><g id="nexushub.-logo.-typeface.-bw"><path d="M545.664,131.365c-12.086,-83.307 -89.532,-141.13 -172.839,-129.045l-241.638,35.054c-83.307,12.086 -141.13,89.532 -129.044,172.839l35.054,241.637c12.085,83.307 89.532,141.13 172.839,129.045l241.637,-35.054c83.307,-12.086 141.13,-89.532 129.045,-172.839l-35.054,-241.637Zm-391.044,91.771l0,0c0,0 -0.317,125.739 -0.424,155.349c-0.047,13.14 8.612,20.092 24.702,30.525c26.24,16.028 58.831,35.368 130.574,78.609c10.582,5.411 18.452,0.38 18.452,0.38l-144.301,-220.537l-29.003,-44.326Zm242.771,100.794l-144.3,-220.537c0,0 7.87,-5.031 18.452,0.38c71.743,43.241 104.334,62.581 130.574,78.609c16.09,10.433 24.749,17.385 24.702,30.525c-0.107,29.61 -0.425,155.349 -0.425,155.349l0,0l0,0c0,0 -80.665,-8.735 -140.216,-26.52c-2.148,-0.642 79.368,-44.117 79.368,-44.117l31.845,26.311Zm-242.771,-100.794l29.003,44.326l31.845,26.311c0,0 81.516,-43.475 79.369,-44.117c-59.551,-17.785 -140.217,-26.52 -140.217,-26.52l0,0Z" style="fill:#fff;"/><g transform="matrix(33.6021,0,0,33.6021,-54928.8,-27492.6)"><path d="M1656.31,831.04l2.147,0l0,-3.395l-0.276,-1.644l0.06,-0.012l0.744,1.704l1.921,3.347l2.171,0l0,-8.495l-2.135,0l0,3.852c0.012,0 0.228,1.464 0.24,1.464l-0.06,0.012l-0.72,-1.704l-2.053,-3.624l-2.039,0l0,8.495Z" style="fill:#fff;fill-rule:nonzero;"/><path d="M1666.59,824.56l3.744,0l0,-2.015l-5.915,0l0,8.495l5.915,0l0,-2.027l-3.744,0l0,-1.273l3.444,0l0,-1.859l-3.444,0l0,-1.321Z" style="fill:#fff;fill-rule:nonzero;"/><path d="M1674.73,825.449l-1.452,-2.904l-2.508,0l2.388,4.26l-2.388,4.235l2.508,0l1.452,-2.892l1.487,2.892l2.496,0l-2.376,-4.235l2.376,-4.26l-2.496,0l-1.487,2.904Z" style="fill:#fff;fill-rule:nonzero;"/><path d="M1681.47,822.545l-2.171,0l0,5.652c-0.012,3.983 6.767,3.983 6.779,0l0,-5.652l-2.171,0l0,5.652c-0.012,1.368 -2.437,1.368 -2.437,0l0,-5.652Z" style="fill:#fff;fill-rule:nonzero;"/><path d="M1686.94,829.625c0.792,1.019 1.871,1.535 2.892,1.535c1.56,0 3.287,-0.899 3.359,-2.543c0.096,-2.088 -1.415,-2.617 -2.927,-2.893c-0.661,-0.144 -1.105,-0.384 -1.129,-0.792c0.036,-0.984 1.561,-1.02 2.449,-0.072l1.403,-1.08c-0.875,-1.067 -1.871,-1.355 -2.903,-1.355c-1.561,0 -3.072,0.876 -3.072,2.543c0,1.621 1.248,2.485 2.615,2.701c0.697,0.096 1.477,0.372 1.453,0.852c-0.06,0.912 -1.933,0.864 -2.784,-0.168l-1.356,1.272Z" style="fill:#fff;fill-rule:nonzero;"/><path d="M1697.3,827.836l2.449,0l0,3.204l2.159,0l0,-8.495l-2.159,0l0,3.216l-2.449,0l0,-3.216l-2.159,0l0,8.495l2.159,0l0,-3.204Z" style="fill:#fff;fill-rule:nonzero;"/><path d="M1705.38,822.545l-2.171,0l0,5.652c-0.012,3.983 6.767,3.983 6.779,0l0,-5.652l-2.171,0l0,5.652c-0.012,1.368 -2.437,1.368 -2.437,0l0,-5.652Z" style="fill:#fff;fill-rule:nonzero;"/><path d="M1717.43,825.137c0.048,-1.62 -1.14,-2.592 -2.76,-2.592l-3.408,0l0,8.496l3.468,0c1.883,-0.001 2.807,-0.828 3.023,-2.196c0.108,-0.648 -0.036,-1.741 -1.2,-2.328c0.612,-0.312 0.864,-0.996 0.876,-1.38l0.001,0Zm-4.009,0.732l0,-1.513l1.249,0c1.08,0 1.044,1.513 0,1.513l-1.249,0Zm0,3.288l0,-1.741l1.249,0c1.272,0 1.296,1.741 0,1.741l-1.249,0Z" style="fill:#fff;fill-rule:nonzero;"/></g></g></svg>