<?xml version="1.0" encoding="UTF-8" standalone="no"?><!DOCTYPE svg PUBLIC "-//W3C//DTD SVG 1.1//EN" "http://www.w3.org/Graphics/SVG/1.1/DTD/svg11.dtd"><svg width="100%" height="100%" viewBox="0 0 633 620" version="1.1" xmlns="http://www.w3.org/2000/svg" xmlns:xlink="http://www.w3.org/1999/xlink" xml:space="preserve" xmlns:serif="http://www.serif.com/" style="fill-rule:evenodd;clip-rule:evenodd;stroke-linejoin:round;stroke-miterlimit:1.41421;"><path id="nexushub.-logo.-typeface.-bw" d="M569.664,152.365c-12.086,-83.307 -89.532,-141.13 -172.839,-129.045l-241.638,35.054c-83.307,12.086 -141.13,89.532 -129.044,172.839l35.054,241.637c12.085,83.307 89.532,141.13 172.839,129.045l241.637,-35.054c83.307,-12.086 141.13,-89.532 129.045,-172.839l-35.054,-241.637Zm-391.044,91.771c0,0 -0.317,125.739 -0.424,155.349c-0.047,13.14 8.612,20.092 24.702,30.525c26.24,16.028 58.831,35.368 130.574,78.609c10.582,5.411 18.452,0.38 18.452,0.38l-144.301,-220.537l-29.003,-44.326Zm242.771,100.794l-144.3,-220.537c0,0 7.87,-5.031 18.452,0.38c71.743,43.241 104.334,62.581 130.574,78.609c16.09,10.433 24.749,17.385 24.702,30.525c-0.107,29.61 -0.425,155.349 -0.425,155.349c0,0 -80.665,-8.735 -140.216,-26.52c-2.148,-0.642 79.368,-44.117 79.368,-44.117l31.845,26.311Zm-242.771,-100.794l29.003,44.326l31.845,26.311c0,0 81.516,-43.475 79.369,-44.117c-59.551,-17.785 -140.217,-26.52 -140.217,-26.52Z" style="fill:#fff;"/></svg>