<?xml version="1.0" encoding="UTF-8" standalone="no"?><!DOCTYPE svg PUBLIC "-//W3C//DTD SVG 1.1//EN" "http://www.w3.org/Graphics/SVG/1.1/DTD/svg11.dtd"><svg width="100%" height="100%" viewBox="0 0 513 513" version="1.1" xmlns="http://www.w3.org/2000/svg" xmlns:xlink="http://www.w3.org/1999/xlink" xml:space="preserve" style="fill-rule:evenodd;clip-rule:evenodd;stroke-linejoin:round;stroke-miterlimit:1.41421;"><g><path d="M346.239,367.339l-75.17,21.682l-104.03,-21.682l0,-0.846c16.614,-14.66 27.115,-36.112 27.115,-60.019c0,-6.52 -0.784,-12.852 -2.257,-18.913c-3.877,-15.966 -12.539,-30.062 -24.388,-40.688l88.735,-27.966l88.563,27.966c-11.849,10.616 -20.522,24.712 -24.398,40.688c-1.473,6.06 -2.257,12.392 -2.257,18.913c0,24.377 10.909,46.174 28.087,60.865Z" style="fill:#50a88e;fill-rule:nonzero;"/><path d="M221.072,143.153l35.172,75.755l-247.085,-35.172c-5.308,-12.457 -8.238,-26.168 -8.238,-40.583l220.151,0Z" style="fill:#50a88e;fill-rule:nonzero;"/></g><g><rect x="127.803" y="367.344" width="257.672" height="37.219" style="fill:#68d891;"/><path d="M221.071,109.406l0,74.329l-211.912,0c11.156,26.215 32.801,46.911 59.672,56.79c12.879,-8.871 28.488,-14.062 45.305,-14.062c20.508,0 39.211,7.723 53.367,20.403l53.566,0l0,0.008l154.362,0c3.49,0 6.949,-0.125 10.376,-0.387c71.074,-5.308 127.112,-64.648 127.112,-137.08l-291.848,0l0,-0.001Z" style="fill:#68d891;fill-rule:nonzero;"/></g><g><path d="M441.889,109.406l-56.08,137.08c-3.427,0.261 -6.886,0.387 -10.376,0.387l-92.181,0l56.236,-137.467l102.401,0Z" style="fill:#68d891;fill-rule:nonzero;"/><path d="M367.994,367.339l-15.225,37.219l-102.4,0l15.225,-37.219l102.4,0Z" style="fill:#68d891;fill-rule:nonzero;"/></g><path d="M344.807,246.873c-11.849,10.616 -20.522,24.712 -24.398,40.688l-128.512,0c-3.877,-15.966 -12.539,-30.062 -24.388,-40.688l177.298,0Z" style="fill:#50a88e;fill-rule:nonzero;"/></svg>