<?xml version="1.0" encoding="iso-8859-1"?>
<!-- Generator: Adobe Illustrator 19.0.0, SVG Export Plug-In . SVG Version: 6.00 Build 0)  -->
<svg xmlns="http://www.w3.org/2000/svg" xmlns:xlink="http://www.w3.org/1999/xlink" version="1.1" id="Layer_1" x="0px" y="0px" viewBox="0 0 512 512" style="enable-background:new 0 0 512 512;" xml:space="preserve" width="512px" height="512px">
<g>
	<g>
		<rect x="448" y="348.83" width="64" height="60.667" fill="#FFFFFF"/>
	</g>
</g>
<g>
	<g>
		<rect y="348.83" width="64" height="60.667" fill="#FFFFFF"/>
	</g>
</g>
<g>
	<g>
		<rect x="448" y="439.5" width="64" height="64" fill="#FFFFFF"/>
	</g>
</g>
<g>
	<g>
		<rect y="439.5" width="64" height="64" fill="#FFFFFF"/>
	</g>
</g>
<g>
	<g>
		<polygon points="329.667,348.833 329.667,380.833 182.333,380.833 182.333,348.833 94,348.833 94,503.5 418,503.5 418,348.833       " fill="#FFFFFF"/>
	</g>
</g>
<g>
	<g>
		<polygon points="0.732,164.167 0,164.167 0,318.833 64,318.833 64,164.167   " fill="#FFFFFF"/>
	</g>
</g>
<g>
	<g>
		<rect x="448" y="164.17" width="64" height="154.67" fill="#FFFFFF"/>
	</g>
</g>
<g>
	<g>
		<polygon points="94,164.167 94,318.833 182.333,318.833 182.333,286.833 329.667,286.833 329.667,318.833 418,318.833     418,164.167   " fill="#FFFFFF"/>
	</g>
</g>
<g>
	<g>
		<rect x="241" y="8.5" width="30" height="74.67" fill="#FFFFFF"/>
	</g>
</g>
<g>
	<g>
		
			<rect x="113.602" y="47.157" transform="matrix(0.8315 -0.5556 0.5556 0.8315 -25.2689 85.6884)" width="30.001" height="74.673" fill="#FFFFFF"/>
	</g>
</g>
<g>
	<g>
		
			<rect x="346.079" y="69.501" transform="matrix(0.5556 -0.8315 0.8315 0.5556 100.1382 356.3511)" width="74.673" height="30.001" fill="#FFFFFF"/>
	</g>
</g>
<g>
	<g>
		<rect x="212.33" y="316.83" width="87.33" height="34" fill="#FFFFFF"/>
	</g>
</g>
<g>
</g>
<g>
</g>
<g>
</g>
<g>
</g>
<g>
</g>
<g>
</g>
<g>
</g>
<g>
</g>
<g>
</g>
<g>
</g>
<g>
</g>
<g>
</g>
<g>
</g>
<g>
</g>
<g>
</g>
</svg>
