<svg xmlns="http://www.w3.org/2000/svg" width="25.59" height="24.938" viewBox="0 0 25.59 24.938">
  <metadata><?xpacket begin="﻿" id="W5M0MpCehiHzreSzNTczkc9d"?>
<x:xmpmeta xmlns:x="adobe:ns:meta/" x:xmptk="Adobe XMP Core 5.6-c138 79.159824, 2016/09/14-01:09:01        ">
   <rdf:RDF xmlns:rdf="http://www.w3.org/1999/02/22-rdf-syntax-ns#">
      <rdf:Description rdf:about=""/>
   </rdf:RDF>
</x:xmpmeta>
                                                                                                    
                                                                                                    
                                                                                                    
                                                                                                    
                                                                                                    
                                                                                                    
                                                                                                    
                                                                                                    
                                                                                                    
                                                                                                    
                                                                                                    
                                                                                                    
                                                                                                    
                                                                                                    
                                                                                                    
                                                                                                    
                                                                                                    
                                                                                                    
                                                                                                    
                                                                                                    
                           
<?xpacket end="w"?></metadata>
<defs>
    <style>
      .cls-1 {
        fill: #fff;
        fill-rule: evenodd;
      }
    </style>
  </defs>
  <path id="Logo" class="cls-1" d="M1010.79,501.821s-4.04.165-6.39-1.855a1.531,1.531,0,0,0,.41-0.618s-0.29-1.937-4.12-4.327c-0.45.247-.823,0.412-0.823,0.412s-4.2-5.4,0-12.364l0.823,0.618s3.42-2.184,4.12-4.121l-0.2-.824s0.74-1.855,6.18-1.855m0,24.934s4.03,0.165,6.38-1.855a1.531,1.531,0,0,1-.41-0.618s0.29-1.937,4.12-4.327c0.45,0.247.83,0.412,0.83,0.412s4.2-5.4,0-12.364l-0.83.618s-3.42-2.184-4.12-4.121c0.04-.165.21-0.824,0.21-0.824s-0.75-1.855-6.18-1.855" transform="translate(-998 -476.875)"/>
</svg>
