<?xml version="1.0" encoding="UTF-8" standalone="no"?><!DOCTYPE svg PUBLIC "-//W3C//DTD SVG 1.1//EN" "http://www.w3.org/Graphics/SVG/1.1/DTD/svg11.dtd"><svg width="100%" height="100%" viewBox="0 0 202 231" version="1.1" xmlns="http://www.w3.org/2000/svg" xmlns:xlink="http://www.w3.org/1999/xlink" xml:space="preserve" xmlns:serif="http://www.serif.com/" style="fill-rule:evenodd;clip-rule:evenodd;stroke-linejoin:round;stroke-miterlimit:1.41421;"><g><path id="Rectangle-3-copy" serif:id="Rectangle 3 copy" d="M63.676,100.926l34.177,19.965l0,34.227l-34.177,-19.966l0,-34.226Zm1.422,-2.656l34.151,20.008l29.835,-16.771l-34.151,-20.009l-29.835,16.772Z" style="fill:#fff;"/><path id="Rectangle-2-copy-5" serif:id="Rectangle 2 copy 5" d="M100.724,0.546l0.293,-0.509l100.17,57.453l-0.055,0.094l0.317,0l0,115.383l-0.317,0l0.055,0.094l-73.066,41.103l0,-30.737l46.141,-26.279l0,-83.798l-73.538,-42.178l-73.538,42.178l0,83.946l73.192,42.493l0.054,30.725l-100.17,-57.453l0.054,-0.094l-0.316,0l0,-115.383l0.316,0l-0.054,-0.094l100.17,-57.453l0.292,0.509Z" style="fill:#fff;"/></g></svg>