<svg xmlns="http://www.w3.org/2000/svg" width="2968.5" height="1114.691" viewBox="0 0 2968.5 1114.691">
  <metadata><?xpacket begin="﻿" id="W5M0MpCehiHzreSzNTczkc9d"?>
<x:xmpmeta xmlns:x="adobe:ns:meta/" x:xmptk="Adobe XMP Core 5.6-c138 79.159824, 2016/09/14-01:09:01        ">
   <rdf:RDF xmlns:rdf="http://www.w3.org/1999/02/22-rdf-syntax-ns#">
      <rdf:Description rdf:about=""/>
   </rdf:RDF>
</x:xmpmeta>
                                                                                                    
                                                                                                    
                                                                                                    
                                                                                                    
                                                                                                    
                                                                                                    
                                                                                                    
                                                                                                    
                                                                                                    
                                                                                                    
                                                                                                    
                                                                                                    
                                                                                                    
                                                                                                    
                                                                                                    
                                                                                                    
                                                                                                    
                                                                                                    
                                                                                                    
                                                                                                    
                           
<?xpacket end="w"?></metadata>
<defs>
    <style>
      .cls-1 {
        fill: #fff;
        fill-rule: evenodd;
        opacity: 0.02;
      }
    </style>
  </defs>
  <path class="cls-1" d="M900.264,330.314c2.1-2.976,2.032-7.81-1.053-10.235-3.415-2.688-14.545-11.861-18.163-14.285-1.705-1.142-4.671-1.2-6.552-.636a8.729,8.729,0,0,0-1.568,16.1c3.137,1.82,14.072,9.947,17.337,11.524a7.892,7.892,0,0,0,10-2.465m15.607,45.5a7.559,7.559,0,0,0-3.135-10.048c-2.237-1.243-4.482-2.479-6.713-3.737-1.883-1.058-4.353-2.216-5.492-3.516-3.611-4.136-10.742-2.106-13.039,2.264-2.324,4.428.1,11.3,5.515,12-0.255-.5.007-0.444,0.777,0.164,0.581,0.27,1.159.541,1.742,0.813,1.163,0.545,2.311,1.1,3.458,1.677,2.279,1.161,4.553,2.344,6.831,3.516a7.582,7.582,0,0,0,10.056-3.133m12.165,34.477c-7.552-1.932-13.6-6.928-20.828-9.45-9.595-3.349-16.532,11.068-9.094,17.239,7,5.808,17.313,7.474,26.048,8.985,10.885,1.886,14.695-14.007,3.874-16.774m12.88,55.788c1.168-3.553-.445-6.839-3.192-9.073-3.474-2.829-7.822-4.635-11.8-6.649a127.922,127.922,0,0,0-13.422-6.34c-5.156-1.9-11.177,1.406-12.845,6.489-1.87,5.7,1.479,10.535,6.5,12.831a118.062,118.062,0,0,0,12.937,4.566c4.527,1.469,9.082,3.12,13.847,3.589a8.006,8.006,0,0,0,7.981-5.413m-64.672-85.17c1.233-3.479.045-8.543-3.8-10.038a43.146,43.146,0,0,1-8.991-4.543c-2.162-1.49-5.424-4.426-8.1-6.253-4.293-2.932-11.28-.286-13.373,4.165-2.5,5.31-.428,10.226,4.166,13.364,2.9,1.98,6.444,3.077,9.7,4.347,3.646,1.421,7.271,2.794,10.966,4.094,3.783,1.335,8.208-1.675,9.431-5.136m11.986,39.837c1.29-3.646.049-8.95-3.977-10.517a43.648,43.648,0,0,1-8.632-4.4c-0.183-.126-0.45-0.311-0.551-0.387-0.651-.485-1.289-0.975-1.922-1.483a49.871,49.871,0,0,0-5.53-4.167c-4.16-2.5-9.805-.682-12.441,3.067a9.746,9.746,0,0,0,1.308,12.741c2.957,2.735,6.966,4.564,10.645,6.15,3.968,1.71,6.862,2.833,11.218,4.371,3.967,1.4,8.6-1.757,9.882-5.38m7.023,54.7c2.325-4.428.359-9.34-3.688-11.826-7.241-4.451-13.956-10-21.386-14.086a10.081,10.081,0,0,0-13.416,4.178c-2.672,5.089-.352,10.5,4.178,13.4,7.108,4.557,15.146,7.794,22.476,12.018,4.1,2.36,9.7.383,11.836-3.687M850.022,481.5c-6.1-4.956-12.749-9.24-20.344-11.442-4.123-1.193-8.685,1.611-10.058,5.477-1.332,3.772-.016,9.02,4.054,10.7,5.922,2.451,11.478,4.481,17.267,8.157,7.561,4.8,16.077-7.21,9.081-12.894m91.166-139.961c-6.5-1.559-12.822-2.916-19-5.52-4.069-1.719-8.888-.7-11.064,3.446-1.95,3.711-.626,9.27,3.446,11.057,7.291,3.2,14.87,6.455,22.624,8.317,11.138,2.674,15.13-14.625,4-17.3m59.432,38.6a75.193,75.193,0,0,0-29.217-7.727c-6.886-.286-9.888,11.007-3.123,13.52,8.238,3.057,16.186,6.058,24.163,9.773,10.207,4.751,18.4-10.522,8.177-15.566M964.055,400.4c1.12-4.838-2-8.708-6.365-10.178a171.959,171.959,0,0,1-19.934-7.813c-9.432-4.553-17.025,9.7-7.592,14.453a155.39,155.39,0,0,0,23.7,9.9c4.384,1.359,9.21-2.127,10.188-6.361M996.2,435.253q-10.834-5.559-21.587-11.264c-9.752-5.2-17.688,9.874-7.983,15.193q10.686,5.854,21.255,11.9c9.987,5.683,18.608-10.547,8.315-15.831M986.8,465.6c-7.741-4.589-16.062-8.217-24.162-12.128-9.915-4.786-17.544,9.67-7.952,15.14,7.812,4.456,15.519,9.255,23.692,13.03,10.593,4.9,18.492-10.073,8.422-16.042m-10.037,51.3c2.042-4.339.707-9.846-3.778-12.111q-3.745-1.89-7.489-3.779c-4.187-2.117-15.151-3.5-17.235.927-2.044,4.341-1.46,9.111,8.891,14.956,2.436,1.376,5,2.521,7.491,3.781,4.187,2.113,10.036.655,12.12-3.774m-40.885-4.733c1.9-4.037.732-9.51-3.6-11.544-2.887-1.355-5.749-2.762-8.66-4.063-9.746-4.358-15.638-3.483-17.661.826-1.9,4.036,1.779,11.154,9.709,14.317,2.958,1.178,5.771,2.709,8.658,4.062,4.045,1.9,9.526.708,11.553-3.6m-33.3,9.292c-8.445-2.573-16.979-4.768-25.369-7.535-4.62-1.524-9.775,2.314-10.8,6.743-1.184,5.12,2.121,9.237,6.747,10.791a196.847,196.847,0,0,0,25.449,7.185c11.252,2.156,14.789-13.888,3.97-17.184m-31.7,39.332c-8.443-2.573-16.977-4.768-25.367-7.535-4.621-1.524-9.775,2.314-10.8,6.742-1.184,5.121,2.121,9.238,6.747,10.792a196.594,196.594,0,0,0,25.449,7.184c11.252,2.158,14.789-13.886,3.968-17.183m102.3,0.171a9.208,9.208,0,0,0-6.794-10.863c-5.255-1.428-10.527-2.79-15.807-4.131-4.635-1.181-10.056,2.062-10.945,6.832a9.3,9.3,0,0,0,6.84,10.934c5.27,1.373,10.543,2.727,15.836,4.018a9.2,9.2,0,0,0,10.87-6.79m43.226,1.665c1.94-5.228-1.23-9.766-6.14-11.476a30.938,30.938,0,0,1-2.87-1.156q-1.995-.872-3.93-1.853a85.1,85.1,0,0,1-7.519-4.326c-3.819-2.449-9.373-.232-11.351,3.534-2.305,4.394-.232,8.781,3.539,11.342a92.389,92.389,0,0,0,16.121,8.638c4.78,2.017,10.23.479,12.15-4.7m7.81-50.2a94.6,94.6,0,0,0-12.01-5.489,82.134,82.134,0,0,0-12.886-4.613,7.245,7.245,0,0,0-8.358,4.552c-1.29,3.655.3,6.795,3.37,8.9a104.9,104.9,0,0,0,10.894,6.015c3.67,1.921,7.26,4.076,11.09,5.674,10,4.168,17.45-9.407,7.9-15.037m17.51-21.45c2.34-4.447.25-8.917-3.59-11.5-6.74-4.559-14.54-7.923-21.74-11.73-9.36-4.955-16.7,9.185-7.62,14.5,7.03,4.115,14.01,8.983,21.44,12.318,4.2,1.879,9.28.666,11.51-3.585m20.26-34.915c1.73-3.673.68-8.743-3.3-10.574-1.86-.852-3.73-1.675-5.6-2.493a10.136,10.136,0,0,0-3.07-3,19.983,19.983,0,0,0-4.85-1.89c-0.59-.188-1.19-0.387-1.77-0.6-0.19-.081-0.91-0.364-1.11-0.449-2.53-1.051-5.04-2.222-7.48-3.481-7.38-3.807-15.4,6.671-8.6,12.214,4.65,3.8,10.37,7.775,16.4,9.355,2.92,1.433,5.84,2.849,8.79,4.206,3.73,1.71,8.72.673,10.59-3.293m33.55,33.445a7.588,7.588,0,0,0-3.16-10.127c-5.77-2.848-11.74-5.182-17.57-7.867-4.68-2.147-10.17-.345-12.02,4.655-1.73,4.667.96,10.33,6.07,11.357a103.472,103.472,0,0,1,16.55,5.14c3.77,1.45,8.09.724,10.13-3.158m-5.11,29.769c-6.44-2.79-12.55-6.5-19.04-9.111-4.61-1.854-9.97-.843-12.45,3.873a9.376,9.376,0,0,0,3.88,12.436c6.6,3.809,14.65,5.958,21.93,8.089,8.86,2.59,14.3-11.552,5.68-15.287m-19.62,31.2c-5.99-3.14-13.09-6.669-19.72-8.075-10.08-2.137-15.57,12.021-6.3,16.958,6.01,3.2,13.67,5.063,20.3,6.514,9.13,2,14.16-10.975,5.72-15.4m-13.68,45.921a8.372,8.372,0,0,0-6.18-9.892c-4.95-1.3-9.89-2.862-14.95-3.635-4.53-.689-9.6,1.673-10.51,6.566a8.943,8.943,0,0,0,6.57,10.5c4.95,1.314,10.11,1.859,15.17,2.639,4.4,0.68,8.85-1.618,9.9-6.181m-46.27,1.2c-7.71-3.062-15.728-7.837-23.9-9.364-10.294-1.924-16.395,12.531-6.521,17.573,7.489,3.823,16.611,5,24.672,7.3,8.95,2.56,14.65-11.979,5.75-15.51m62.01,36.616c-3.51-2.195-7.99-3.33-11.8-5a121.2,121.2,0,0,1-11.39-5.752c-7.09-4.053-14.9,6.606-8.36,11.872a132.931,132.931,0,0,0,12,8.645c4.1,2.614,8.7,5.523,13.51,6.523,10.05,2.1,14.34-11.1,6.04-16.287m37.07-17.491c-7.03-3.417-14.23-6.156-21.03-10.1-4.06-2.356-9.64-.373-11.75,3.66-2.31,4.4-.36,9.274,3.66,11.747,7.17,4.416,14.93,8.7,23.09,10.925,9.54,2.6,14.97-11.888,6.03-16.235m2.57-33.295c-6.41-3.053-12.96-5.047-19.04-8.855-3.61-2.264-8.79-.247-10.66,3.319-2.14,4.081-.25,8.3,3.32,10.654,6.38,4.193,13.08,8.644,20.48,10.782,9.3,2.692,14.67-11.721,5.9-15.9m24.48-23.383c-6.79-3.26-13.88-5.635-20.52-9.3-7.15-3.948-15.35,6.922-8.46,12.021,7.11,5.262,14.62,10.379,23.14,13.011,9.19,2.836,14.47-11.6,5.84-15.734m-2.07-22.282c3.21-4.552,1.27-9.613-2.98-12.537a261.457,261.457,0,0,0-22.91-14.088c-8.77-4.79-15.29,8.3-7.12,13.55a242.133,242.133,0,0,1,20.19,14.5c4.02,3.2,9.7,3,12.82-1.428m28.17,76.14a118.892,118.892,0,0,0-9.86-7.43c-3.56-2.618-7.1-5.6-11-7.662-8.74-4.607-18.11,7.852-10.18,14.449,3.41,2.846,7.43,5.044,11.22,7.342a119.4,119.4,0,0,0,10.66,6.292c8.04,3.776,16.07-6.674,9.16-12.991m-7.29,42.171c2.15-4.1.27-8.386-3.35-10.733-6.15-4-11.79-9-18.24-12.516a8.907,8.907,0,0,0-11.37,2.8c-2.24,3.287-2.48,9.047,1.19,11.645,6.62,4.685,14.08,7.986,21.03,12.146,3.68,2.209,8.83.3,10.74-3.345m-43.14,17.379c1.64-4.425-.34-8.652-4.2-11.108a54.826,54.826,0,0,0-8.07-3.806c-3.1-1.325-6.16-3-9.43-3.849-8.19-2.108-14.55,9.282-7.82,14.831,2.74,2.268,6.02,3.824,9.17,5.465a47.978,47.978,0,0,0,9.92,4.152,9.027,9.027,0,0,0,10.43-5.685m32.05,29.534c1.59-4.284-.38-7.976-3.89-10.473-0.51-.347-1.73-1.181-1.9-1.283-0.63-.356-1.28-0.657-1.92-0.991-1.26-.667-2.52-1.367-3.78-2.054a53.962,53.962,0,0,0-8.78-4.392c-3.29-1.1-7.69,1.136-9.13,4.187a8.626,8.626,0,0,0,1.71,9.873c2.17,2.38,5.73,4.259,8.48,5.955a49,49,0,0,0,9.29,4.578c4.02,1.439,8.59-1.8,9.92-5.4m-3.99-10.556c0.04,0.027.07,0.057,0.11,0.084,0.28,0.195.35,0.241-.11-0.084m-64.52,8.307a8.584,8.584,0,0,0-3.54-11.343c-5.01-2.92-9.95-6.184-15.18-8.685-4-1.916-9.47-.683-11.47,3.568-2.12,4.5-.41,8.841,3.57,11.464,4.85,3.2,10.18,5.742,15.27,8.53,3.86,2.115,9.44.517,11.35-3.534m-40.53-42.888c1.07-4.629-1.92-8.6-6.21-9.927-7-2.174-13.75-5.044-20.7-7.393-9.369-3.171-15.292,12.506-6.06,16.347,7.48,3.115,15.21,5.115,23.04,7.179a8.385,8.385,0,0,0,9.93-6.206m-24.56,23.863c-8.34-4.491-16.974-9.1-26.018-11.993-9.506-3.035-14.819,11.879-6.027,16.234,7.889,3.909,16.2,6.949,24.085,10.9,9.84,4.923,17.69-9.9,7.96-15.142m-16.265,43.9c2.1-3.989.613-9.686-3.638-11.667-5.675-2.646-11.248-5.5-17.011-7.945-4.485-1.906-9.807-.769-12.2,3.8-2.18,4.152-.653,10.146,3.8,12.194,5.7,2.621,11.585,4.832,17.375,7.256,4.3,1.8,9.373.751,11.674-3.635m-47.337-48.5c-4.089-3-8.56-5.4-12.749-8.265-4.249-2.907-8.212-6.273-12.628-8.915-8.981-5.378-17.273,7.6-10.248,14.547,3.87,3.823,8.9,6.816,13.668,9.416,4.713,2.571,9.729,5.148,14.943,6.508,7.121,1.858,13.425-8.583,7.014-13.291m13.562-31.407q-5.612-4.054-11.22-8.1c-1.871-1.351-3.734-2.712-5.61-4.052q-1.611-1.159-3.241-2.293c-1.973-8.056-14.506-8.725-16.691.154-1.948,7.948,4.1,12.395,9.99,16.247,5.8,3.791,11.633,7.519,17.45,11.281,7.663,4.956,16.85-7.8,9.322-13.235M974.6,618.877c-6.185-3.514-12.347-7.047-18.65-10.348-9.412-4.923-17.068,9.585-7.677,14.611,6.274,3.358,12.659,6.469,19.041,9.606,9.055,4.449,16.069-8.875,7.286-13.869m-36.719-43.23c-7.964-4.321-18.018-7.106-26.929-8.628-11.218-1.916-15.183,14.5-4,17.3,8.351,2.091,16.988,4.607,25.46,6.056,8.7,1.487,13.636-10.3,5.469-14.729M1024.81,423.5c1.69-4.559-.44-8.523-4.22-11.144-2.97-2.064-6.83-2.858-10.27-3.861a36.848,36.848,0,0,0-10.28-1.9c-6.289-.016-9.209,8.332-4.641,12.449,2.636,2.376,5.811,3.969,8.9,5.64,3.24,1.752,6.4,3.726,10.04,4.515a9.108,9.108,0,0,0,10.47-5.7M908.372,606.037c-6.1-5.25-14.451-8.3-21.7-11.616a7.952,7.952,0,0,0-10.5,3.269,7.858,7.858,0,0,0,3.269,10.493,99.828,99.828,0,0,1,9.775,5.523c3.128,1.994,6.1,4.518,9.42,6.148,8.434,4.138,17.281-7.324,9.734-13.817m-19.234,30.07c2.181-4.637.345-8.825-3.613-11.585-3.877-2.7-8.564-4.6-12.756-6.786-3.871-2.019-9.35-.571-11.27,3.51a8.523,8.523,0,0,0,3.513,11.261c4.085,2.391,8.178,5.358,12.532,7.21,4.125,1.753,9.51.817,11.594-3.61M852.675,651.8c1.067-3.918-.844-8.729-5.083-9.841-1.979-.517-3.963-1-5.947-1.485a10.167,10.167,0,0,0-3.55-2.418,19.853,19.853,0,0,0-5.107-1.02c-0.615-.082-1.232-0.176-1.843-0.28-0.2-.048-0.953-0.2-1.172-0.249-2.676-.6-5.35-1.316-7.97-2.133-7.924-2.47-14,9.24-6.347,13.52,5.236,2.931,11.57,5.857,17.782,6.369,3.117,0.906,6.241,1.792,9.389,2.616,3.958,1.039,8.7-.851,9.848-5.079m38.857,27.117a7.588,7.588,0,0,0-4.87-9.425c-6.176-1.8-12.463-3.067-18.678-4.7-4.975-1.3-10.067,1.424-11.025,6.668-0.894,4.9,2.749,10.008,7.956,10.13a103.7,103.7,0,0,1,17.185,2.194c3.97,0.774,8.1-.689,9.432-4.868m0.139,30.2c-6.825-1.63-13.489-4.227-20.332-5.671-4.863-1.026-9.963.9-11.581,5.973a9.367,9.367,0,0,0,5.981,11.574c7.161,2.607,15.458,3.328,23,4.163,9.174,1.016,12.072-13.856,2.928-16.039m47.036,10.5c2.368-5.039-.426-9.687-5.116-11.83a262.587,262.587,0,0,0-25.01-9.9c-9.468-3.2-13.619,10.824-4.655,14.58a242.98,242.98,0,0,1,22.4,10.777c4.515,2.461,10.07,1.277,12.377-3.628M539.114,107.705c0.734-2.735.641-5.578,1.124-8.362a42.874,42.874,0,0,1,2.408-8c2.438-6.336-8.657-11.243-11.623-5.038-2.716,5.685-6.205,12.685-6.157,19.129,0.057,7.757,12.2,9.91,14.248,2.273M526.439,161.6a6.747,6.747,0,0,0,7.029-6.546,64.874,64.874,0,0,1,1.586-12.93c1.906-7.86-10.348-11.5-12.737-3.744a64.856,64.856,0,0,0-2.945,16.252c-0.148,3.645,3.372,6.857,7.067,6.968m-7.206,43.789a6.748,6.748,0,0,0,6.171-6.535c0.3-4.015-.384-8.016.217-12.04,0.5-3.314-.878-6.73-4.568-7.812-3.295-.965-7.2.847-7.994,4.12-1.338,5.534-2.493,11.407-1.672,17.131,0.477,3.337,4.751,5.49,7.846,5.136m-5.938,47.234c4.147,0.123,6.708-2.928,7.074-6.588,0.611-6.129,1.51-12.516,1.46-18.689-0.055-6.973-10.208-8.312-12.39-1.978-2.163,6.276-2.878,13.619-3.259,20.243-0.208,3.663,3.439,6.9,7.115,7.012m-6.883,46.968A6.793,6.793,0,0,0,513.486,293a49.681,49.681,0,0,1,1.551-11.13,6.748,6.748,0,0,0-4.708-8.055,6.668,6.668,0,0,0-8.243,4.248,40.273,40.273,0,0,0-2.786,14.512,7.352,7.352,0,0,0,7.112,7.013m0.459,31.5c0.62-2.451.227-4.853,0.313-7.355,0.073-2.17.4-4.089,0.532-6.254,0.367-5.964-9.03-8.639-11.844-3.428a24.885,24.885,0,0,0-2.588,7.462c-0.544,2.937-1.223,6.206-.267,9.16,2.048,6.316,12.138,7.207,13.854.415M509.6,107.1a20.725,20.725,0,0,0-.391-12.093c-1.11-3.16-4.609-5.647-8.13-4.66-3.3.924-5.709,4.23-4.586,7.644,0.195,0.595.341,1.191,0.475,1.8,0.022,0.2.073,0.606,0.079,0.868,0.009,0.41-.02.813-0.044,1.217a7.113,7.113,0,0,0-.312,1.433,6.691,6.691,0,0,0,4.694,8.027c3.472,0.861,7.313-.778,8.215-4.232m-33.454-1.746a6.55,6.55,0,0,0,4.822-8.034q-1.023-4.727-1.793-9.484c-0.506-3.146-4.386-5.087-7.327-4.8a6.229,6.229,0,0,0-5.761,6.1,42.213,42.213,0,0,0,1.513,11.309,7.306,7.306,0,0,0,8.546,4.9m-59.916,5.2c3.9-1.093,5.343-4.274,4.774-7.956-0.452-2.93-1.063-5.836-1.642-8.749-0.678-3.4-5.119-5.767-8.436-4.835-3.837,1.076-5.385,4.27-4.758,7.929,0.5,2.926.971,5.853,1.6,8.761,0.737,3.4,5.1,5.8,8.462,4.851M382.72,129.291c3.176,0.1,6.829-2.635,6.423-5.982a50.115,50.115,0,0,0-3.864-14.967c-2.251-4.888-11.215-2.854-10.571,2.432,0.5,4.133,1.237,7.993,1.552,12.15a6.73,6.73,0,0,0,6.46,6.367m-29.669-2.243c3.978-1.491,4.916-5.526,3.215-9.123a44.948,44.948,0,0,1-1.955-4.645c-0.7-1.883-1.32-3.788-1.875-5.71a6.911,6.911,0,0,0-8.076-4.629,6.169,6.169,0,0,0-4.556,7.592,78.776,78.776,0,0,0,4.086,12.03c1.561,3.613,5.053,6.026,9.161,4.485m-22.036,6.842c-1.3-4.612-7.469-14.008-9.34-18.443-1.379-3.269-4.5-5.646-8.3-4.758-3.316.775-5.912,4.464-4.681,7.8,1.858,5.042,7.454,15.224,9.943,20.038,3.51,6.789,14.357,2.413,12.374-4.637m-32.249,21.148c3.993-1.12,5.388-4.339,4.853-8.086-0.725-5.063-6.446-17.706-9.921-21.634-2.152-2.434-6.217-2.474-8.636-.751-2.747,1.956-3.059,5.134-1.67,8.081,0.4,0.856,3.932,9.113,4.359,9.957,0.112,0.219.277,0.57,0.347,0.709,0.154,0.375.3,0.751,0.44,1.131,0.665,1.849,1.148,3.768,1.628,5.663a7.335,7.335,0,0,0,8.6,4.93m-22.634,10.888a6.371,6.371,0,0,0,2.423-8.877,122.237,122.237,0,0,1-6.895-12.17c-1.366-2.852-5.41-3.818-8.135-2.795s-4.949,4.31-3.747,7.247a82.738,82.738,0,0,0,7.011,13.97c1.918,2.945,6.174,4.492,9.343,2.625m-27.667,4.687c-3.661-4.455-7.352-9.475-12.426-12.539-6.461-3.9-13.46,4.517-8.022,9.763,3.483,3.358,6.562,6.93,10.389,9.933,9.7,7.606,15.094-1.032,10.059-7.157M99.113,314.518c-4.461,6.028,6.011,9.526,8.66,11.531,3.1,2.35,9.624,6.179,12.8,8.437,2.922,2.075,7.37.715,9.053-2.007m0,0c1.883-3.045.6-6.772-2.4-8.756-3.234-2.138-16.436-9.02-19.736-11.06a6.45,6.45,0,0,0-8.377,1.855M84.336,353.74c-1.92,3.105-.6,6.876,2.44,8.9,4.109,2.739,8.208,5.487,12.371,8.144a6.929,6.929,0,0,0,9.3-2.06m0,0c1.939-3.137.605-6.945-2.465-8.994-4.107-2.738-8.276-5.379-12.44-8.036a6.861,6.861,0,0,0-9.206,2.042m12.542,41.194c1.862-2.341,2.157-6.522-.563-8.691a128.818,128.818,0,0,0-12.49-8.766,7,7,0,0,0-9.389,2.081c-1.935,3.125-.648,7.065,2.488,9.083,3.792,2.438,7.441,5.066,11.069,7.73,2.736,2.006,7.024.9,8.885-1.437m-17.252,23.2a6.1,6.1,0,0,0,7.579-3.906,6.194,6.194,0,0,0-4.331-7.407l-10.3-3.3a6.135,6.135,0,0,0-7.635,3.933,6.237,6.237,0,0,0,4.363,7.461l10.328,3.217M45.433,475.809c4.529,0.3,9.06.681,13.593,0.806a6.355,6.355,0,0,0,6.624-6.17c-0.01-3.631-3.065-6.241-6.663-6.567-4.523-.413-9.06-0.574-13.592-0.806-8.57-.442-8.49,12.165.037,12.737m3.1-37.037c-0.71,3,.978,7.152,4.583,7.838m0,0q5.156,0.979,10.308,1.961c3.395,0.646,7.268-.635,8.106-4.174,0.709-3-.982-7.271-4.631-7.919l-10.344-1.84c-3.365-.6-7.186.6-8.021,4.134M74.1,464.211c5.676,1.282,11.422,2.193,17.165,3.064,3.461,0.525,6.609-2.72,6.972-5.706,0.376-3.094-1.586-6.913-5.118-7.636-5.695-1.168-11.42-2.227-17.178-2.981-7.9-1.038-9.62,11.5-1.842,13.259m4.529,37.857c3.477,0.582,6.99-.611,7.994-4.119,0.851-2.977-1.082-7.132-4.568-7.812-5.644-1.1-11.327-1.911-17.007-2.762-6.915-1.036-8.483,10.2-1.62,11.657m38.385-52.122a6.016,6.016,0,0,0,7.5-3.864c0.929-3.251-1.182-6.12-4.285-7.324a142.527,142.527,0,0,1-13.3-5.987c-3.144-1.607-7.056-1.009-8.9,1.972-1.612,2.605-.877,7.142,2.358,8.607a175.04,175.04,0,0,0,16.632,6.6m28.165-93.581c2.61-3.175,1.418-7.333-1.942-9.668a61.8,61.8,0,0,0-13.267-6.562,5.217,5.217,0,0,0-4.208,9.5,100.062,100.062,0,0,1,9.235,7.083c3.135,2.577,7.525,2.875,10.182-.358m1.97,43.853a6.849,6.849,0,0,0-2.547-9.291,73.878,73.878,0,0,0-11.86-5.684c-3.238-1.275-6.972.852-8.2,3.618-1.2,2.7-.324,7.024,2.871,8.416,3.469,1.51,6.805,3.276,10.128,5.07,3.247,1.753,7.8,1.119,9.606-2.129m-0.586,28.37c0.964-3.369-1.217-6.644-4.569-7.81-4.676-1.629-9.357-3.215-14.074-4.723a6.091,6.091,0,0,0-7.58,3.907c-0.949,3.314,1.209,6.154,4.332,7.405,4.609,1.848,9.241,3.611,13.9,5.341a6.4,6.4,0,0,0,7.994-4.12m20.059-48.605c1.7-2.748.89-7.393-2.458-8.964-5.706-2.679-11.486-5.184-17.3-7.625-6.911-2.9-11.837,8.17-5.069,11.449,5.144,2.494,10.315,4.916,15.56,7.193,3.373,1.466,7.263,1.189,9.268-2.053m9.7-50.088a126.4,126.4,0,0,0-12.808-7.111c-3.084-1.423-6.736-1.052-8.562,1.9-1.76,2.848-.589,6.442,2.272,8.279,4.1,2.638,8.322,5.09,12.4,7.77,7.182,4.717,14.067-6.333,6.7-10.836m-9.461-25.618c-4.891-4.039-10.115-7.732-15.2-11.538-5.805-4.345-13.547,4.965-7.778,9.465,5,3.9,9.925,7.973,15.121,11.637,5.993,4.23,13.561-4.855,7.859-9.564M160.96,284.5c1.776-2.871.463-6.061-2.188-7.983-3.755-2.72-7.721-5.166-11.615-7.694a6.03,6.03,0,0,0-8.1,1.8c-1.721,2.779-.488,5.992,2.147,7.835,3.806,2.657,7.559,5.411,11.5,7.877a6.159,6.159,0,0,0,8.255-1.83m6.264-26.807a6.128,6.128,0,0,0,2.333-8.555,73.121,73.121,0,0,0-10.463-13.46,7.041,7.041,0,0,0-9.523-.285c-2.666,2.483-2.44,6.473.027,9.13a120.192,120.192,0,0,1,8.622,10.64c2.078,2.822,5.738,4.267,9,2.53m33.469-12.124c2.546-2.371,2.341-6.2-.025-8.732l-8.292-8.879a6.725,6.725,0,0,0-9.109-.273,6.094,6.094,0,0,0,.025,8.732q4.145,4.441,8.291,8.88a6.727,6.727,0,0,0,9.11.272m20.733-33.231c2.383-2.218,2.7-6.643-.025-8.976-3.46-2.962-11.6-9.276-15.791-11.191-3.124-1.424-6.8-1.071-8.653,1.919-1.778,2.874,3.8,9.984,6.69,11.837a61.292,61.292,0,0,1,8.416,6.131,6.977,6.977,0,0,0,9.363.28m35.608,2.406c2.409-2.245,2.74-6.741-.025-9.1q-6.579-5.6-13.156-11.207c-2.69-2.291-6.642-2.725-9.269-.277a6.158,6.158,0,0,0,.024,8.885l12.934,11.413c2.711,2.393,6.833,2.76,9.492.284m29.824-7.946a5.98,5.98,0,0,0,2.278-8.35c-2.236-3.78-4.859-7.375-7.331-11.024a6.962,6.962,0,0,0-8.912-2.5,6.04,6.04,0,0,0-2.31,8.467c2.459,3.659,4.8,7.426,7.486,10.941,2.077,2.722,5.565,4.185,8.789,2.47m17.555-20.5a6.133,6.133,0,0,0-.024-8.795c-0.645-.606-1.277-1.224-1.88-1.868-0.3-.323-0.586-0.658-0.882-0.984-0.143-.166-0.285-0.334-0.428-0.5,0.251,0.34.246,0.334-.014-0.012a34.907,34.907,0,0,1-3-4.689A6.716,6.716,0,0,0,289.455,167a5.994,5.994,0,0,0-2.263,8.292,42.68,42.68,0,0,0,8.047,10.738c2.423,2.361,6.8,2.686,9.174.274M326.391,173.7c3.111-1.653,3.644-5.118,2.208-8.087-2.067-4.265-5.47-8.136-8.64-11.711a6.161,6.161,0,0,0-7.84-.682c-2.1,1.543-3.335,4.97-1.515,7.336,2.661,3.459,4.755,7.218,7.276,10.752,1.923,2.7,5.456,4.016,8.511,2.392m28.259-16.425a6.159,6.159,0,0,0,2.326-8.526l-3.186-6.033a6.756,6.756,0,0,0-8.79-2.469,5.977,5.977,0,0,0-2.939,3.588,6.831,6.831,0,0,0,.661,4.762q1.479,3.077,2.955,6.155a6.847,6.847,0,0,0,8.973,2.523m39.4,12.5c3.4-.953,6.153-4.51,4.853-8.086-1.816-5-3.877-9.954-6.09-14.809-1.367-3-5.771-4.052-8.584-2.951-2.978,1.167-5.057,4.446-3.955,7.65,1.536,4.467,3.283,8.915,5.176,13.266,1.417,3.256,4.7,6.026,8.6,4.93m14.862-28.265c3.729-1.4,4.843-5.348,3.087-8.758q-1.911-3.716-3.82-7.427c-1.367-2.654-5.03-3.618-7.658-2.632-2.562.962-4.651,4.056-3.527,6.823l3.123,7.688a7.58,7.58,0,0,0,3,3.817,6.555,6.555,0,0,0,5.793.489m28.7,2.234c3.613-1.013,5.134-4.051,4.509-7.514-0.656-3.621-1.639-7.194-2.611-10.757a6.685,6.685,0,0,0-7.825-4.487c-3.518.987-5.051,3.972-4.414,7.357,0.681,3.622,1.351,7.255,2.35,10.819a6.833,6.833,0,0,0,7.991,4.582m27.692-6.732c0.655-4.206,1.462-8.42,1.852-12.665,0.253-2.747-2.451-5.306-5.113-5.687a5.677,5.677,0,0,0-6.44,3.844c-1.019,3.582-1.679,7.288-2.47,10.929a6.384,6.384,0,0,0,4.426,7.57c2.982,0.874,7.242-.758,7.745-3.991M493,156.494a76.34,76.34,0,0,0,5.129-17.183c1.233-7.191-9.3-10.6-11.651-3.424-1.865,5.692-3.762,11.349-5.78,16.99-1.1,3.09,1.3,6.718,4.473,7.651,3.658,1.071,6.527-1.008,7.829-4.034m-36.175,23.628a6.284,6.284,0,0,0,6.558-6.107,84.356,84.356,0,0,0-.224-12.085c-0.36-2.786-1.972-5.217-5.094-5.667-2.721-.391-5.817,1.072-6.415,3.831a93.388,93.388,0,0,0-1.419,13.527c-0.222,3.394,3.206,6.4,6.594,6.5m-30.9-3.622a6.041,6.041,0,0,0,6.312-5.878,36.747,36.747,0,0,0-4.31-16.408c-3.051-5.93-13.176-2.166-11.02,4.131a55.887,55.887,0,0,1,2.671,11.9c0.387,3.268,2.657,6.146,6.347,6.256m-51.882,16.237a6.262,6.262,0,0,0,4.633-7.723,51.773,51.773,0,0,0-6.58-15.827,6.6,6.6,0,0,0-7.854-2.7c-2.605,1.022-4.794,4.131-3.619,7,1.982,4.826,3.684,9.581,5.207,14.543a7.072,7.072,0,0,0,8.213,4.709m-28.362,11.508c3.085-1.818,3.768-5.109,2.247-8.232a63.756,63.756,0,0,0-6.356-10.4c-1.936-2.583-5.533-4.2-8.572-2.41-2.63,1.551-4.269,5.354-2.223,8.147a63.717,63.717,0,0,1,6.239,10.459c1.389,2.937,6,4.01,8.665,2.436m-16.338,23.092a5.629,5.629,0,0,0,.921-6.959c-1.141-1.873-2.518-3.607-3.619-5.5s-2.024-3.9-2.985-5.853c-1.361-2.761-5.236-3.723-7.911-2.719a5.826,5.826,0,0,0-3.644,7.05,28.05,28.05,0,0,0,9.953,14.668c2.087,1.589,5.572.914,7.285-.683m-34.834,9.423a6.257,6.257,0,0,0-.025-8.977c-2.488-2.317-4.97-4.632-7.536-6.873-2.637-2.3-6.941-2.878-9.49-.284a6.338,6.338,0,0,0,.027,9.1c2.5,2.309,5.082,4.529,7.661,6.756,2.614,2.259,6.839,2.849,9.363.28m-49.158.509a52.448,52.448,0,0,0-12.552-12.095c-5.663-3.9-11.665,4.034-7.128,8.672,3.348,3.418,6.591,6.941,9.938,10.354,4.8,4.892,13.893-1.161,9.742-6.931M227.875,273.61c3.316-1.763,3.678-5.275,2.294-8.407-2.337-5.288-6.735-10.267-10.5-14.7-2.219-2.613-6.767-2.393-9.048-.27-2.672,2.49-2.128,6,.026,8.671,3.133,3.887,5.4,8.264,8.373,12.221,2.071,2.755,5.619,4.207,8.851,2.487m-30.14,10.065c2.787-2.6,2.257-6.312-.026-9.1a129.015,129.015,0,0,0-9.206-10.188,6.881,6.881,0,0,0-8.693-.756c-2.317,1.7-3.72,5.53-1.683,8.138a144,144,0,0,0,10.116,11.622,7.023,7.023,0,0,0,9.492.283m79.028-19.3c3.256-1.919,3.733-5.177,2.3-8.438-1.825-4.159-6.936-15.59-9.347-19.475a6.5,6.5,0,0,0-8.358-2.35,5.714,5.714,0,0,0-2.168,7.942c2.312,4.4,6.815,15.554,8.689,19.826,1.338,3.047,6.2,4.074,8.881,2.5m-82.472,51.649c1.843-2.979.446-6.182-2.244-8.192-3.75-2.8-7.623-5.428-11.47-8.1-2.706-1.875-6.756-.679-8.315,1.843-1.8,2.918-.444,6.077,2.205,8.042,3.761,2.791,7.494,5.618,11.356,8.278a6.289,6.289,0,0,0,8.468-1.876m-15.819,40.417c-5.6-3.347-11.339-6.5-17.168-9.447-7.575-3.818-13.931,6.183-6.63,10.726,5.531,3.442,11.213,6.7,16.988,9.739,7.729,4.068,14.369-6.494,6.81-11.018M102.852,489.2a74.1,74.1,0,0,1,17.91,4.761c3.069,1.193,6.557-1.031,7.387-3.806,0.982-3.28-1.236-5.932-4.22-7.217a118.364,118.364,0,0,0-19.329-6.323c-9.433-2.25-11.578,11.38-1.748,12.585m14.827,31.752-3.265-11.342M95.5,514.171m70.9-89.939c5.906,1.272,9.212-4.639,5.585-9.073-2.541-3.1-14.639-8.332-18.258-10-3.6-1.659-7.732-.978-9.384,2.754-1.622,3.665.6,7.247,4.315,8.7,3.394,1.318,14.2,6.858,17.742,7.62M130.639,467.88c6.7,2.036,10.948-7.235,4.743-10.711a116.306,116.306,0,0,0-13.292-6.578c-3.242-1.3-7.144.861-8.331,3.676-1.179,2.793-.352,7.078,2.918,8.55a116.539,116.539,0,0,0,13.962,5.063m54.914-75.793c-4.115-2.16-7.544-5.206-11.557-7.456-6.208-3.477-12.984,4.259-7.67,9.334,4.021,3.839,9.662,6.085,14.778,8.17,6.133,2.5,10.261-7,4.449-10.048m15.2-50.72a92.784,92.784,0,0,1-8.57-11.138,6.3,6.3,0,0,0-8.877-1.889c-3.085,2.2-2.814,5.828-.584,8.619a103.408,103.408,0,0,0,10.343,11.568,5.253,5.253,0,0,0,7.688-7.16m24.134-31.718c2.8-2.6,2.284-6.362-.027-9.159-3.275-3.965-6.065-8.288-9.432-12.173-2.272-2.618-6.759-2.692-9.316-.81a6.534,6.534,0,0,0-1.8,8.717c2.842,4.812,7.053,9.139,11.023,13.139a7.074,7.074,0,0,0,9.555.286m1.553,28.549c1.58-1.987,1.865-5.611-.482-7.444a24.947,24.947,0,0,1-7.149-8.178c-1.87-3.481-6.833-4.228-9.833-2.094-3.422,2.434-3.118,6.457-.649,9.549a42.614,42.614,0,0,0,10.5,9.4,5.965,5.965,0,0,0,7.609-1.229m30.824-49.534c3.325-.777,5.933-4.478,4.695-7.827-1.676-4.542-3.209-9.164-5.111-13.63-1.436-3.375-4.639-5.836-8.572-4.917-3.458.808-6.068,4.6-4.837,8.06,1.627,4.572,3.649,9.044,5.5,13.542,1.355,3.289,4.532,5.658,8.323,4.772m2.244,24.289c-0.2-2.973-1.562-5.566-2.775-8.29-0.936-2.1-1.859-4.2-2.9-6.256-1.6-3.172-6.5-4.411-9.466-2.661-3.441,2.027-4.019,5.536-2.454,9,0.9,1.986,1.894,3.924,2.888,5.871,1.128,2.2,2.13,4.517,3.99,6.28,3.725,3.527,11.072,1.476,10.715-3.939m30.92-10.149c3.307-.928,5.832-4.3,4.65-7.748-1.218-3.552-2.05-7.18-3.1-10.772a7.291,7.291,0,0,0-8.518-4.882c-3.869,1.085-5.448,4.314-4.805,8.009a47.1,47.1,0,0,0,3.537,10.668c1.362,3.119,4.5,5.776,8.24,4.725M309.4,269.543c1.165-3.911-.084-8.8-0.593-12.822-0.429-3.387-2.846-6.776-6.819-6.724-3.3.043-7.277,2.679-6.783,6.317,0.335,2.457.646,4.92,1.043,7.371,0.389,2.409.662,4.749,1.959,6.926,2.671,4.491,9.769,3.715,11.193-1.068m31.932-.659c2.686-1.053,5.013-4.307,3.759-7.274a72.047,72.047,0,0,1-2.969-8.209c-0.8-2.8-1.138-5.691-1.988-8.475-2.165-7.091-13.407-6.145-13.4,1.338,0.007,6.7,3.088,13.943,6.432,19.813a6.832,6.832,0,0,0,8.164,2.807m22.434-34.606a6.124,6.124,0,0,0,4.524-7.539c-0.739-2.893-1.188-6.1-2.779-8.708a7.063,7.063,0,0,0-7.485-3.141c-2.694.756-4.981,3.112-4.844,5.975,0.147,3.054,1.509,5.93,2.565,8.815,1.136,3.1,4.515,5.581,8.019,4.6m31.819-3.926a5.856,5.856,0,0,0,2.231-8.175,96.538,96.538,0,0,1-5.56-10.831c-1.179-2.764-3.8-4.781-7.022-4.026a5.313,5.313,0,0,0-3.961,6.6,117.038,117.038,0,0,0,5.709,14.012c1.439,2.994,5.875,3.87,8.6,2.419M405.91,198.8c2.666-1,4.812-4.2,3.656-7.074a107.534,107.534,0,0,0-5.3-11.59c-3.249-5.93-13.325-2.246-11.183,4.191a107.2,107.2,0,0,0,4.887,11.745c1.317,2.787,5.292,3.721,7.939,2.728M435.335,213.6c3.211-.9,5.479-4.075,4.431-7.381-0.5-1.586-1.152-3.122-1.6-4.722q-0.332-1.194-.571-2.4c-0.061-.315-0.115-0.63-0.168-0.946-0.007-.073-0.027-0.255-0.067-0.578-0.322-2.933-2.5-5.855-5.9-5.811a5.635,5.635,0,0,0-5.862,5.459c-0.014,3.867.32,8.232,1.877,11.882,1.273,2.982,4.3,5.5,7.853,4.5m60.675-16.578a37.859,37.859,0,0,0,.67-14.9c-0.423-3.1-2.483-5.84-6.029-5.945-3.147-.094-6.154,2.456-6,5.584a55.924,55.924,0,0,1-.858,11.666c-0.511,3.218.874,6.548,4.442,7.594,3.265,0.957,6.927-.843,7.773-4m-32.829,22.109c2.915-.333,5.941-2.81,5.606-5.939-0.481-4.5-1.271-8.992-1.962-13.477-0.453-2.936-4.157-4.836-6.908-4.522-2.831.324-5.747,2.722-5.431,5.754,0.469,4.511.886,9.023,1.565,13.516,0.458,3.031,4.3,4.991,7.13,4.668m25.489,27.072a6.1,6.1,0,0,0,6.358-5.92,46.656,46.656,0,0,0-1.721-12.668c-1.551-6.02-11.951-5.24-11.41,1.138,0.315,3.737.276,7.42,0.382,11.149a6.621,6.621,0,0,0,6.391,6.3m-31.98,3.766c1.069-5.078,1.464-10.3,2.031-15.459,0.752-6.832-11.508-8.855-12.656-2.019-0.86,5.116-1.895,10.23-2.253,15.422-0.482,7,11.425,8.963,12.878,2.056m-38.827-11.439c2.806-.279,5.891-2.8,5.491-5.817a42.955,42.955,0,0,0-2.972-11.244c-1.242-2.958-4.272-5.438-7.769-4.456-3.056.859-5.575,4.079-4.384,7.306a67.956,67.956,0,0,1,2.653,9.64c0.625,2.985,4.069,4.858,6.981,4.571m-32.538,32.924a6.05,6.05,0,0,0,4.493-7.488,80.8,80.8,0,0,0-5.259-14.309c-1.3-2.635-5.061-3.63-7.628-2.623-2.952,1.156-4.05,3.821-3.514,6.8a72.426,72.426,0,0,0,3.944,13.056c1.239,3.167,4.379,5.4,7.964,4.566m-14.682,13.028c-1.861-5.063-4.109-9.973-5.8-15.1-2.218-6.73-12.7-4.321-10.94,2.566a98.331,98.331,0,0,0,5.513,16.74c2.821,6.149,13.563,2.152,11.225-4.206m-45.417,24.553c3.061-.716,5.455-4.12,4.321-7.2-1.681-4.564-3.551-9.067-5.363-13.589-1.173-2.927-4.042-5.012-7.382-4.232-2.981.7-5.22,3.96-4.164,6.941,1.618,4.569,3.18,9.161,4.929,13.691a6.655,6.655,0,0,0,7.659,4.391m87-33.813c3.137-.879,5.706-4.178,4.493-7.487-1.534-4.182-3.016-8.36-4.836-12.446-1.2-2.7-5.133-3.559-7.629-2.622a5.625,5.625,0,0,0-3.514,6.8c0.964,3.779,2.3,7.477,3.522,11.193,1.028,3.116,4.558,5.521,7.964,4.566m27.808,8.159c2.913-.288,5.95-2.849,5.606-5.939a85.945,85.945,0,0,0-2.156-13.056c-1.787-6.492-12.186-5.5-12.118,1.211a85.275,85.275,0,0,0,1.538,13.116c0.525,3.059,4.247,4.953,7.13,4.668m31.442-5.131c4.089-.409,5.831-3.8,5.259-7.441q-1.046-6.66-2.093-13.322c-0.446-2.839-4.017-4.68-6.684-4.375-2.713.31-5.6,2.637-5.257,5.567q0.781,6.69,1.563,13.376c0.424,3.632,3.113,6.6,7.212,6.195m16.365,29.228a53.784,53.784,0,0,0,.986-13.812c-0.342-7.286-11.176-7.5-11.712-.351a99.282,99.282,0,0,1-1.576,10.546,6.48,6.48,0,0,0,4.473,7.651c3.157,0.924,7.141-.808,7.829-4.034M459.3,310.826a60.034,60.034,0,0,0,2.2-16.615c-0.085-6.251-10.707-8.473-11.818-1.887-0.841,4.981-1.687,9.944-2.6,14.911-1.374,7.516,10.09,11.2,12.215,3.591M474.7,352.1c3.6,0.107,5.739-2.524,6.088-5.669a67.273,67.273,0,0,0-.353-15.488c-0.37-3.07-2.491-5.774-5.964-5.878-3.114-.093-6.078,2.427-5.93,5.521,0.248,5.169.078,10.32,0.038,15.479A6.317,6.317,0,0,0,474.7,352.1m25.711,19.589c3.593,0.108,5.7-2.517,6.064-5.647a49.2,49.2,0,0,0-.459-14.393c-0.558-2.959-4.125-4.9-6.982-4.569a5.946,5.946,0,0,0-5.49,5.815c-0.034,4.195.39,8.589,0.768,12.782a6.367,6.367,0,0,0,6.1,6.012m-48.315-1.16c0.391-5.334-.71-11.132-1.4-16.457-0.443-3.4-2.74-6.408-6.616-6.525-3.29-.1-6.952,2.7-6.581,6.129,0.635,5.867.936,12.346,2.746,18.037,2.061,6.479,11.383,5.241,11.853-1.184m-1.473-33.175c-0.693-5.184-1.275-10.392-2.162-15.553-0.566-3.288-4.809-5.237-7.88-4.519-3.687.862-4.934,4.1-4.447,7.41,0.681,4.634,1.647,9.247,2.5,13.86,1.2,6.449,12.866,5.392,11.986-1.2m-26.854-29.689a40.031,40.031,0,0,0-1.31-14.079,6.258,6.258,0,0,0-6.61-4.327,5.709,5.709,0,0,0-5.2,5.506,75.472,75.472,0,0,0,.146,12.511c0.576,8.035,12.352,8.349,12.972.389m-30.42-4.051a131.341,131.341,0,0,0-2.4-14.88c-1.321-6.174-11.88-5.172-11.456,1.143a130.126,130.126,0,0,0,1.782,14.943c1.207,6.52,12.706,5.441,12.074-1.206m11.341,38.667c2.939-1.732,3.426-4.724,2.094-7.676,0.248,0.548-.047-0.118-0.124-0.305-0.153-.376-0.311-0.75-0.467-1.126-0.352-.846-0.685-1.7-0.98-2.562-0.555-1.624-1.007-3.284-1.421-4.942a5.864,5.864,0,0,0-6.215-4.068c-2.557.253-5.161,2.48-4.888,5.177a36.1,36.1,0,0,0,3.921,13.231,6.205,6.205,0,0,0,8.08,2.271m20.019,9.11c3.387-.951,4.608-3.7,4.133-6.888a38.061,38.061,0,0,0-3.164-10.4c-1.187-2.579-4.9-3.424-7.32-2.517a5.4,5.4,0,0,0-3.372,6.523c0.792,3.03,1.676,6.034,2.4,9.078a6.241,6.241,0,0,0,7.326,4.2m-12,30.555c3.163-.042,6.236-2.381,6.065-5.649a32.468,32.468,0,0,0-2.342-10.452c-1.135-2.825-4.091-5.155-7.381-4.232-2.976.836-5.206,3.849-4.165,6.941a35.726,35.726,0,0,1,1.146,4.167c0.144,0.7.276,1.413,0.4,2.12,0.038,0.229.364,2.44,0.182,1.091,0.408,3.026,2.527,6.059,6.1,6.014M353.3,309.013c-1.245-4.4-2.236-9-3.857-13.3a5.884,5.884,0,0,0-6.166-4.036c-2.5.285-5.173,2.434-4.848,5.136,0.6,5.028,1.9,10.029,2.934,15,1.559,7.472,14.063,4.721,11.937-2.8m9.193,37.913c2.75-.643,5.038-3.778,3.945-6.575a103.1,103.1,0,0,1-3.9-11.824,5.974,5.974,0,0,0-6.966-3.994,5.3,5.3,0,0,0-3.93,6.551,74.464,74.464,0,0,0,3.856,11.831c1.177,2.75,3.781,4.762,6.994,4.011m17.537,41.687c2.827-.793,4.922-3.643,3.946-6.576q-1.279-3.84-2.557-7.685c-0.9-2.7-3.95-4.793-6.912-3.962a5.254,5.254,0,0,0-3.9,6.5l2.427,7.715a6,6,0,0,0,6.993,4.01m-0.834-43.083a5.338,5.338,0,0,0,3.321-6.422,44.066,44.066,0,0,0-4.637-11.46,6.391,6.391,0,0,0-8.3-2.331c-2.994,1.764-3.554,4.864-2.151,7.882,0.764,1.649,1.544,3.289,2.311,4.937,0.063,0.134.164,0.358,0.2,0.445,0.131,0.308.259,0.616,0.389,0.924,0.51,1.207,1.067,2.373,1.65,3.547,1.248,2.514,4.762,3.395,7.207,2.478m-7.41-27.9c2.432-.913,4.35-3.806,3.32-6.423-1.059-2.686-2.188-5.345-3.326-8.006a6.445,6.445,0,0,0-2.671-3.4,6.212,6.212,0,0,0-4.463-.693c-2.72.764-5.221,3.779-4.023,6.7,1.28,3.129,2.584,6.241,3.956,9.335,1.131,2.553,4.853,3.361,7.207,2.478m20.4,59.143c2.942-.688,5.135-3.9,4.1-6.836-1.352-3.844-2.382-7.756-3.395-11.681a6.444,6.444,0,0,0-7.52-4.313,5.738,5.738,0,0,0-4.242,7.071,71.325,71.325,0,0,0,3.784,11.59c1.177,2.877,3.965,4.941,7.271,4.169m-45.623,3.118a5.557,5.557,0,0,0,4.118-6.863,83.928,83.928,0,0,0-4.036-10.716c-1.194-2.636-5.005-3.485-7.46-2.565-2.481.931-4.555,3.961-3.436,6.648,1.278,3.069,2.49,6.164,3.515,9.313,0.932,2.858,4.184,5.058,7.3,4.183M325.917,342.5c2.957-1.743,3.629-4.912,2.159-7.911-1.9-3.882-3.642-7.906-5.92-11.612a6.444,6.444,0,0,0-7.657-2.632c-2.539.952-4.686,4.07-3.527,6.823,1.88,4.469,4.311,8.7,6.619,12.992a6.4,6.4,0,0,0,8.326,2.34m-37.082-.073a5.535,5.535,0,0,0,3.476-6.723,56.372,56.372,0,0,0-4.086-8.687c-1.38-2.669-2.746-5.341-4.217-7.967a6.727,6.727,0,0,0-8.7-2.444c-3.158,1.678-3.749,5.239-2.254,8.262,1.26,2.55,2.615,5.052,3.963,7.563a51.084,51.084,0,0,0,4.269,7.4c1.826,2.35,4.574,3.759,7.545,2.594m26.461,26.71a5.708,5.708,0,0,0,2.158-7.912q-1.857-3.414-3.715-6.831a6.479,6.479,0,0,0-8.42-2.366,5.762,5.762,0,0,0-2.182,8q1.917,3.384,3.832,6.77a6.417,6.417,0,0,0,8.327,2.34m34.6,35.468c2.949-1.737,3.527-4.818,2.126-7.794-1.675-3.56-3.365-7.1-5.208-10.584a6.519,6.519,0,0,0-8.481-2.383c-3,1.767-3.715,5.01-2.2,8.057,1.751,3.517,3.641,6.957,5.558,10.4a6.319,6.319,0,0,0,8.2,2.306m-85.1-56.351c2.522-2.347,1.994-5.633-.023-8.155-2.614-3.269-5.182-6.582-7.89-9.784-2.135-2.526-6.532-2.306-8.728-.262-2.578,2.4-2.056,5.79.024,8.368,2.625,3.25,5.4,6.4,8.114,9.579,2.091,2.451,6.356,2.255,8.5.254m22.119,24.636a5.384,5.384,0,0,0,3.4-6.571c-0.694-2.035-1.547-4.012-2.375-6a7.269,7.269,0,0,0-2.856-3.634,6.233,6.233,0,0,0-5.513-.464,5.5,5.5,0,0,0-3.265,3.041,5.9,5.9,0,0,0,.327,5.293c0.938,1.952,1.845,3.91,2.909,5.8a6.18,6.18,0,0,0,7.377,2.535m26.416,22.262c2.534-.951,4.421-3.891,3.411-6.6s-2.009-5.388-3.015-8.081a6.548,6.548,0,0,0-8.461-4.144,5.573,5.573,0,0,0-3.3,3.075,6.032,6.032,0,0,0,.332,5.353l3.63,7.849c1.206,2.608,4.953,3.464,7.4,2.546m-59.412-23.91c2.426-2.468,2.313-5.937-.025-8.549a41.533,41.533,0,0,0-7.1-6.142c-2.522-1.784-6.253-.818-7.987,1.289-1.707,2.075-1.912,5.89.506,7.812a49.807,49.807,0,0,1,5.69,5.323,6.551,6.551,0,0,0,8.919.267m-31.75-.9a5.8,5.8,0,0,0,2.211-6.2c-0.577-2.7-2.744-5.177-4.645-7.188a26.558,26.558,0,0,0-6.139-4.872c-3.113-1.753-7.568-1.043-9.3,2.061a6.646,6.646,0,0,0,2.465,8.994c0.76,0.5,1.526.994,2.273,1.513,0.258,0.18.784,0.64,0.247,0.189q0.654,0.548,1.265,1.136a52.18,52.18,0,0,0,4.72,4.624c1.938,1.456,5.173,1.013,6.9-.259m-5.363,19.1c1.725-2.791.455-5.91-2.132-7.775a97.47,97.47,0,0,1-10.414-8.739c-5.911-5.659-15.071,3.066-8.925,8.313a120.627,120.627,0,0,0,13.433,9.982,5.99,5.99,0,0,0,8.038-1.781m35.192,8.227a5.923,5.923,0,0,0-.023-8.428q-1.866-2.073-3.73-4.146a6.548,6.548,0,0,0-8.92-.266,5.989,5.989,0,0,0,.025,8.55q1.929,2.012,3.857,4.027c2.242,2.341,6.573,2.52,8.791.263m29.045,5.387a5.653,5.653,0,0,0,2.152-7.882q-2.124-3.3-4.247-6.6c-1.717-2.673-5.594-4.057-8.449-2.375-2.671,1.574-4.113,5.216-2.191,8.029q2.22,3.249,4.439,6.5c1.761,2.579,5.439,4.015,8.3,2.332m20.484,14.542c0.012,0.038.023,0.078,0.038,0.116a0.645,0.645,0,0,1-.024-0.091c-0.006-.008-0.009-0.017-0.014-0.025M309.483,423c3.018-.847,5.286-3.905,4.227-7.044a36.328,36.328,0,0,0-4.449-9.208c-1.817-2.61-5.523-4.1-8.449-2.377a5.764,5.764,0,0,0-2.191,8.029c0.727,1.176,1.418,2.379,2.076,3.59,0.291,0.534.552,1.079,0.825,1.621a0.636,0.636,0,0,1-.024-0.113,1.114,1.114,0,0,0,.037.139l0.048,0.1c0.282,0.558.086,0.3-.024,0,0.108,0.321.334,0.726,0.432,0.976,1.133,2.876,4.165,5.228,7.492,4.3m-34.724,25.824c2.4-.942,4.47-3.844,3.359-6.5a44.211,44.211,0,0,0-11.009-15.406c-5.842-5.244-14.109,2.366-8.639,8.047a85.72,85.72,0,0,1,9,11.349,6.163,6.163,0,0,0,7.293,2.506m-35.865-30.385a104.886,104.886,0,0,0-16.17-13.571c-6.677-4.585-13.234,5.861-6.336,10.251a89.155,89.155,0,0,1,14.12,11.13c5.5,5.3,13.679-2.333,8.386-7.81m-31.206,11.976a5.592,5.592,0,0,0-.491-7.584c-3.532-3.1-7.059-6.778-11.124-9.213-6.212-3.719-12.053,4.032-7.452,9.069,3.143,3.44,7.58,6.147,11.314,8.981,2.356,1.788,6.153.761,7.753-1.253m-22.752,17.549a5.8,5.8,0,0,0-.024-8.305,33.842,33.842,0,0,0-8.439-6.076c-2.992-1.5-7.036-1.079-8.713,1.932-1.436,2.575-.971,7,2.31,8.428a29.04,29.04,0,0,1,3.685,1.9c0.5,0.312.987,0.644,1.472,0.981q0.874,0.639.15,0.11,0.456,0.374.895,0.768c2.4,2.107,6.341,2.622,8.664.258M152.63,446.8a5.888,5.888,0,0,0,3.614-2.562c1.482-2.661-8.817-9.336-11.8-10.966q-1.392-.761-2.788-1.523c-2.822-1.543-6.8-.966-8.375,1.856-1.445,2.593-.861,6.577,2.221,8.1,0.951,0.472,11.507,3.9,12.458,4.369a6.827,6.827,0,0,0,4.671.725m20.393,19.845a5.5,5.5,0,0,0-2.066-7.536,109.477,109.477,0,0,0-10.8-5c-3.053-1.234-6.647,1.054-7.442,3.833a6.086,6.086,0,0,0,4.252,7.271,81.7,81.7,0,0,1,8.262,3.163c2.815,1.278,6.125.968,7.792-1.727m-18.99,26.65c3.009,1.02,6.72-.885,7.414-3.821,0.767-3.245-1.053-6.033-4.236-7.245l-7.588-2.887a6.059,6.059,0,0,0-7.607,3.919,6.255,6.255,0,0,0,4.346,7.433q3.834,1.3,7.671,2.6m44.19-23.183a5.97,5.97,0,0,0-.026-8.61c-3.773-3.383-8.8-6.881-13.831-8.138-6.714-1.673-10.424,6.661-4.62,10.439,3.176,2.069,6.5,3.673,9.494,6.041,2.691,2.123,6.369,2.7,8.983.268m-3.461,24.314c1.593-2.576.806-6.818-2.278-8.311l-9.411-4.554c-2.969-1.437-6.564-.986-8.314,1.842a5.875,5.875,0,0,0,2.205,8.042l9.207,4.885c3.011,1.6,6.83.942,8.591-1.9M181.27,519.157a6.28,6.28,0,0,0-2.35-8.578c-4.072-2.361-8.276-4.5-12.441-6.692-7.342-3.868-13.781,6.4-6.472,10.47,4.113,2.29,8.19,4.641,12.395,6.764,3.141,1.587,7.024,1.016,8.868-1.964m37.1-60.033c2.444-2.488,2.229-5.824-.024-8.459-2.193-2.565-4.6-4.971-6.933-7.423-2.217-2.33-6.53-2.494-8.728-.259-2.375,2.417-2.262,5.808.024,8.366,2.253,2.521,4.448,5.108,6.838,7.511,2.294,2.307,6.566,2.559,8.823.264m32.394-.182c2.481-2.311,2.066-5.7-.024-8.184a66.778,66.778,0,0,0-12.084-10.606c-5.18-3.771-11.635,4.112-6.827,8.308,3.684,3.215,6.976,6.764,10.4,10.227a6.322,6.322,0,0,0,8.536.255m-27.029,25.006a6.33,6.33,0,0,0-.025-9.068c-2.015-1.947-4.148-3.761-6.281-5.588-2.51-2.147-6.53-2.73-8.951-.268a6.023,6.023,0,0,0,.026,8.581c1.885,2.057,3.759,4.114,5.772,6.059,2.51,2.425,7.007,2.779,9.459.284M188,694S439,390.5,656,525,538,708.5,698,906s35,261.5-120,252S-50.5,1067.5,188,694ZM1913.1,482.6c40.18-144.543,334.65-297.556,497.42-118.706s249.1,565.436-29.31,477.2S1870.36,636.34,1913.1,482.6ZM1125,946c202.5,93,222,74.5,264,32s-38-147.5-112-182S922.5,853,1125,946Zm476.11-331.706c4.6-1.985,7.04-8.85,3.28-12.8-0.12.548-.29,0.342-0.5-0.615q-0.42-.864-0.84-1.729c-0.56-1.154-1.11-2.3-1.63-3.477-1.04-2.335-2.06-4.682-3.09-7.025a7.576,7.576,0,0,0-9.79-3.879m0,0a7.562,7.562,0,0,0-3.89,9.788c0.95,2.374,1.92,4.746,2.86,7.125,0.79,2,1.98,4.459,2.05,6.186,0.2,5.485,7.02,8.387,11.55,6.426m-0.3-63.993c4.65,6.247,6.2,13.936,10.23,20.435,5.34,8.634,19.81,1.772,17.92-7.7-1.78-8.917-8.74-16.69-14.58-23.351-7.27-8.3-20.24,1.67-13.57,10.619m25.13-51.5c-3.14,2.031-3.96,5.6-3.23,9.065,0.91,4.382,3.16,8.519,4.98,12.585a128.146,128.146,0,0,0,6.43,13.366c2.81,4.715,9.57,5.924,14.07,3.017,5.04-3.258,5.49-9.127,3.04-14.064a119.488,119.488,0,0,0-7.18-11.679c-2.59-3.984-5.09-8.133-8.5-11.49a8,8,0,0,0-9.61-.8m57.59,62.482c5.29-2.281,6.89-7.948,5.2-13.056-2.65-8.01-6.86-15.576-9.89-23.468-1.7-4.41-7.3-6.389-11.52-4.565m0,0c-4.6,1.987-6.16,7.043-4.58,11.52,2.82,8.01,4.54,16.542,7.74,24.393a10.061,10.061,0,0,0,13.05,5.176m-136.25,34.258c4.06,5.294,8.12,10.323,11.28,16.23,2.08,3.894,6.46,6.131,10.77,4.269,3.85-1.664,6.32-6.82,4.29-10.768-3.65-7.071-7.49-14.364-12.34-20.682-6.97-9.078-20.97,1.876-14,10.951m-21.86-67.367a74.9,74.9,0,0,0,17.83,24.364c5.17,4.547,14.62-2.354,10.95-8.559-4.48-7.552-8.77-14.88-12.62-22.781-4.94-10.106-20.92-3.367-16.16,6.976m41.17,7.2c-3.91,3.061-3.93,8.035-1.46,11.919a172.388,172.388,0,0,1,10.56,18.6c4.46,9.466,19.34,3.142,15-6.477a154.59,154.59,0,0,0-12.18-22.593c-2.55-3.81-8.49-4.128-11.92-1.448m-3.02-47.309q4.92,11.135,9.68,22.326c4.3,10.172,19.96,3.427,15.77-6.811q-4.605-11.264-9.01-22.61c-4.18-10.7-21.1-3.479-16.44,7.1m26.42-17.708c3.12,8.432,7.3,16.483,11.13,24.613,4.69,9.952,19.72,3.5,15.72-6.785-3.26-8.374-6.23-16.949-10.2-25.019-5.15-10.467-20.72-3.777-16.65,7.191m40.11-33.61c-4.32,2.093-6.75,7.216-4.69,11.8,1.14,2.551,2.29,5.1,3.43,7.646,1.93,4.277,9.57,12.24,13.98,10.1,4.32-2.094,6.87-6.174,2.51-17.223-1.02-2.6-2.29-5.1-3.43-7.646-1.93-4.275-7.39-6.813-11.8-4.676m28.78,29.364c-4.02,1.946-6.55,6.939-4.47,11.243,1.39,2.867,2.72,5.758,4.17,8.6,4.82,9.515,9.95,12.534,14.24,10.453,4.02-1.947,5.64-9.8,1.47-17.239-1.55-2.776-2.77-5.731-4.16-8.6-1.95-4.018-6.96-6.535-11.25-4.456m31.73,13.681c4.94,7.306,10.18,14.374,14.96,21.8,2.63,4.09,9.05,4.342,12.63,1.537,4.15-3.24,4.18-8.52,1.56-12.635a195.22,195.22,0,0,0-15.25-21.575c-7.38-8.746-20.23,1.517-13.9,10.877m-29.97-75.083a9.215,9.215,0,0,0-1.57,12.719c3.19,4.413,6.43,8.785,9.68,13.144,2.86,3.831,9.12,4.711,12.81,1.559a9.315,9.315,0,0,0,1.58-12.8q-4.845-6.571-9.78-13.072a9.192,9.192,0,0,0-12.72-1.547m-32.53-28.444c-4.8,2.85-5.21,8.368-2.46,12.787,0.54,0.863.82,1.385,1.5,2.7,0.66,1.286,1.29,2.589,1.88,3.91a83.627,83.627,0,0,1,3.12,8.088c1.42,4.307,7.14,6.07,11.04,4.38,4.56-1.969,5.72-6.687,4.4-11.048a92.77,92.77,0,0,0-7.08-16.849c-2.45-4.569-7.65-6.791-12.4-3.967m-37.69,34.157a94.2,94.2,0,0,0,5.87,11.816,81.692,81.692,0,0,0,7.1,11.678,7.239,7.239,0,0,0,9.36,1.709c3.31-2.033,4.05-5.476,2.99-9.04a104.865,104.865,0,0,0-4.67-11.521c-1.65-3.8-3.08-7.733-5.04-11.382-5.15-9.523-19.49-3.642-15.61,6.74m-27.13,5.689c-4.61,1.992-5.8,6.786-4.45,11.2,2.36,7.783,6.3,15.3,9.5,22.784,4.15,9.737,18.76,3.343,15.05-6.5-2.86-7.617-5.22-15.784-8.89-23.051-2.08-4.1-6.79-6.345-11.21-4.44m-37.73,14.446c-3.66,1.772-6.04,6.372-4.1,10.3,0.91,1.831,1.85,3.645,2.78,5.457a10.077,10.077,0,0,0,.51,4.265,19.718,19.718,0,0,0,2.57,4.518c0.34,0.517.68,1.043,1,1.573,0.1,0.184.47,0.851,0.58,1.046,1.3,2.408,2.52,4.9,3.62,7.406,3.33,7.6,16.16,4.48,14.37-4.1-1.22-5.873-3.16-12.567-6.85-17.585-1.36-2.945-2.74-5.881-4.18-8.8-1.81-3.665-6.35-6-10.3-4.084m-5-47.1a7.6,7.6,0,0,0-3.92,9.864c2.69,5.838,5.85,11.407,8.7,17.161,2.28,4.607,7.68,6.653,12.27,3.927,4.28-2.541,5.75-8.647,2.43-12.653a102.989,102.989,0,0,1-9.61-14.389c-2.02-3.5-5.83-5.65-9.87-3.91m22.73-19.953c3.25,6.215,5.65,12.942,9.05,19.047,2.42,4.34,7.22,6.918,12.11,4.8a9.378,9.378,0,0,0,4.82-12.111c-2.73-7.11-7.62-13.837-11.94-20.07-5.25-7.578-18.39.01-14.04,8.332m34.9-11.959c2.68,6.209,5.97,13.409,10.23,18.672,6.48,7.99,19.67.423,15.58-9.242-2.65-6.262-7.43-12.528-11.67-17.822-5.83-7.29-17.92-.351-14.14,8.392m39.55-27.143a8.388,8.388,0,0,0-1.42,11.583,145.309,145.309,0,0,0,9.32,12.216c3.08,3.381,8.51,4.728,12.3,1.5a8.96,8.96,0,0,0,1.52-12.3c-3.02-4.133-6.69-7.8-10.13-11.585-2.99-3.3-7.89-4.3-11.59-1.41m36.71,28.126c4.06,7.229,7.28,15.98,12.67,22.3,6.79,7.963,20.63.547,16.14-9.577-3.41-7.678-9.76-14.322-14.57-21.177-5.34-7.614-18.93.118-14.24,8.453m-25.11-67.439c1.35,3.912,4.11,7.61,6.01,11.3a118.318,118.318,0,0,1,5.23,11.631c2.96,7.612,15.74,4.223,13.98-3.985a135.276,135.276,0,0,0-3.88-14.263c-1.54-4.608-3.28-9.763-6.38-13.56-6.49-7.952-18.14-.377-14.96,8.878m-39.82-9.672c3.31,7.073,7.18,13.728,9.98,21.064,1.67,4.388,7.25,6.344,11.44,4.535,4.56-1.972,6.12-6.993,4.55-11.44-2.79-7.943-6.12-16.145-11.06-23.008-5.77-8.008-19.12-.15-14.91,8.849m-22.97,24.294c3.06,6.4,6.89,12.069,9.21,18.847,1.38,4.03,6.68,5.713,10.38,4.115,4.23-1.83,5.42-6.3,4.13-10.377-2.31-7.27-4.72-14.941-9.12-21.252-5.53-7.936-18.78-.091-14.6,8.667m-33.75,2.816c3.23,6.806,7.23,13.1,10.08,20.123,3.07,7.565,16.29,4.258,14.15-4.037-2.2-8.561-4.82-17.259-9.78-24.661-5.36-7.98-18.55-.058-14.45,8.575m-12.43,18.639c-5.36,1.528-7.04,6.686-5.58,11.629a263.99,263.99,0,0,0,8.92,25.35c3.8,9.236,17.11,3.15,14.07-6.073a242.026,242.026,0,0,1-6.55-23.964c-1.1-5.019-5.64-8.427-10.86-6.942m26.09-76.938c0.6,4.03,1.95,8.03,2.97,11.972,1.11,4.27,1.99,8.819,3.72,12.875,3.89,9.076,19.02,5.264,17.01-4.851-0.86-4.36-2.59-8.591-4.09-12.764-1.39-3.843-2.54-7.916-4.32-11.592-3.87-7.988-16.69-4.9-15.29,4.36m32.22-28.238c-4.25,1.837-5.49,6.357-4.16,10.456,2.26,6.974,3.5,14.409,6.29,21.194a8.885,8.885,0,0,0,10.6,4.961c3.81-1.15,7.62-5.483,6.41-9.811-2.2-7.8-5.91-15.056-8.69-22.655-1.47-4.032-6.66-5.779-10.45-4.145m44.46,13.572c-4.06,2.414-5.18,6.948-3.73,11.283a54.779,54.779,0,0,0,3.87,8.032c1.58,2.977,2.9,6.207,4.9,8.916,5.04,6.786,17.16,1.92,15.43-6.626a51.519,51.519,0,0,0-3.69-10.013,47.647,47.647,0,0,0-5.09-9.461,9.029,9.029,0,0,0-11.69-2.131m-6.29-43.109c-3.93,2.335-4.73,6.445-3.58,10.588,0.18,0.593.6,2.006,0.68,2.2,0.25,0.666.57,1.312,0.86,1.972,0.56,1.316,1.09,2.648,1.64,3.973a55.345,55.345,0,0,0,4.05,8.933c1.87,2.925,6.7,3.949,9.74,2.479a8.667,8.667,0,0,0,4.89-8.76c-0.19-3.215-1.77-6.911-2.84-9.958a48.52,48.52,0,0,0-4.33-9.4c-2.22-3.641-7.81-3.991-11.11-2.026m-3.55,10.722a0.618,0.618,0,0,0-.03-0.134c-0.1-.329-0.12-0.413.03,0.134m38.01-27.529a8.78,8.78,0,0,0-4.5,11.323,199.011,199.011,0,0,0,7.56,18.736,9.252,9.252,0,0,0,16.99-7.333,194.367,194.367,0,0,0-8.73-18.238c-2.13-4.127-6.83-6.426-11.32-4.488m36.52-24.484c-4.39,1.9-5.56,6.482-4.26,10.694,2.29,7.422,3.74,15.02,5.65,22.542,1.21,4.734,5.1,8.4,10.3,7.627,4.66-.692,8.6-5.485,7.64-10.3-1.8-9.033-5.12-17.833-8.64-26.32a8.253,8.253,0,0,0-10.69-4.24m-19.17,86.073a8.592,8.592,0,0,0-4.39,11.048c2.05,5.416,3.83,11.06,6.32,16.292,1.9,4.006,6.92,6.477,11.16,4.427,4.48-2.17,5.88-6.623,4.44-11.165-1.75-5.525-4.29-10.86-6.48-16.223-1.67-4.07-7.01-6.334-11.05-4.379m30.65-20.748c-3.1,2.425-3.69,6.317-2.53,9.877,1.05,3.241,3.13,6.311,4.78,9.291,1.82,3.3,3.37,7.162,5.82,10.027a9.088,9.088,0,0,0,11.69,2.13c4.05-2.491,5.16-6.878,3.73-11.283-1.2-3.689-4.03-7.278-6.09-10.584a50.047,50.047,0,0,0-7.21-9.531c-2.59-2.547-7.54-2-10.19.073m72.77-40.424c-3.09,2.424-3.68,6.317-2.52,9.876,1.05,3.242,3.13,6.311,4.78,9.291,1.82,3.3,3.37,7.161,5.82,10.026a9.085,9.085,0,0,0,11.69,2.131c4.05-2.491,5.16-6.878,3.73-11.283-1.2-3.688-4.03-7.277-6.09-10.583a50.022,50.022,0,0,0-7.21-9.532c-2.59-2.547-7.54-2-10.2.074m31.84-31.225c-3.09,2.424-3.68,6.318-2.52,9.877,1.05,3.241,3.13,6.31,4.78,9.29,1.82,3.3,3.37,7.162,5.82,10.027a9.085,9.085,0,0,0,11.69,2.131c4.05-2.491,5.16-6.878,3.73-11.284-1.2-3.688-4.03-7.277-6.09-10.582a50.06,50.06,0,0,0-7.21-9.533c-2.59-2.547-7.54-2-10.2.074m-50.03-12.823c-3.1,2.424-3.69,6.318-2.53,9.876,1.05,3.242,3.13,6.311,4.78,9.291,1.82,3.3,3.37,7.162,5.82,10.028a9.088,9.088,0,0,0,11.69,2.13c4.05-2.492,5.16-6.878,3.73-11.284-1.2-3.689-4.03-7.277-6.09-10.583a50.053,50.053,0,0,0-7.21-9.532c-2.59-2.547-7.54-2-10.19.074m-30.68,13.777c-3.99,1.725-4.96,5.822-3.83,9.63,2.01,6.839,2.97,14.022,6.1,20.506a8.888,8.888,0,0,0,16.32-7.045c-2.66-6.553-6.68-12.549-8.96-19.271-1.27-3.744-6.2-5.3-9.63-3.82m11.64,70.551c4.88,8.742,9.51,17.69,15.01,26.067,5.47,8.347,19.68-.026,15.11-8.969-4.56-8.912-10.09-17.352-15.27-25.915-5.05-8.361-19.67.184-14.85,8.817m-61.72,79.717c-3.75,2.932-3.92,7.9-1.43,11.627,4.07,6.089,7.51,12.564,11.42,18.752,5.29,8.357,19.77-.122,15.02-8.907-3.86-7.127-8.6-13.538-13.38-20.058-2.64-3.606-8.18-4.111-11.63-1.414m34.12-3.137c3.65,8.733,7.45,17.743,12.65,25.672,5.48,8.335,19,.065,14.91-8.847-3.66-8-8.2-15.58-11.84-23.613-4.54-10.007-19.98-3.4-15.72,6.788m40.29-23.95c-4.14,1.788-6.58,7.151-4.52,11.364,2.74,5.622,5.27,11.342,8.21,16.868,2.28,4.3,7.13,6.755,11.87,4.708,4.31-1.861,6.9-7.484,4.73-11.877-2.78-5.621-5.96-11.036-8.93-16.558-2.21-4.1-6.81-6.472-11.36-4.5m6.22,67.472c1.29,4.906,3.25,9.585,4.7,14.441,1.47,4.928,2.43,10.038,4.2,14.87,3.59,9.823,18.21,4.932,17.12-4.883-0.59-5.407-2.62-10.9-4.68-15.914-2.05-4.961-4.32-10.117-7.51-14.451-4.36-5.917-15.84-1.754-13.83,5.937m-30.32,15.922q1.815,6.678,3.62,13.352c0.6,2.226,1.19,4.456,1.8,6.676,0.35,1.276.71,2.549,1.07,3.82-3.54,7.51,5.78,15.9,13.07,10.364,6.52-4.961,4.62-12.222,2.47-18.918-2.11-6.59-4.3-13.158-6.45-19.738-2.83-8.67-18-4.514-15.58,4.444m-27.41,12.378c2.59,6.621,5.15,13.239,7.97,19.767,4.21,9.742,19.3,3.262,15.17-6.548-2.76-6.553-5.76-12.982-8.75-19.434-4.23-9.15-18.07-3.187-14.39,6.215m1.29,56.7c3.47,8.362,9.52,16.844,15.49,23.626,7.51,8.539,20.93-1.746,14-10.95-5.17-6.872-10.29-14.254-15.96-20.7-5.82-6.619-17.08-.552-13.53,8.028m-163.38,63.793c-4.18,2.487-5.03,6.9-3.74,11.321,1.01,3.475,3.5,6.512,5.55,9.458a36.646,36.646,0,0,0,6.78,7.929c4.88,3.965,12.41-.7,11.45-6.769-0.55-3.5-2.01-6.735-3.36-9.983-1.41-3.4-2.62-6.912-4.95-9.815a9.105,9.105,0,0,0-11.73-2.141m295.19-205.477c4.12,5.772,8.89,10.687,12.35,16.959,2.06,3.731,7.57,4.466,10.94,2.25,3.85-2.537,4.25-7.146,2.26-10.935-3.54-6.753-7.24-13.891-12.67-19.341-6.83-6.855-18.52,3.17-12.88,11.067m-32.75,8.633c4.36,6.141,9.4,11.644,13.42,18.062,4.34,6.915,16.79,1.365,13.24-6.431-3.66-8.046-7.75-16.156-13.92-22.583-6.66-6.926-18.28,3.16-12.74,10.952m-9.01,20.507c-5.01,2.433-5.77,7.806-3.47,12.418a259.547,259.547,0,0,0,13.19,23.413c5.34,8.436,17.4.13,12.8-8.422a243.913,243.913,0,0,1-10.62-22.458c-1.95-4.751-7.01-7.317-11.9-4.951m12.11-79.922a118.069,118.069,0,0,0,5.02,11.271c1.83,4.011,3.48,8.337,5.9,12.029,5.4,8.261,19.64,1.883,15.91-7.728-1.61-4.143-4.05-8.008-6.25-11.856-2.04-3.544-3.88-7.355-6.27-10.666-5.2-7.191-17.29-1.923-14.31,6.95m-26.22,9.152a118.211,118.211,0,0,0,5.01,11.271c1.84,4.011,3.49,8.337,5.9,12.029,5.41,8.26,19.65,1.883,15.92-7.728-1.61-4.143-4.05-8.01-6.26-11.857a119.069,119.069,0,0,0-6.26-10.665c-5.2-7.191-17.29-1.924-14.31,6.95m53.28-42.907c-3.87,2.546-4.31,7.212-2.29,11.017,3.44,6.474,5.95,13.58,9.88,19.776a8.891,8.891,0,0,0,11.3,3.046c3.56-1.794,6.56-6.722,4.61-10.773-3.51-7.3-8.43-13.8-12.49-20.8-2.14-3.716-7.57-4.531-11.01-2.267m30.83-24.536c-0.02-.044-0.03-0.083-0.05-0.125-0.16-.309-0.2-0.385.05,0.125m-119.83,317.5c1.24,6.5,4.02,12.91,6.37,19.078,3.71,9.767,18.82,3.416,14.96-6.286-2.45-6.174-4.78-12.636-8.28-18.3-3.88-6.288-14.36-1.377-13.05,5.508m5.67-64.588c3.03,7.182,6.05,14.417,9.53,21.4,4.58,9.2,18.97,3.37,14.86-6.246-3.06-7.177-6.62-14.172-10.13-21.141-4.43-8.807-18.17-3.263-14.26,5.989m18.77-44.588a7.7,7.7,0,0,0-3.22,9.447,102.775,102.775,0,0,0,6.63,14.2c2.05,3.865,6.33,6.135,10.62,4.333,3.88-1.627,6.27-6.669,4.35-10.62a114.757,114.757,0,0,0-8.58-15.494c-2.14-3.067-6.72-3.722-9.8-1.861M1535.6,191.233c-3.58-.891-7.98.934-9.19,4.669a29.6,29.6,0,0,0-.95,16.488c1.08,4.15,4.58,7.853,9.29,6.977,4.09-.763,8-4.818,6.99-9.3a32.582,32.582,0,0,1-.79-5.379c0.03-.257.05-1.383,0.08-1.75a27.691,27.691,0,0,1,.46-3.27c0.76-3.82-2.39-7.562-5.89-8.438M1672.23,87.386c-4.1-.293-8.12,2.478-8.54,6.767a91.365,91.365,0,0,0-.31,15.426c0.28,4.146,4.94,7.468,8.95,6.722,4.54-.847,6.94-4.525,6.73-8.956-0.09-1.97-.2-3.946-0.23-5.918a6.117,6.117,0,0,0,.01-0.761c0-.528.01-1.055,0.02-1.584,0.03-1.056.08-2.11,0.13-3.164,0.22-4.015-2.43-8.225-6.76-8.533m34.32-11.862c-4.2-.3-7.32,2.4-8.12,6.431a48.476,48.476,0,0,0-.46,14.429,8,8,0,0,0,8.98,6.747c4.12-.769,7.53-4.617,6.76-8.989a49.62,49.62,0,0,1-.7-5.832c-0.04-.87-0.07-1.746-0.09-2.621,0.02,0.083.05-1.842,0.06-2.054,0.17-3.82-2.29-7.817-6.43-8.111m44.39-6.81c-3.55.1-7.64,2.9-7.67,6.848a78.909,78.909,0,0,0,1.31,16.458c0.86,4.209,4.75,7.823,9.29,6.977,4.11-.766,7.98-4.814,6.99-9.3a91.343,91.343,0,0,1-2.09-14.344c-0.23-3.836-4.23-6.745-7.83-6.642m48.6-12.181c-3.24.095-6.64,2.574-6.81,6.084q-0.36,7.791-.74,15.578c-0.21,4.488,2.85,8.4,7.58,8.338,4.85-.064,7.5-4.033,7.38-8.538l-0.45-15.562c-0.1-3.408-3.84-5.99-6.96-5.9m7.08,42.789c-4.63.66-6.93,4.7-6.78,9.018,0.19,5.3.25,10.647,0.82,15.924,0.47,4.443,5.03,7.638,9.35,7.023,4.82-.687,7.19-4.878,7.04-9.357-0.18-5.289-.86-10.579-1.41-15.839-0.45-4.285-4.86-7.361-9.02-6.769m29.33-51.8c-4.55.647-6.79,4.6-6.64,8.832a72.723,72.723,0,0,0,3.17,19.428c2.64,8.5,17.02,4.566,15.09-4.172a115.811,115.811,0,0,1-2.79-17.459c-0.27-4.211-4.88-7.194-8.83-6.63m20.32,34.147c-3.53.1-7.56,2.881-7.61,6.8-0.07,5.808-.24,11.61.03,17.412,0.18,3.92,4.35,6.887,7.99,6.783s7.76-2.963,7.83-6.993c0.1-5.809-.22-11.6-0.46-17.406-0.16-3.812-4.25-6.7-7.78-6.6m14.53-31.563a80.526,80.526,0,0,0,2.16,23.1c0.94,3.807,4.05,6.761,8.21,6.168,3.68-.525,7.01-4.365,6.18-8.216a159.98,159.98,0,0,1-3.01-21.237c-0.59-7.654-13.16-7.593-13.54.181m23.21,36.465c-4.07.761-7.27,4.492-6.59,8.772,0.2,1.262.35,2.527,0.44,3.8a5.489,5.489,0,0,1,.08,1.788c-0.01-1.165-.01-1.326-0.01-0.485l-0.03,1.019a8.5,8.5,0,0,0,1.59,5.751,7.936,7.936,0,0,0,11.12,1.424c1.51-1.28,3.04-3.283,3.03-5.36a53.689,53.689,0,0,0-.86-10.127c-0.79-3.977-4.49-7.379-8.77-6.583m28.97-38.443c-4.39-.314-7.47,2.488-8.36,6.624a59.627,59.627,0,0,0-1.12,14.3c0.11,4.131,5.04,7.394,8.89,6.676a8.066,8.066,0,0,0,6.69-8.895c-0.07-.877-0.11-1.752-0.15-2.631V64.013c0.01-.572.02-1.147,0.05-1.72a51.579,51.579,0,0,1,.62-5.813,7.587,7.587,0,0,0-6.62-8.35m6.41,47.187c-3.51.1-7.76,2.929-7.72,6.9a94.039,94.039,0,0,0,1.56,18.042c0.88,4.287,4.64,7.529,9.17,6.886a8.213,8.213,0,0,0,6.89-9.174c-0.83-5.3-1.63-10.606-2.01-15.962-0.28-3.864-4.22-6.8-7.89-6.69m29-23.589c-3.86-.275-8.42,2.461-8.54,6.767a82.339,82.339,0,0,0,.72,14.3c0.59,4.047,4.67,7.4,8.83,6.63a7.956,7.956,0,0,0,6.64-8.833q-0.4-2.869-.64-5.754c-0.07-.9-0.14-1.794-0.18-2.692q-0.045-.769-0.06-1.541c0,0.689-.01.574-0.01-0.343-0.01-4.015-2.27-8.212-6.76-8.532m5.04,67.179a8.344,8.344,0,0,0-6.92,9.2,103.308,103.308,0,0,0,1.43,13.033c0.83,3.943,3.88,6.888,8.04,6.83,3.65-.052,7.85-3.029,7.89-7.042a117.83,117.83,0,0,0-1.24-15.117,8.2,8.2,0,0,0-9.2-6.906m26.36-37.8c-4.01-.285-8.79,2.566-8.9,7.055l-0.25,10.2c-0.11,4.287,2.5,8.773,7.21,9.108,3.98,0.283,9.18-2.627,9.12-7.225q-0.06-5.124-.13-10.247c-0.02-2.19-.21-4.02-1.61-5.828a8.2,8.2,0,0,0-5.44-3.067m-1.16,58.182c-3.74.053-8.27,3.166-8.22,7.353,0.05,4.574.03,9.156,0.32,13.724,0.26,4.175,4.53,7.207,8.43,7.153,3.82-.054,8.22-3.172,8.25-7.376,0.04-4.582-.17-9.146-0.37-13.723-0.18-4.163-4.59-7.184-8.41-7.131M1492.1,463.839c1.24,6.593,2.2,13.113,2.88,19.791,0.48,4.722,5.54,7.634,9.89,6.431,4.86-1.344,6.59-6.092,5.21-10.6-1.78-5.816-3.23-11.6-4.51-17.54-1.82-8.482-15.11-6.748-13.47,1.92m2.46-48.626c-3.64,1.067-6.55,4.779-5.8,8.746a63.585,63.585,0,0,1,1.02,7.776c0.16,2.449-.16,4.886.15,7.874,1.04,9.839,16.07,9.478,17.18-.23,0.74-6.45-1.24-13.528-3.09-19.635-1.14-3.753-5.99-5.549-9.46-4.531m-9.05-43.848a26.109,26.109,0,0,0-.15,4.923c0.02,0.516.03,1.032,0.04,1.548v0.922c-0.05,2.49-.11,4.981-0.22,7.47-0.2,4.7,2.81,9.619,7.91,9.983,4.46,0.317,9.93-2.879,10-7.919,0.08-6.138.23-13.345-2.14-19.127-3.18-7.739-14.14-5.515-15.44,2.2m19.25,132.125c-4.91.7-7.2,4.923-7.1,9.449a129.721,129.721,0,0,0,2.26,19.638c1.94,11.033,18.59,8.709,17.25-2.458-0.78-6.513-1.56-13.129-2.96-19.538-0.96-4.4-4.74-7.762-9.45-7.091m18.73,53.54c-3.78.539-7.27,4.52-6.38,8.493,1.91,8.58,2.55,17.413,5.01,25.859,2.73,9.367,17.98,4.913,16.35-4.517-1.38-7.986-4.6-15.584-6.49-23.46-0.94-3.94-4.2-6.985-8.49-6.375m-30.41-236.043c-4.57.65-6.98,4.687-6.76,8.986,0.17,3.277.37,6.553,0.5,9.832,0.06,1.533.1,3.068,0.15,4.6,0.03,0.813-.53,3.852.31,1.666-2.96,7.746,6.2,14.441,12.79,9.608,4.87-3.57,3.97-9.075,3.38-14.281-0.52-4.552-.95-9.108-1.39-13.668-0.4-4.272-4.87-7.33-8.98-6.743m11.78-44.7c-3.05.042-6.8,2.041-7.68,5.226a18.715,18.715,0,0,0-.84,4.622c-0.02,1.049.04,2.1,0.07,3.15,0,0.124.03,1.08,0.04,1.491v0.961c0,0.575-.01,1.149-0.03,1.726-0.04,1.3-.11,2.589-0.2,3.881-0.33,4.826,2.97,9.889,8.13,10.255,4.57,0.327,10.21-2.955,10.26-8.133,0.04-3.088,0-6.182-.19-9.263-0.18-2.958-.36-6.2-1.75-8.87-1.59-3.053-4.23-5.1-7.81-5.046m11.35-32.983q1.005,8.792,2,17.586a9.005,9.005,0,0,0,10.06,7.554c4.65-.662,8.4-5.317,7.57-10.066q-1.545-8.716-3.08-17.43c-1.86-10.595-17.76-8.356-16.55,2.356m42.94-57a8.459,8.459,0,0,0-9.24,7.318c-0.82,6.309-1.49,14.4,1.13,20.362a8.613,8.613,0,0,0,8.96,5.081c3.54-.5,7.03-3.678,7.21-7.384,0.15-3.141-.53-6.149-0.79-9.266a37.83,37.83,0,0,1,.04-6.884,8.5,8.5,0,0,0-7.31-9.227m24.68-26.294c-4.13,1.212-5.97,4.707-5.86,8.837a123.714,123.714,0,0,0,2.79,22.354c2.47,11.253,19.3,9.139,17.91-2.551a134.563,134.563,0,0,0-5.28-24.063c-1.21-3.778-6.01-5.617-9.56-4.577m31.34-24.152c-3.35,1.41-4.62,4.635-4.56,8.04,0.04,2.723.89,5.465,1.33,8.151,0.45,2.731.8,5.473,1.08,8.226,0.48,4.665,5.3,8.014,9.82,7.37,4.42-.63,8.34-5.211,7.38-9.819-1.37-6.6-2.69-13.781-6.13-19.62-1.66-2.832-6.1-3.527-8.92-2.348m30.58-4.956c0.3,6.387.89,12.711,0.99,19.109,0.07,4.485,5.34,7.624,9.39,7.046,4.23-.6,7.96-4.98,7.06-9.387-1.29-6.245-2.07-12.525-3.16-18.8-1.61-9.3-14.71-7.116-14.28,2.033m45.07-14.588a8.437,8.437,0,0,0-7.01,9.327c0.21,2.291.43,4.573,0.73,6.855,0.58,4.369,5.07,7.967,9.51,7.14a8.58,8.58,0,0,0,7.15-9.513c-0.3-2.28-.67-4.543-1.06-6.809-0.72-4.253-4.85-7.831-9.32-7m38.1-16.788c-3.87.722-7.83,4.682-6.76,8.987l2.69,10.764c0.96,3.845,4.26,7.248,8.58,6.444,3.91-.727,7.22-4.415,6.46-8.586q-0.99-5.433-1.99-10.865c-0.75-4.087-4.64-7.551-8.98-6.744m48.97-2.459c-2.82.777-4.38,2.98-4.99,5.744-0.51,2.349-.08,4.857.15,7.227,0.21,2.092.49,4.155,0.87,6.222,0.74,4.09,4.65,7.553,8.98,6.745,4.1-.764,7.56-4.62,6.76-8.988-0.89-4.864-1.85-10.43-4.56-14.6-1.48-2.267-4.78-3.022-7.21-2.351m51.15,5.683c-3.35.1-6.76,2.635-6.97,6.228-0.37,6.453.6,13.112,1.43,19.5a8.156,8.156,0,0,0,9.1,6.838c3.94-.561,7.95-4.879,6.85-9.109-1.49-5.765-2.07-11.617-3.29-17.417-0.72-3.449-3.44-6.146-7.12-6.04m37.49,10.183c-3.8.053-7.91,3.087-8.04,7.184-0.17,4.994-.72,10.14-0.31,15.12,0.35,4.268,4.58,7.37,8.62,7.315,4.1-.058,8.14-3.24,8.44-7.543,0.36-4.973-.28-10.127-0.5-15.109-0.18-4.066-4.48-7.02-8.21-6.967m28.28,1.2c-4.68.873-7.25,4.7-6.99,9.3,0.26,4.521.44,9.05,0.92,13.553a8.442,8.442,0,0,0,9.48,7.113c4.79-.891,7.37-4.79,7.13-9.48-0.24-4.515-.78-9.007-1.25-13.5a8.272,8.272,0,0,0-9.29-6.977M1862.99,178.7c-1.82-3.592-3.41-7.292-4.9-11.032-3.67-9.184-17.07-3.269-14.01,5.884a141.31,141.31,0,0,0,7.24,18.093c2.81,5.643,6.5,9.049,13.06,8.695,8.75-.474,8.68-12.343,1.97-15.523-1.38-1.531-2.44-4.311-3.36-6.117m19.37-16.03c-3.27,1.981-5.27,6.433-3.45,10.124,2.01,4.062,3.48,8.278,5.15,12.477,1.71,4.29,7.29,6.718,11.55,4.712a9.009,9.009,0,0,0,4.72-11.548,68.648,68.648,0,0,0-7.46-13.771c-2.2-3.346-7.29-3.943-10.51-1.994M1921.87,142c-3.87,1.136-5.82,4.515-5.6,8.449a85.6,85.6,0,0,0,3.91,20.936c1.28,3.992,6.33,5.945,10.1,4.842a8.568,8.568,0,0,0,6.19-9.345,86.6,86.6,0,0,0-5.47-20.5,7.678,7.678,0,0,0-9.13-4.378m-51.83,91.466c-6.03-7.918-17.3,1.2-12.07,9.32a89.411,89.411,0,0,1,7.64,15.774c3.97,9.983,19.34,3.492,15.37-6.456a81,81,0,0,0-10.94-18.638m10.95-11.837c2.1,5.443,4.48,11.039,7.88,15.808,5.5,7.718,18.99.164,14.57-8.483-2.37-4.623-5.15-8.945-7.33-13.675-4.41-9.589-18.91-3.5-15.12,6.35m27.46-16.69c-3.66,1.537-4.85,5.475-3.69,9.013a94.218,94.218,0,0,0,5.78,13.246c2.02,3.947,6.51,5.845,10.56,3.483a7.434,7.434,0,0,0,2.18-10.9,47.641,47.641,0,0,1-5.81-11.158,6.981,6.981,0,0,0-9.02-3.679m43.69-16.743c-4.4.627-6.75,4.527-6.52,8.678,0.36,6.857.04,13.945,0.88,20.752a8.544,8.544,0,0,0,9.53,7.16c4.91-.7,7.34-4.973,7.18-9.542-0.24-6.822-1.68-13.737-2.39-20.535-0.44-4.121-4.68-7.082-8.68-6.513M1516.73,602.014a9.1,9.1,0,0,0-9.9,7.846,27.988,27.988,0,0,0,2.45,16.213c2.08,4.042,6.92,6.768,11.4,4.652,4.65-2.19,6.08-6.73,4.67-11.4,0.62,2.054-.15-0.866-0.23-1.257-0.18-.811-0.37-1.61-0.49-2.436a12.972,12.972,0,0,1-.22-2.252c0.06-.541.15-1.285,0.16-1.47,0.48-4.643-2.98-9.545-7.84-9.892m-24.26-48.388c-4.38.816-8.86,5.293-7.64,10.16,0.55,2.217,1.11,4.435,1.66,6.652,0.64,2.581,1.12,5.436,2.32,7.824,1.63,3.289,5.19,5.85,9.05,5.13,3.42-.637,7.28-3.622,7.27-7.456-0.01-4.99-1.43-9.833-2.51-14.685-1.02-4.582-5.12-8.562-10.15-7.625m-11.33-52.738a8.511,8.511,0,0,0-7.09,9.42c0.52,4.4,1.36,8.769,2.1,13.142,0.72,4.239,4.85,7.8,9.3,6.976a8.389,8.389,0,0,0,6.99-9.3c-0.59-4.394-1.08-8.812-1.89-13.172-0.79-4.284-4.86-7.918-9.41-7.07m-9.43-52.237a8.7,8.7,0,0,0-7.24,9.634,64.312,64.312,0,0,0,2.99,13.346c1.35,4.107,6.98,6.2,10.8,4.405,4.47-2.108,5.66-6.344,4.42-10.8,0.42,1.517-.3-1.427-0.36-1.7-0.16-.756-0.29-1.514-0.42-2.275-0.28-1.782-.45-3.574-0.56-5.377-0.26-4.463-5.35-8.026-9.63-7.23m-1.91-49.47a8.525,8.525,0,0,0-7.11,9.449q0.84,6,1.67,12c0.57,4.08,4.72,7.452,8.89,6.675,4.48-.834,6.94-4.5,6.69-8.895q-0.345-6.065-.7-12.133c-0.25-4.379-5.25-7.872-9.44-7.092m-3.42-61.208a8.275,8.275,0,0,0-6.9,9.172q0.81,6.5,1.64,13c0.51,4,4.66,7.29,8.71,6.535,4.36-.813,6.82-4.407,6.54-8.708q-0.4-6.558-.83-13.115c-0.27-4.248-5.08-7.645-9.16-6.884M2859.83,474.646c2.79-2.338,3.97-7.03,1.62-10.168-2.61-3.479-11-15.214-13.87-18.49-1.36-1.543-4.21-2.36-6.17-2.3a8.734,8.734,0,0,0-5.66,15.162c2.56,2.567,11.03,13.241,13.78,15.607a7.9,7.9,0,0,0,10.3.191m3.35,48.015a7.561,7.561,0,0,0-.44-10.523c-1.84-1.778-3.69-3.552-5.52-5.342-1.55-1.508-3.64-3.264-4.4-4.814-2.43-4.929-9.84-4.8-13.18-1.168-3.39,3.683-2.82,10.949,2.23,13.023-0.11-.548.12-0.427,0.71,0.358,0.49,0.411.98,0.823,1.48,1.235,0.98,0.827,1.95,1.655,2.9,2.512,1.91,1.71,3.8,3.439,5.7,5.159a7.574,7.574,0,0,0,10.52-.44m2.87,36.469c-6.79-3.813-11.36-10.2-17.69-14.5-8.4-5.709-18.82,6.445-13.22,14.328,5.27,7.418,14.8,11.684,22.85,15.394,10.03,4.626,17.81-9.76,8.06-15.222m-1.92,57.26c2.04-3.135,1.33-6.727-.75-9.6-2.63-3.63-6.36-6.5-9.69-9.468a128.369,128.369,0,0,0-11.34-9.586c-4.49-3.165-11.16-1.518-14.08,2.967-3.28,5.028-1.28,10.568,2.97,14.08a119.341,119.341,0,0,0,11.32,7.746c4,2.586,7.98,5.355,12.46,7.036a8.011,8.011,0,0,0,9.11-3.18m-40.55-99.006c2.09-3.047,2.24-8.249-1.08-10.684a42.99,42.99,0,0,1-7.52-6.708c-1.71-2-4.1-5.676-6.22-8.132-3.39-3.941-10.83-3.181-13.99.583-3.79,4.49-3.05,9.778.58,14,2.29,2.662,5.43,4.636,8.25,6.7,3.16,2.313,6.31,4.574,9.54,6.782,3.32,2.265,8.37.494,10.44-2.538m1.32,41.607c2.18-3.194,2.35-8.642-1.14-11.194a43.474,43.474,0,0,1-7.2-6.473c-0.15-.169-0.36-0.416-0.44-0.516-0.5-.636-0.99-1.275-1.47-1.929a50.4,50.4,0,0,0-4.27-5.452c-3.38-3.484-9.3-3.184-12.81-.238a9.758,9.758,0,0,0-2.02,12.657c2.15,3.406,5.55,6.207,8.7,8.687,3.39,2.676,5.9,4.506,9.71,7.115,3.47,2.378,8.77.516,10.94-2.657m-7.31,54.7c3.39-3.682,2.75-8.939-.52-12.385-5.85-6.168-10.91-13.258-17.03-19.126a10.076,10.076,0,0,0-14.04.585c-3.89,4.234-3.05,10.06.58,14.036,5.7,6.236,12.63,11.437,18.62,17.408,3.35,3.336,9.28,2.868,12.39-.518m-45.26-5.793c-4.62-6.364-9.94-12.218-16.71-16.3-3.68-2.215-8.81-.678-11.13,2.707-2.26,3.3-2.34,8.717,1.16,11.391,5.09,3.895,9.93,7.288,14.58,12.334,6.07,6.588,17.39-2.833,12.1-10.129m124.15-111.861c-5.88-3.181-11.64-6.121-16.94-10.23-3.49-2.71-8.41-2.969-11.58.483-2.84,3.086-2.99,8.8.48,11.578,6.22,4.972,12.71,10.071,19.72,13.867,10.07,5.454,18.39-10.246,8.32-15.7m47.48,52.628a75.149,75.149,0,0,0-26.24-14.994c-6.58-2.05-12.39,8.1-6.5,12.269,7.17,5.076,14.08,10.025,20.83,15.671,8.63,7.221,20.48-5.438,11.91-12.946m-40.55,10.179c2.33-4.389.3-8.936-3.53-11.48a172.208,172.208,0,0,1-17.25-12.687c-7.94-6.832-18.95,5-11.06,12.02a156,156,0,0,0,20.35,15.675c3.89,2.443,9.45.314,11.49-3.528m22.08,41.975q-9.045-8.164-17.96-16.45c-8.08-7.541-19.64,4.993-11.63,12.635q8.82,8.414,17.47,16.982c8.19,8.066,20.7-5.408,12.12-13.167m-16.9,26.921c-6.3-6.431-13.4-12.081-20.22-17.948-8.35-7.181-19.45,4.833-11.59,12.592,6.4,6.32,12.61,12.944,19.54,18.7,8.97,7.464,20.46-4.979,12.27-13.343m-22.92,47.015c3.09-3.669,3.22-9.338-.53-12.683q-3.12-2.792-6.26-5.582c-3.5-3.125-13.74-7.286-16.89-3.541-3.1,3.67-3.76,8.433,4.74,16.75,1.99,1.958,4.17,3.724,6.26,5.585,3.5,3.121,9.53,3.217,12.68-.529m-38.28-15.1c2.87-3.414,3.15-9.008-.51-12.089-2.44-2.054-4.84-4.151-7.32-6.159-8.29-6.723-14.21-7.394-17.28-3.749-2.87,3.414-1.15,11.244,5.7,16.345,2.55,1.9,4.87,4.1,7.32,6.156,3.42,2.877,9.02,3.138,12.09-.5m-34.57.412c-7.5-4.663-15.18-8.982-22.57-13.818-4.07-2.663-10.04-.279-12.17,3.74-2.47,4.646-.33,9.478,3.74,12.171a196.229,196.229,0,0,0,22.74,13.5c10.31,4.982,17.86-9.621,8.26-15.594m-40.77,29.869c-7.49-4.662-15.17-8.982-22.57-13.817-4.07-2.664-10.04-.28-12.17,3.738-2.46,4.648-.33,9.479,3.74,12.173a196.214,196.214,0,0,0,22.74,13.5c10.32,4.984,17.87-9.619,8.26-15.593m98.81,26.506a9.216,9.216,0,0,0-3.77-12.253c-4.71-2.734-9.45-5.409-14.2-8.065-4.18-2.335-10.25-.6-12.34,3.789a9.309,9.309,0,0,0,3.79,12.334q7.11,4.026,14.27,7.961a9.194,9.194,0,0,0,12.25-3.766m41.33,12.739c3.23-4.556,1.34-9.758-2.97-12.677-0.84-.571-1.32-0.931-2.47-1.856-1.14-.9-2.24-1.839-3.32-2.8a84.345,84.345,0,0,1-6.15-6.12c-3.06-3.351-9-2.638-11.88.5-3.36,3.655-2.49,8.43.5,11.877a91.8,91.8,0,0,0,13.35,12.5c4.09,3.18,9.75,3.1,12.94-1.421m20.49-46.53a95.03,95.03,0,0,0-10.19-8.4,82.054,82.054,0,0,0-11.26-7.777,7.244,7.244,0,0,0-9.25,2.25c-2.19,3.2-1.46,6.648.96,9.471a103.777,103.777,0,0,0,8.98,8.621c3.05,2.8,5.96,5.81,9.25,8.342,8.59,6.6,19.29-4.6,11.51-12.507m22.45-16.231c3.4-3.7,2.53-8.56-.5-12.048-5.34-6.144-12.02-11.4-17.99-16.94-7.77-7.2-18.5,4.581-11.1,12.061,5.73,5.788,11.22,12.291,17.54,17.43,3.57,2.9,8.8,3.034,12.05-.5m28.57-28.545c2.62-3.106,2.91-8.277-.46-11.073-1.58-1.3-3.17-2.579-4.77-3.853a10.158,10.158,0,0,0-2.2-3.69,20.043,20.043,0,0,0-4.2-3.076c-0.52-.334-1.04-0.679-1.55-1.032-0.17-.129-0.79-0.586-0.96-0.721-2.18-1.669-4.3-3.446-6.33-5.291-6.15-5.581-16.6,2.486-11.46,9.595,3.51,4.866,8.02,10.189,13.44,13.27,2.45,2.135,4.91,4.257,7.41,6.33,3.16,2.612,8.25,2.9,11.08-.459m23.36,30.373c-4.84-4.24-10.01-8.033-14.96-12.133-3.96-3.279-9.73-2.949-12.81,1.407-2.88,4.067-1.73,10.238,2.94,12.546a102.961,102.961,0,0,1,14.66,9.229c3.28,2.375,7.64,2.785,10.61-.444m-12.61,27.468c-5.5-4.355-10.45-9.518-16.05-13.711-3.98-2.98-9.41-3.382-13.02.541a9.379,9.379,0,0,0,.54,13.023c5.4,5.383,12.62,9.532,19.11,13.469,7.89,4.784,16.79-7.49,9.42-13.322m-27,25.122c-4.98-4.58-10.92-9.818-16.97-12.886-9.19-4.66-18.14,7.615-10.45,14.777,4.98,4.639,11.9,8.416,17.93,11.526,8.31,4.285,16.51-6.967,9.49-13.417m-25.04,40.882a8.4,8.4,0,0,0-3.43-11.158c-4.44-2.533-8.82-5.314-13.51-7.363-4.2-1.833-9.7-.854-11.85,3.641a8.953,8.953,0,0,0,3.65,11.848c4.44,2.546,9.29,4.4,13.98,6.459,4.08,1.791,8.96.713,11.16-3.427m-45.02-10.75c-6.67-4.947-13.18-11.628-20.69-15.209-9.45-4.511-19.07,7.895-10.83,15.313,6.25,5.625,14.77,9.107,21.96,13.411,7.99,4.781,17.24-7.81,9.56-13.515m50.48,51.372c-2.83-3.027-6.86-5.277-10.11-7.873a122.517,122.517,0,0,1-9.53-8.5c-5.81-5.745-16.1,2.55-11.14,9.327a131.983,131.983,0,0,0,9.37,11.448c3.29,3.584,6.99,7.582,11.37,9.786,9.18,4.622,16.72-7.035,10.04-14.192m-13.93,65.181a8.586,8.586,0,0,0-.49-11.879c-4.09-4.113-8.02-8.541-12.43-12.306-3.38-2.884-8.97-3.1-12,.5-3.21,3.807-2.68,8.443.49,12,3.86,4.336,8.36,8.173,12.55,12.178,3.19,3.04,9,2.932,11.88-.494m-19.52,31.416c1.84-3.475.79-7.27-1.72-10.049-2.29-2.531-5.44-4.489-8.16-6.539-3.01-2.271-6-5.17-9.42-6.789a9.077,9.077,0,0,0-11.54,2.811c-2.69,3.925-1.91,8.384,1.19,11.823,2.61,2.88,6.66,5.006,9.89,7.185a50.235,50.235,0,0,0,10.48,5.773c3.41,1.272,7.71-1.24,9.28-4.215m-49.97,66.531c1.84-3.475.79-7.27-1.72-10.049-2.29-2.532-5.44-4.49-8.16-6.54-3.02-2.271-6.01-5.168-9.42-6.787a9.093,9.093,0,0,0-11.55,2.81c-2.69,3.926-1.91,8.384,1.2,11.823,2.6,2.881,6.65,5.007,9.89,7.186a50.373,50.373,0,0,0,10.48,5.773c3.4,1.27,7.7-1.241,9.28-4.216m-16.33,41.471c1.84-3.47.79-7.27-1.73-10.05-2.28-2.53-5.43-4.49-8.16-6.54-3.01-2.27-6-5.168-9.41-6.786a9.089,9.089,0,0,0-11.55,2.81c-2.69,3.926-1.91,8.386,1.2,11.826,2.6,2.88,6.65,5,9.89,7.18a49.273,49.273,0,0,0,10.47,5.77c3.41,1.28,7.71-1.24,9.29-4.21m20.1-29.217-42.6,63.007c-2.28-2.53-5.43-4.49-8.16-6.54-3.01-2.27-6-5.17-9.41-6.79a9.086,9.086,0,0,0-11.55,2.81c-2.69,3.92-1.91,8.38,1.2,11.82,2.6,2.88,6.65,5.01,9.89,7.19a50.173,50.173,0,0,0,10.47,5.77c3.41,1.27,7.71-1.24,9.29-4.21,1.84-3.48.79-7.27-1.73-10.05m56.4-127.2c-8.03-6-15.92-12.284-24.36-17.7-8.41-5.4-17.97,8.034-10.14,14.341,7.8,6.283,16.3,11.743,24.53,17.454,8.03,5.578,17.9-8.176,9.97-14.1m23.82-97.914c2.22-4.2.35-8.808-3.45-11.2-6.2-3.9-11.99-8.419-18.09-12.478-8.24-5.479-18,8.155-10.08,14.245,6.43,4.94,13.39,8.864,20.41,12.873a8.4,8.4,0,0,0,11.21-3.441m-29.89,16.748c-6.9-6.49-14.05-13.172-22.05-18.295-8.4-5.382-17.38,7.672-10,14.146,6.61,5.811,13.86,10.89,20.46,16.743,8.24,7.292,19.64-5.022,11.59-12.594m-27.03,38.266c3.06-3.317,3.09-9.208-.5-12.217-4.81-4.02-9.46-8.211-14.39-12.063-3.85-3-9.28-3.268-12.77.53-3.18,3.453-3.25,9.642.53,12.769,4.83,4,9.95,7.656,14.92,11.491,3.69,2.851,8.86,3.14,12.21-.51m-33.24-59.085c-3.18-3.957-6.88-7.43-10.19-11.275-3.36-3.9-6.32-8.179-9.9-11.872-7.3-7.512-18.65,2.9-13.65,11.428,2.75,4.693,6.84,8.883,10.78,12.624,3.89,3.7,8.07,7.483,12.76,10.141,6.4,3.63,15.18-4.843,10.2-11.046m21.2-26.877q-4.38-5.365-8.76-10.723c-1.46-1.788-2.91-3.583-4.37-5.363-0.84-1.023-1.69-2.041-2.54-3.051,0.16-8.3-11.77-12.172-16.17-4.149-3.93,7.183.77,13.042,5.47,18.282,4.62,5.159,9.3,10.266,13.95,15.4,6.13,6.766,18.29-3.2,12.42-10.4m19.99-22.46c-5.07-4.991-10.12-9.994-15.36-14.809-7.82-7.183-18.96,4.874-11.18,12.151,5.2,4.863,10.56,9.516,15.92,14.192,7.61,6.633,17.82-4.444,10.62-11.534m-24.35-51.257c-6.58-6.228-15.57-11.509-23.79-15.275-10.35-4.742-18.41,10.113-8.33,15.7,7.53,4.171,15.23,8.829,23.04,12.411,8.03,3.677,15.83-6.445,9.08-12.835m123.2-124.738c2.81-3.973,1.77-8.353-1.2-11.861-2.35-2.762-5.87-4.522-8.94-6.379a36.669,36.669,0,0,0-9.43-4.48c-6.08-1.636-11.05,5.685-7.7,10.841,1.94,2.977,4.59,5.333,7.15,7.747,2.68,2.527,5.22,5.249,8.53,6.949a9.107,9.107,0,0,0,11.59-2.817M2796.62,743.341c-4.54-6.647-11.83-11.745-17.98-16.82a7.776,7.776,0,0,0-10.53,11.446,100.406,100.406,0,0,1,8.03,7.858c2.5,2.733,4.72,5.937,7.51,8.37,7.09,6.173,18.59-2.632,12.97-10.854m-26.33,24.123c3.3-3.922,2.6-8.444-.51-12.131-3.05-3.611-7.09-6.65-10.58-9.846-3.22-2.95-8.89-2.961-11.79.491a8.539,8.539,0,0,0,.49,11.794c3.33,3.363,6.52,7.286,10.25,10.2,3.54,2.757,8.98,3.239,12.14-.506m-39.28,5.783c2.04-3.514,1.43-8.658-2.38-10.824-1.77-1.009-3.57-1.991-5.36-2.967a10.172,10.172,0,0,0-2.81-3.253,19.665,19.665,0,0,0-4.67-2.3q-0.855-.357-1.71-0.746c-0.18-.1-0.87-0.441-1.07-0.542-2.43-1.266-4.83-2.65-7.15-4.115-7.02-4.429-15.91,5.329-9.61,11.439,4.3,4.182,9.67,8.643,15.54,10.737,2.78,1.678,5.57,3.339,8.4,4.947,3.55,2.023,8.62,1.418,10.82-2.376m30.56,36.226a7.6,7.6,0,0,0-2.28-10.368c-5.5-3.333-11.25-6.174-16.84-9.353-4.47-2.541-10.09-1.214-12.37,3.61-2.12,4.5.08,10.384,5.08,11.844a103.693,103.693,0,0,1,16.04,6.545c3.64,1.771,8,1.419,10.37-2.278m-7.65,29.241c-6.17-3.334-11.94-7.56-18.18-10.718-4.44-2.245-9.86-1.7-12.73,2.793a9.374,9.374,0,0,0,2.79,12.731c6.25,4.365,14.08,7.2,21.16,9.949,8.6,3.344,15.23-10.29,6.96-14.755m-22.22,29.427c-5.7-3.644-12.46-7.771-18.95-9.744-9.86-3-16.55,10.649-7.73,16.367,5.71,3.705,13.19,6.221,19.67,8.239,8.92,2.776,15.04-9.73,7.01-14.862m-17.56,44.61a8.39,8.39,0,0,0-5.32-10.393c-4.81-1.726-9.6-3.7-14.57-4.907-4.46-1.076-9.71.843-11.04,5.642a8.95,8.95,0,0,0,5.64,11.036c4.82,1.737,9.92,2.721,14.89,3.933,4.33,1.057,8.95-.851,10.4-5.311m12.43,39.057c-3.3-2.49-7.67-4-11.32-6a122.393,122.393,0,0,1-10.86-6.711c-6.72-4.651-15.41,5.3-9.35,11.118a134.62,134.62,0,0,0,11.21,9.649c3.87,2.958,8.2,6.253,12.9,7.663,9.84,2.961,15.25-9.832,7.42-15.721M2765,937.551c-6.71-4.009-13.65-7.358-20.08-11.869-3.85-2.7-9.57-1.2-12.03,2.64-2.68,4.186-1.15,9.215,2.64,12.026,6.78,5.017,14.13,9.951,22.08,12.872,9.28,3.407,15.93-10.566,7.39-15.669m5.42-32.974c-6.12-3.594-12.48-6.145-18.21-10.463-3.4-2.568-8.73-1-10.91,2.394-2.48,3.885-.96,8.255,2.4,10.909,6,4.727,12.29,9.739,19.48,12.5,9.03,3.484,15.62-10.427,7.24-15.345m26.4-21.211c-6.5-3.836-13.35-6.811-19.65-11.031-6.78-4.551-15.89,5.582-9.46,11.257,6.63,5.857,13.67,11.6,21.94,14.96,8.91,3.616,15.4-10.322,7.17-15.186m-0.15-22.394c3.58-4.262,2.08-9.475-1.9-12.756a263.844,263.844,0,0,0-21.61-16.011c-8.33-5.53-15.95,6.96-8.26,12.9a241.394,241.394,0,0,1,18.87,16.189c3.73,3.543,9.4,3.827,12.9-.322m21.58,77.916a117.046,117.046,0,0,0-9.19-8.253c-3.31-2.916-6.59-6.194-10.3-8.584-8.31-5.343-18.71,6.273-11.38,13.532,3.16,3.131,6.97,5.666,10.55,8.284a122.214,122.214,0,0,0,10.08,7.19c7.69,4.453,16.58-5.277,10.24-12.169m20.21-19.028a118.724,118.724,0,0,0-9.18-8.253c-3.31-2.916-6.59-6.194-10.3-8.583-8.32-5.344-18.72,6.273-11.38,13.531,3.16,3.132,6.97,5.666,10.55,8.284a121.977,121.977,0,0,0,10.08,7.19c7.68,4.453,16.58-5.277,10.23-12.169m-31.14,60.863c2.49-3.9.99-8.338-2.41-10.989-5.79-4.516-10.98-9.983-17.1-14.045a8.9,8.9,0,0,0-11.57,1.819c-2.52,3.085-3.25,8.807.19,11.714,6.19,5.237,13.34,9.168,19.9,13.913,3.48,2.518,8.77,1.058,10.99-2.412m-44.47,13.624c2.02-4.273.4-8.657-3.23-11.437a54.4,54.4,0,0,0-7.72-4.488c-2.97-1.585-5.88-3.522-9.06-4.645-7.98-2.806-15.3,8-9.07,14.115a51.734,51.734,0,0,0,8.67,6.234,47.969,47.969,0,0,0,9.53,4.992,9.02,9.02,0,0,0,10.88-4.771m29.4,32.193c1.94-4.13.3-7.98-2.98-10.77-0.48-.39-1.62-1.33-1.79-1.44-0.59-.41-1.21-0.77-1.82-1.16-1.2-.77-2.39-1.58-3.59-2.37a54.413,54.413,0,0,0-8.37-5.13c-3.18-1.39-7.76.47-9.46,3.39a8.645,8.645,0,0,0,.86,9.99c1.96,2.56,5.34,4.74,7.94,6.66a49.42,49.42,0,0,0,8.87,5.37c3.87,1.77,8.7-1.06,10.34-4.54m-3.08-10.87,0.1,0.1c0.27,0.22.34,0.27-.1-0.1m-16.07,44.07a8.777,8.777,0,0,0-2.61-11.9,199.157,199.157,0,0,0-16.78-11.29,9.244,9.244,0,0,0-9.97,15.57,196.642,196.642,0,0,0,17.46,10.23c4.08,2.23,9.28,1.5,11.9-2.61m-16.53,40.71c2.57-4.03.97-8.48-2.47-11.24-6.06-4.87-11.52-10.35-17.33-15.51-3.65-3.25-8.93-4.11-12.81-.56-3.48,3.18-4.06,9.35-.56,12.8,6.56,6.48,14.25,11.91,21.93,16.98a8.274,8.274,0,0,0,11.24-2.47m-32.39-82.03a8.587,8.587,0,0,0-2.55-11.61c-4.74-3.34-9.38-7.023-14.38-9.965-3.82-2.254-9.37-1.493-11.73,2.574-2.5,4.3-1.16,8.781,2.58,11.741,4.55,3.59,9.64,6.59,14.47,9.81,3.66,2.44,9.36,1.33,11.61-2.55m-13.57,34.39c1.21-3.74-.48-7.29-3.44-9.59-2.69-2.1-6.13-3.48-9.17-5.03-3.37-1.71-6.81-4.04-10.45-5.05a9.1,9.1,0,0,0-10.89,4.77c-1.96,4.34-.42,8.59,3.24,11.44,3.06,2.39,7.42,3.78,10.98,5.36a50.139,50.139,0,0,0,11.32,3.87c3.58,0.66,7.38-2.56,8.41-5.77m-36.94,35.55c8.88,4.1,16.2-11.16,7.37-15.61m0,0c-8.95-4.52-17.81-9.34-27.06-13.21-9.22-3.85-16.31,11.04-7.5,15.89,8.78,4.83,18.09,8.73,27.19,12.93m13.82-116.178c1.46-4.526-1.18-8.737-5.34-10.432-6.79-2.769-13.27-6.209-19.99-9.148-9.07-3.965-16.31,11.156-7.44,15.777,7.19,3.75,14.71,6.4,22.33,9.136a8.4,8.4,0,0,0,10.44-5.333" transform="translate(-39 -44.219)"/>
</svg>
