<?xml version="1.0" encoding="UTF-8" standalone="no"?><!DOCTYPE svg PUBLIC "-//W3C//DTD SVG 1.1//EN" "http://www.w3.org/Graphics/SVG/1.1/DTD/svg11.dtd"><svg width="100%" height="100%" viewBox="0 0 4441 1224" version="1.1" xmlns="http://www.w3.org/2000/svg" xmlns:xlink="http://www.w3.org/1999/xlink" xml:space="preserve" style="fill-rule:evenodd;clip-rule:evenodd;stroke-linecap:round;stroke-linejoin:round;stroke-miterlimit:1.5;"><rect id="Artboard1" x="0" y="0" width="4440.56" height="1223.79" style="fill:none;"/><clipPath id="_clip1"><rect x="0" y="0" width="4440.56" height="1223.79"/></clipPath><g clip-path="url(#_clip1)"><path d="M-45.848,541.087c0,0 361.18,60.431 545.283,-157.401c184.104,-217.832 182.698,-393.503 379.45,-434.259c196.752,-40.756 -909.274,-53.404 -909.274,-53.404l-15.459,645.064Z" style="fill:none;stroke:#20242b;stroke-width:6.6px;"/><path d="M79.23,1262.04c0,0 116.645,-63.242 281.074,-155.996c164.428,-92.754 333.072,-35.134 413.178,74.484c80.106,109.619 71.674,207.995 84.322,212.211c12.649,4.216 -785.601,-28.107 -778.574,-130.699Z" style="fill:none;stroke:#20242b;stroke-width:6.6px;"/><path d="M1840.16,465.198c0,0 174.266,-108.214 307.776,-74.485c133.511,33.729 203.779,109.619 222.049,241.724c18.269,132.104 -181.293,140.536 -247.345,51.998c-66.053,-88.538 -473.61,-115.24 -282.48,-219.237Z" style="fill:none;stroke:#20242b;stroke-width:6.6px;"/><path d="M2762.08,-91.329c0,0 206.589,-8.432 255.777,248.751c49.188,257.182 66.053,303.559 261.399,383.665c195.346,80.107 361.18,49.188 489.068,2.811c127.889,-46.377 351.343,9.838 354.154,177.077c2.81,167.239 -81.512,157.401 129.293,224.859c210.806,67.458 109.619,276.858 44.972,417.395c-64.647,140.536 146.158,219.237 326.046,92.754c179.887,-126.483 479.231,-1091.97 133.51,-1406.78c-345.721,-314.802 -1984.38,-146.158 -1994.22,-140.537" style="fill:none;stroke:#20242b;stroke-width:6.6px;"/><path d="M1495.84,348.552c-24.966,1.664 -87.133,19.675 -78.7,96.97c8.432,77.296 88.538,98.376 129.293,56.215c40.756,-42.161 -59.025,-32.323 -30.918,-82.917c28.108,-50.593 22.486,-73.079 -19.675,-70.268Z" style="fill:none;stroke:#20242b;stroke-width:6.6px;"/></g></svg>