<?xml version="1.0" encoding="UTF-8" standalone="no"?><!DOCTYPE svg PUBLIC "-//W3C//DTD SVG 1.1//EN" "http://www.w3.org/Graphics/SVG/1.1/DTD/svg11.dtd"><svg width="100%" height="100%" viewBox="0 0 24 24" version="1.1" xmlns="http://www.w3.org/2000/svg" xmlns:xlink="http://www.w3.org/1999/xlink" xml:space="preserve" style="fill-rule:evenodd;clip-rule:evenodd;stroke-linejoin:round;stroke-miterlimit:1.41421;"><path d="M12,22c1.1,0 2,-0.9 2,-2l-4,0c0,1.1 0.89,2 2,2Zm6,-6l0,-5c0,-3.07 -1.64,-5.64 -4.5,-6.32l0,-0.68c0,-0.83 -0.67,-1.5 -1.5,-1.5c-0.83,0 -1.5,0.67 -1.5,1.5l0,0.68c-2.87,0.68 -4.5,3.24 -4.5,6.32l0,5l-2,2l0,1l16,0l0,-1l-2,-2Z" style="fill:#fff;fill-rule:nonzero;"/></svg>