<?xml version="1.0" encoding="UTF-8" standalone="no"?><!DOCTYPE svg PUBLIC "-//W3C//DTD SVG 1.1//EN" "http://www.w3.org/Graphics/SVG/1.1/DTD/svg11.dtd"><svg width="100%" height="100%" viewBox="0 0 4411 2500" version="1.1" xmlns="http://www.w3.org/2000/svg" xmlns:xlink="http://www.w3.org/1999/xlink" xml:space="preserve" style="fill-rule:evenodd;clip-rule:evenodd;stroke-linecap:round;stroke-linejoin:round;stroke-miterlimit:1.5;"><g><path d="M1480.18,3.515c0,0 146.128,66.68 97.892,361.774c-48.237,295.093 -448.315,417.103 -639.843,496.551c-191.527,79.449 -219.901,183.015 -198.62,305.025c21.281,122.01 219.901,448.315 -242.601,492.296c-462.503,43.98 -417.104,-245.439 -480.946,-334.818c-63.842,-89.379 146.128,-1272.59 146.128,-1272.59l1317.99,-48.237Z" style="fill:none;stroke:#20242b;stroke-width:6.64px;"/><path d="M990.722,2368.52c0,0 337.655,-634.167 671.054,-634.167c333.399,0 361.773,280.906 682.404,207.133c320.631,-73.774 574.581,251.113 615.724,468.177c41.143,217.064 -1969.18,-41.143 -1969.18,-41.143Z" style="fill:none;stroke:#20242b;stroke-width:6.64px;"/><path d="M2207.98,528.441c-194.365,8.513 -236.926,137.616 -99.31,300.769c137.615,163.153 236.926,-61.005 340.492,106.404c103.567,167.409 191.528,-100.729 154.641,-204.296c-36.887,-103.566 -201.458,-211.389 -395.823,-202.877Z" style="fill:none;stroke:#20242b;stroke-width:6.64px;"/><path d="M3676.36,77.289c0,0 -502.226,102.147 -309.28,524.926c192.946,422.778 692.335,645.517 903.724,682.404c211.389,36.887 113.497,-1164.77 113.497,-1164.77l-707.941,-42.561Z" style="fill:none;stroke:#20242b;stroke-width:6.64px;"/><path d="M3889.16,1269.01c0,0 -49.655,-38.305 -124.847,-15.606c-75.192,22.699 56.749,144.709 197.202,160.315c140.453,15.606 -8.512,-75.192 -72.355,-144.709Z" style="fill:none;stroke:#20242b;stroke-width:6.64px;"/></g></svg>