<svg id="Group_7_copy_2" data-name="Group 7 copy 2" xmlns="http://www.w3.org/2000/svg" xmlns:xlink="http://www.w3.org/1999/xlink" width="480.906" height="99.5" viewBox="0 0 480.906 99.5">
  <metadata><?xpacket begin="﻿" id="W5M0MpCehiHzreSzNTczkc9d"?>
<x:xmpmeta xmlns:x="adobe:ns:meta/" x:xmptk="Adobe XMP Core 5.6-c138 79.159824, 2016/09/14-01:09:01        ">
   <rdf:RDF xmlns:rdf="http://www.w3.org/1999/02/22-rdf-syntax-ns#">
      <rdf:Description rdf:about=""/>
   </rdf:RDF>
</x:xmpmeta>
                                                                                                    
                                                                                                    
                                                                                                    
                                                                                                    
                                                                                                    
                                                                                                    
                                                                                                    
                                                                                                    
                                                                                                    
                                                                                                    
                                                                                                    
                                                                                                    
                                                                                                    
                                                                                                    
                                                                                                    
                                                                                                    
                                                                                                    
                                                                                                    
                                                                                                    
                                                                                                    
                           
<?xpacket end="w"?></metadata>
<defs>
    <style>
      .cls-1, .cls-2 {
        fill-rule: evenodd;
      }

      .cls-1 {
        fill: url(#linear-gradient);
      }

      .cls-2 {
        fill: #fff;
      }
    </style>
    <linearGradient id="linear-gradient" x1="284.286" y1="438" x2="233.589" y2="338.5" gradientUnits="userSpaceOnUse">
      <stop offset="0" stop-color="#2ca490"/>
      <stop offset="1" stop-color="#4bf257"/>
    </linearGradient>
  </defs>
  <g id="Group_9_copy" data-name="Group 9 copy">
    <path id="Forma_1_copy" data-name="Forma 1 copy" class="cls-1" d="M254.643,339.722l-35.289,20.054a9.178,9.178,0,0,0-4.646,7.92l-0.254,40.547A9.18,9.18,0,0,0,219,416.221l35.035,20.493a9.206,9.206,0,0,0,9.193.057l35.292-20.052a9.182,9.182,0,0,0,4.647-7.921l0.253-40.546a9.176,9.176,0,0,0-4.546-7.978l-35.038-20.5A9.21,9.21,0,0,0,254.643,339.722Z" transform="translate(-214.469 -338.5)"/>
    <g>
      <path class="cls-2" d="M279.413,400.4s0.169-19.2.213-23.725c0.02-2.007-1.295-3.077-3.743-4.686-3.992-2.472-8.951-5.457-19.866-12.13a2.924,2.924,0,0,0-2.818-.075" transform="translate(-214.469 -338.5)"/>
      <path id="Rectangle_1_copy_2" data-name="Rectangle 1 copy 2" class="cls-2" d="M246.87,388.3s11.978-6.293,11.664-6.389c-8.7-2.659-20.462-3.776-20.462-3.776l3.716,5.912Z" transform="translate(-214.469 -338.5)"/>
      <path id="Rectangle_1_copy_3" data-name="Rectangle 1 copy 3" class="cls-2" d="M270.628,390.215s-11.978,6.293-11.665,6.389c8.706,2.659,20.463,3.775,20.463,3.775l-3.716-5.911Z" transform="translate(-214.469 -338.5)"/>
      <path id="Shape_1_copy_8" data-name="Shape 1 copy 8" class="cls-2" d="M238.085,378.115s-0.169,19.2-.214,23.725c-0.02,2.007,1.3,3.076,3.743,4.685,3.992,2.473,8.951,5.458,19.867,12.131a2.922,2.922,0,0,0,2.817.075" transform="translate(-214.469 -338.5)"/>
    </g>
  </g>
  <path id="NEXUS-STATS" class="cls-2" d="M331.44,408V373h0.625l10.625,35h14.187V365.5h-8.625v35h-0.625l-10.25-35H322.815V408h8.625Zm62.187,0v-7.5H374.752V390.313h15.125v-7.375H374.752V373h18.875v-7.5h-27.5V408h27.5Zm3.061-42.5,12.25,22.125L396.688,408h8.938l8.062-14.687L421.563,408h9.563l-12.25-20.812,12.25-21.688h-8.938l-8.062,15.625L406.251,365.5h-9.563Zm47.874,0h-8.625v28.125q0,7.813,4.032,11.469t12.156,3.656q8.124,0,12.156-3.656t4.031-11.469V365.5h-8.625v28.313q0,7.438-7.562,7.437t-7.563-7.437V365.5Zm58.125,7.75,0.687-6.812-2.25-.438a70.634,70.634,0,0,0-11.75-1.25q-6.75,0-10.625,3.125t-3.875,9.5a10.425,10.425,0,0,0,2.969,7.906q2.967,2.845,10.219,4.907a21.676,21.676,0,0,1,6.093,2.437,3.66,3.66,0,0,1,1.532,3.125q0,5.5-6.625,5.5a104.04,104.04,0,0,1-12.813-1.125l-0.875,6.688,2.25,0.437a59.126,59.126,0,0,0,11.938,1.5q6.563,0,10.625-3.437t4.062-10.125q0-5.25-2.5-7.782t-8.719-4.531a43.758,43.758,0,0,1-7.906-3.062,3.407,3.407,0,0,1-1.687-3.063q0-4.5,6.812-4.5,3.624,0,12.438,1h0Zm25.874,21.938v-7.625h-18.5v7.625h18.5Zm32.5-21.938,0.687-6.812L559.5,366a70.634,70.634,0,0,0-11.75-1.25q-6.75,0-10.625,3.125t-3.875,9.5a10.429,10.429,0,0,0,2.969,7.906q2.969,2.845,10.219,4.907a21.7,21.7,0,0,1,6.094,2.437,3.662,3.662,0,0,1,1.531,3.125q0,5.5-6.625,5.5a104.04,104.04,0,0,1-12.813-1.125l-0.875,6.688L536,407.25a59.126,59.126,0,0,0,11.938,1.5q6.563,0,10.625-3.437t4.062-10.125q0-5.25-2.5-7.782t-8.718-4.531a43.747,43.747,0,0,1-7.907-3.062,3.407,3.407,0,0,1-1.687-3.063q0-4.5,6.812-4.5,3.624,0,12.438,1h0Zm16.062-.125V408h8.625V373.125H597V365.5h-31.25v7.625h11.375ZM605.185,408l1.688-7.687h14.875L623.435,408h8.625L622.5,365.5H606.123L596.56,408h8.625Zm10.625-35.375,4.313,20.188H608.5l4.312-20.188h3Zm27.188,0.5V408h8.625V373.125h11.25V365.5h-31.25v7.625H643Zm50.811,0.125,0.688-6.812-2.25-.438a70.634,70.634,0,0,0-11.75-1.25q-6.75,0-10.625,3.125t-3.875,9.5a10.425,10.425,0,0,0,2.969,7.906q2.967,2.845,10.218,4.907a21.686,21.686,0,0,1,6.094,2.437,3.659,3.659,0,0,1,1.531,3.125q0,5.5-6.625,5.5a104.027,104.027,0,0,1-12.812-1.125l-0.875,6.688,2.25,0.437a59.118,59.118,0,0,0,11.937,1.5q6.563,0,10.625-3.437t4.063-10.125q0-5.25-2.5-7.782t-8.719-4.531a43.758,43.758,0,0,1-7.906-3.062,3.408,3.408,0,0,1-1.688-3.063q0-4.5,6.813-4.5,3.624,0,12.437,1h0Z" transform="translate(-214.469 -338.5)"/>
</svg>
