<svg id="merged_copy" data-name="merged copy" xmlns="http://www.w3.org/2000/svg" xmlns:xlink="http://www.w3.org/1999/xlink" width="227.589" height="51.281" viewBox="0 0 1101.06 248.094">
  <metadata><?xpacket begin="﻿" id="W5M0MpCehiHzreSzNTczkc9d"?>
<x:xmpmeta xmlns:x="adobe:ns:meta/" x:xmptk="Adobe XMP Core 5.6-c138 79.159824, 2016/09/14-01:09:01        ">
   <rdf:RDF xmlns:rdf="http://www.w3.org/1999/02/22-rdf-syntax-ns#">
      <rdf:Description rdf:about=""/>
   </rdf:RDF>
</x:xmpmeta>
                                                                                                    
                                                                                                    
                                                                                                    
                                                                                                    
                                                                                                    
                                                                                                    
                                                                                                    
                                                                                                    
                                                                                                    
                                                                                                    
                                                                                                    
                                                                                                    
                                                                                                    
                                                                                                    
                                                                                                    
                                                                                                    
                                                                                                    
                                                                                                    
                                                                                                    
                                                                                                    
                           
<?xpacket end="w"?></metadata>
<defs>
    <style>
      .cls-1, .cls-2 {
        fill-rule: evenodd;
      }

      .cls-1 {
        fill: url(#linear-gradient);
      }

      .cls-2 {
        fill: #fff;
      }
    </style>
    <linearGradient id="linear-gradient" x1="1273.875" y1="884.063" x2="1147.465" y2="635.969" gradientUnits="userSpaceOnUse">
      <stop offset="0" stop-color="#2ca490"/>
      <stop offset="1" stop-color="#4bf257"/>
    </linearGradient>
  </defs>
  <path id="Forma_1_copy" data-name="Forma 1 copy" class="cls-1" d="M1199.2,639.016l-87.73,50.578a22.894,22.894,0,0,0-11.47,19.83V810.575a22.9,22.9,0,0,0,11.47,19.831l87.73,50.575a22.983,22.983,0,0,0,22.94,0l87.73-50.575a22.9,22.9,0,0,0,11.47-19.831V709.425a22.894,22.894,0,0,0-11.47-19.831l-87.73-50.578A22.983,22.983,0,0,0,1199.2,639.016Z" transform="translate(-1100 -635.969)"/>
  <path id="Shape_1_copy_8" data-name="Shape 1 copy 8" class="cls-2" d="M1261.95,789.983s0.12-47.9.16-59.186c0.01-5.007-3.28-7.655-9.42-11.63-9.99-6.107-22.41-13.476-49.75-29.95a7.3,7.3,0,0,0-7.03-.145m-14.07,72.293s31.06-16.564,30.24-16.809c-22.69-6.776-53.64-9.488-53.64-9.488l10.03,15.317Zm56.79,2.239s-31.06,16.564-30.24,16.809c22.69,6.776,53.55,9.488,53.55,9.488l-10.02-15.317Zm-80.15-28.553s-0.12,47.9-.16,59.186c-0.01,5.007,3.28,7.655,9.42,11.63,9.99,6.107,22.41,13.475,49.75,29.95a7.3,7.3,0,0,0,7.03.145" transform="translate(-1100 -635.969)"/>
  <path id="NEXUS-STATS" class="cls-2" d="M1369.72,808.819h23.72V771.31l-3.05-18.158,0.67-.133,8.21,18.821,21.21,36.979h23.99V714.98h-23.59v42.545c0.13,0,2.52,16.17,2.65,16.17l-0.67.133-7.95-18.821-22.66-40.027h-22.53v93.839Zm113.58-71.572h41.36V714.98h-65.35v93.839h65.35v-22.4H1483.3V772.37h38.04V751.826H1483.3V737.247Zm89.86,9.808-16.03-32.075h-27.7l26.37,47.052-26.37,46.787h27.7l16.03-31.943,16.44,31.943h27.57l-26.25-46.787,26.25-47.052H1589.6Zm74.49-32.075h-23.99v62.427c-0.13,44,74.75,44,74.89,0V714.98h-23.99v62.427c-0.14,15.109-26.91,15.109-26.91,0V714.98Zm60.44,78.2c8.74,11.266,20.67,16.965,31.94,16.965,17.23,0,36.32-9.94,37.11-28.1,1.06-23.063-15.64-28.894-32.34-31.943-7.29-1.59-12.19-4.241-12.46-8.748,0.4-10.868,17.23-11.266,27.04-.8l15.51-11.929c-9.68-11.8-20.68-14.977-32.08-14.977-17.23,0-33.93,9.676-33.93,28.1,0,17.893,13.79,27.436,28.9,29.822,7.68,1.06,16.3,4.109,16.03,9.41-0.66,10.073-21.34,9.543-30.75-1.855Zm119.28-34.063h-41.35v22.532h41.35V759.116Zm9.01,34.063c8.75,11.266,20.68,16.965,31.95,16.965,17.23,0,36.31-9.94,37.11-28.1,1.06-23.063-15.64-28.894-32.34-31.943-7.29-1.59-12.2-4.241-12.46-8.748,0.4-10.868,17.23-11.266,27.04-.8l15.5-11.929c-9.67-11.8-20.67-14.977-32.07-14.977-17.23,0-33.93,9.676-33.93,28.1,0,17.893,13.78,27.436,28.89,29.822,7.69,1.06,16.31,4.109,16.04,9.41-0.66,10.073-21.34,9.543-30.75-1.855Zm147.52-55.8V714.847h-73.83v22.532h24.92v71.44h23.99v-71.44h24.92Zm45.33-22.4h-21.61l-32.73,93.839h25.45L2006.17,790h25.05l6.09,18.821h25.45Zm-17.76,53.944,6.89-27.436h0.66l6.5,27.436h-14.05Zm115.71-31.545V714.847h-73.83v22.532h24.92v71.44h23.99v-71.44h24.92Zm4.77,55.8c8.74,11.266,20.67,16.965,31.94,16.965,17.23,0,36.32-9.94,37.11-28.1,1.06-23.063-15.64-28.894-32.34-31.943-7.29-1.59-12.19-4.241-12.46-8.748,0.4-10.868,17.23-11.266,27.04-.8l15.51-11.929c-9.68-11.8-20.68-14.977-32.08-14.977-17.23,0-33.93,9.676-33.93,28.1,0,17.893,13.79,27.436,28.9,29.822,7.68,1.06,16.3,4.109,16.03,9.41-0.66,10.073-21.34,9.543-30.75-1.855Z" transform="translate(-1100 -635.969)"/>
</svg>
