<svg id="Group_7_copy_2" data-name="Group 7 copy 2" xmlns="http://www.w3.org/2000/svg" xmlns:xlink="http://www.w3.org/1999/xlink" width="424.531" height="99.5" viewBox="0 0 424.531 99.5">
  <metadata><?xpacket begin="﻿" id="W5M0MpCehiHzreSzNTczkc9d"?>
<x:xmpmeta xmlns:x="adobe:ns:meta/" x:xmptk="Adobe XMP Core 5.6-c138 79.159824, 2016/09/14-01:09:01        ">
   <rdf:RDF xmlns:rdf="http://www.w3.org/1999/02/22-rdf-syntax-ns#">
      <rdf:Description rdf:about=""/>
   </rdf:RDF>
</x:xmpmeta>
                                                                                                    
                                                                                                    
                                                                                                    
                                                                                                    
                                                                                                    
                                                                                                    
                                                                                                    
                                                                                                    
                                                                                                    
                                                                                                    
                                                                                                    
                                                                                                    
                                                                                                    
                                                                                                    
                                                                                                    
                                                                                                    
                                                                                                    
                                                                                                    
                                                                                                    
                                                                                                    
                           
<?xpacket end="w"?></metadata>
<defs>
    <style>
      .cls-1, .cls-2 {
        fill-rule: evenodd;
      }

      .cls-1 {
        fill: url(#linear-gradient);
      }

      .cls-2 {
        fill: #fff;
      }
    </style>
    <linearGradient id="linear-gradient" x1="284.286" y1="438" x2="233.589" y2="338.5" gradientUnits="userSpaceOnUse">
      <stop offset="0" stop-color="#2ca490"/>
      <stop offset="1" stop-color="#4bf257"/>
    </linearGradient>
  </defs>
  <g id="Group_9_copy" data-name="Group 9 copy">
    <path id="Forma_1_copy" data-name="Forma 1 copy" class="cls-1" d="M254.643,339.722l-35.289,20.054a9.178,9.178,0,0,0-4.646,7.92l-0.254,40.547A9.18,9.18,0,0,0,219,416.221l35.035,20.493a9.206,9.206,0,0,0,9.193.057l35.292-20.052a9.182,9.182,0,0,0,4.647-7.921l0.253-40.546a9.176,9.176,0,0,0-4.546-7.978l-35.038-20.5A9.21,9.21,0,0,0,254.643,339.722Z" transform="translate(-214.469 -338.5)"/>
    <g>
      <path class="cls-2" d="M279.413,400.4s0.169-19.2.213-23.725c0.02-2.007-1.295-3.077-3.743-4.686-3.992-2.472-8.951-5.457-19.866-12.13a2.924,2.924,0,0,0-2.818-.075" transform="translate(-214.469 -338.5)"/>
      <path id="Rectangle_1_copy_2" data-name="Rectangle 1 copy 2" class="cls-2" d="M246.87,388.3s11.978-6.293,11.664-6.389c-8.7-2.659-20.462-3.776-20.462-3.776l3.716,5.912Z" transform="translate(-214.469 -338.5)"/>
      <path id="Rectangle_1_copy_3" data-name="Rectangle 1 copy 3" class="cls-2" d="M270.628,390.215s-11.978,6.293-11.665,6.389c8.706,2.659,20.463,3.775,20.463,3.775l-3.716-5.911Z" transform="translate(-214.469 -338.5)"/>
      <path id="Shape_1_copy_8" data-name="Shape 1 copy 8" class="cls-2" d="M238.085,378.115s-0.169,19.2-.214,23.725c-0.02,2.007,1.3,3.076,3.743,4.685,3.992,2.473,8.951,5.458,19.867,12.131a2.922,2.922,0,0,0,2.817.075" transform="translate(-214.469 -338.5)"/>
    </g>
  </g>
  <path id="NEXUS-STATS" class="cls-2" d="M330.317,408.524V378.838h0.53l9.012,29.686h12.034V372.476h-7.316v29.686h-0.53l-8.694-29.686H323v36.048h7.315Zm52.746,0v-6.362H367.054v-8.64h12.828v-6.256H367.054v-8.428h16.009v-6.362H359.738v36.048h23.325Zm2.6-36.048,10.39,18.766-10.39,17.282h7.58l6.839-12.458,6.679,12.458h8.111l-10.39-17.653,10.39-18.395h-7.581l-6.838,13.253-6.679-13.253H385.66Zm40.606,0H418.95v23.855q0,6.627,3.419,9.728t10.311,3.1q6.891,0,10.311-3.1t3.419-9.728V372.476h-7.316V396.49q0,6.309-6.414,6.308t-6.414-6.308V372.476Zm49.3,6.574,0.583-5.779-1.909-.371a59.963,59.963,0,0,0-9.966-1.06q-5.726,0-9.012,2.65t-3.287,8.058a8.849,8.849,0,0,0,2.518,6.706q2.519,2.413,8.668,4.162a18.359,18.359,0,0,1,5.168,2.067,3.1,3.1,0,0,1,1.3,2.651q0,4.665-5.619,4.664a88.243,88.243,0,0,1-10.867-.954l-0.742,5.673,1.908,0.37a50.16,50.16,0,0,0,10.125,1.273,13.476,13.476,0,0,0,9.012-2.916q3.446-2.915,3.446-8.588,0-4.452-2.121-6.6t-7.395-3.843a37.115,37.115,0,0,1-6.706-2.6,2.892,2.892,0,0,1-1.431-2.6q0-3.817,5.778-3.817,3.075,0,10.55.849h0Zm21.946,18.606v-6.467H481.82v6.467h15.692Zm27.565-18.606,0.584-5.779-1.909-.371a59.963,59.963,0,0,0-9.966-1.06q-5.725,0-9.012,2.65t-3.287,8.058a8.845,8.845,0,0,0,2.518,6.706q2.519,2.413,8.668,4.162a18.359,18.359,0,0,1,5.168,2.067,3.1,3.1,0,0,1,1.3,2.651q0,4.665-5.619,4.664a88.243,88.243,0,0,1-10.867-.954l-0.743,5.673,1.909,0.37a50.16,50.16,0,0,0,10.125,1.273,13.476,13.476,0,0,0,9.012-2.916q3.446-2.915,3.446-8.588,0-4.452-2.121-6.6t-7.4-3.843a37.115,37.115,0,0,1-6.706-2.6,2.892,2.892,0,0,1-1.431-2.6q0-3.817,5.778-3.817,3.073,0,10.549.849h0Zm13.624-.106v29.58h7.315v-29.58h9.542v-6.468h-26.5v6.468H538.7Zm23.8,29.58L563.934,402h12.617l1.431,6.521H585.3l-8.11-36.048H563.3l-8.111,36.048H562.5Zm9.012-30,3.657,17.123h-9.86l3.658-17.123h2.545Zm23.06,0.425v29.58h7.315v-29.58h9.542v-6.468h-26.5v6.468h9.648Zm43.1,0.106,0.583-5.779-1.908-.371a59.974,59.974,0,0,0-9.966-1.06q-5.726,0-9.013,2.65t-3.286,8.058a8.845,8.845,0,0,0,2.518,6.706q2.517,2.413,8.667,4.162a18.369,18.369,0,0,1,5.169,2.067,3.106,3.106,0,0,1,1.3,2.651q0,4.665-5.619,4.664a88.275,88.275,0,0,1-10.867-.954l-0.742,5.673,1.908,0.37a50.177,50.177,0,0,0,10.125,1.273,13.474,13.474,0,0,0,9.012-2.916Q639,403.329,639,397.656q0-4.452-2.12-6.6t-7.395-3.843a37.082,37.082,0,0,1-6.706-2.6,2.893,2.893,0,0,1-1.432-2.6q0-3.817,5.779-3.817,3.073,0,10.549.849h0Z" transform="translate(-214.469 -338.5)"/>
</svg>
