<svg xmlns="http://www.w3.org/2000/svg" xmlns:xlink="http://www.w3.org/1999/xlink" width="596.63" height="668.846" viewBox="0 0 596.63 668.846">
  <metadata><?xpacket begin="﻿" id="W5M0MpCehiHzreSzNTczkc9d"?>
<x:xmpmeta xmlns:x="adobe:ns:meta/" x:xmptk="Adobe XMP Core 5.6-c138 79.159824, 2016/09/14-01:09:01        ">
   <rdf:RDF xmlns:rdf="http://www.w3.org/1999/02/22-rdf-syntax-ns#">
      <rdf:Description rdf:about=""/>
   </rdf:RDF>
</x:xmpmeta>
                                                                                                    
                                                                                                    
                                                                                                    
                                                                                                    
                                                                                                    
                                                                                                    
                                                                                                    
                                                                                                    
                                                                                                    
                                                                                                    
                                                                                                    
                                                                                                    
                                                                                                    
                                                                                                    
                                                                                                    
                                                                                                    
                                                                                                    
                                                                                                    
                                                                                                    
                                                                                                    
                           
<?xpacket end="w"?></metadata>
<defs>
    <style>
      .cls-1, .cls-2 {
        fill-rule: evenodd;
      }

      .cls-1 {
        fill: url(#linear-gradient);
      }

      .cls-2 {
        fill: #fff;
      }
    </style>
    <linearGradient id="linear-gradient" x1="2344.712" y1="1006.94" x2="2003.918" y2="338.094" gradientUnits="userSpaceOnUse">
      <stop offset="0" stop-color="#2ca490"/>
      <stop offset="1" stop-color="#4bf257"/>
    </linearGradient>
  </defs>
  <path id="Forma_1_copy" data-name="Forma 1 copy" class="cls-1" d="M2143.39,346.343L1906.91,482.7a61.71,61.71,0,0,0-30.91,53.46V808.847a61.723,61.723,0,0,0,30.91,53.461l236.48,136.344a61.912,61.912,0,0,0,61.83,0l236.5-136.344a61.723,61.723,0,0,0,30.91-53.461V536.157a61.708,61.708,0,0,0-30.91-53.461l-236.5-136.353A61.936,61.936,0,0,0,2143.39,346.343Z" transform="translate(-1876 -338.094)"/>
  <g>
    <path class="cls-2" d="M2312.53,753.333s0.32-129.148.43-159.561c0.05-13.5-8.84-20.636-25.37-31.352-26.95-16.463-60.42-36.328-134.11-80.741-10.87-5.558-18.96-.39-18.96-0.39" transform="translate(-1876 -338.094)"/>
    <path id="Rectangle_1_copy_2" data-name="Rectangle 1 copy 2" class="cls-2" d="M2093.16,673.329s80.29-42.822,78.17-43.454c-58.65-17.518-137.77-24.531-137.77-24.531l25.24,39.6Z" transform="translate(-1876 -338.094)"/>
    <path id="Rectangle_1_copy_3" data-name="Rectangle 1 copy 3" class="cls-2" d="M2253.02,685.244s-80.3,42.823-78.18,43.455c58.66,17.518,137.77,24.531,137.77,24.531l-25.24-39.6Z" transform="translate(-1876 -338.094)"/>
    <path id="Shape_1_copy_8" data-name="Shape 1 copy 8" class="cls-2" d="M2033.65,605.241s-0.33,129.148-.44,159.56c-0.05,13.5,8.85,20.637,25.37,31.353,26.95,16.462,60.43,36.327,134.12,80.741,10.87,5.557,18.95.39,18.95,0.39" transform="translate(-1876 -338.094)"/>
  </g>
</svg>
