<svg id="merged" xmlns="http://www.w3.org/2000/svg" xmlns:xlink="http://www.w3.org/1999/xlink" width="535.153" height="599.843" viewBox="0 0 2589.03 2902">
  <metadata><?xpacket begin="﻿" id="W5M0MpCehiHzreSzNTczkc9d"?>
<x:xmpmeta xmlns:x="adobe:ns:meta/" x:xmptk="Adobe XMP Core 5.6-c138 79.159824, 2016/09/14-01:09:01        ">
   <rdf:RDF xmlns:rdf="http://www.w3.org/1999/02/22-rdf-syntax-ns#">
      <rdf:Description rdf:about=""/>
   </rdf:RDF>
</x:xmpmeta>
                                                                                                    
                                                                                                    
                                                                                                    
                                                                                                    
                                                                                                    
                                                                                                    
                                                                                                    
                                                                                                    
                                                                                                    
                                                                                                    
                                                                                                    
                                                                                                    
                                                                                                    
                                                                                                    
                                                                                                    
                                                                                                    
                                                                                                    
                                                                                                    
                                                                                                    
                                                                                                    
                           
<?xpacket end="w"?></metadata>
<defs>
    <style>
      .cls-1, .cls-2 {
        fill-rule: evenodd;
      }

      .cls-1 {
        fill: url(#linear-gradient);
      }

      .cls-2 {
        fill: #fff;
      }
    </style>
    <linearGradient id="linear-gradient" x1="3502.836" y1="7522.94" x2="2024.194" y2="4620.94" gradientUnits="userSpaceOnUse">
      <stop offset="0" stop-color="#2ca490"/>
      <stop offset="1" stop-color="#4bf257"/>
    </linearGradient>
  </defs>
  <path id="Forma_1_copy" data-name="Forma 1 copy" class="cls-1" d="M2629.31,4656.79L1603.14,5248.4A267.761,267.761,0,0,0,1469,5480.35V6663.52a267.838,267.838,0,0,0,134.14,231.96l1026.17,591.57a268.791,268.791,0,0,0,268.31,0l1026.26-591.57a267.847,267.847,0,0,0,134.15-231.96V5480.36a267.774,267.774,0,0,0-134.15-231.96L2897.62,4656.79A268.791,268.791,0,0,0,2629.31,4656.79Z" transform="translate(-1469 -4620.94)"/>
  <path id="Shape_1_copy_8" data-name="Shape 1 copy 8" class="cls-2" d="M3363.27,6422.65s1.41-560.35,1.89-692.3c0.21-58.56-38.39-89.54-110.1-136.04-116.95-71.43-262.21-157.62-581.97-350.32-47.17-24.11-82.25-1.69-82.25-1.69M2426.3,6087.9s363.32-193.75,353.75-196.61c-265.42-79.26-627.43-110.99-627.43-110.99l117.22,179.17Zm664.29,26.2s-363.33,193.75-353.75,196.6c265.42,79.26,626.42,110.99,626.42,110.99l-117.21-179.17Zm-937.5-333.99s-1.41,560.35-1.89,692.3c-0.21,58.56,38.39,89.54,110.1,136.04,116.95,71.42,262.21,157.61,581.98,350.31,47.16,24.12,82.24,1.7,82.24,1.7" transform="translate(-1469 -4620.94)"/>
</svg>
