<?xml version="1.0" encoding="UTF-8" standalone="no"?><!DOCTYPE svg PUBLIC "-//W3C//DTD SVG 1.1//EN" "http://www.w3.org/Graphics/SVG/1.1/DTD/svg11.dtd"><svg width="100%" height="100%" viewBox="0 0 27 26" version="1.1" xmlns="http://www.w3.org/2000/svg" xmlns:xlink="http://www.w3.org/1999/xlink" xml:space="preserve" style="fill-rule:evenodd;clip-rule:evenodd;stroke-linejoin:round;stroke-miterlimit:1.41421;"><path d="M13.658,5.116l-5.219,0l0,15.872l5.219,0l0,4.725c-0.011,0 -4.043,0.162 -6.39,-1.855c0.185,-0.169 0.326,-0.382 0.41,-0.618c0.084,-0.237 -0.29,-1.937 -4.12,-4.327c-0.45,0.247 -0.823,0.412 -0.823,0.412c0,0 -4.2,-5.4 0,-12.364l0.823,0.618c0,0 3.42,-2.184 4.12,-4.121l-0.2,-0.824c0,0 0.74,-1.855 6.18,-1.855l0,4.337Zm0,0l0,-4.337c5.43,0 6.18,1.855 6.18,1.855c0,0 -0.17,0.659 -0.21,0.824c0.7,1.937 4.12,4.121 4.12,4.121l0.83,-0.618c4.2,6.964 0,12.364 0,12.364c0,0 -0.38,-0.165 -0.83,-0.412c-3.83,2.39 -4.204,4.09 -4.12,4.327c0.084,0.236 0.225,0.449 0.41,0.618c-2.347,2.017 -6.369,1.855 -6.38,1.855l0,-4.725l1.477,0c0.985,0 1.843,-0.155 2.574,-0.465c0.731,-0.31 1.291,-0.711 1.68,-1.204c0.39,-0.492 0.676,-1.001 0.858,-1.525c0.183,-0.524 0.274,-1.049 0.274,-1.573c0,-1.7 -0.834,-2.883 -2.502,-3.551c1.239,-0.651 1.859,-1.732 1.859,-3.241c0,-1.16 -0.417,-2.169 -1.251,-3.027c-0.834,-0.857 -2.022,-1.286 -3.563,-1.286l-1.406,0Zm0,9.056l0,4.123l-2.24,0l0,-4.123l2.24,0Zm0,0l1.239,0c0.922,0 1.585,0.202 1.99,0.607c0.405,0.406 0.608,0.886 0.608,1.442c0,0.556 -0.203,1.041 -0.608,1.454c-0.405,0.413 -1.068,0.62 -1.99,0.62l-1.239,0l0,-4.123Zm0,-6.363l0,3.646l-2.24,0l0,-3.646l2.24,0Zm0,0l0.572,0c1.747,0 2.621,0.611 2.621,1.835c0,1.207 -0.874,1.811 -2.621,1.811l-0.572,0l0,-3.646Z" style="fill:#fff;"/></svg>