<?xml version="1.0" encoding="UTF-8" standalone="no"?><!DOCTYPE svg PUBLIC "-//W3C//DTD SVG 1.1//EN" "http://www.w3.org/Graphics/SVG/1.1/DTD/svg11.dtd"><svg width="100%" height="100%" viewBox="0 0 25 24" version="1.1" xmlns="http://www.w3.org/2000/svg" xmlns:xlink="http://www.w3.org/1999/xlink" xml:space="preserve" style="fill-rule:evenodd;clip-rule:evenodd;stroke-linejoin:round;stroke-miterlimit:1.41421;"><path d="M12.79,0.012c5.43,0 6.18,1.855 6.18,1.855c0,0 -0.17,0.659 -0.21,0.824c0.7,1.937 4.12,4.121 4.12,4.121l0.83,-0.618c4.2,6.964 0,12.364 0,12.364c0,0 -0.38,-0.165 -0.83,-0.412c-3.83,2.39 -4.204,4.091 -4.12,4.327c0.084,0.236 0.225,0.449 0.41,0.618c-2.347,2.017 -6.369,1.855 -6.38,1.855c-0.011,0 -4.043,0.162 -6.39,-1.855c0.185,-0.169 0.326,-0.382 0.41,-0.618c0.084,-0.236 -0.29,-1.937 -4.12,-4.327c-0.45,0.247 -0.823,0.412 -0.823,0.412c0,0 -4.2,-5.4 0,-12.364l0.823,0.618c0,0 3.42,-2.184 4.12,-4.121l-0.2,-0.824c0,0 0.74,-1.855 6.18,-1.855Z" style="fill:#fff;"/></svg>