<?xml version="1.0" encoding="UTF-8" standalone="no"?><!DOCTYPE svg PUBLIC "-//W3C//DTD SVG 1.1//EN" "http://www.w3.org/Graphics/SVG/1.1/DTD/svg11.dtd"><svg width="100%" height="100%" viewBox="0 0 26 25" version="1.1" xmlns="http://www.w3.org/2000/svg" xmlns:xlink="http://www.w3.org/1999/xlink" xml:space="preserve" style="fill-rule:evenodd;clip-rule:evenodd;stroke-linejoin:round;stroke-miterlimit:1.41421;"><g><path d="M12.79,24.946c0,0 -4.04,0.165 -6.39,-1.855c0.185,-0.169 0.326,-0.382 0.41,-0.618c0.084,-0.236 -0.29,-1.937 -4.12,-4.327c-0.45,0.247 -0.823,0.412 -0.823,0.412c0,0 -4.2,-5.4 0,-12.364l0.823,0.618c0,0 3.42,-2.184 4.12,-4.121l-0.2,-0.824c0,0 0.74,-1.855 6.18,-1.855l0,24.934Z" style="fill:#fff;"/><path d="M12.77,24.946c0,0 4.03,0.165 6.38,-1.855c-0.185,-0.169 -0.326,-0.382 -0.41,-0.618c-0.084,-0.236 0.29,-1.937 4.12,-4.327c0.45,0.247 0.83,0.412 0.83,0.412c0,0 4.2,-5.4 0,-12.364l-0.83,0.618c0,0 -3.42,-2.184 -4.12,-4.121c0.04,-0.165 0.21,-0.824 0.21,-0.824c0,0 -0.75,-1.855 -6.18,-1.855l0,24.934Z" style="fill:#fff;"/></g></svg>