<?xml version="1.0" encoding="UTF-8" standalone="no"?><!DOCTYPE svg PUBLIC "-//W3C//DTD SVG 1.1//EN" "http://www.w3.org/Graphics/SVG/1.1/DTD/svg11.dtd"><svg width="100%" height="100%" viewBox="0 0 27 26" version="1.1" xmlns="http://www.w3.org/2000/svg" xmlns:xlink="http://www.w3.org/1999/xlink" xml:space="preserve" style="fill-rule:evenodd;clip-rule:evenodd;stroke-linejoin:round;stroke-miterlimit:1.41421;"><path d="M13.658,4.415c-1.507,0.032 -2.799,0.506 -3.876,1.421c-1.117,0.949 -1.675,2.12 -1.675,3.514c0,1.158 0.39,2.116 1.171,2.871c0.781,0.756 2.078,1.344 3.892,1.763c0.17,0.039 0.332,0.079 0.488,0.119l0,4.541c-0.849,-0.003 -1.549,-0.259 -2.1,-0.768c-0.554,-0.512 -0.848,-1.297 -0.882,-2.355l-2.997,0.655c0.101,1.595 0.693,2.896 1.776,3.904c1.083,1.007 2.464,1.511 4.143,1.511c0.02,0 0.04,0 0.06,0l0,4.122c-0.011,0 -4.043,0.162 -6.39,-1.855c0.185,-0.169 0.326,-0.382 0.41,-0.618c0.084,-0.237 -0.29,-1.937 -4.12,-4.327c-0.45,0.247 -0.823,0.412 -0.823,0.412c0,0 -4.2,-5.4 0,-12.364l0.823,0.618c0,0 3.42,-2.184 4.12,-4.121l-0.2,-0.824c0,0 0.74,-1.855 6.18,-1.855l0,3.636Zm0,0l0,-3.636c5.43,0 6.18,1.855 6.18,1.855c0,0 -0.17,0.659 -0.21,0.824c0.7,1.937 4.12,4.121 4.12,4.121l0.83,-0.618c4.2,6.964 0,12.364 0,12.364c0,0 -0.38,-0.165 -0.83,-0.412c-3.83,2.39 -4.204,4.09 -4.12,4.327c0.084,0.236 0.225,0.449 0.41,0.618c-2.347,2.017 -6.369,1.855 -6.38,1.855l0,-4.122c1.687,-0.012 3.111,-0.515 4.272,-1.511c1.176,-1.008 1.763,-2.267 1.763,-3.778c0,-1.31 -0.411,-2.376 -1.234,-3.199c-0.823,-0.823 -2.191,-1.469 -4.105,-1.94c-0.249,-0.065 -0.481,-0.128 -0.696,-0.191l0,-3.611c0.03,-0.001 0.061,-0.001 0.091,-0.001c1.495,0 2.393,0.823 2.695,2.468l2.998,-0.654c-0.252,-1.461 -0.865,-2.62 -1.839,-3.476c-0.974,-0.857 -2.233,-1.285 -3.778,-1.285c-0.056,0 -0.112,0.001 -0.167,0.002Zm0,9.688c0.983,0.251 1.68,0.518 2.094,0.801c0.478,0.327 0.717,0.802 0.717,1.423c0,0.672 -0.26,1.226 -0.78,1.662c-0.521,0.437 -1.193,0.655 -2.015,0.655l-0.016,0l0,-4.541Zm0,-6.742l0,3.611c-0.787,-0.229 -1.348,-0.442 -1.685,-0.64c-0.428,-0.252 -0.642,-0.621 -0.642,-1.108c0,-0.537 0.231,-0.982 0.693,-1.335c0.441,-0.337 0.986,-0.513 1.634,-0.528Z" style="fill:#fff;"/></svg>