<svg id="Icon" xmlns="http://www.w3.org/2000/svg" width="421" height="109" viewBox="0 0 2221.636 575.198">
  <metadata><?xpacket begin="﻿" id="W5M0MpCehiHzreSzNTczkc9d"?>
<x:xmpmeta xmlns:x="adobe:ns:meta/" x:xmptk="Adobe XMP Core 5.6-c138 79.159824, 2016/09/14-01:09:01        ">
   <rdf:RDF xmlns:rdf="http://www.w3.org/1999/02/22-rdf-syntax-ns#">
      <rdf:Description rdf:about=""/>
   </rdf:RDF>
</x:xmpmeta>
                                                                                                    
                                                                                                    
                                                                                                    
                                                                                                    
                                                                                                    
                                                                                                    
                                                                                                    
                                                                                                    
                                                                                                    
                                                                                                    
                                                                                                    
                                                                                                    
                                                                                                    
                                                                                                    
                                                                                                    
                                                                                                    
                                                                                                    
                                                                                                    
                                                                                                    
                                                                                                    
                           
<?xpacket end="w"?></metadata>
<defs>
    <style>
      .cls-1 {
        fill: #66707a;
      }

      .cls-1, .cls-2 {
        fill-rule: evenodd;
      }

      .cls-2 {
        fill: none;
        stroke: #66707a;
        stroke-width: 11px;
      }
    </style>
  </defs>
  <path id="Shape_1_copy" data-name="Shape 1 copy" class="cls-1" d="M938,1052.81s8.417,4.48,8.6,4.36H1099.17l44.18-44.08-54.07-55.222Z" transform="translate(-910.682 -774.904)"/>
  <path id="Shape_1_copy_2" data-name="Shape 1 copy 2" class="cls-1" d="M938,1072.19s8.417-4.48,8.6-4.36H1099.17l44.18,44.08-54.07,55.22Z" transform="translate(-910.682 -774.904)"/>
  <path id="Shape_1_copy_3" data-name="Shape 1 copy 3" class="cls-1" d="M1210.19,801.888s-4.48,8.419-4.36,8.6v152.6l44.07,44.195,55.21-54.086Z" transform="translate(-910.682 -774.904)"/>
  <path id="Shape_1_copy_4" data-name="Shape 1 copy 4" class="cls-1" d="M1190.81,801.888s4.48,8.419,4.36,8.6v152.6l-44.07,44.195-55.21-54.086Z" transform="translate(-910.682 -774.904)"/>
  <path id="Shape_1_copy_5" data-name="Shape 1 copy 5" class="cls-1" d="M1463,1072.19s-8.42-4.48-8.6-4.36H1301.83l-44.18,44.08,54.07,55.22Z" transform="translate(-910.682 -774.904)"/>
  <path id="Shape_1_copy_6" data-name="Shape 1 copy 6" class="cls-1" d="M1463,1052.81s-8.42,4.48-8.6,4.36H1301.83l-44.18-44.08,54.07-55.222Z" transform="translate(-910.682 -774.904)"/>
  <path id="Shape_1_copy_7" data-name="Shape 1 copy 7" class="cls-1" d="M1190.81,1323.11s4.48-8.42,4.36-8.6v-152.6l-44.07-44.19-55.21,54.09Z" transform="translate(-910.682 -774.904)"/>
  <path id="Shape_1_copy_8" data-name="Shape 1 copy 8" class="cls-1" d="M1210.19,1323.11s-4.48-8.42-4.36-8.6v-152.6l44.07-44.19,55.21,54.09Z" transform="translate(-910.682 -774.904)"/>
  <path class="cls-2" d="M1200.02,996.134l66.83,66.846-66.83,66.85-66.84-66.85Z" transform="translate(-910.682 -774.904)"/>
  <path id="GENESIS" class="cls-1" d="M1647.88,1086.09v37.27q-8.04,2.01-24.37,2.01-22.815,0-30.3-12.39-7.5-12.39-7.49-44.97t7.94-44.63q7.935-12.06,29.4-12.06a375.065,375.065,0,0,1,48.53,3.58l0.89-19.644-7.82-1.562a250.62,250.62,0,0,0-44.28-4.464q-33.33,0-46.85,18.75t-13.53,59.7q0,40.95,13.19,60.14t48.08,19.19q8.28,0,26.73-1.78t24.48-3.35v-77.66h-43.6v21.87h19Zm273.05,58.47v-21.87h-71.79v-44.64h58.37v-21.42h-58.37v-43.3h71.79V991.685h-96.61V1144.56h96.61Zm172.63,0V1013.33h3.14l47.63,131.23h42.49V991.685h-24.83V1122.69h-3.35l-46.51-131.005h-43.39V1144.56h24.82Zm345.95,0v-21.87h-71.78v-44.64h58.36v-21.42h-58.36v-43.3h71.78V991.685H2342.9V1144.56h96.61Zm237.04-130.11,2.01-20.087-7.82-1.339q-23.49-4.017-40.7-4.017-23.94,0-37.46,10.6t-13.53,31.352q0,20.76,10.73,30.36t32.65,15.06q21.915,5.475,28.18,10.04t6.26,14.17q0,24.555-27.73,24.55-15.885,0-46.07-4.01l-2.46,19.86,8.06,1.56a222.867,222.867,0,0,0,42.04,4.46q23.7,0,37.45-11.94,13.755-11.925,13.76-36.04,0-18.96-9.4-27.78t-32.31-15.18q-22.92-6.36-29.63-10.71t-6.71-14.62q0-19.86,28.4-19.86,12.975,0,44.28,3.57h0Zm177.78,130.11V991.685h-24.82V1144.56h24.82Zm245.32-130.11,2.01-20.087-7.83-1.339q-23.475-4.017-40.7-4.017-23.925,0-37.45,10.6-13.545,10.608-13.53,31.352,0,20.76,10.73,30.36t32.65,15.06q21.915,5.475,28.18,10.04t6.26,14.17q0,24.555-27.73,24.55-15.885,0-46.07-4.01l-2.46,19.86,8.05,1.56a222.951,222.951,0,0,0,42.04,4.46q23.7,0,37.46-11.94,13.755-11.925,13.75-36.04,0-18.96-9.39-27.78t-32.31-15.18q-22.935-6.36-29.63-10.71-6.72-4.35-6.71-14.62,0-19.86,28.4-19.86,12.96,0,44.28,3.57h0Z" transform="translate(-910.682 -774.904)"/>
</svg>
