<svg xmlns="http://www.w3.org/2000/svg" viewBox="0 0 406.48 117.79">
    <defs>
        <style>.cls-1,.cls-2{fill:#7a7766;}.cls-1{fill-rule:evenodd;}</style>
    </defs>
    <title>Asset 1</title>
    <g id="Layer_2" data-name="Layer 2">
        <g id="Layer_1-2" data-name="Layer 1">
            <path class="cls-1" d="M60.39,0A60.39,60.39,0,0,0,41.3,117.69c3,.56,4.13-1.31,4.13-2.91,0-1.44-.06-6.2-.08-11.24C28.54,107.19,25,96.42,25,96.42c-2.75-7-6.7-8.84-6.7-8.84-5.48-3.75.41-3.67.41-3.67,6.06.43,9.26,6.22,9.26,6.22,5.39,9.23,14.13,6.56,17.57,5,.54-3.9,2.11-6.57,3.83-8.08C36,85.55,21.85,80.37,21.85,57.23A23.37,23.37,0,0,1,28.08,41c-.63-1.52-2.69-7.66.58-16,0,0,5.07-1.62,16.61,6.19a57.26,57.26,0,0,1,30.24,0C87,23.42,92.11,25,92.11,25c3.29,8.32,1.22,14.46.59,16a23.32,23.32,0,0,1,6.21,16.21c0,23.19-14.13,28.3-27.57,29.8,2.17,1.87,4.1,5.55,4.1,11.18,0,8.08-.07,14.58-.07,16.57,0,1.61,1.09,3.49,4.15,2.9A60.4,60.4,0,0,0,60.39,0Z"/>
            <path class="cls-2" d="M192.41,59.26H170.13a1,1,0,0,0-1,1V71.19a1,1,0,0,0,1,1h8.69V85.77s-2,.67-7.35.67c-6.37,0-15.26-2.33-15.26-21.88s9.26-22.13,18-22.13a35.24,35.24,0,0,1,12.83,2,1,1,0,0,0,1.25-1l2.49-10.53a1,1,0,0,0-.4-.81c-.84-.6-5.95-3.46-18.86-3.46-14.87,0-30.13,6.33-30.13,36.75s17.47,35,32.19,35c12.19,0,19.58-5.21,19.58-5.21a.89.89,0,0,0,.34-.79v-34A1,1,0,0,0,192.41,59.26Z"/>
            <path class="cls-2" d="M307.23,32.21a1,1,0,0,0-1-1H293.65a1,1,0,0,0-1,1V56.46H273.06V32.21a1,1,0,0,0-1-1H259.48a1,1,0,0,0-1,1V97.86a1,1,0,0,0,1,1.05H272a1,1,0,0,0,1-1.05V69.78h19.55l0,28.08a1,1,0,0,0,1,1.05H306.2a1,1,0,0,0,1-1.05Z"/>
            <ellipse class="cls-2" cx="207.99" cy="40.83" rx="8.09" ry="8.17"/>
            <path class="cls-2" d="M215.19,84V53.71a1,1,0,0,0-1-1H201.64a1.2,1.2,0,0,0-1.09,1.17V97.24c0,1.28.8,1.66,1.82,1.66h11.27c1.24,0,1.54-.61,1.54-1.68Z"/>
            <path class="cls-2" d="M354.91,52.76H342.46a1,1,0,0,0-1,1V86a14.06,14.06,0,0,1-7.65,2.31c-4.49,0-5.68-2-5.68-6.43V53.81a1,1,0,0,0-1-1H314.42a1,1,0,0,0-1,1V84c0,13.06,7.28,16.25,17.29,16.25a29.18,29.18,0,0,0,14.83-4.54,26.36,26.36,0,0,0,.46,2.67,1.1,1.1,0,0,0,.92.57l8,0a1,1,0,0,0,1-1V53.81A1,1,0,0,0,354.91,52.76Z"/>
            <path class="cls-2" d="M388.94,51.29a23.41,23.41,0,0,0-11.88,3.15V32.21a1,1,0,0,0-1-1H363.44a1,1,0,0,0-1,1V97.86a1,1,0,0,0,1,1.05h8.73a1,1,0,0,0,.91-.56,20.46,20.46,0,0,0,.53-3s5.14,4.88,14.88,4.88c11.43,0,18-5.8,18-26S396,51.29,388.94,51.29Zm-4.91,37a14.93,14.93,0,0,1-7.25-2.09V65.39a16.59,16.59,0,0,1,6.43-2.09c4.48-.4,8.8,1,8.8,11.65C392,86.23,390.07,88.46,384,88.27Z"/>
            <path class="cls-2" d="M251.24,52.66h-9.41V40.23c0-.47-.24-.71-.79-.71H228.21c-.5,0-.77.22-.77.7V53.07s-6.43,1.55-6.86,1.68a1,1,0,0,0-.75,1v8.07a1,1,0,0,0,1,1h6.57V84.29c0,14.43,10.12,15.84,16.95,15.84a28.63,28.63,0,0,0,7.47-1.23,1,1,0,0,0,.59-.94V89.08a1.06,1.06,0,0,0-1-1c-.55,0-2,.22-3.4.22-4.62,0-6.19-2.15-6.19-4.93s0-18.46,0-18.46h9.41a1,1,0,0,0,1-1V53.7A1,1,0,0,0,251.24,52.66Z"/>
        </g>
    </g>
</svg>
