<svg xmlns="http://www.w3.org/2000/svg" width="423.327" height="138" viewBox="0 0 966.5 315.068">
  <metadata><?xpacket begin="﻿" id="W5M0MpCehiHzreSzNTczkc9d"?>
<x:xmpmeta xmlns:x="adobe:ns:meta/" x:xmptk="Adobe XMP Core 5.6-c138 79.159824, 2016/09/14-01:09:01        ">
   <rdf:RDF xmlns:rdf="http://www.w3.org/1999/02/22-rdf-syntax-ns#">
      <rdf:Description rdf:about=""/>
   </rdf:RDF>
</x:xmpmeta>
                                                                                                    
                                                                                                    
                                                                                                    
                                                                                                    
                                                                                                    
                                                                                                    
                                                                                                    
                                                                                                    
                                                                                                    
                                                                                                    
                                                                                                    
                                                                                                    
                                                                                                    
                                                                                                    
                                                                                                    
                                                                                                    
                                                                                                    
                                                                                                    
                                                                                                    
                                                                                                    
                           
<?xpacket end="w"?></metadata>
<defs>
    <style>
      .cls-1 {
        fill: #66707a;
        fill-rule: evenodd;
      }
    </style>
  </defs>
  <path id="WARFRAME_MARKET" data-name="WARFRAME MARKET" class="cls-1" d="M707.1,311.609h23.453l12.008-58.082,12.007,58.082h23.453L792.6,235.215H776.333l-9.426,63.137h-1.684l-13.69-63.137H733.578l-13.69,63.137h-1.683l-9.427-63.137H692.507Zm102.9,0,3.029-13.819h26.708l3.03,13.819h15.486l-17.169-76.394h-29.4l-17.169,76.394H810Zm19.076-63.587,7.743,36.287H815.945l7.743-36.287h5.386Zm69.8,37.972,8.865,25.615h16.945L913.8,282.4q11.22-7.077,11.222-22.019,0-25.164-26.932-25.165H868.461v76.394h15.486V285.994h14.925Zm-0.561-13.256H883.947V248.472h14.14q5.387,0,8.248,3.258t2.861,8.762a13.8,13.8,0,0,1-2.693,8.876q-2.694,3.369-8.192,3.37h0Zm55.21,38.871V284.646h27.157V271.165H953.521V248.7h33.216V235.215h-48.7v76.394h15.486Zm74.509-25.615,8.87,25.615h16.94l-10.88-29.21q11.22-7.077,11.22-22.019,0-25.164-26.93-25.165H997.621v76.394h15.489V285.994h14.92Zm-0.56-13.256h-14.36V248.472h14.14q5.385,0,8.24,3.258a12.8,12.8,0,0,1,2.87,8.762,13.771,13.771,0,0,1-2.7,8.876q-2.685,3.369-8.19,3.37h0Zm47.92,38.871,3.03-13.819h26.7l3.03,13.819h15.49l-17.17-76.394h-29.4l-17.17,76.394h15.49Zm19.07-63.587,7.75,36.287h-20.87l7.74-36.287h5.38Zm54.88,63.587V252.516h1.68l14.93,55.722h15.48l14.93-55.722h1.68v59.093h15.49V235.215h-26.38l-13.46,55.723-13.47-55.723h-26.37v76.394h15.49Zm130.17,0V298.127h-33.89V279.816h27.15V266.559h-27.15V248.7h33.89V235.215h-49.38v76.394h49.38ZM714.165,407.765V348.672h1.683l14.925,55.722h15.486l14.925-55.722h1.683v59.093h15.486V331.371H751.982l-13.466,55.722L725.05,331.371H698.679v76.394h15.486Zm89.884,0,3.03-13.819h26.707l3.03,13.819H852.3l-17.169-76.394h-29.4l-17.169,76.394h15.486Zm19.077-63.587,7.743,36.287H810l7.743-36.287h5.387Zm69.8,37.972,8.865,25.615h16.944l-10.885-29.21q11.22-7.077,11.222-22.019,0-25.164-26.932-25.165H862.513v76.394H878V382.15h14.925Zm-0.562-13.256H878V344.628h14.139q5.386,0,8.248,3.258t2.862,8.762a13.792,13.792,0,0,1-2.694,8.876q-2.692,3.369-8.192,3.37h0Zm55.211,9.549L957.9,377.32l12.792,30.445h17.843L971.475,369.68l16.608-38.309H970.465L957.9,363.838l-10.324,1.124V331.371H932.087v76.394h15.486V378.443Zm100.437,29.322V394.283h-33.89V375.971h27.15V362.715h-27.15V344.852h33.89V331.371H998.63v76.394h49.38Zm26.36-62.688v62.688h15.49V345.077h20.2V331.371h-56.11v13.706h20.42Z" transform="translate(-313 -155.966)"/>
  <path id="Logo" class="cls-1" d="M411.371,366.7s-38.128-34.321-28.6-87.519c16.014-8.2,65.2-35.466,79.5-50.339,6.863-8.2,10.676-12.394,16.014-24.6-0.191,13.347,0,50.91,0,50.91s-20.323,12.84-40.607,24.6c-15.774,9.143-31.015,17.721-33.743,20.592C400.54,303.752,378.771,320.174,411.371,366.7Zm-37.747,30.318s-13.154-3.547-18.874-4c-8.807-20.936-21.469-48.092-26.308-54.914-5.377-7.58-7.189-12.075-15.442-17.161,9.98-.786,8.09-0.281,19.445-1.716,18.162-3.159,25.394-7.665,36.032-14.872,0.457,6.521.228,10.41,2.287,16.016-6.977,3.776-23.22,10.983-26.88,17.161C347.773,353.084,350.061,367.385,373.624,397.016Zm17.73-13.157s-7.349-1.527-9.723-1.716c-3.656-8.659-13.434-29.212-15.442-32.033a33.724,33.724,0,0,0-9.151-8.584c4.143-.326,3.358-0.116,8.072-0.71,7.539-1.307,9.4-1.454,13.812-4.435,0.19,2.7,3.57,6.262,4.425,8.58-2.9,1.562-7.06,3.166-8.579,5.721A95.334,95.334,0,0,0,391.354,383.859ZM544.629,366.7s38.128-34.321,28.6-87.519c-16.014-8.2-65.2-35.466-79.5-50.339-6.863-8.2-10.676-12.394-16.014-24.6,0.191,13.347,0,50.91,0,50.91s20.323,12.84,40.607,24.6c15.774,9.143,31.015,17.721,33.743,20.592C555.46,303.752,577.229,320.174,544.629,366.7Zm37.747,30.318s13.154-3.547,18.874-4c8.807-20.936,21.469-48.092,26.308-54.914,5.377-7.58,7.189-12.075,15.442-17.161-9.98-.786-8.09-0.281-19.445-1.716-18.162-3.159-25.394-7.665-36.032-14.872-0.457,6.521-.228,10.41-2.287,16.016,6.977,3.776,23.22,10.983,26.88,17.161C608.227,353.084,605.939,367.385,582.376,397.016Zm-17.73-13.157s7.349-1.527,9.723-1.716c3.656-8.659,13.434-29.212,15.442-32.033a33.724,33.724,0,0,1,9.151-8.584c-4.143-.326-3.358-0.116-8.072-0.71-7.539-1.307-9.4-1.454-13.812-4.435-0.19,2.7-3.57,6.262-4.425,8.58,2.9,1.562,7.06,3.166,8.579,5.721A95.334,95.334,0,0,1,564.646,383.859Zm-133.83-69.215-5.147-4.576s15.728-21.737,50.9-21.737,47.565,20.211,47.47,20.021,5.719-5.72,5.719-5.72v24.6S513.459,295.2,476.57,295.2C452.835,295.386,441.4,304.252,430.816,314.644Zm93.8,81.8,5.147,4.576s-15.728,21.737-50.9,21.737-47.565-20.212-47.47-20.021-5.719,5.72-5.719,5.72v-24.6s16.3,32.033,53.189,32.033C502.593,415.7,514.031,406.835,524.612,396.444Zm-74.207-57.077,2.082,1.562s8.643-5.52,10.414-10.415c-0.1-.417-0.521-2.083-0.521-2.083s1.874-4.687,15.62-4.687v63.011s-10.2.417-16.141-4.686a3.973,3.973,0,0,0,1.042-1.563s-0.729-4.895-10.414-10.936c-1.145.625-2.082,1.042-2.082,1.042S439.783,356.968,450.405,339.367Zm55.19,0-2.082,1.562s-8.643-5.52-10.414-10.415c0.1-.417.521-2.083,0.521-2.083s-1.874-4.687-15.62-4.687v63.011s10.2,0.417,16.141-4.686a3.973,3.973,0,0,1-1.042-1.563s0.729-4.895,10.414-10.936c1.145,0.625,2.082,1.042,2.082,1.042S516.217,356.968,505.6,339.367Z" transform="translate(-313 -155.966)"/>
</svg>
